G04 #@! TF.FileFunction,Copper,L2,Bot,Signal*
%FSLAX46Y46*%
G04 Gerber Fmt 4.6, Leading zero omitted, Abs format (unit mm)*
G04 Created by KiCad (PCBNEW 4.0.0-rc1-stable) date 11/15/2015 9:58:47 PM*
%MOMM*%
G01*
G04 APERTURE LIST*
%ADD10C,0.100000*%
%ADD11R,1.727200X1.727200*%
%ADD12O,1.727200X1.727200*%
%ADD13R,1.300000X1.300000*%
%ADD14C,1.300000*%
%ADD15C,1.346200*%
%ADD16C,1.107440*%
%ADD17C,1.501140*%
%ADD18C,1.524000*%
%ADD19C,1.998980*%
%ADD20R,3.500120X3.500120*%
%ADD21R,1.727200X2.032000*%
%ADD22O,1.727200X2.032000*%
%ADD23C,2.100000*%
%ADD24C,1.750000*%
%ADD25C,4.064000*%
%ADD26C,0.600000*%
%ADD27C,0.381000*%
%ADD28C,0.250000*%
%ADD29C,0.254000*%
G04 APERTURE END LIST*
D10*
D11*
X98806000Y-94996000D03*
D12*
X98806000Y-97536000D03*
X96266000Y-94996000D03*
X96266000Y-97536000D03*
X93726000Y-94996000D03*
X93726000Y-97536000D03*
D13*
X44831000Y-99060000D03*
D14*
X44831000Y-101560000D03*
D13*
X114681000Y-98552000D03*
D14*
X112181000Y-98552000D03*
D13*
X116586000Y-98552000D03*
D14*
X119086000Y-98552000D03*
D13*
X96901000Y-90805000D03*
D14*
X94401000Y-90805000D03*
D15*
X55892700Y-74589640D03*
X45707300Y-74589640D03*
X44655740Y-77360780D03*
X45013880Y-80299560D03*
X46695360Y-82737960D03*
X49319180Y-84114640D03*
X52280820Y-84114640D03*
X54904640Y-82737960D03*
X56586120Y-80299560D03*
X56944260Y-77360780D03*
X50800000Y-71917560D03*
X53675280Y-72626220D03*
X47924720Y-72626220D03*
X74307700Y-74589640D03*
X64122300Y-74589640D03*
X63070740Y-77360780D03*
X63428880Y-80299560D03*
X65110360Y-82737960D03*
X67734180Y-84114640D03*
X70695820Y-84114640D03*
X73319640Y-82737960D03*
X75001120Y-80299560D03*
X75359260Y-77360780D03*
X69215000Y-71917560D03*
X72090280Y-72626220D03*
X66339720Y-72626220D03*
X100977700Y-74589640D03*
X90792300Y-74589640D03*
X89740740Y-77360780D03*
X90098880Y-80299560D03*
X91780360Y-82737960D03*
X94404180Y-84114640D03*
X97365820Y-84114640D03*
X99989640Y-82737960D03*
X101671120Y-80299560D03*
X102029260Y-77360780D03*
X95885000Y-71917560D03*
X98760280Y-72626220D03*
X93009720Y-72626220D03*
D16*
X84137500Y-80010000D03*
X80962500Y-80010000D03*
D15*
X119392700Y-74589640D03*
X109207300Y-74589640D03*
X108155740Y-77360780D03*
X108513880Y-80299560D03*
X110195360Y-82737960D03*
X112819180Y-84114640D03*
X115780820Y-84114640D03*
X118404640Y-82737960D03*
X120086120Y-80299560D03*
X120444260Y-77360780D03*
X114300000Y-71917560D03*
X117175280Y-72626220D03*
X111424720Y-72626220D03*
X146062700Y-74589640D03*
X135877300Y-74589640D03*
X134825740Y-77360780D03*
X135183880Y-80299560D03*
X136865360Y-82737960D03*
X139489180Y-84114640D03*
X142450820Y-84114640D03*
X145074640Y-82737960D03*
X146756120Y-80299560D03*
X147114260Y-77360780D03*
X140970000Y-71917560D03*
X143845280Y-72626220D03*
X138094720Y-72626220D03*
X164477700Y-74589640D03*
X154292300Y-74589640D03*
X153240740Y-77360780D03*
X153598880Y-80299560D03*
X155280360Y-82737960D03*
X157904180Y-84114640D03*
X160865820Y-84114640D03*
X163489640Y-82737960D03*
X165171120Y-80299560D03*
X165529260Y-77360780D03*
X159385000Y-71917560D03*
X162260280Y-72626220D03*
X156509720Y-72626220D03*
D16*
X129222500Y-80010000D03*
X126047500Y-80010000D03*
D17*
X114300000Y-94007940D03*
X114300000Y-89126060D03*
D18*
X140843000Y-98298000D03*
X140843000Y-95758000D03*
X140843000Y-100838000D03*
D19*
X103505000Y-74254360D03*
X103505000Y-69253100D03*
X80304640Y-74930000D03*
X85305900Y-74930000D03*
X65405000Y-96941640D03*
X65405000Y-101942900D03*
X58420000Y-74254360D03*
X58420000Y-69253100D03*
X61595000Y-74254360D03*
X61595000Y-69253100D03*
X151765000Y-74254360D03*
X151765000Y-69253100D03*
X125262640Y-74930000D03*
X130263900Y-74930000D03*
X60452000Y-96941640D03*
X60452000Y-101942900D03*
X106680000Y-74254360D03*
X106680000Y-69253100D03*
X148590000Y-74254360D03*
X148590000Y-69253100D03*
D20*
X154581860Y-98806000D03*
X160581340Y-98806000D03*
X157581600Y-94107000D03*
D21*
X167640000Y-69469000D03*
D22*
X165100000Y-69469000D03*
X162560000Y-69469000D03*
D23*
X144227000Y-96062000D03*
D24*
X145487000Y-98552000D03*
X149987000Y-98552000D03*
D23*
X151237000Y-96062000D03*
X40939000Y-71705000D03*
D24*
X39679000Y-69215000D03*
X35179000Y-69215000D03*
D23*
X33929000Y-71705000D03*
X30652000Y-71705000D03*
D24*
X29392000Y-69215000D03*
X24892000Y-69215000D03*
D23*
X23642000Y-71705000D03*
D25*
X77597000Y-70739000D03*
X132588000Y-70612000D03*
X166497000Y-91313000D03*
X25400000Y-100584000D03*
D19*
X117942360Y-101092000D03*
X112941100Y-101092000D03*
D13*
X136906000Y-100965000D03*
D14*
X136906000Y-98465000D03*
D26*
X85725000Y-96393000D03*
X132080000Y-96393000D03*
X82550000Y-101346000D03*
X125857000Y-101092000D03*
X79375000Y-101346000D03*
X108693000Y-94380000D03*
X85852000Y-98044000D03*
X132334000Y-101219000D03*
X111633000Y-96139000D03*
X127508000Y-101219000D03*
X81026000Y-101346000D03*
X110236000Y-101981000D03*
X108839000Y-86995000D03*
X108077000Y-87630000D03*
X107188000Y-86995000D03*
X106426000Y-87630000D03*
X53721000Y-89916000D03*
X104013000Y-90932000D03*
X106426000Y-99441000D03*
X84963000Y-101346000D03*
X107188000Y-100965000D03*
X128270000Y-98425000D03*
X81788000Y-98298000D03*
X108077000Y-97028000D03*
X84201000Y-98552000D03*
X130683000Y-101219000D03*
X108839000Y-99441000D03*
X131445000Y-101981000D03*
X77851000Y-101346000D03*
D27*
X80962500Y-80010000D02*
X80962500Y-92646500D01*
X84709000Y-96393000D02*
X85725000Y-96393000D01*
X80962500Y-92646500D02*
X84709000Y-96393000D01*
X126047500Y-80010000D02*
X126047500Y-91376500D01*
X131064000Y-96393000D02*
X132080000Y-96393000D01*
X126047500Y-91376500D02*
X131064000Y-96393000D01*
X136906000Y-100965000D02*
X140716000Y-100965000D01*
X140716000Y-100965000D02*
X140843000Y-100838000D01*
X65405000Y-96941640D02*
X67096640Y-96941640D01*
X134366000Y-103632000D02*
X137033000Y-100965000D01*
X73787000Y-103632000D02*
X134366000Y-103632000D01*
X67096640Y-96941640D02*
X73787000Y-103632000D01*
D28*
X108693000Y-94380000D02*
X108712000Y-94361000D01*
X111633000Y-96139000D02*
X105791000Y-96139000D01*
X86741000Y-98933000D02*
X85852000Y-98044000D01*
X102997000Y-98933000D02*
X86741000Y-98933000D01*
X105791000Y-96139000D02*
X102997000Y-98933000D01*
X111633000Y-96139000D02*
X128270000Y-96139000D01*
X132334000Y-100203000D02*
X132334000Y-101219000D01*
X128270000Y-96139000D02*
X132334000Y-100203000D01*
X109474000Y-102616000D02*
X126111000Y-102616000D01*
X126111000Y-102616000D02*
X127508000Y-101219000D01*
X82296000Y-102616000D02*
X81026000Y-101346000D01*
X109601000Y-102616000D02*
X109474000Y-102616000D01*
X109474000Y-102616000D02*
X82296000Y-102616000D01*
X110236000Y-101981000D02*
X109601000Y-102616000D01*
X148082000Y-100584000D02*
X150114000Y-98552000D01*
X145415000Y-100584000D02*
X148082000Y-100584000D01*
X144526000Y-99695000D02*
X145415000Y-100584000D01*
X133096000Y-99695000D02*
X144526000Y-99695000D01*
X119380000Y-85979000D02*
X133096000Y-99695000D01*
X109855000Y-85979000D02*
X119380000Y-85979000D01*
X108839000Y-86995000D02*
X109855000Y-85979000D01*
X35179000Y-69215000D02*
X35179000Y-69723000D01*
X35179000Y-69723000D02*
X39116000Y-73660000D01*
X39116000Y-73660000D02*
X41656000Y-73660000D01*
X41656000Y-73660000D02*
X44577000Y-70739000D01*
X44577000Y-70739000D02*
X73533000Y-70739000D01*
X73533000Y-70739000D02*
X80264000Y-77470000D01*
X80264000Y-77470000D02*
X84963000Y-77470000D01*
X84963000Y-77470000D02*
X87122000Y-79629000D01*
X87122000Y-79629000D02*
X87122000Y-82677000D01*
X87122000Y-82677000D02*
X90424000Y-85979000D01*
X90424000Y-85979000D02*
X107696000Y-85979000D01*
X107696000Y-85979000D02*
X108077000Y-86360000D01*
X108077000Y-86360000D02*
X108077000Y-87630000D01*
X24892000Y-69215000D02*
X25146000Y-69215000D01*
X25146000Y-69215000D02*
X29591000Y-73660000D01*
X29591000Y-73660000D02*
X34544000Y-73660000D01*
X34544000Y-73660000D02*
X46990000Y-86106000D01*
X46990000Y-86106000D02*
X72136000Y-86106000D01*
X72136000Y-86106000D02*
X80264000Y-77978000D01*
X80264000Y-77978000D02*
X84709000Y-77978000D01*
X84709000Y-77978000D02*
X86614000Y-79883000D01*
X86614000Y-79883000D02*
X86614000Y-82931000D01*
X86614000Y-82931000D02*
X90170000Y-86487000D01*
X90170000Y-86487000D02*
X106934000Y-86487000D01*
X106934000Y-86487000D02*
X107188000Y-86741000D01*
X107188000Y-86741000D02*
X107188000Y-86995000D01*
X105791000Y-86995000D02*
X106426000Y-87630000D01*
X89916000Y-86995000D02*
X105791000Y-86995000D01*
X86106000Y-83185000D02*
X89916000Y-86995000D01*
X86106000Y-80011398D02*
X86106000Y-83185000D01*
X84580602Y-78486000D02*
X86106000Y-80011398D01*
X80645000Y-78486000D02*
X84580602Y-78486000D01*
X72517000Y-86614000D02*
X80645000Y-78486000D01*
X57023000Y-86614000D02*
X72517000Y-86614000D01*
X53721000Y-89916000D02*
X57023000Y-86614000D01*
X97536000Y-96266000D02*
X96266000Y-97536000D01*
X103759000Y-96266000D02*
X97536000Y-96266000D01*
X104013000Y-96012000D02*
X103759000Y-96266000D01*
X104013000Y-90932000D02*
X104013000Y-96012000D01*
X112941100Y-101092000D02*
X109474000Y-101092000D01*
X107823000Y-99441000D02*
X106426000Y-99441000D01*
X109474000Y-101092000D02*
X107823000Y-99441000D01*
X106807000Y-101346000D02*
X84963000Y-101346000D01*
X107188000Y-100965000D02*
X106807000Y-101346000D01*
X108077000Y-97028000D02*
X126873000Y-97028000D01*
X126873000Y-97028000D02*
X128270000Y-98425000D01*
X108077000Y-97028000D02*
X105791000Y-97028000D01*
X82423000Y-97663000D02*
X81788000Y-98298000D01*
X84328000Y-97663000D02*
X82423000Y-97663000D01*
X86106000Y-99441000D02*
X84328000Y-97663000D01*
X103378000Y-99441000D02*
X86106000Y-99441000D01*
X105791000Y-97028000D02*
X103378000Y-99441000D01*
X108839000Y-97917000D02*
X105664000Y-97917000D01*
X85598000Y-99949000D02*
X84201000Y-98552000D01*
X103632000Y-99949000D02*
X85598000Y-99949000D01*
X105664000Y-97917000D02*
X103632000Y-99949000D01*
X129794000Y-101219000D02*
X130683000Y-101219000D01*
X126111000Y-97536000D02*
X129794000Y-101219000D01*
X109220000Y-97536000D02*
X126111000Y-97536000D01*
X108839000Y-97917000D02*
X109220000Y-97536000D01*
X108839000Y-99441000D02*
X108839000Y-97917000D01*
X131445000Y-102108000D02*
X131445000Y-101981000D01*
X130436502Y-103116498D02*
X131445000Y-102108000D01*
X79621498Y-103116498D02*
X130436502Y-103116498D01*
X77851000Y-101346000D02*
X79621498Y-103116498D01*
D29*
G36*
X29143399Y-74107596D02*
X29143401Y-74107599D01*
X29348761Y-74244816D01*
X29591000Y-74293000D01*
X34281802Y-74293000D01*
X46542401Y-86553599D01*
X46747761Y-86690816D01*
X46990000Y-86739001D01*
X46990005Y-86739000D01*
X56002803Y-86739000D01*
X53633879Y-89107923D01*
X53560984Y-89107860D01*
X53263903Y-89230611D01*
X53036410Y-89457707D01*
X52913140Y-89754574D01*
X52912860Y-90076016D01*
X53035611Y-90373097D01*
X53262707Y-90600590D01*
X53559574Y-90723860D01*
X53881016Y-90724140D01*
X54178097Y-90601389D01*
X54405590Y-90374293D01*
X54528860Y-90077426D01*
X54528925Y-90003273D01*
X57285197Y-87247000D01*
X72516995Y-87247000D01*
X72517000Y-87247001D01*
X72759239Y-87198816D01*
X72964599Y-87061599D01*
X79900679Y-80125518D01*
X79900596Y-80220263D01*
X80061893Y-80610630D01*
X80264000Y-80813090D01*
X80264000Y-92646500D01*
X80317170Y-92913805D01*
X80468586Y-93140414D01*
X84215086Y-96886914D01*
X84441695Y-97038330D01*
X84709000Y-97091500D01*
X85300206Y-97091500D01*
X85563574Y-97200860D01*
X85885016Y-97201140D01*
X86182097Y-97078389D01*
X86409590Y-96851293D01*
X86532860Y-96554426D01*
X86533140Y-96232984D01*
X86410389Y-95935903D01*
X86183293Y-95708410D01*
X85886426Y-95585140D01*
X85564984Y-95584860D01*
X85299634Y-95694500D01*
X84998328Y-95694500D01*
X81661000Y-92357172D01*
X81661000Y-91704016D01*
X93681590Y-91704016D01*
X93737271Y-91934611D01*
X94220078Y-92102622D01*
X94730428Y-92073083D01*
X95064729Y-91934611D01*
X95120410Y-91704016D01*
X94401000Y-90984605D01*
X93681590Y-91704016D01*
X81661000Y-91704016D01*
X81661000Y-90624078D01*
X93103378Y-90624078D01*
X93132917Y-91134428D01*
X93271389Y-91468729D01*
X93501984Y-91524410D01*
X94221395Y-90805000D01*
X94580605Y-90805000D01*
X95300016Y-91524410D01*
X95530611Y-91468729D01*
X95698622Y-90985922D01*
X95669083Y-90475572D01*
X95536298Y-90155000D01*
X95733048Y-90155000D01*
X95733048Y-91455000D01*
X95768470Y-91643253D01*
X95879728Y-91816153D01*
X96049488Y-91932145D01*
X96251000Y-91972952D01*
X97551000Y-91972952D01*
X97739253Y-91937530D01*
X97912153Y-91826272D01*
X98028145Y-91656512D01*
X98068952Y-91455000D01*
X98068952Y-90155000D01*
X98033530Y-89966747D01*
X97922272Y-89793847D01*
X97752512Y-89677855D01*
X97551000Y-89637048D01*
X96251000Y-89637048D01*
X96062747Y-89672470D01*
X95889847Y-89783728D01*
X95773855Y-89953488D01*
X95733048Y-90155000D01*
X95536298Y-90155000D01*
X95530611Y-90141271D01*
X95300016Y-90085590D01*
X94580605Y-90805000D01*
X94221395Y-90805000D01*
X93501984Y-90085590D01*
X93271389Y-90141271D01*
X93103378Y-90624078D01*
X81661000Y-90624078D01*
X81661000Y-89905984D01*
X93681590Y-89905984D01*
X94401000Y-90625395D01*
X95120410Y-89905984D01*
X95064729Y-89675389D01*
X94581922Y-89507378D01*
X94071572Y-89536917D01*
X93737271Y-89675389D01*
X93681590Y-89905984D01*
X81661000Y-89905984D01*
X81661000Y-89375307D01*
X113041212Y-89375307D01*
X113232414Y-89838051D01*
X113586146Y-90192402D01*
X114048557Y-90384411D01*
X114549247Y-90384848D01*
X115011991Y-90193646D01*
X115366342Y-89839914D01*
X115558351Y-89377503D01*
X115558788Y-88876813D01*
X115367586Y-88414069D01*
X115013854Y-88059718D01*
X114551443Y-87867709D01*
X114050753Y-87867272D01*
X113588009Y-88058474D01*
X113233658Y-88412206D01*
X113041649Y-88874617D01*
X113041212Y-89375307D01*
X81661000Y-89375307D01*
X81661000Y-80812908D01*
X81862057Y-80612201D01*
X82024035Y-80222116D01*
X82024404Y-79799737D01*
X81863107Y-79409370D01*
X81573243Y-79119000D01*
X83527246Y-79119000D01*
X83237943Y-79407799D01*
X83075965Y-79797884D01*
X83075596Y-80220263D01*
X83236893Y-80610630D01*
X83535299Y-80909557D01*
X83925384Y-81071535D01*
X84347763Y-81071904D01*
X84738130Y-80910607D01*
X85037057Y-80612201D01*
X85199035Y-80222116D01*
X85199229Y-79999824D01*
X85473000Y-80273595D01*
X85473000Y-83184995D01*
X85472999Y-83185000D01*
X85521184Y-83427239D01*
X85658401Y-83632599D01*
X89468399Y-87442596D01*
X89468401Y-87442599D01*
X89673761Y-87579816D01*
X89713952Y-87587810D01*
X89916000Y-87628001D01*
X89916005Y-87628000D01*
X105528802Y-87628000D01*
X105617923Y-87717121D01*
X105617860Y-87790016D01*
X105740611Y-88087097D01*
X105967707Y-88314590D01*
X106264574Y-88437860D01*
X106586016Y-88438140D01*
X106883097Y-88315389D01*
X107110590Y-88088293D01*
X107229039Y-87803036D01*
X107274256Y-87803076D01*
X107391611Y-88087097D01*
X107618707Y-88314590D01*
X107915574Y-88437860D01*
X108237016Y-88438140D01*
X108534097Y-88315389D01*
X108761590Y-88088293D01*
X108880039Y-87803036D01*
X108999016Y-87803140D01*
X109296097Y-87680389D01*
X109523590Y-87453293D01*
X109646860Y-87156426D01*
X109646925Y-87082273D01*
X110117198Y-86612000D01*
X119117802Y-86612000D01*
X128011803Y-95506000D01*
X112142793Y-95506000D01*
X112091293Y-95454410D01*
X111794426Y-95331140D01*
X111472984Y-95330860D01*
X111175903Y-95453611D01*
X111123422Y-95506000D01*
X105791005Y-95506000D01*
X105791000Y-95505999D01*
X105588952Y-95546190D01*
X105548761Y-95554184D01*
X105343401Y-95691401D01*
X105343399Y-95691404D01*
X102734802Y-98300000D01*
X99931379Y-98300000D01*
X100073193Y-98087760D01*
X100177600Y-97562871D01*
X100177600Y-97509129D01*
X100073193Y-96984240D01*
X100016238Y-96899000D01*
X103758995Y-96899000D01*
X103759000Y-96899001D01*
X104001239Y-96850816D01*
X104206599Y-96713599D01*
X104460596Y-96459601D01*
X104460599Y-96459599D01*
X104597816Y-96254239D01*
X104646000Y-96012000D01*
X104646000Y-94257187D01*
X113041212Y-94257187D01*
X113232414Y-94719931D01*
X113586146Y-95074282D01*
X114048557Y-95266291D01*
X114549247Y-95266728D01*
X115011991Y-95075526D01*
X115366342Y-94721794D01*
X115558351Y-94259383D01*
X115558788Y-93758693D01*
X115367586Y-93295949D01*
X115013854Y-92941598D01*
X114551443Y-92749589D01*
X114050753Y-92749152D01*
X113588009Y-92940354D01*
X113233658Y-93294086D01*
X113041649Y-93756497D01*
X113041212Y-94257187D01*
X104646000Y-94257187D01*
X104646000Y-91441793D01*
X104697590Y-91390293D01*
X104820860Y-91093426D01*
X104821140Y-90771984D01*
X104698389Y-90474903D01*
X104471293Y-90247410D01*
X104174426Y-90124140D01*
X103852984Y-90123860D01*
X103555903Y-90246611D01*
X103328410Y-90473707D01*
X103205140Y-90770574D01*
X103204860Y-91092016D01*
X103327611Y-91389097D01*
X103380000Y-91441578D01*
X103380000Y-95633000D01*
X100187552Y-95633000D01*
X100187552Y-94132400D01*
X100152130Y-93944147D01*
X100040872Y-93771247D01*
X99871112Y-93655255D01*
X99669600Y-93614448D01*
X97942400Y-93614448D01*
X97754147Y-93649870D01*
X97581247Y-93761128D01*
X97465255Y-93930888D01*
X97424448Y-94132400D01*
X97424448Y-94281491D01*
X97235868Y-93999261D01*
X96790889Y-93701936D01*
X96266000Y-93597529D01*
X95741111Y-93701936D01*
X95296132Y-93999261D01*
X94998807Y-94444240D01*
X94996000Y-94458352D01*
X94993193Y-94444240D01*
X94695868Y-93999261D01*
X94250889Y-93701936D01*
X93726000Y-93597529D01*
X93201111Y-93701936D01*
X92756132Y-93999261D01*
X92458807Y-94444240D01*
X92354400Y-94969129D01*
X92354400Y-95022871D01*
X92458807Y-95547760D01*
X92756132Y-95992739D01*
X93071466Y-96203438D01*
X92951053Y-96253312D01*
X92519179Y-96647510D01*
X92271032Y-97176973D01*
X92391531Y-97409000D01*
X93599000Y-97409000D01*
X93599000Y-97389000D01*
X93853000Y-97389000D01*
X93853000Y-97409000D01*
X93873000Y-97409000D01*
X93873000Y-97663000D01*
X93853000Y-97663000D01*
X93853000Y-97683000D01*
X93599000Y-97683000D01*
X93599000Y-97663000D01*
X92391531Y-97663000D01*
X92271032Y-97895027D01*
X92460833Y-98300000D01*
X87003197Y-98300000D01*
X86660077Y-97956879D01*
X86660140Y-97883984D01*
X86537389Y-97586903D01*
X86310293Y-97359410D01*
X86013426Y-97236140D01*
X85691984Y-97235860D01*
X85394903Y-97358611D01*
X85167410Y-97585707D01*
X85161100Y-97600902D01*
X84775599Y-97215401D01*
X84570239Y-97078184D01*
X84328000Y-97029999D01*
X84327995Y-97030000D01*
X82423005Y-97030000D01*
X82423000Y-97029999D01*
X82220952Y-97070190D01*
X82180761Y-97078184D01*
X81975401Y-97215401D01*
X81975399Y-97215404D01*
X81700879Y-97489923D01*
X81627984Y-97489860D01*
X81330903Y-97612611D01*
X81103410Y-97839707D01*
X80980140Y-98136574D01*
X80979860Y-98458016D01*
X81102611Y-98755097D01*
X81329707Y-98982590D01*
X81626574Y-99105860D01*
X81948016Y-99106140D01*
X82245097Y-98983389D01*
X82472590Y-98756293D01*
X82595860Y-98459426D01*
X82595925Y-98385273D01*
X82685197Y-98296000D01*
X83432411Y-98296000D01*
X83393140Y-98390574D01*
X83392860Y-98712016D01*
X83515611Y-99009097D01*
X83742707Y-99236590D01*
X84039574Y-99359860D01*
X84113727Y-99359925D01*
X85150399Y-100396596D01*
X85150401Y-100396599D01*
X85355761Y-100533816D01*
X85598000Y-100582000D01*
X103631995Y-100582000D01*
X103632000Y-100582001D01*
X103874239Y-100533816D01*
X104079599Y-100396599D01*
X105926198Y-98550000D01*
X108206000Y-98550000D01*
X108206000Y-98931207D01*
X108194580Y-98942607D01*
X108065239Y-98856184D01*
X107823000Y-98807999D01*
X107822995Y-98808000D01*
X106935793Y-98808000D01*
X106884293Y-98756410D01*
X106587426Y-98633140D01*
X106265984Y-98632860D01*
X105968903Y-98755611D01*
X105741410Y-98982707D01*
X105618140Y-99279574D01*
X105617860Y-99601016D01*
X105740611Y-99898097D01*
X105967707Y-100125590D01*
X106264574Y-100248860D01*
X106586016Y-100249140D01*
X106883097Y-100126389D01*
X106935578Y-100074000D01*
X107560802Y-100074000D01*
X109026399Y-101539596D01*
X109026401Y-101539599D01*
X109231761Y-101676816D01*
X109271952Y-101684810D01*
X109467913Y-101723790D01*
X109428140Y-101819574D01*
X109428075Y-101893727D01*
X109338802Y-101983000D01*
X85468571Y-101983000D01*
X85472578Y-101979000D01*
X106806995Y-101979000D01*
X106807000Y-101979001D01*
X107049239Y-101930816D01*
X107254599Y-101793599D01*
X107275121Y-101773077D01*
X107348016Y-101773140D01*
X107645097Y-101650389D01*
X107872590Y-101423293D01*
X107995860Y-101126426D01*
X107996140Y-100804984D01*
X107873389Y-100507903D01*
X107646293Y-100280410D01*
X107349426Y-100157140D01*
X107027984Y-100156860D01*
X106730903Y-100279611D01*
X106503410Y-100506707D01*
X106417750Y-100713000D01*
X85472793Y-100713000D01*
X85421293Y-100661410D01*
X85124426Y-100538140D01*
X84802984Y-100537860D01*
X84505903Y-100660611D01*
X84278410Y-100887707D01*
X84155140Y-101184574D01*
X84154860Y-101506016D01*
X84277611Y-101803097D01*
X84457200Y-101983000D01*
X82558197Y-101983000D01*
X81834077Y-101258879D01*
X81834140Y-101185984D01*
X81711389Y-100888903D01*
X81484293Y-100661410D01*
X81187426Y-100538140D01*
X80865984Y-100537860D01*
X80568903Y-100660611D01*
X80341410Y-100887707D01*
X80218140Y-101184574D01*
X80217860Y-101506016D01*
X80340611Y-101803097D01*
X80567707Y-102030590D01*
X80864574Y-102153860D01*
X80938727Y-102153925D01*
X81268301Y-102483498D01*
X79883695Y-102483498D01*
X78659077Y-101258879D01*
X78659140Y-101185984D01*
X78536389Y-100888903D01*
X78309293Y-100661410D01*
X78012426Y-100538140D01*
X77690984Y-100537860D01*
X77393903Y-100660611D01*
X77166410Y-100887707D01*
X77043140Y-101184574D01*
X77042860Y-101506016D01*
X77165611Y-101803097D01*
X77392707Y-102030590D01*
X77689574Y-102153860D01*
X77763727Y-102153925D01*
X78543303Y-102933500D01*
X74076328Y-102933500D01*
X67590554Y-96447726D01*
X67363945Y-96296310D01*
X67096640Y-96243140D01*
X66747492Y-96243140D01*
X66683733Y-96088831D01*
X66260039Y-95664398D01*
X65706174Y-95434413D01*
X65106457Y-95433889D01*
X64552191Y-95662907D01*
X64127758Y-96086601D01*
X63897773Y-96640466D01*
X63897249Y-97240183D01*
X64126267Y-97794449D01*
X64549961Y-98218882D01*
X65103826Y-98448867D01*
X65703543Y-98449391D01*
X66257809Y-98220373D01*
X66682242Y-97796679D01*
X66747243Y-97640140D01*
X66807312Y-97640140D01*
X72597172Y-103430000D01*
X65753522Y-103430000D01*
X66257809Y-103221633D01*
X66682242Y-102797939D01*
X66912227Y-102244074D01*
X66912751Y-101644357D01*
X66683733Y-101090091D01*
X66260039Y-100665658D01*
X65706174Y-100435673D01*
X65106457Y-100435149D01*
X64552191Y-100664167D01*
X64127758Y-101087861D01*
X63897773Y-101641726D01*
X63897249Y-102241443D01*
X64126267Y-102795709D01*
X64549961Y-103220142D01*
X65055355Y-103430000D01*
X60800522Y-103430000D01*
X61304809Y-103221633D01*
X61729242Y-102797939D01*
X61959227Y-102244074D01*
X61959751Y-101644357D01*
X61730733Y-101090091D01*
X61307039Y-100665658D01*
X60753174Y-100435673D01*
X60153457Y-100435149D01*
X59599191Y-100664167D01*
X59174758Y-101087861D01*
X58944773Y-101641726D01*
X58944249Y-102241443D01*
X59173267Y-102795709D01*
X59596961Y-103220142D01*
X60102355Y-103430000D01*
X22427000Y-103430000D01*
X22427000Y-101087021D01*
X22859560Y-101087021D01*
X23245437Y-102020915D01*
X23959327Y-102736052D01*
X24892546Y-103123559D01*
X25903021Y-103124440D01*
X26836915Y-102738563D01*
X27116950Y-102459016D01*
X44111590Y-102459016D01*
X44167271Y-102689611D01*
X44650078Y-102857622D01*
X45160428Y-102828083D01*
X45494729Y-102689611D01*
X45550410Y-102459016D01*
X44831000Y-101739605D01*
X44111590Y-102459016D01*
X27116950Y-102459016D01*
X27552052Y-102024673D01*
X27820126Y-101379078D01*
X43533378Y-101379078D01*
X43562917Y-101889428D01*
X43701389Y-102223729D01*
X43931984Y-102279410D01*
X44651395Y-101560000D01*
X45010605Y-101560000D01*
X45730016Y-102279410D01*
X45960611Y-102223729D01*
X46128622Y-101740922D01*
X46099083Y-101230572D01*
X45960611Y-100896271D01*
X45730016Y-100840590D01*
X45010605Y-101560000D01*
X44651395Y-101560000D01*
X43931984Y-100840590D01*
X43701389Y-100896271D01*
X43533378Y-101379078D01*
X27820126Y-101379078D01*
X27939559Y-101091454D01*
X27939934Y-100660984D01*
X44111590Y-100660984D01*
X44831000Y-101380395D01*
X45550410Y-100660984D01*
X45494729Y-100430389D01*
X45011922Y-100262378D01*
X44501572Y-100291917D01*
X44167271Y-100430389D01*
X44111590Y-100660984D01*
X27939934Y-100660984D01*
X27940440Y-100080979D01*
X27554563Y-99147085D01*
X26840673Y-98431948D01*
X26787817Y-98410000D01*
X43663048Y-98410000D01*
X43663048Y-99710000D01*
X43698470Y-99898253D01*
X43809728Y-100071153D01*
X43979488Y-100187145D01*
X44181000Y-100227952D01*
X45481000Y-100227952D01*
X45669253Y-100192530D01*
X45842153Y-100081272D01*
X45958145Y-99911512D01*
X45998952Y-99710000D01*
X45998952Y-98410000D01*
X45963530Y-98221747D01*
X45852272Y-98048847D01*
X45682512Y-97932855D01*
X45481000Y-97892048D01*
X44181000Y-97892048D01*
X43992747Y-97927470D01*
X43819847Y-98038728D01*
X43703855Y-98208488D01*
X43663048Y-98410000D01*
X26787817Y-98410000D01*
X25907454Y-98044441D01*
X24896979Y-98043560D01*
X23963085Y-98429437D01*
X23247948Y-99143327D01*
X22860441Y-100076546D01*
X22859560Y-101087021D01*
X22427000Y-101087021D01*
X22427000Y-97240183D01*
X58944249Y-97240183D01*
X59173267Y-97794449D01*
X59596961Y-98218882D01*
X60150826Y-98448867D01*
X60750543Y-98449391D01*
X61304809Y-98220373D01*
X61729242Y-97796679D01*
X61959227Y-97242814D01*
X61959751Y-96643097D01*
X61730733Y-96088831D01*
X61307039Y-95664398D01*
X60753174Y-95434413D01*
X60153457Y-95433889D01*
X59599191Y-95662907D01*
X59174758Y-96086601D01*
X58944773Y-96640466D01*
X58944249Y-97240183D01*
X22427000Y-97240183D01*
X22427000Y-72693147D01*
X22758312Y-73025038D01*
X23330735Y-73262729D01*
X23950546Y-73263270D01*
X24523383Y-73026578D01*
X24962038Y-72588688D01*
X25199729Y-72016265D01*
X25200270Y-71396454D01*
X24963578Y-70823617D01*
X24738222Y-70597867D01*
X25165889Y-70598240D01*
X25497162Y-70461360D01*
X29143399Y-74107596D01*
X29143399Y-74107596D01*
G37*
X29143399Y-74107596D02*
X29143401Y-74107599D01*
X29348761Y-74244816D01*
X29591000Y-74293000D01*
X34281802Y-74293000D01*
X46542401Y-86553599D01*
X46747761Y-86690816D01*
X46990000Y-86739001D01*
X46990005Y-86739000D01*
X56002803Y-86739000D01*
X53633879Y-89107923D01*
X53560984Y-89107860D01*
X53263903Y-89230611D01*
X53036410Y-89457707D01*
X52913140Y-89754574D01*
X52912860Y-90076016D01*
X53035611Y-90373097D01*
X53262707Y-90600590D01*
X53559574Y-90723860D01*
X53881016Y-90724140D01*
X54178097Y-90601389D01*
X54405590Y-90374293D01*
X54528860Y-90077426D01*
X54528925Y-90003273D01*
X57285197Y-87247000D01*
X72516995Y-87247000D01*
X72517000Y-87247001D01*
X72759239Y-87198816D01*
X72964599Y-87061599D01*
X79900679Y-80125518D01*
X79900596Y-80220263D01*
X80061893Y-80610630D01*
X80264000Y-80813090D01*
X80264000Y-92646500D01*
X80317170Y-92913805D01*
X80468586Y-93140414D01*
X84215086Y-96886914D01*
X84441695Y-97038330D01*
X84709000Y-97091500D01*
X85300206Y-97091500D01*
X85563574Y-97200860D01*
X85885016Y-97201140D01*
X86182097Y-97078389D01*
X86409590Y-96851293D01*
X86532860Y-96554426D01*
X86533140Y-96232984D01*
X86410389Y-95935903D01*
X86183293Y-95708410D01*
X85886426Y-95585140D01*
X85564984Y-95584860D01*
X85299634Y-95694500D01*
X84998328Y-95694500D01*
X81661000Y-92357172D01*
X81661000Y-91704016D01*
X93681590Y-91704016D01*
X93737271Y-91934611D01*
X94220078Y-92102622D01*
X94730428Y-92073083D01*
X95064729Y-91934611D01*
X95120410Y-91704016D01*
X94401000Y-90984605D01*
X93681590Y-91704016D01*
X81661000Y-91704016D01*
X81661000Y-90624078D01*
X93103378Y-90624078D01*
X93132917Y-91134428D01*
X93271389Y-91468729D01*
X93501984Y-91524410D01*
X94221395Y-90805000D01*
X94580605Y-90805000D01*
X95300016Y-91524410D01*
X95530611Y-91468729D01*
X95698622Y-90985922D01*
X95669083Y-90475572D01*
X95536298Y-90155000D01*
X95733048Y-90155000D01*
X95733048Y-91455000D01*
X95768470Y-91643253D01*
X95879728Y-91816153D01*
X96049488Y-91932145D01*
X96251000Y-91972952D01*
X97551000Y-91972952D01*
X97739253Y-91937530D01*
X97912153Y-91826272D01*
X98028145Y-91656512D01*
X98068952Y-91455000D01*
X98068952Y-90155000D01*
X98033530Y-89966747D01*
X97922272Y-89793847D01*
X97752512Y-89677855D01*
X97551000Y-89637048D01*
X96251000Y-89637048D01*
X96062747Y-89672470D01*
X95889847Y-89783728D01*
X95773855Y-89953488D01*
X95733048Y-90155000D01*
X95536298Y-90155000D01*
X95530611Y-90141271D01*
X95300016Y-90085590D01*
X94580605Y-90805000D01*
X94221395Y-90805000D01*
X93501984Y-90085590D01*
X93271389Y-90141271D01*
X93103378Y-90624078D01*
X81661000Y-90624078D01*
X81661000Y-89905984D01*
X93681590Y-89905984D01*
X94401000Y-90625395D01*
X95120410Y-89905984D01*
X95064729Y-89675389D01*
X94581922Y-89507378D01*
X94071572Y-89536917D01*
X93737271Y-89675389D01*
X93681590Y-89905984D01*
X81661000Y-89905984D01*
X81661000Y-89375307D01*
X113041212Y-89375307D01*
X113232414Y-89838051D01*
X113586146Y-90192402D01*
X114048557Y-90384411D01*
X114549247Y-90384848D01*
X115011991Y-90193646D01*
X115366342Y-89839914D01*
X115558351Y-89377503D01*
X115558788Y-88876813D01*
X115367586Y-88414069D01*
X115013854Y-88059718D01*
X114551443Y-87867709D01*
X114050753Y-87867272D01*
X113588009Y-88058474D01*
X113233658Y-88412206D01*
X113041649Y-88874617D01*
X113041212Y-89375307D01*
X81661000Y-89375307D01*
X81661000Y-80812908D01*
X81862057Y-80612201D01*
X82024035Y-80222116D01*
X82024404Y-79799737D01*
X81863107Y-79409370D01*
X81573243Y-79119000D01*
X83527246Y-79119000D01*
X83237943Y-79407799D01*
X83075965Y-79797884D01*
X83075596Y-80220263D01*
X83236893Y-80610630D01*
X83535299Y-80909557D01*
X83925384Y-81071535D01*
X84347763Y-81071904D01*
X84738130Y-80910607D01*
X85037057Y-80612201D01*
X85199035Y-80222116D01*
X85199229Y-79999824D01*
X85473000Y-80273595D01*
X85473000Y-83184995D01*
X85472999Y-83185000D01*
X85521184Y-83427239D01*
X85658401Y-83632599D01*
X89468399Y-87442596D01*
X89468401Y-87442599D01*
X89673761Y-87579816D01*
X89713952Y-87587810D01*
X89916000Y-87628001D01*
X89916005Y-87628000D01*
X105528802Y-87628000D01*
X105617923Y-87717121D01*
X105617860Y-87790016D01*
X105740611Y-88087097D01*
X105967707Y-88314590D01*
X106264574Y-88437860D01*
X106586016Y-88438140D01*
X106883097Y-88315389D01*
X107110590Y-88088293D01*
X107229039Y-87803036D01*
X107274256Y-87803076D01*
X107391611Y-88087097D01*
X107618707Y-88314590D01*
X107915574Y-88437860D01*
X108237016Y-88438140D01*
X108534097Y-88315389D01*
X108761590Y-88088293D01*
X108880039Y-87803036D01*
X108999016Y-87803140D01*
X109296097Y-87680389D01*
X109523590Y-87453293D01*
X109646860Y-87156426D01*
X109646925Y-87082273D01*
X110117198Y-86612000D01*
X119117802Y-86612000D01*
X128011803Y-95506000D01*
X112142793Y-95506000D01*
X112091293Y-95454410D01*
X111794426Y-95331140D01*
X111472984Y-95330860D01*
X111175903Y-95453611D01*
X111123422Y-95506000D01*
X105791005Y-95506000D01*
X105791000Y-95505999D01*
X105588952Y-95546190D01*
X105548761Y-95554184D01*
X105343401Y-95691401D01*
X105343399Y-95691404D01*
X102734802Y-98300000D01*
X99931379Y-98300000D01*
X100073193Y-98087760D01*
X100177600Y-97562871D01*
X100177600Y-97509129D01*
X100073193Y-96984240D01*
X100016238Y-96899000D01*
X103758995Y-96899000D01*
X103759000Y-96899001D01*
X104001239Y-96850816D01*
X104206599Y-96713599D01*
X104460596Y-96459601D01*
X104460599Y-96459599D01*
X104597816Y-96254239D01*
X104646000Y-96012000D01*
X104646000Y-94257187D01*
X113041212Y-94257187D01*
X113232414Y-94719931D01*
X113586146Y-95074282D01*
X114048557Y-95266291D01*
X114549247Y-95266728D01*
X115011991Y-95075526D01*
X115366342Y-94721794D01*
X115558351Y-94259383D01*
X115558788Y-93758693D01*
X115367586Y-93295949D01*
X115013854Y-92941598D01*
X114551443Y-92749589D01*
X114050753Y-92749152D01*
X113588009Y-92940354D01*
X113233658Y-93294086D01*
X113041649Y-93756497D01*
X113041212Y-94257187D01*
X104646000Y-94257187D01*
X104646000Y-91441793D01*
X104697590Y-91390293D01*
X104820860Y-91093426D01*
X104821140Y-90771984D01*
X104698389Y-90474903D01*
X104471293Y-90247410D01*
X104174426Y-90124140D01*
X103852984Y-90123860D01*
X103555903Y-90246611D01*
X103328410Y-90473707D01*
X103205140Y-90770574D01*
X103204860Y-91092016D01*
X103327611Y-91389097D01*
X103380000Y-91441578D01*
X103380000Y-95633000D01*
X100187552Y-95633000D01*
X100187552Y-94132400D01*
X100152130Y-93944147D01*
X100040872Y-93771247D01*
X99871112Y-93655255D01*
X99669600Y-93614448D01*
X97942400Y-93614448D01*
X97754147Y-93649870D01*
X97581247Y-93761128D01*
X97465255Y-93930888D01*
X97424448Y-94132400D01*
X97424448Y-94281491D01*
X97235868Y-93999261D01*
X96790889Y-93701936D01*
X96266000Y-93597529D01*
X95741111Y-93701936D01*
X95296132Y-93999261D01*
X94998807Y-94444240D01*
X94996000Y-94458352D01*
X94993193Y-94444240D01*
X94695868Y-93999261D01*
X94250889Y-93701936D01*
X93726000Y-93597529D01*
X93201111Y-93701936D01*
X92756132Y-93999261D01*
X92458807Y-94444240D01*
X92354400Y-94969129D01*
X92354400Y-95022871D01*
X92458807Y-95547760D01*
X92756132Y-95992739D01*
X93071466Y-96203438D01*
X92951053Y-96253312D01*
X92519179Y-96647510D01*
X92271032Y-97176973D01*
X92391531Y-97409000D01*
X93599000Y-97409000D01*
X93599000Y-97389000D01*
X93853000Y-97389000D01*
X93853000Y-97409000D01*
X93873000Y-97409000D01*
X93873000Y-97663000D01*
X93853000Y-97663000D01*
X93853000Y-97683000D01*
X93599000Y-97683000D01*
X93599000Y-97663000D01*
X92391531Y-97663000D01*
X92271032Y-97895027D01*
X92460833Y-98300000D01*
X87003197Y-98300000D01*
X86660077Y-97956879D01*
X86660140Y-97883984D01*
X86537389Y-97586903D01*
X86310293Y-97359410D01*
X86013426Y-97236140D01*
X85691984Y-97235860D01*
X85394903Y-97358611D01*
X85167410Y-97585707D01*
X85161100Y-97600902D01*
X84775599Y-97215401D01*
X84570239Y-97078184D01*
X84328000Y-97029999D01*
X84327995Y-97030000D01*
X82423005Y-97030000D01*
X82423000Y-97029999D01*
X82220952Y-97070190D01*
X82180761Y-97078184D01*
X81975401Y-97215401D01*
X81975399Y-97215404D01*
X81700879Y-97489923D01*
X81627984Y-97489860D01*
X81330903Y-97612611D01*
X81103410Y-97839707D01*
X80980140Y-98136574D01*
X80979860Y-98458016D01*
X81102611Y-98755097D01*
X81329707Y-98982590D01*
X81626574Y-99105860D01*
X81948016Y-99106140D01*
X82245097Y-98983389D01*
X82472590Y-98756293D01*
X82595860Y-98459426D01*
X82595925Y-98385273D01*
X82685197Y-98296000D01*
X83432411Y-98296000D01*
X83393140Y-98390574D01*
X83392860Y-98712016D01*
X83515611Y-99009097D01*
X83742707Y-99236590D01*
X84039574Y-99359860D01*
X84113727Y-99359925D01*
X85150399Y-100396596D01*
X85150401Y-100396599D01*
X85355761Y-100533816D01*
X85598000Y-100582000D01*
X103631995Y-100582000D01*
X103632000Y-100582001D01*
X103874239Y-100533816D01*
X104079599Y-100396599D01*
X105926198Y-98550000D01*
X108206000Y-98550000D01*
X108206000Y-98931207D01*
X108194580Y-98942607D01*
X108065239Y-98856184D01*
X107823000Y-98807999D01*
X107822995Y-98808000D01*
X106935793Y-98808000D01*
X106884293Y-98756410D01*
X106587426Y-98633140D01*
X106265984Y-98632860D01*
X105968903Y-98755611D01*
X105741410Y-98982707D01*
X105618140Y-99279574D01*
X105617860Y-99601016D01*
X105740611Y-99898097D01*
X105967707Y-100125590D01*
X106264574Y-100248860D01*
X106586016Y-100249140D01*
X106883097Y-100126389D01*
X106935578Y-100074000D01*
X107560802Y-100074000D01*
X109026399Y-101539596D01*
X109026401Y-101539599D01*
X109231761Y-101676816D01*
X109271952Y-101684810D01*
X109467913Y-101723790D01*
X109428140Y-101819574D01*
X109428075Y-101893727D01*
X109338802Y-101983000D01*
X85468571Y-101983000D01*
X85472578Y-101979000D01*
X106806995Y-101979000D01*
X106807000Y-101979001D01*
X107049239Y-101930816D01*
X107254599Y-101793599D01*
X107275121Y-101773077D01*
X107348016Y-101773140D01*
X107645097Y-101650389D01*
X107872590Y-101423293D01*
X107995860Y-101126426D01*
X107996140Y-100804984D01*
X107873389Y-100507903D01*
X107646293Y-100280410D01*
X107349426Y-100157140D01*
X107027984Y-100156860D01*
X106730903Y-100279611D01*
X106503410Y-100506707D01*
X106417750Y-100713000D01*
X85472793Y-100713000D01*
X85421293Y-100661410D01*
X85124426Y-100538140D01*
X84802984Y-100537860D01*
X84505903Y-100660611D01*
X84278410Y-100887707D01*
X84155140Y-101184574D01*
X84154860Y-101506016D01*
X84277611Y-101803097D01*
X84457200Y-101983000D01*
X82558197Y-101983000D01*
X81834077Y-101258879D01*
X81834140Y-101185984D01*
X81711389Y-100888903D01*
X81484293Y-100661410D01*
X81187426Y-100538140D01*
X80865984Y-100537860D01*
X80568903Y-100660611D01*
X80341410Y-100887707D01*
X80218140Y-101184574D01*
X80217860Y-101506016D01*
X80340611Y-101803097D01*
X80567707Y-102030590D01*
X80864574Y-102153860D01*
X80938727Y-102153925D01*
X81268301Y-102483498D01*
X79883695Y-102483498D01*
X78659077Y-101258879D01*
X78659140Y-101185984D01*
X78536389Y-100888903D01*
X78309293Y-100661410D01*
X78012426Y-100538140D01*
X77690984Y-100537860D01*
X77393903Y-100660611D01*
X77166410Y-100887707D01*
X77043140Y-101184574D01*
X77042860Y-101506016D01*
X77165611Y-101803097D01*
X77392707Y-102030590D01*
X77689574Y-102153860D01*
X77763727Y-102153925D01*
X78543303Y-102933500D01*
X74076328Y-102933500D01*
X67590554Y-96447726D01*
X67363945Y-96296310D01*
X67096640Y-96243140D01*
X66747492Y-96243140D01*
X66683733Y-96088831D01*
X66260039Y-95664398D01*
X65706174Y-95434413D01*
X65106457Y-95433889D01*
X64552191Y-95662907D01*
X64127758Y-96086601D01*
X63897773Y-96640466D01*
X63897249Y-97240183D01*
X64126267Y-97794449D01*
X64549961Y-98218882D01*
X65103826Y-98448867D01*
X65703543Y-98449391D01*
X66257809Y-98220373D01*
X66682242Y-97796679D01*
X66747243Y-97640140D01*
X66807312Y-97640140D01*
X72597172Y-103430000D01*
X65753522Y-103430000D01*
X66257809Y-103221633D01*
X66682242Y-102797939D01*
X66912227Y-102244074D01*
X66912751Y-101644357D01*
X66683733Y-101090091D01*
X66260039Y-100665658D01*
X65706174Y-100435673D01*
X65106457Y-100435149D01*
X64552191Y-100664167D01*
X64127758Y-101087861D01*
X63897773Y-101641726D01*
X63897249Y-102241443D01*
X64126267Y-102795709D01*
X64549961Y-103220142D01*
X65055355Y-103430000D01*
X60800522Y-103430000D01*
X61304809Y-103221633D01*
X61729242Y-102797939D01*
X61959227Y-102244074D01*
X61959751Y-101644357D01*
X61730733Y-101090091D01*
X61307039Y-100665658D01*
X60753174Y-100435673D01*
X60153457Y-100435149D01*
X59599191Y-100664167D01*
X59174758Y-101087861D01*
X58944773Y-101641726D01*
X58944249Y-102241443D01*
X59173267Y-102795709D01*
X59596961Y-103220142D01*
X60102355Y-103430000D01*
X22427000Y-103430000D01*
X22427000Y-101087021D01*
X22859560Y-101087021D01*
X23245437Y-102020915D01*
X23959327Y-102736052D01*
X24892546Y-103123559D01*
X25903021Y-103124440D01*
X26836915Y-102738563D01*
X27116950Y-102459016D01*
X44111590Y-102459016D01*
X44167271Y-102689611D01*
X44650078Y-102857622D01*
X45160428Y-102828083D01*
X45494729Y-102689611D01*
X45550410Y-102459016D01*
X44831000Y-101739605D01*
X44111590Y-102459016D01*
X27116950Y-102459016D01*
X27552052Y-102024673D01*
X27820126Y-101379078D01*
X43533378Y-101379078D01*
X43562917Y-101889428D01*
X43701389Y-102223729D01*
X43931984Y-102279410D01*
X44651395Y-101560000D01*
X45010605Y-101560000D01*
X45730016Y-102279410D01*
X45960611Y-102223729D01*
X46128622Y-101740922D01*
X46099083Y-101230572D01*
X45960611Y-100896271D01*
X45730016Y-100840590D01*
X45010605Y-101560000D01*
X44651395Y-101560000D01*
X43931984Y-100840590D01*
X43701389Y-100896271D01*
X43533378Y-101379078D01*
X27820126Y-101379078D01*
X27939559Y-101091454D01*
X27939934Y-100660984D01*
X44111590Y-100660984D01*
X44831000Y-101380395D01*
X45550410Y-100660984D01*
X45494729Y-100430389D01*
X45011922Y-100262378D01*
X44501572Y-100291917D01*
X44167271Y-100430389D01*
X44111590Y-100660984D01*
X27939934Y-100660984D01*
X27940440Y-100080979D01*
X27554563Y-99147085D01*
X26840673Y-98431948D01*
X26787817Y-98410000D01*
X43663048Y-98410000D01*
X43663048Y-99710000D01*
X43698470Y-99898253D01*
X43809728Y-100071153D01*
X43979488Y-100187145D01*
X44181000Y-100227952D01*
X45481000Y-100227952D01*
X45669253Y-100192530D01*
X45842153Y-100081272D01*
X45958145Y-99911512D01*
X45998952Y-99710000D01*
X45998952Y-98410000D01*
X45963530Y-98221747D01*
X45852272Y-98048847D01*
X45682512Y-97932855D01*
X45481000Y-97892048D01*
X44181000Y-97892048D01*
X43992747Y-97927470D01*
X43819847Y-98038728D01*
X43703855Y-98208488D01*
X43663048Y-98410000D01*
X26787817Y-98410000D01*
X25907454Y-98044441D01*
X24896979Y-98043560D01*
X23963085Y-98429437D01*
X23247948Y-99143327D01*
X22860441Y-100076546D01*
X22859560Y-101087021D01*
X22427000Y-101087021D01*
X22427000Y-97240183D01*
X58944249Y-97240183D01*
X59173267Y-97794449D01*
X59596961Y-98218882D01*
X60150826Y-98448867D01*
X60750543Y-98449391D01*
X61304809Y-98220373D01*
X61729242Y-97796679D01*
X61959227Y-97242814D01*
X61959751Y-96643097D01*
X61730733Y-96088831D01*
X61307039Y-95664398D01*
X60753174Y-95434413D01*
X60153457Y-95433889D01*
X59599191Y-95662907D01*
X59174758Y-96086601D01*
X58944773Y-96640466D01*
X58944249Y-97240183D01*
X22427000Y-97240183D01*
X22427000Y-72693147D01*
X22758312Y-73025038D01*
X23330735Y-73262729D01*
X23950546Y-73263270D01*
X24523383Y-73026578D01*
X24962038Y-72588688D01*
X25199729Y-72016265D01*
X25200270Y-71396454D01*
X24963578Y-70823617D01*
X24738222Y-70597867D01*
X25165889Y-70598240D01*
X25497162Y-70461360D01*
X29143399Y-74107596D01*
G36*
X169343000Y-103430000D02*
X135555828Y-103430000D01*
X136852876Y-102132952D01*
X137556000Y-102132952D01*
X137744253Y-102097530D01*
X137917153Y-101986272D01*
X138033145Y-101816512D01*
X138064131Y-101663500D01*
X139872573Y-101663500D01*
X140122663Y-101914026D01*
X140589273Y-102107779D01*
X141094510Y-102108220D01*
X141561458Y-101915282D01*
X141919026Y-101558337D01*
X142112779Y-101091727D01*
X142113220Y-100586490D01*
X142006415Y-100328000D01*
X144263802Y-100328000D01*
X144967399Y-101031596D01*
X144967401Y-101031599D01*
X145172761Y-101168816D01*
X145212952Y-101176810D01*
X145415000Y-101217001D01*
X145415005Y-101217000D01*
X148081995Y-101217000D01*
X148082000Y-101217001D01*
X148324239Y-101168816D01*
X148529599Y-101031599D01*
X149651160Y-99910038D01*
X149710697Y-99934760D01*
X150260889Y-99935240D01*
X150769383Y-99725134D01*
X151158767Y-99336430D01*
X151369760Y-98828303D01*
X151370240Y-98278111D01*
X151160134Y-97769617D01*
X151010582Y-97619803D01*
X151545546Y-97620270D01*
X152118383Y-97383578D01*
X152313848Y-97188454D01*
X152313848Y-100556060D01*
X152349270Y-100744313D01*
X152460528Y-100917213D01*
X152630288Y-101033205D01*
X152831800Y-101074012D01*
X156331920Y-101074012D01*
X156520173Y-101038590D01*
X156693073Y-100927332D01*
X156809065Y-100757572D01*
X156849872Y-100556060D01*
X156849872Y-99091750D01*
X158196280Y-99091750D01*
X158196280Y-100682370D01*
X158292953Y-100915759D01*
X158471582Y-101094387D01*
X158704971Y-101191060D01*
X160295590Y-101191060D01*
X160454340Y-101032310D01*
X160454340Y-98933000D01*
X160708340Y-98933000D01*
X160708340Y-101032310D01*
X160867090Y-101191060D01*
X162457709Y-101191060D01*
X162691098Y-101094387D01*
X162869727Y-100915759D01*
X162966400Y-100682370D01*
X162966400Y-99091750D01*
X162807650Y-98933000D01*
X160708340Y-98933000D01*
X160454340Y-98933000D01*
X158355030Y-98933000D01*
X158196280Y-99091750D01*
X156849872Y-99091750D01*
X156849872Y-97055940D01*
X156814450Y-96867687D01*
X156703192Y-96694787D01*
X156533432Y-96578795D01*
X156331920Y-96537988D01*
X152831800Y-96537988D01*
X152717391Y-96559515D01*
X152794729Y-96373265D01*
X152795270Y-95753454D01*
X152558578Y-95180617D01*
X152120688Y-94741962D01*
X151548265Y-94504271D01*
X150928454Y-94503730D01*
X150355617Y-94740422D01*
X149916962Y-95178312D01*
X149679271Y-95750735D01*
X149678730Y-96370546D01*
X149915422Y-96943383D01*
X150140778Y-97169133D01*
X149713111Y-97168760D01*
X149204617Y-97378866D01*
X148815233Y-97767570D01*
X148604240Y-98275697D01*
X148603760Y-98825889D01*
X148703507Y-99067295D01*
X147819802Y-99951000D01*
X146085622Y-99951000D01*
X146286116Y-99867953D01*
X146369455Y-99614060D01*
X145487000Y-98731605D01*
X145472858Y-98745748D01*
X145293253Y-98566143D01*
X145307395Y-98552000D01*
X145666605Y-98552000D01*
X146549060Y-99434455D01*
X146802953Y-99351116D01*
X147008590Y-98786694D01*
X146982579Y-98186542D01*
X146802953Y-97752884D01*
X146549060Y-97669545D01*
X145666605Y-98552000D01*
X145307395Y-98552000D01*
X145293253Y-98537858D01*
X145472858Y-98358253D01*
X145487000Y-98372395D01*
X146369455Y-97489940D01*
X146286116Y-97236047D01*
X145721694Y-97030410D01*
X145450389Y-97042169D01*
X145547038Y-96945688D01*
X145784729Y-96373265D01*
X145785270Y-95753454D01*
X145548578Y-95180617D01*
X145110688Y-94741962D01*
X144538265Y-94504271D01*
X143918454Y-94503730D01*
X143345617Y-94740422D01*
X142906962Y-95178312D01*
X142669271Y-95750735D01*
X142668730Y-96370546D01*
X142905422Y-96943383D01*
X143343312Y-97382038D01*
X143915735Y-97619729D01*
X144375522Y-97620130D01*
X144424938Y-97669546D01*
X144171047Y-97752884D01*
X143965410Y-98317306D01*
X143991421Y-98917458D01*
X144051292Y-99062000D01*
X141950844Y-99062000D01*
X142065397Y-99029143D01*
X142252144Y-98505698D01*
X142224362Y-97950632D01*
X142065397Y-97566857D01*
X141823213Y-97497392D01*
X141022605Y-98298000D01*
X141036748Y-98312143D01*
X140857143Y-98491748D01*
X140843000Y-98477605D01*
X140828858Y-98491748D01*
X140649253Y-98312143D01*
X140663395Y-98298000D01*
X139862787Y-97497392D01*
X139620603Y-97566857D01*
X139433856Y-98090302D01*
X139461638Y-98645368D01*
X139620603Y-99029143D01*
X139735156Y-99062000D01*
X138058832Y-99062000D01*
X138203622Y-98645922D01*
X138174083Y-98135572D01*
X138035611Y-97801271D01*
X137805016Y-97745590D01*
X137085605Y-98465000D01*
X137099748Y-98479142D01*
X136920142Y-98658748D01*
X136906000Y-98644605D01*
X136891858Y-98658748D01*
X136712252Y-98479142D01*
X136726395Y-98465000D01*
X136006984Y-97745590D01*
X135776389Y-97801271D01*
X135608378Y-98284078D01*
X135637917Y-98794428D01*
X135748749Y-99062000D01*
X133358197Y-99062000D01*
X131862181Y-97565984D01*
X136186590Y-97565984D01*
X136906000Y-98285395D01*
X137625410Y-97565984D01*
X137569729Y-97335389D01*
X137086922Y-97167378D01*
X136576572Y-97196917D01*
X136242271Y-97335389D01*
X136186590Y-97565984D01*
X131862181Y-97565984D01*
X131387697Y-97091500D01*
X131655206Y-97091500D01*
X131918574Y-97200860D01*
X132240016Y-97201140D01*
X132537097Y-97078389D01*
X132764590Y-96851293D01*
X132887860Y-96554426D01*
X132888140Y-96232984D01*
X132795803Y-96009510D01*
X139572780Y-96009510D01*
X139765718Y-96476458D01*
X140122663Y-96834026D01*
X140408516Y-96952722D01*
X140111857Y-97075603D01*
X140042392Y-97317787D01*
X140843000Y-98118395D01*
X141643608Y-97317787D01*
X141574143Y-97075603D01*
X141255212Y-96961820D01*
X141561458Y-96835282D01*
X141919026Y-96478337D01*
X142112779Y-96011727D01*
X142113220Y-95506490D01*
X141920282Y-95039542D01*
X141563337Y-94681974D01*
X141096727Y-94488221D01*
X140591490Y-94487780D01*
X140124542Y-94680718D01*
X139766974Y-95037663D01*
X139573221Y-95504273D01*
X139572780Y-96009510D01*
X132795803Y-96009510D01*
X132765389Y-95935903D01*
X132538293Y-95708410D01*
X132241426Y-95585140D01*
X131919984Y-95584860D01*
X131654634Y-95694500D01*
X131353328Y-95694500D01*
X130051578Y-94392750D01*
X155196540Y-94392750D01*
X155196540Y-95983370D01*
X155293213Y-96216759D01*
X155471842Y-96395387D01*
X155705231Y-96492060D01*
X157295850Y-96492060D01*
X157454600Y-96333310D01*
X157454600Y-94234000D01*
X157708600Y-94234000D01*
X157708600Y-96333310D01*
X157867350Y-96492060D01*
X158533272Y-96492060D01*
X158471582Y-96517613D01*
X158292953Y-96696241D01*
X158196280Y-96929630D01*
X158196280Y-98520250D01*
X158355030Y-98679000D01*
X160454340Y-98679000D01*
X160454340Y-96579690D01*
X160708340Y-96579690D01*
X160708340Y-98679000D01*
X162807650Y-98679000D01*
X162966400Y-98520250D01*
X162966400Y-96929630D01*
X162869727Y-96696241D01*
X162691098Y-96517613D01*
X162457709Y-96420940D01*
X160867090Y-96420940D01*
X160708340Y-96579690D01*
X160454340Y-96579690D01*
X160295590Y-96420940D01*
X159629668Y-96420940D01*
X159691358Y-96395387D01*
X159869987Y-96216759D01*
X159966660Y-95983370D01*
X159966660Y-94392750D01*
X159807910Y-94234000D01*
X157708600Y-94234000D01*
X157454600Y-94234000D01*
X155355290Y-94234000D01*
X155196540Y-94392750D01*
X130051578Y-94392750D01*
X127889458Y-92230630D01*
X155196540Y-92230630D01*
X155196540Y-93821250D01*
X155355290Y-93980000D01*
X157454600Y-93980000D01*
X157454600Y-91880690D01*
X157708600Y-91880690D01*
X157708600Y-93980000D01*
X159807910Y-93980000D01*
X159966660Y-93821250D01*
X159966660Y-92230630D01*
X159869987Y-91997241D01*
X159691358Y-91818613D01*
X159685101Y-91816021D01*
X163956560Y-91816021D01*
X164342437Y-92749915D01*
X165056327Y-93465052D01*
X165989546Y-93852559D01*
X167000021Y-93853440D01*
X167933915Y-93467563D01*
X168649052Y-92753673D01*
X169036559Y-91820454D01*
X169037440Y-90809979D01*
X168651563Y-89876085D01*
X167937673Y-89160948D01*
X167004454Y-88773441D01*
X165993979Y-88772560D01*
X165060085Y-89158437D01*
X164344948Y-89872327D01*
X163957441Y-90805546D01*
X163956560Y-91816021D01*
X159685101Y-91816021D01*
X159457969Y-91721940D01*
X157867350Y-91721940D01*
X157708600Y-91880690D01*
X157454600Y-91880690D01*
X157295850Y-91721940D01*
X155705231Y-91721940D01*
X155471842Y-91818613D01*
X155293213Y-91997241D01*
X155196540Y-92230630D01*
X127889458Y-92230630D01*
X126746000Y-91087172D01*
X126746000Y-84348545D01*
X138307876Y-84348545D01*
X138487308Y-84782805D01*
X138819267Y-85115344D01*
X139253214Y-85295534D01*
X139723085Y-85295944D01*
X140157345Y-85116512D01*
X140489884Y-84784553D01*
X140670074Y-84350606D01*
X140670075Y-84348545D01*
X141269516Y-84348545D01*
X141448948Y-84782805D01*
X141780907Y-85115344D01*
X142214854Y-85295534D01*
X142684725Y-85295944D01*
X143118985Y-85116512D01*
X143451524Y-84784553D01*
X143631714Y-84350606D01*
X143631715Y-84348545D01*
X156722876Y-84348545D01*
X156902308Y-84782805D01*
X157234267Y-85115344D01*
X157668214Y-85295534D01*
X158138085Y-85295944D01*
X158572345Y-85116512D01*
X158904884Y-84784553D01*
X159085074Y-84350606D01*
X159085075Y-84348545D01*
X159684516Y-84348545D01*
X159863948Y-84782805D01*
X160195907Y-85115344D01*
X160629854Y-85295534D01*
X161099725Y-85295944D01*
X161533985Y-85116512D01*
X161866524Y-84784553D01*
X162046714Y-84350606D01*
X162047124Y-83880735D01*
X161867692Y-83446475D01*
X161535733Y-83113936D01*
X161193588Y-82971865D01*
X162308336Y-82971865D01*
X162487768Y-83406125D01*
X162819727Y-83738664D01*
X163253674Y-83918854D01*
X163723545Y-83919264D01*
X164157805Y-83739832D01*
X164490344Y-83407873D01*
X164670534Y-82973926D01*
X164670944Y-82504055D01*
X164491512Y-82069795D01*
X164159553Y-81737256D01*
X163725606Y-81557066D01*
X163255735Y-81556656D01*
X162821475Y-81736088D01*
X162488936Y-82068047D01*
X162308746Y-82501994D01*
X162308336Y-82971865D01*
X161193588Y-82971865D01*
X161101786Y-82933746D01*
X160631915Y-82933336D01*
X160197655Y-83112768D01*
X159865116Y-83444727D01*
X159684926Y-83878674D01*
X159684516Y-84348545D01*
X159085075Y-84348545D01*
X159085484Y-83880735D01*
X158906052Y-83446475D01*
X158574093Y-83113936D01*
X158140146Y-82933746D01*
X157670275Y-82933336D01*
X157236015Y-83112768D01*
X156903476Y-83444727D01*
X156723286Y-83878674D01*
X156722876Y-84348545D01*
X143631715Y-84348545D01*
X143632124Y-83880735D01*
X143452692Y-83446475D01*
X143120733Y-83113936D01*
X142778588Y-82971865D01*
X143893336Y-82971865D01*
X144072768Y-83406125D01*
X144404727Y-83738664D01*
X144838674Y-83918854D01*
X145308545Y-83919264D01*
X145742805Y-83739832D01*
X146075344Y-83407873D01*
X146255534Y-82973926D01*
X146255535Y-82971865D01*
X154099056Y-82971865D01*
X154278488Y-83406125D01*
X154610447Y-83738664D01*
X155044394Y-83918854D01*
X155514265Y-83919264D01*
X155948525Y-83739832D01*
X156281064Y-83407873D01*
X156461254Y-82973926D01*
X156461664Y-82504055D01*
X156282232Y-82069795D01*
X155950273Y-81737256D01*
X155516326Y-81557066D01*
X155046455Y-81556656D01*
X154612195Y-81736088D01*
X154279656Y-82068047D01*
X154099466Y-82501994D01*
X154099056Y-82971865D01*
X146255535Y-82971865D01*
X146255944Y-82504055D01*
X146076512Y-82069795D01*
X145744553Y-81737256D01*
X145310606Y-81557066D01*
X144840735Y-81556656D01*
X144406475Y-81736088D01*
X144073936Y-82068047D01*
X143893746Y-82501994D01*
X143893336Y-82971865D01*
X142778588Y-82971865D01*
X142686786Y-82933746D01*
X142216915Y-82933336D01*
X141782655Y-83112768D01*
X141450116Y-83444727D01*
X141269926Y-83878674D01*
X141269516Y-84348545D01*
X140670075Y-84348545D01*
X140670484Y-83880735D01*
X140491052Y-83446475D01*
X140159093Y-83113936D01*
X139725146Y-82933746D01*
X139255275Y-82933336D01*
X138821015Y-83112768D01*
X138488476Y-83444727D01*
X138308286Y-83878674D01*
X138307876Y-84348545D01*
X126746000Y-84348545D01*
X126746000Y-82971865D01*
X135684056Y-82971865D01*
X135863488Y-83406125D01*
X136195447Y-83738664D01*
X136629394Y-83918854D01*
X137099265Y-83919264D01*
X137533525Y-83739832D01*
X137866064Y-83407873D01*
X138046254Y-82973926D01*
X138046664Y-82504055D01*
X137867232Y-82069795D01*
X137535273Y-81737256D01*
X137101326Y-81557066D01*
X136631455Y-81556656D01*
X136197195Y-81736088D01*
X135864656Y-82068047D01*
X135684466Y-82501994D01*
X135684056Y-82971865D01*
X126746000Y-82971865D01*
X126746000Y-80812908D01*
X126947057Y-80612201D01*
X127109035Y-80222116D01*
X127109036Y-80220263D01*
X128160596Y-80220263D01*
X128321893Y-80610630D01*
X128620299Y-80909557D01*
X129010384Y-81071535D01*
X129432763Y-81071904D01*
X129823130Y-80910607D01*
X130122057Y-80612201D01*
X130154751Y-80533465D01*
X134002576Y-80533465D01*
X134182008Y-80967725D01*
X134513967Y-81300264D01*
X134947914Y-81480454D01*
X135417785Y-81480864D01*
X135852045Y-81301432D01*
X136184584Y-80969473D01*
X136364774Y-80535526D01*
X136364775Y-80533465D01*
X145574816Y-80533465D01*
X145754248Y-80967725D01*
X146086207Y-81300264D01*
X146520154Y-81480454D01*
X146990025Y-81480864D01*
X147424285Y-81301432D01*
X147756824Y-80969473D01*
X147937014Y-80535526D01*
X147937015Y-80533465D01*
X152417576Y-80533465D01*
X152597008Y-80967725D01*
X152928967Y-81300264D01*
X153362914Y-81480454D01*
X153832785Y-81480864D01*
X154267045Y-81301432D01*
X154599584Y-80969473D01*
X154779774Y-80535526D01*
X154779775Y-80533465D01*
X163989816Y-80533465D01*
X164169248Y-80967725D01*
X164501207Y-81300264D01*
X164935154Y-81480454D01*
X165405025Y-81480864D01*
X165839285Y-81301432D01*
X166171824Y-80969473D01*
X166352014Y-80535526D01*
X166352424Y-80065655D01*
X166172992Y-79631395D01*
X165841033Y-79298856D01*
X165407086Y-79118666D01*
X164937215Y-79118256D01*
X164502955Y-79297688D01*
X164170416Y-79629647D01*
X163990226Y-80063594D01*
X163989816Y-80533465D01*
X154779775Y-80533465D01*
X154780184Y-80065655D01*
X154600752Y-79631395D01*
X154268793Y-79298856D01*
X153834846Y-79118666D01*
X153364975Y-79118256D01*
X152930715Y-79297688D01*
X152598176Y-79629647D01*
X152417986Y-80063594D01*
X152417576Y-80533465D01*
X147937015Y-80533465D01*
X147937424Y-80065655D01*
X147757992Y-79631395D01*
X147426033Y-79298856D01*
X146992086Y-79118666D01*
X146522215Y-79118256D01*
X146087955Y-79297688D01*
X145755416Y-79629647D01*
X145575226Y-80063594D01*
X145574816Y-80533465D01*
X136364775Y-80533465D01*
X136365184Y-80065655D01*
X136185752Y-79631395D01*
X135853793Y-79298856D01*
X135419846Y-79118666D01*
X134949975Y-79118256D01*
X134515715Y-79297688D01*
X134183176Y-79629647D01*
X134002986Y-80063594D01*
X134002576Y-80533465D01*
X130154751Y-80533465D01*
X130284035Y-80222116D01*
X130284404Y-79799737D01*
X130123107Y-79409370D01*
X129824701Y-79110443D01*
X129434616Y-78948465D01*
X129012237Y-78948096D01*
X128621870Y-79109393D01*
X128322943Y-79407799D01*
X128160965Y-79797884D01*
X128160596Y-80220263D01*
X127109036Y-80220263D01*
X127109404Y-79799737D01*
X126948107Y-79409370D01*
X126649701Y-79110443D01*
X126259616Y-78948465D01*
X125837237Y-78948096D01*
X125446870Y-79109393D01*
X125147943Y-79407799D01*
X124985965Y-79797884D01*
X124985596Y-80220263D01*
X125146893Y-80610630D01*
X125349000Y-80813090D01*
X125349000Y-91052802D01*
X119827599Y-85531401D01*
X119622239Y-85394184D01*
X119380000Y-85345999D01*
X119379995Y-85346000D01*
X109855005Y-85346000D01*
X109855000Y-85345999D01*
X109612761Y-85394184D01*
X109407401Y-85531401D01*
X108751879Y-86186923D01*
X108678984Y-86186860D01*
X108675821Y-86188167D01*
X108661816Y-86117761D01*
X108524599Y-85912401D01*
X108524596Y-85912399D01*
X108143599Y-85531401D01*
X107938239Y-85394184D01*
X107696000Y-85345999D01*
X107695995Y-85346000D01*
X90686197Y-85346000D01*
X89688743Y-84348545D01*
X93222876Y-84348545D01*
X93402308Y-84782805D01*
X93734267Y-85115344D01*
X94168214Y-85295534D01*
X94638085Y-85295944D01*
X95072345Y-85116512D01*
X95404884Y-84784553D01*
X95585074Y-84350606D01*
X95585075Y-84348545D01*
X96184516Y-84348545D01*
X96363948Y-84782805D01*
X96695907Y-85115344D01*
X97129854Y-85295534D01*
X97599725Y-85295944D01*
X98033985Y-85116512D01*
X98366524Y-84784553D01*
X98546714Y-84350606D01*
X98546715Y-84348545D01*
X111637876Y-84348545D01*
X111817308Y-84782805D01*
X112149267Y-85115344D01*
X112583214Y-85295534D01*
X113053085Y-85295944D01*
X113487345Y-85116512D01*
X113819884Y-84784553D01*
X114000074Y-84350606D01*
X114000075Y-84348545D01*
X114599516Y-84348545D01*
X114778948Y-84782805D01*
X115110907Y-85115344D01*
X115544854Y-85295534D01*
X116014725Y-85295944D01*
X116448985Y-85116512D01*
X116781524Y-84784553D01*
X116961714Y-84350606D01*
X116962124Y-83880735D01*
X116782692Y-83446475D01*
X116450733Y-83113936D01*
X116108588Y-82971865D01*
X117223336Y-82971865D01*
X117402768Y-83406125D01*
X117734727Y-83738664D01*
X118168674Y-83918854D01*
X118638545Y-83919264D01*
X119072805Y-83739832D01*
X119405344Y-83407873D01*
X119585534Y-82973926D01*
X119585944Y-82504055D01*
X119406512Y-82069795D01*
X119074553Y-81737256D01*
X118640606Y-81557066D01*
X118170735Y-81556656D01*
X117736475Y-81736088D01*
X117403936Y-82068047D01*
X117223746Y-82501994D01*
X117223336Y-82971865D01*
X116108588Y-82971865D01*
X116016786Y-82933746D01*
X115546915Y-82933336D01*
X115112655Y-83112768D01*
X114780116Y-83444727D01*
X114599926Y-83878674D01*
X114599516Y-84348545D01*
X114000075Y-84348545D01*
X114000484Y-83880735D01*
X113821052Y-83446475D01*
X113489093Y-83113936D01*
X113055146Y-82933746D01*
X112585275Y-82933336D01*
X112151015Y-83112768D01*
X111818476Y-83444727D01*
X111638286Y-83878674D01*
X111637876Y-84348545D01*
X98546715Y-84348545D01*
X98547124Y-83880735D01*
X98367692Y-83446475D01*
X98035733Y-83113936D01*
X97693588Y-82971865D01*
X98808336Y-82971865D01*
X98987768Y-83406125D01*
X99319727Y-83738664D01*
X99753674Y-83918854D01*
X100223545Y-83919264D01*
X100657805Y-83739832D01*
X100990344Y-83407873D01*
X101170534Y-82973926D01*
X101170535Y-82971865D01*
X109014056Y-82971865D01*
X109193488Y-83406125D01*
X109525447Y-83738664D01*
X109959394Y-83918854D01*
X110429265Y-83919264D01*
X110863525Y-83739832D01*
X111196064Y-83407873D01*
X111376254Y-82973926D01*
X111376664Y-82504055D01*
X111197232Y-82069795D01*
X110865273Y-81737256D01*
X110431326Y-81557066D01*
X109961455Y-81556656D01*
X109527195Y-81736088D01*
X109194656Y-82068047D01*
X109014466Y-82501994D01*
X109014056Y-82971865D01*
X101170535Y-82971865D01*
X101170944Y-82504055D01*
X100991512Y-82069795D01*
X100659553Y-81737256D01*
X100225606Y-81557066D01*
X99755735Y-81556656D01*
X99321475Y-81736088D01*
X98988936Y-82068047D01*
X98808746Y-82501994D01*
X98808336Y-82971865D01*
X97693588Y-82971865D01*
X97601786Y-82933746D01*
X97131915Y-82933336D01*
X96697655Y-83112768D01*
X96365116Y-83444727D01*
X96184926Y-83878674D01*
X96184516Y-84348545D01*
X95585075Y-84348545D01*
X95585484Y-83880735D01*
X95406052Y-83446475D01*
X95074093Y-83113936D01*
X94640146Y-82933746D01*
X94170275Y-82933336D01*
X93736015Y-83112768D01*
X93403476Y-83444727D01*
X93223286Y-83878674D01*
X93222876Y-84348545D01*
X89688743Y-84348545D01*
X88312063Y-82971865D01*
X90599056Y-82971865D01*
X90778488Y-83406125D01*
X91110447Y-83738664D01*
X91544394Y-83918854D01*
X92014265Y-83919264D01*
X92448525Y-83739832D01*
X92781064Y-83407873D01*
X92961254Y-82973926D01*
X92961664Y-82504055D01*
X92782232Y-82069795D01*
X92450273Y-81737256D01*
X92016326Y-81557066D01*
X91546455Y-81556656D01*
X91112195Y-81736088D01*
X90779656Y-82068047D01*
X90599466Y-82501994D01*
X90599056Y-82971865D01*
X88312063Y-82971865D01*
X87755000Y-82414802D01*
X87755000Y-80533465D01*
X88917576Y-80533465D01*
X89097008Y-80967725D01*
X89428967Y-81300264D01*
X89862914Y-81480454D01*
X90332785Y-81480864D01*
X90767045Y-81301432D01*
X91099584Y-80969473D01*
X91279774Y-80535526D01*
X91279775Y-80533465D01*
X100489816Y-80533465D01*
X100669248Y-80967725D01*
X101001207Y-81300264D01*
X101435154Y-81480454D01*
X101905025Y-81480864D01*
X102339285Y-81301432D01*
X102671824Y-80969473D01*
X102852014Y-80535526D01*
X102852015Y-80533465D01*
X107332576Y-80533465D01*
X107512008Y-80967725D01*
X107843967Y-81300264D01*
X108277914Y-81480454D01*
X108747785Y-81480864D01*
X109182045Y-81301432D01*
X109514584Y-80969473D01*
X109694774Y-80535526D01*
X109694775Y-80533465D01*
X118904816Y-80533465D01*
X119084248Y-80967725D01*
X119416207Y-81300264D01*
X119850154Y-81480454D01*
X120320025Y-81480864D01*
X120754285Y-81301432D01*
X121086824Y-80969473D01*
X121267014Y-80535526D01*
X121267424Y-80065655D01*
X121087992Y-79631395D01*
X120756033Y-79298856D01*
X120322086Y-79118666D01*
X119852215Y-79118256D01*
X119417955Y-79297688D01*
X119085416Y-79629647D01*
X118905226Y-80063594D01*
X118904816Y-80533465D01*
X109694775Y-80533465D01*
X109695184Y-80065655D01*
X109515752Y-79631395D01*
X109183793Y-79298856D01*
X108749846Y-79118666D01*
X108279975Y-79118256D01*
X107845715Y-79297688D01*
X107513176Y-79629647D01*
X107332986Y-80063594D01*
X107332576Y-80533465D01*
X102852015Y-80533465D01*
X102852424Y-80065655D01*
X102672992Y-79631395D01*
X102341033Y-79298856D01*
X101907086Y-79118666D01*
X101437215Y-79118256D01*
X101002955Y-79297688D01*
X100670416Y-79629647D01*
X100490226Y-80063594D01*
X100489816Y-80533465D01*
X91279775Y-80533465D01*
X91280184Y-80065655D01*
X91100752Y-79631395D01*
X90768793Y-79298856D01*
X90334846Y-79118666D01*
X89864975Y-79118256D01*
X89430715Y-79297688D01*
X89098176Y-79629647D01*
X88917986Y-80063594D01*
X88917576Y-80533465D01*
X87755000Y-80533465D01*
X87755000Y-79629005D01*
X87755001Y-79629000D01*
X87706816Y-79386761D01*
X87569599Y-79181401D01*
X85982883Y-77594685D01*
X88559436Y-77594685D01*
X88738868Y-78028945D01*
X89070827Y-78361484D01*
X89504774Y-78541674D01*
X89974645Y-78542084D01*
X90408905Y-78362652D01*
X90741444Y-78030693D01*
X90921634Y-77596746D01*
X90921635Y-77594685D01*
X100847956Y-77594685D01*
X101027388Y-78028945D01*
X101359347Y-78361484D01*
X101793294Y-78541674D01*
X102263165Y-78542084D01*
X102697425Y-78362652D01*
X103029964Y-78030693D01*
X103210154Y-77596746D01*
X103210155Y-77594685D01*
X106974436Y-77594685D01*
X107153868Y-78028945D01*
X107485827Y-78361484D01*
X107919774Y-78541674D01*
X108389645Y-78542084D01*
X108823905Y-78362652D01*
X109156444Y-78030693D01*
X109336634Y-77596746D01*
X109336635Y-77594685D01*
X119262956Y-77594685D01*
X119442388Y-78028945D01*
X119774347Y-78361484D01*
X120208294Y-78541674D01*
X120678165Y-78542084D01*
X121112425Y-78362652D01*
X121444964Y-78030693D01*
X121625154Y-77596746D01*
X121625155Y-77594685D01*
X133644436Y-77594685D01*
X133823868Y-78028945D01*
X134155827Y-78361484D01*
X134589774Y-78541674D01*
X135059645Y-78542084D01*
X135493905Y-78362652D01*
X135826444Y-78030693D01*
X136006634Y-77596746D01*
X136006635Y-77594685D01*
X145932956Y-77594685D01*
X146112388Y-78028945D01*
X146444347Y-78361484D01*
X146878294Y-78541674D01*
X147348165Y-78542084D01*
X147782425Y-78362652D01*
X148114964Y-78030693D01*
X148295154Y-77596746D01*
X148295155Y-77594685D01*
X152059436Y-77594685D01*
X152238868Y-78028945D01*
X152570827Y-78361484D01*
X153004774Y-78541674D01*
X153474645Y-78542084D01*
X153908905Y-78362652D01*
X154241444Y-78030693D01*
X154421634Y-77596746D01*
X154421635Y-77594685D01*
X164347956Y-77594685D01*
X164527388Y-78028945D01*
X164859347Y-78361484D01*
X165293294Y-78541674D01*
X165763165Y-78542084D01*
X166197425Y-78362652D01*
X166529964Y-78030693D01*
X166710154Y-77596746D01*
X166710564Y-77126875D01*
X166531132Y-76692615D01*
X166199173Y-76360076D01*
X165765226Y-76179886D01*
X165295355Y-76179476D01*
X164861095Y-76358908D01*
X164528556Y-76690867D01*
X164348366Y-77124814D01*
X164347956Y-77594685D01*
X154421635Y-77594685D01*
X154422044Y-77126875D01*
X154242612Y-76692615D01*
X153910653Y-76360076D01*
X153476706Y-76179886D01*
X153006835Y-76179476D01*
X152572575Y-76358908D01*
X152240036Y-76690867D01*
X152059846Y-77124814D01*
X152059436Y-77594685D01*
X148295155Y-77594685D01*
X148295564Y-77126875D01*
X148116132Y-76692615D01*
X147784173Y-76360076D01*
X147350226Y-76179886D01*
X146880355Y-76179476D01*
X146446095Y-76358908D01*
X146113556Y-76690867D01*
X145933366Y-77124814D01*
X145932956Y-77594685D01*
X136006635Y-77594685D01*
X136007044Y-77126875D01*
X135827612Y-76692615D01*
X135495653Y-76360076D01*
X135061706Y-76179886D01*
X134591835Y-76179476D01*
X134157575Y-76358908D01*
X133825036Y-76690867D01*
X133644846Y-77124814D01*
X133644436Y-77594685D01*
X121625155Y-77594685D01*
X121625564Y-77126875D01*
X121446132Y-76692615D01*
X121114173Y-76360076D01*
X120680226Y-76179886D01*
X120210355Y-76179476D01*
X119776095Y-76358908D01*
X119443556Y-76690867D01*
X119263366Y-77124814D01*
X119262956Y-77594685D01*
X109336635Y-77594685D01*
X109337044Y-77126875D01*
X109157612Y-76692615D01*
X108825653Y-76360076D01*
X108391706Y-76179886D01*
X107921835Y-76179476D01*
X107487575Y-76358908D01*
X107155036Y-76690867D01*
X106974846Y-77124814D01*
X106974436Y-77594685D01*
X103210155Y-77594685D01*
X103210564Y-77126875D01*
X103031132Y-76692615D01*
X102699173Y-76360076D01*
X102265226Y-76179886D01*
X101795355Y-76179476D01*
X101361095Y-76358908D01*
X101028556Y-76690867D01*
X100848366Y-77124814D01*
X100847956Y-77594685D01*
X90921635Y-77594685D01*
X90922044Y-77126875D01*
X90742612Y-76692615D01*
X90410653Y-76360076D01*
X89976706Y-76179886D01*
X89506835Y-76179476D01*
X89072575Y-76358908D01*
X88740036Y-76690867D01*
X88559846Y-77124814D01*
X88559436Y-77594685D01*
X85982883Y-77594685D01*
X85410599Y-77022401D01*
X85205239Y-76885184D01*
X84963000Y-76836999D01*
X84962995Y-76837000D01*
X80526197Y-76837000D01*
X80126532Y-76437335D01*
X80603183Y-76437751D01*
X81157449Y-76208733D01*
X81581882Y-75785039D01*
X81811867Y-75231174D01*
X81811869Y-75228543D01*
X83798149Y-75228543D01*
X84027167Y-75782809D01*
X84450861Y-76207242D01*
X85004726Y-76437227D01*
X85604443Y-76437751D01*
X86158709Y-76208733D01*
X86583142Y-75785039D01*
X86813127Y-75231174D01*
X86813483Y-74823545D01*
X89610996Y-74823545D01*
X89790428Y-75257805D01*
X90122387Y-75590344D01*
X90556334Y-75770534D01*
X91026205Y-75770944D01*
X91460465Y-75591512D01*
X91793004Y-75259553D01*
X91973194Y-74825606D01*
X91973195Y-74823545D01*
X99796396Y-74823545D01*
X99975828Y-75257805D01*
X100307787Y-75590344D01*
X100741734Y-75770534D01*
X101211605Y-75770944D01*
X101645865Y-75591512D01*
X101978404Y-75259553D01*
X102134201Y-74884352D01*
X102226267Y-75107169D01*
X102649961Y-75531602D01*
X103203826Y-75761587D01*
X103803543Y-75762111D01*
X104357809Y-75533093D01*
X104782242Y-75109399D01*
X105012227Y-74555534D01*
X105012229Y-74552903D01*
X105172249Y-74552903D01*
X105401267Y-75107169D01*
X105824961Y-75531602D01*
X106378826Y-75761587D01*
X106978543Y-75762111D01*
X107532809Y-75533093D01*
X107957242Y-75109399D01*
X108050906Y-74883832D01*
X108205428Y-75257805D01*
X108537387Y-75590344D01*
X108971334Y-75770534D01*
X109441205Y-75770944D01*
X109875465Y-75591512D01*
X110208004Y-75259553D01*
X110388194Y-74825606D01*
X110388195Y-74823545D01*
X118211396Y-74823545D01*
X118390828Y-75257805D01*
X118722787Y-75590344D01*
X119156734Y-75770534D01*
X119626605Y-75770944D01*
X120060865Y-75591512D01*
X120393404Y-75259553D01*
X120406280Y-75228543D01*
X123754889Y-75228543D01*
X123983907Y-75782809D01*
X124407601Y-76207242D01*
X124961466Y-76437227D01*
X125561183Y-76437751D01*
X126115449Y-76208733D01*
X126539882Y-75785039D01*
X126769867Y-75231174D01*
X126769869Y-75228543D01*
X128756149Y-75228543D01*
X128985167Y-75782809D01*
X129408861Y-76207242D01*
X129962726Y-76437227D01*
X130562443Y-76437751D01*
X131116709Y-76208733D01*
X131541142Y-75785039D01*
X131771127Y-75231174D01*
X131771483Y-74823545D01*
X134695996Y-74823545D01*
X134875428Y-75257805D01*
X135207387Y-75590344D01*
X135641334Y-75770534D01*
X136111205Y-75770944D01*
X136545465Y-75591512D01*
X136878004Y-75259553D01*
X137058194Y-74825606D01*
X137058195Y-74823545D01*
X144881396Y-74823545D01*
X145060828Y-75257805D01*
X145392787Y-75590344D01*
X145826734Y-75770534D01*
X146296605Y-75770944D01*
X146730865Y-75591512D01*
X147063404Y-75259553D01*
X147219201Y-74884352D01*
X147311267Y-75107169D01*
X147734961Y-75531602D01*
X148288826Y-75761587D01*
X148888543Y-75762111D01*
X149442809Y-75533093D01*
X149867242Y-75109399D01*
X150097227Y-74555534D01*
X150097229Y-74552903D01*
X150257249Y-74552903D01*
X150486267Y-75107169D01*
X150909961Y-75531602D01*
X151463826Y-75761587D01*
X152063543Y-75762111D01*
X152617809Y-75533093D01*
X153042242Y-75109399D01*
X153135906Y-74883832D01*
X153290428Y-75257805D01*
X153622387Y-75590344D01*
X154056334Y-75770534D01*
X154526205Y-75770944D01*
X154960465Y-75591512D01*
X155293004Y-75259553D01*
X155473194Y-74825606D01*
X155473195Y-74823545D01*
X163296396Y-74823545D01*
X163475828Y-75257805D01*
X163807787Y-75590344D01*
X164241734Y-75770534D01*
X164711605Y-75770944D01*
X165145865Y-75591512D01*
X165478404Y-75259553D01*
X165658594Y-74825606D01*
X165659004Y-74355735D01*
X165479572Y-73921475D01*
X165147613Y-73588936D01*
X164713666Y-73408746D01*
X164243795Y-73408336D01*
X163809535Y-73587768D01*
X163476996Y-73919727D01*
X163296806Y-74353674D01*
X163296396Y-74823545D01*
X155473195Y-74823545D01*
X155473604Y-74355735D01*
X155294172Y-73921475D01*
X154962213Y-73588936D01*
X154528266Y-73408746D01*
X154058395Y-73408336D01*
X153624135Y-73587768D01*
X153291596Y-73919727D01*
X153272743Y-73965131D01*
X153272751Y-73955817D01*
X153043733Y-73401551D01*
X152620039Y-72977118D01*
X152338289Y-72860125D01*
X155328416Y-72860125D01*
X155507848Y-73294385D01*
X155839807Y-73626924D01*
X156273754Y-73807114D01*
X156743625Y-73807524D01*
X157177885Y-73628092D01*
X157510424Y-73296133D01*
X157690614Y-72862186D01*
X157691024Y-72392315D01*
X157591508Y-72151465D01*
X158203696Y-72151465D01*
X158383128Y-72585725D01*
X158715087Y-72918264D01*
X159149034Y-73098454D01*
X159618905Y-73098864D01*
X160053165Y-72919432D01*
X160112575Y-72860125D01*
X161078976Y-72860125D01*
X161258408Y-73294385D01*
X161590367Y-73626924D01*
X162024314Y-73807114D01*
X162494185Y-73807524D01*
X162928445Y-73628092D01*
X163260984Y-73296133D01*
X163441174Y-72862186D01*
X163441584Y-72392315D01*
X163262152Y-71958055D01*
X162930193Y-71625516D01*
X162496246Y-71445326D01*
X162026375Y-71444916D01*
X161592115Y-71624348D01*
X161259576Y-71956307D01*
X161079386Y-72390254D01*
X161078976Y-72860125D01*
X160112575Y-72860125D01*
X160385704Y-72587473D01*
X160565894Y-72153526D01*
X160566304Y-71683655D01*
X160386872Y-71249395D01*
X160054913Y-70916856D01*
X159620966Y-70736666D01*
X159151095Y-70736256D01*
X158716835Y-70915688D01*
X158384296Y-71247647D01*
X158204106Y-71681594D01*
X158203696Y-72151465D01*
X157591508Y-72151465D01*
X157511592Y-71958055D01*
X157179633Y-71625516D01*
X156745686Y-71445326D01*
X156275815Y-71444916D01*
X155841555Y-71624348D01*
X155509016Y-71956307D01*
X155328826Y-72390254D01*
X155328416Y-72860125D01*
X152338289Y-72860125D01*
X152066174Y-72747133D01*
X151466457Y-72746609D01*
X150912191Y-72975627D01*
X150487758Y-73399321D01*
X150257773Y-73953186D01*
X150257249Y-74552903D01*
X150097229Y-74552903D01*
X150097751Y-73955817D01*
X149868733Y-73401551D01*
X149445039Y-72977118D01*
X148891174Y-72747133D01*
X148291457Y-72746609D01*
X147737191Y-72975627D01*
X147312758Y-73399321D01*
X147082773Y-73953186D01*
X147082762Y-73965499D01*
X147064572Y-73921475D01*
X146732613Y-73588936D01*
X146298666Y-73408746D01*
X145828795Y-73408336D01*
X145394535Y-73587768D01*
X145061996Y-73919727D01*
X144881806Y-74353674D01*
X144881396Y-74823545D01*
X137058195Y-74823545D01*
X137058604Y-74355735D01*
X136879172Y-73921475D01*
X136547213Y-73588936D01*
X136113266Y-73408746D01*
X135643395Y-73408336D01*
X135209135Y-73587768D01*
X134876596Y-73919727D01*
X134696406Y-74353674D01*
X134695996Y-74823545D01*
X131771483Y-74823545D01*
X131771651Y-74631457D01*
X131542633Y-74077191D01*
X131118939Y-73652758D01*
X130565074Y-73422773D01*
X129965357Y-73422249D01*
X129411091Y-73651267D01*
X128986658Y-74074961D01*
X128756673Y-74628826D01*
X128756149Y-75228543D01*
X126769869Y-75228543D01*
X126770391Y-74631457D01*
X126541373Y-74077191D01*
X126117679Y-73652758D01*
X125563814Y-73422773D01*
X124964097Y-73422249D01*
X124409831Y-73651267D01*
X123985398Y-74074961D01*
X123755413Y-74628826D01*
X123754889Y-75228543D01*
X120406280Y-75228543D01*
X120573594Y-74825606D01*
X120574004Y-74355735D01*
X120394572Y-73921475D01*
X120062613Y-73588936D01*
X119628666Y-73408746D01*
X119158795Y-73408336D01*
X118724535Y-73587768D01*
X118391996Y-73919727D01*
X118211806Y-74353674D01*
X118211396Y-74823545D01*
X110388195Y-74823545D01*
X110388604Y-74355735D01*
X110209172Y-73921475D01*
X109877213Y-73588936D01*
X109443266Y-73408746D01*
X108973395Y-73408336D01*
X108539135Y-73587768D01*
X108206596Y-73919727D01*
X108187743Y-73965131D01*
X108187751Y-73955817D01*
X107958733Y-73401551D01*
X107535039Y-72977118D01*
X107253289Y-72860125D01*
X110243416Y-72860125D01*
X110422848Y-73294385D01*
X110754807Y-73626924D01*
X111188754Y-73807114D01*
X111658625Y-73807524D01*
X112092885Y-73628092D01*
X112425424Y-73296133D01*
X112605614Y-72862186D01*
X112606024Y-72392315D01*
X112506508Y-72151465D01*
X113118696Y-72151465D01*
X113298128Y-72585725D01*
X113630087Y-72918264D01*
X114064034Y-73098454D01*
X114533905Y-73098864D01*
X114968165Y-72919432D01*
X115027575Y-72860125D01*
X115993976Y-72860125D01*
X116173408Y-73294385D01*
X116505367Y-73626924D01*
X116939314Y-73807114D01*
X117409185Y-73807524D01*
X117843445Y-73628092D01*
X118175984Y-73296133D01*
X118356174Y-72862186D01*
X118356584Y-72392315D01*
X118177152Y-71958055D01*
X117845193Y-71625516D01*
X117411246Y-71445326D01*
X116941375Y-71444916D01*
X116507115Y-71624348D01*
X116174576Y-71956307D01*
X115994386Y-72390254D01*
X115993976Y-72860125D01*
X115027575Y-72860125D01*
X115300704Y-72587473D01*
X115480894Y-72153526D01*
X115481304Y-71683655D01*
X115301872Y-71249395D01*
X115167733Y-71115021D01*
X130047560Y-71115021D01*
X130433437Y-72048915D01*
X131147327Y-72764052D01*
X132080546Y-73151559D01*
X133091021Y-73152440D01*
X133798477Y-72860125D01*
X136913416Y-72860125D01*
X137092848Y-73294385D01*
X137424807Y-73626924D01*
X137858754Y-73807114D01*
X138328625Y-73807524D01*
X138762885Y-73628092D01*
X139095424Y-73296133D01*
X139275614Y-72862186D01*
X139276024Y-72392315D01*
X139176508Y-72151465D01*
X139788696Y-72151465D01*
X139968128Y-72585725D01*
X140300087Y-72918264D01*
X140734034Y-73098454D01*
X141203905Y-73098864D01*
X141638165Y-72919432D01*
X141697575Y-72860125D01*
X142663976Y-72860125D01*
X142843408Y-73294385D01*
X143175367Y-73626924D01*
X143609314Y-73807114D01*
X144079185Y-73807524D01*
X144513445Y-73628092D01*
X144845984Y-73296133D01*
X145026174Y-72862186D01*
X145026584Y-72392315D01*
X144847152Y-71958055D01*
X144515193Y-71625516D01*
X144081246Y-71445326D01*
X143611375Y-71444916D01*
X143177115Y-71624348D01*
X142844576Y-71956307D01*
X142664386Y-72390254D01*
X142663976Y-72860125D01*
X141697575Y-72860125D01*
X141970704Y-72587473D01*
X142150894Y-72153526D01*
X142151304Y-71683655D01*
X141971872Y-71249395D01*
X141639913Y-70916856D01*
X141205966Y-70736666D01*
X140736095Y-70736256D01*
X140301835Y-70915688D01*
X139969296Y-71247647D01*
X139789106Y-71681594D01*
X139788696Y-72151465D01*
X139176508Y-72151465D01*
X139096592Y-71958055D01*
X138764633Y-71625516D01*
X138330686Y-71445326D01*
X137860815Y-71444916D01*
X137426555Y-71624348D01*
X137094016Y-71956307D01*
X136913826Y-72390254D01*
X136913416Y-72860125D01*
X133798477Y-72860125D01*
X134024915Y-72766563D01*
X134740052Y-72052673D01*
X135127559Y-71119454D01*
X135128440Y-70108979D01*
X134898154Y-69551643D01*
X147082249Y-69551643D01*
X147311267Y-70105909D01*
X147734961Y-70530342D01*
X148288826Y-70760327D01*
X148888543Y-70760851D01*
X149442809Y-70531833D01*
X149867242Y-70108139D01*
X150097227Y-69554274D01*
X150097229Y-69551643D01*
X150257249Y-69551643D01*
X150486267Y-70105909D01*
X150909961Y-70530342D01*
X151463826Y-70760327D01*
X152063543Y-70760851D01*
X152617809Y-70531833D01*
X153042242Y-70108139D01*
X153272227Y-69554274D01*
X153272460Y-69286743D01*
X161188400Y-69286743D01*
X161188400Y-69651257D01*
X161292807Y-70176146D01*
X161590132Y-70621125D01*
X162035111Y-70918450D01*
X162560000Y-71022857D01*
X163084889Y-70918450D01*
X163529868Y-70621125D01*
X163767058Y-70266144D01*
X163808046Y-70383320D01*
X164197964Y-70819732D01*
X164725209Y-71073709D01*
X164740974Y-71076358D01*
X164973000Y-70955217D01*
X164973000Y-69596000D01*
X164953000Y-69596000D01*
X164953000Y-69342000D01*
X164973000Y-69342000D01*
X164973000Y-67982783D01*
X165227000Y-67982783D01*
X165227000Y-69342000D01*
X165247000Y-69342000D01*
X165247000Y-69596000D01*
X165227000Y-69596000D01*
X165227000Y-70955217D01*
X165459026Y-71076358D01*
X165474791Y-71073709D01*
X166002036Y-70819732D01*
X166265869Y-70524439D01*
X166293870Y-70673253D01*
X166405128Y-70846153D01*
X166574888Y-70962145D01*
X166776400Y-71002952D01*
X168503600Y-71002952D01*
X168691853Y-70967530D01*
X168864753Y-70856272D01*
X168980745Y-70686512D01*
X169021552Y-70485000D01*
X169021552Y-68453000D01*
X168986130Y-68264747D01*
X168874872Y-68091847D01*
X168705112Y-67975855D01*
X168503600Y-67935048D01*
X166776400Y-67935048D01*
X166588147Y-67970470D01*
X166415247Y-68081728D01*
X166299255Y-68251488D01*
X166266330Y-68414077D01*
X166002036Y-68118268D01*
X165474791Y-67864291D01*
X165459026Y-67861642D01*
X165227000Y-67982783D01*
X164973000Y-67982783D01*
X164740974Y-67861642D01*
X164725209Y-67864291D01*
X164197964Y-68118268D01*
X163808046Y-68554680D01*
X163767058Y-68671856D01*
X163529868Y-68316875D01*
X163084889Y-68019550D01*
X162560000Y-67915143D01*
X162035111Y-68019550D01*
X161590132Y-68316875D01*
X161292807Y-68761854D01*
X161188400Y-69286743D01*
X153272460Y-69286743D01*
X153272751Y-68954557D01*
X153043733Y-68400291D01*
X152620039Y-67975858D01*
X152066174Y-67745873D01*
X151466457Y-67745349D01*
X150912191Y-67974367D01*
X150487758Y-68398061D01*
X150257773Y-68951926D01*
X150257249Y-69551643D01*
X150097229Y-69551643D01*
X150097751Y-68954557D01*
X149868733Y-68400291D01*
X149445039Y-67975858D01*
X148891174Y-67745873D01*
X148291457Y-67745349D01*
X147737191Y-67974367D01*
X147312758Y-68398061D01*
X147082773Y-68951926D01*
X147082249Y-69551643D01*
X134898154Y-69551643D01*
X134742563Y-69175085D01*
X134028673Y-68459948D01*
X133095454Y-68072441D01*
X132084979Y-68071560D01*
X131151085Y-68457437D01*
X130435948Y-69171327D01*
X130048441Y-70104546D01*
X130047560Y-71115021D01*
X115167733Y-71115021D01*
X114969913Y-70916856D01*
X114535966Y-70736666D01*
X114066095Y-70736256D01*
X113631835Y-70915688D01*
X113299296Y-71247647D01*
X113119106Y-71681594D01*
X113118696Y-72151465D01*
X112506508Y-72151465D01*
X112426592Y-71958055D01*
X112094633Y-71625516D01*
X111660686Y-71445326D01*
X111190815Y-71444916D01*
X110756555Y-71624348D01*
X110424016Y-71956307D01*
X110243826Y-72390254D01*
X110243416Y-72860125D01*
X107253289Y-72860125D01*
X106981174Y-72747133D01*
X106381457Y-72746609D01*
X105827191Y-72975627D01*
X105402758Y-73399321D01*
X105172773Y-73953186D01*
X105172249Y-74552903D01*
X105012229Y-74552903D01*
X105012751Y-73955817D01*
X104783733Y-73401551D01*
X104360039Y-72977118D01*
X103806174Y-72747133D01*
X103206457Y-72746609D01*
X102652191Y-72975627D01*
X102227758Y-73399321D01*
X101997773Y-73953186D01*
X101997762Y-73965499D01*
X101979572Y-73921475D01*
X101647613Y-73588936D01*
X101213666Y-73408746D01*
X100743795Y-73408336D01*
X100309535Y-73587768D01*
X99976996Y-73919727D01*
X99796806Y-74353674D01*
X99796396Y-74823545D01*
X91973195Y-74823545D01*
X91973604Y-74355735D01*
X91794172Y-73921475D01*
X91462213Y-73588936D01*
X91028266Y-73408746D01*
X90558395Y-73408336D01*
X90124135Y-73587768D01*
X89791596Y-73919727D01*
X89611406Y-74353674D01*
X89610996Y-74823545D01*
X86813483Y-74823545D01*
X86813651Y-74631457D01*
X86584633Y-74077191D01*
X86160939Y-73652758D01*
X85607074Y-73422773D01*
X85007357Y-73422249D01*
X84453091Y-73651267D01*
X84028658Y-74074961D01*
X83798673Y-74628826D01*
X83798149Y-75228543D01*
X81811869Y-75228543D01*
X81812391Y-74631457D01*
X81583373Y-74077191D01*
X81159679Y-73652758D01*
X80605814Y-73422773D01*
X80006097Y-73422249D01*
X79451831Y-73651267D01*
X79027398Y-74074961D01*
X78797413Y-74628826D01*
X78796995Y-75107797D01*
X76881275Y-73192077D01*
X77089546Y-73278559D01*
X78100021Y-73279440D01*
X79033915Y-72893563D01*
X79067411Y-72860125D01*
X91828416Y-72860125D01*
X92007848Y-73294385D01*
X92339807Y-73626924D01*
X92773754Y-73807114D01*
X93243625Y-73807524D01*
X93677885Y-73628092D01*
X94010424Y-73296133D01*
X94190614Y-72862186D01*
X94191024Y-72392315D01*
X94091508Y-72151465D01*
X94703696Y-72151465D01*
X94883128Y-72585725D01*
X95215087Y-72918264D01*
X95649034Y-73098454D01*
X96118905Y-73098864D01*
X96553165Y-72919432D01*
X96612575Y-72860125D01*
X97578976Y-72860125D01*
X97758408Y-73294385D01*
X98090367Y-73626924D01*
X98524314Y-73807114D01*
X98994185Y-73807524D01*
X99428445Y-73628092D01*
X99760984Y-73296133D01*
X99941174Y-72862186D01*
X99941584Y-72392315D01*
X99762152Y-71958055D01*
X99430193Y-71625516D01*
X98996246Y-71445326D01*
X98526375Y-71444916D01*
X98092115Y-71624348D01*
X97759576Y-71956307D01*
X97579386Y-72390254D01*
X97578976Y-72860125D01*
X96612575Y-72860125D01*
X96885704Y-72587473D01*
X97065894Y-72153526D01*
X97066304Y-71683655D01*
X96886872Y-71249395D01*
X96554913Y-70916856D01*
X96120966Y-70736666D01*
X95651095Y-70736256D01*
X95216835Y-70915688D01*
X94884296Y-71247647D01*
X94704106Y-71681594D01*
X94703696Y-72151465D01*
X94091508Y-72151465D01*
X94011592Y-71958055D01*
X93679633Y-71625516D01*
X93245686Y-71445326D01*
X92775815Y-71444916D01*
X92341555Y-71624348D01*
X92009016Y-71956307D01*
X91828826Y-72390254D01*
X91828416Y-72860125D01*
X79067411Y-72860125D01*
X79749052Y-72179673D01*
X80136559Y-71246454D01*
X80137440Y-70235979D01*
X79854679Y-69551643D01*
X101997249Y-69551643D01*
X102226267Y-70105909D01*
X102649961Y-70530342D01*
X103203826Y-70760327D01*
X103803543Y-70760851D01*
X104357809Y-70531833D01*
X104782242Y-70108139D01*
X105012227Y-69554274D01*
X105012229Y-69551643D01*
X105172249Y-69551643D01*
X105401267Y-70105909D01*
X105824961Y-70530342D01*
X106378826Y-70760327D01*
X106978543Y-70760851D01*
X107532809Y-70531833D01*
X107957242Y-70108139D01*
X108187227Y-69554274D01*
X108187751Y-68954557D01*
X107958733Y-68400291D01*
X107535039Y-67975858D01*
X106981174Y-67745873D01*
X106381457Y-67745349D01*
X105827191Y-67974367D01*
X105402758Y-68398061D01*
X105172773Y-68951926D01*
X105172249Y-69551643D01*
X105012229Y-69551643D01*
X105012751Y-68954557D01*
X104783733Y-68400291D01*
X104360039Y-67975858D01*
X103806174Y-67745873D01*
X103206457Y-67745349D01*
X102652191Y-67974367D01*
X102227758Y-68398061D01*
X101997773Y-68951926D01*
X101997249Y-69551643D01*
X79854679Y-69551643D01*
X79751563Y-69302085D01*
X79037673Y-68586948D01*
X78104454Y-68199441D01*
X77093979Y-68198560D01*
X76160085Y-68584437D01*
X75444948Y-69298327D01*
X75057441Y-70231546D01*
X75056560Y-71242021D01*
X75144817Y-71455619D01*
X73980599Y-70291401D01*
X73775239Y-70154184D01*
X73533000Y-70105999D01*
X73532995Y-70106000D01*
X62873130Y-70106000D01*
X63102227Y-69554274D01*
X63102751Y-68954557D01*
X62873733Y-68400291D01*
X62450039Y-67975858D01*
X61896174Y-67745873D01*
X61296457Y-67745349D01*
X60742191Y-67974367D01*
X60317758Y-68398061D01*
X60087773Y-68951926D01*
X60087249Y-69551643D01*
X60316267Y-70105909D01*
X60316358Y-70106000D01*
X59698130Y-70106000D01*
X59927227Y-69554274D01*
X59927751Y-68954557D01*
X59698733Y-68400291D01*
X59275039Y-67975858D01*
X58721174Y-67745873D01*
X58121457Y-67745349D01*
X57567191Y-67974367D01*
X57142758Y-68398061D01*
X56912773Y-68951926D01*
X56912249Y-69551643D01*
X57141267Y-70105909D01*
X57141358Y-70106000D01*
X44577005Y-70106000D01*
X44577000Y-70105999D01*
X44374952Y-70146190D01*
X44334761Y-70154184D01*
X44129401Y-70291401D01*
X44129399Y-70291404D01*
X42496810Y-71923993D01*
X42497270Y-71396454D01*
X42260578Y-70823617D01*
X41822688Y-70384962D01*
X41250265Y-70147271D01*
X40790478Y-70146870D01*
X40741062Y-70097454D01*
X40994953Y-70014116D01*
X41200590Y-69449694D01*
X41174579Y-68849542D01*
X40994953Y-68415884D01*
X40741060Y-68332545D01*
X39858605Y-69215000D01*
X39872748Y-69229143D01*
X39693143Y-69408748D01*
X39679000Y-69394605D01*
X38796545Y-70277060D01*
X38879884Y-70530953D01*
X39444306Y-70736590D01*
X39715611Y-70724831D01*
X39618962Y-70821312D01*
X39381271Y-71393735D01*
X39380730Y-72013546D01*
X39617422Y-72586383D01*
X40055312Y-73025038D01*
X40060037Y-73027000D01*
X39378197Y-73027000D01*
X36350697Y-69999500D01*
X36350767Y-69999430D01*
X36561760Y-69491303D01*
X36562205Y-68980306D01*
X38157410Y-68980306D01*
X38183421Y-69580458D01*
X38363047Y-70014116D01*
X38616940Y-70097455D01*
X39499395Y-69215000D01*
X38616940Y-68332545D01*
X38363047Y-68415884D01*
X38157410Y-68980306D01*
X36562205Y-68980306D01*
X36562240Y-68941111D01*
X36352134Y-68432617D01*
X36072946Y-68152940D01*
X38796545Y-68152940D01*
X39679000Y-69035395D01*
X40561455Y-68152940D01*
X40478116Y-67899047D01*
X39913694Y-67693410D01*
X39313542Y-67719421D01*
X38879884Y-67899047D01*
X38796545Y-68152940D01*
X36072946Y-68152940D01*
X35963430Y-68043233D01*
X35455303Y-67832240D01*
X34905111Y-67831760D01*
X34396617Y-68041866D01*
X34007233Y-68430570D01*
X33796240Y-68938697D01*
X33795760Y-69488889D01*
X34005866Y-69997383D01*
X34155418Y-70147197D01*
X33620454Y-70146730D01*
X33047617Y-70383422D01*
X32608962Y-70821312D01*
X32371271Y-71393735D01*
X32370730Y-72013546D01*
X32607422Y-72586383D01*
X33045312Y-73025038D01*
X33050037Y-73027000D01*
X31532362Y-73027000D01*
X31533383Y-73026578D01*
X31972038Y-72588688D01*
X32209729Y-72016265D01*
X32210270Y-71396454D01*
X31973578Y-70823617D01*
X31535688Y-70384962D01*
X30963265Y-70147271D01*
X30503478Y-70146870D01*
X30454062Y-70097454D01*
X30707953Y-70014116D01*
X30913590Y-69449694D01*
X30887579Y-68849542D01*
X30707953Y-68415884D01*
X30454060Y-68332545D01*
X29571605Y-69215000D01*
X29585748Y-69229143D01*
X29406143Y-69408748D01*
X29392000Y-69394605D01*
X28509545Y-70277060D01*
X28592884Y-70530953D01*
X29157306Y-70736590D01*
X29428611Y-70724831D01*
X29331962Y-70821312D01*
X29094271Y-71393735D01*
X29093730Y-72013546D01*
X29272571Y-72446374D01*
X26274797Y-69448599D01*
X26275205Y-68980306D01*
X27870410Y-68980306D01*
X27896421Y-69580458D01*
X28076047Y-70014116D01*
X28329940Y-70097455D01*
X29212395Y-69215000D01*
X28329940Y-68332545D01*
X28076047Y-68415884D01*
X27870410Y-68980306D01*
X26275205Y-68980306D01*
X26275240Y-68941111D01*
X26065134Y-68432617D01*
X25785946Y-68152940D01*
X28509545Y-68152940D01*
X29392000Y-69035395D01*
X30274455Y-68152940D01*
X30191116Y-67899047D01*
X29626694Y-67693410D01*
X29026542Y-67719421D01*
X28592884Y-67899047D01*
X28509545Y-68152940D01*
X25785946Y-68152940D01*
X25676430Y-68043233D01*
X25168303Y-67832240D01*
X24618111Y-67831760D01*
X24109617Y-68041866D01*
X23720233Y-68430570D01*
X23509240Y-68938697D01*
X23508760Y-69488889D01*
X23718866Y-69997383D01*
X23868418Y-70147197D01*
X23333454Y-70146730D01*
X22760617Y-70383422D01*
X22427000Y-70716457D01*
X22427000Y-67512000D01*
X169343000Y-67512000D01*
X169343000Y-103430000D01*
X169343000Y-103430000D01*
G37*
X169343000Y-103430000D02*
X135555828Y-103430000D01*
X136852876Y-102132952D01*
X137556000Y-102132952D01*
X137744253Y-102097530D01*
X137917153Y-101986272D01*
X138033145Y-101816512D01*
X138064131Y-101663500D01*
X139872573Y-101663500D01*
X140122663Y-101914026D01*
X140589273Y-102107779D01*
X141094510Y-102108220D01*
X141561458Y-101915282D01*
X141919026Y-101558337D01*
X142112779Y-101091727D01*
X142113220Y-100586490D01*
X142006415Y-100328000D01*
X144263802Y-100328000D01*
X144967399Y-101031596D01*
X144967401Y-101031599D01*
X145172761Y-101168816D01*
X145212952Y-101176810D01*
X145415000Y-101217001D01*
X145415005Y-101217000D01*
X148081995Y-101217000D01*
X148082000Y-101217001D01*
X148324239Y-101168816D01*
X148529599Y-101031599D01*
X149651160Y-99910038D01*
X149710697Y-99934760D01*
X150260889Y-99935240D01*
X150769383Y-99725134D01*
X151158767Y-99336430D01*
X151369760Y-98828303D01*
X151370240Y-98278111D01*
X151160134Y-97769617D01*
X151010582Y-97619803D01*
X151545546Y-97620270D01*
X152118383Y-97383578D01*
X152313848Y-97188454D01*
X152313848Y-100556060D01*
X152349270Y-100744313D01*
X152460528Y-100917213D01*
X152630288Y-101033205D01*
X152831800Y-101074012D01*
X156331920Y-101074012D01*
X156520173Y-101038590D01*
X156693073Y-100927332D01*
X156809065Y-100757572D01*
X156849872Y-100556060D01*
X156849872Y-99091750D01*
X158196280Y-99091750D01*
X158196280Y-100682370D01*
X158292953Y-100915759D01*
X158471582Y-101094387D01*
X158704971Y-101191060D01*
X160295590Y-101191060D01*
X160454340Y-101032310D01*
X160454340Y-98933000D01*
X160708340Y-98933000D01*
X160708340Y-101032310D01*
X160867090Y-101191060D01*
X162457709Y-101191060D01*
X162691098Y-101094387D01*
X162869727Y-100915759D01*
X162966400Y-100682370D01*
X162966400Y-99091750D01*
X162807650Y-98933000D01*
X160708340Y-98933000D01*
X160454340Y-98933000D01*
X158355030Y-98933000D01*
X158196280Y-99091750D01*
X156849872Y-99091750D01*
X156849872Y-97055940D01*
X156814450Y-96867687D01*
X156703192Y-96694787D01*
X156533432Y-96578795D01*
X156331920Y-96537988D01*
X152831800Y-96537988D01*
X152717391Y-96559515D01*
X152794729Y-96373265D01*
X152795270Y-95753454D01*
X152558578Y-95180617D01*
X152120688Y-94741962D01*
X151548265Y-94504271D01*
X150928454Y-94503730D01*
X150355617Y-94740422D01*
X149916962Y-95178312D01*
X149679271Y-95750735D01*
X149678730Y-96370546D01*
X149915422Y-96943383D01*
X150140778Y-97169133D01*
X149713111Y-97168760D01*
X149204617Y-97378866D01*
X148815233Y-97767570D01*
X148604240Y-98275697D01*
X148603760Y-98825889D01*
X148703507Y-99067295D01*
X147819802Y-99951000D01*
X146085622Y-99951000D01*
X146286116Y-99867953D01*
X146369455Y-99614060D01*
X145487000Y-98731605D01*
X145472858Y-98745748D01*
X145293253Y-98566143D01*
X145307395Y-98552000D01*
X145666605Y-98552000D01*
X146549060Y-99434455D01*
X146802953Y-99351116D01*
X147008590Y-98786694D01*
X146982579Y-98186542D01*
X146802953Y-97752884D01*
X146549060Y-97669545D01*
X145666605Y-98552000D01*
X145307395Y-98552000D01*
X145293253Y-98537858D01*
X145472858Y-98358253D01*
X145487000Y-98372395D01*
X146369455Y-97489940D01*
X146286116Y-97236047D01*
X145721694Y-97030410D01*
X145450389Y-97042169D01*
X145547038Y-96945688D01*
X145784729Y-96373265D01*
X145785270Y-95753454D01*
X145548578Y-95180617D01*
X145110688Y-94741962D01*
X144538265Y-94504271D01*
X143918454Y-94503730D01*
X143345617Y-94740422D01*
X142906962Y-95178312D01*
X142669271Y-95750735D01*
X142668730Y-96370546D01*
X142905422Y-96943383D01*
X143343312Y-97382038D01*
X143915735Y-97619729D01*
X144375522Y-97620130D01*
X144424938Y-97669546D01*
X144171047Y-97752884D01*
X143965410Y-98317306D01*
X143991421Y-98917458D01*
X144051292Y-99062000D01*
X141950844Y-99062000D01*
X142065397Y-99029143D01*
X142252144Y-98505698D01*
X142224362Y-97950632D01*
X142065397Y-97566857D01*
X141823213Y-97497392D01*
X141022605Y-98298000D01*
X141036748Y-98312143D01*
X140857143Y-98491748D01*
X140843000Y-98477605D01*
X140828858Y-98491748D01*
X140649253Y-98312143D01*
X140663395Y-98298000D01*
X139862787Y-97497392D01*
X139620603Y-97566857D01*
X139433856Y-98090302D01*
X139461638Y-98645368D01*
X139620603Y-99029143D01*
X139735156Y-99062000D01*
X138058832Y-99062000D01*
X138203622Y-98645922D01*
X138174083Y-98135572D01*
X138035611Y-97801271D01*
X137805016Y-97745590D01*
X137085605Y-98465000D01*
X137099748Y-98479142D01*
X136920142Y-98658748D01*
X136906000Y-98644605D01*
X136891858Y-98658748D01*
X136712252Y-98479142D01*
X136726395Y-98465000D01*
X136006984Y-97745590D01*
X135776389Y-97801271D01*
X135608378Y-98284078D01*
X135637917Y-98794428D01*
X135748749Y-99062000D01*
X133358197Y-99062000D01*
X131862181Y-97565984D01*
X136186590Y-97565984D01*
X136906000Y-98285395D01*
X137625410Y-97565984D01*
X137569729Y-97335389D01*
X137086922Y-97167378D01*
X136576572Y-97196917D01*
X136242271Y-97335389D01*
X136186590Y-97565984D01*
X131862181Y-97565984D01*
X131387697Y-97091500D01*
X131655206Y-97091500D01*
X131918574Y-97200860D01*
X132240016Y-97201140D01*
X132537097Y-97078389D01*
X132764590Y-96851293D01*
X132887860Y-96554426D01*
X132888140Y-96232984D01*
X132795803Y-96009510D01*
X139572780Y-96009510D01*
X139765718Y-96476458D01*
X140122663Y-96834026D01*
X140408516Y-96952722D01*
X140111857Y-97075603D01*
X140042392Y-97317787D01*
X140843000Y-98118395D01*
X141643608Y-97317787D01*
X141574143Y-97075603D01*
X141255212Y-96961820D01*
X141561458Y-96835282D01*
X141919026Y-96478337D01*
X142112779Y-96011727D01*
X142113220Y-95506490D01*
X141920282Y-95039542D01*
X141563337Y-94681974D01*
X141096727Y-94488221D01*
X140591490Y-94487780D01*
X140124542Y-94680718D01*
X139766974Y-95037663D01*
X139573221Y-95504273D01*
X139572780Y-96009510D01*
X132795803Y-96009510D01*
X132765389Y-95935903D01*
X132538293Y-95708410D01*
X132241426Y-95585140D01*
X131919984Y-95584860D01*
X131654634Y-95694500D01*
X131353328Y-95694500D01*
X130051578Y-94392750D01*
X155196540Y-94392750D01*
X155196540Y-95983370D01*
X155293213Y-96216759D01*
X155471842Y-96395387D01*
X155705231Y-96492060D01*
X157295850Y-96492060D01*
X157454600Y-96333310D01*
X157454600Y-94234000D01*
X157708600Y-94234000D01*
X157708600Y-96333310D01*
X157867350Y-96492060D01*
X158533272Y-96492060D01*
X158471582Y-96517613D01*
X158292953Y-96696241D01*
X158196280Y-96929630D01*
X158196280Y-98520250D01*
X158355030Y-98679000D01*
X160454340Y-98679000D01*
X160454340Y-96579690D01*
X160708340Y-96579690D01*
X160708340Y-98679000D01*
X162807650Y-98679000D01*
X162966400Y-98520250D01*
X162966400Y-96929630D01*
X162869727Y-96696241D01*
X162691098Y-96517613D01*
X162457709Y-96420940D01*
X160867090Y-96420940D01*
X160708340Y-96579690D01*
X160454340Y-96579690D01*
X160295590Y-96420940D01*
X159629668Y-96420940D01*
X159691358Y-96395387D01*
X159869987Y-96216759D01*
X159966660Y-95983370D01*
X159966660Y-94392750D01*
X159807910Y-94234000D01*
X157708600Y-94234000D01*
X157454600Y-94234000D01*
X155355290Y-94234000D01*
X155196540Y-94392750D01*
X130051578Y-94392750D01*
X127889458Y-92230630D01*
X155196540Y-92230630D01*
X155196540Y-93821250D01*
X155355290Y-93980000D01*
X157454600Y-93980000D01*
X157454600Y-91880690D01*
X157708600Y-91880690D01*
X157708600Y-93980000D01*
X159807910Y-93980000D01*
X159966660Y-93821250D01*
X159966660Y-92230630D01*
X159869987Y-91997241D01*
X159691358Y-91818613D01*
X159685101Y-91816021D01*
X163956560Y-91816021D01*
X164342437Y-92749915D01*
X165056327Y-93465052D01*
X165989546Y-93852559D01*
X167000021Y-93853440D01*
X167933915Y-93467563D01*
X168649052Y-92753673D01*
X169036559Y-91820454D01*
X169037440Y-90809979D01*
X168651563Y-89876085D01*
X167937673Y-89160948D01*
X167004454Y-88773441D01*
X165993979Y-88772560D01*
X165060085Y-89158437D01*
X164344948Y-89872327D01*
X163957441Y-90805546D01*
X163956560Y-91816021D01*
X159685101Y-91816021D01*
X159457969Y-91721940D01*
X157867350Y-91721940D01*
X157708600Y-91880690D01*
X157454600Y-91880690D01*
X157295850Y-91721940D01*
X155705231Y-91721940D01*
X155471842Y-91818613D01*
X155293213Y-91997241D01*
X155196540Y-92230630D01*
X127889458Y-92230630D01*
X126746000Y-91087172D01*
X126746000Y-84348545D01*
X138307876Y-84348545D01*
X138487308Y-84782805D01*
X138819267Y-85115344D01*
X139253214Y-85295534D01*
X139723085Y-85295944D01*
X140157345Y-85116512D01*
X140489884Y-84784553D01*
X140670074Y-84350606D01*
X140670075Y-84348545D01*
X141269516Y-84348545D01*
X141448948Y-84782805D01*
X141780907Y-85115344D01*
X142214854Y-85295534D01*
X142684725Y-85295944D01*
X143118985Y-85116512D01*
X143451524Y-84784553D01*
X143631714Y-84350606D01*
X143631715Y-84348545D01*
X156722876Y-84348545D01*
X156902308Y-84782805D01*
X157234267Y-85115344D01*
X157668214Y-85295534D01*
X158138085Y-85295944D01*
X158572345Y-85116512D01*
X158904884Y-84784553D01*
X159085074Y-84350606D01*
X159085075Y-84348545D01*
X159684516Y-84348545D01*
X159863948Y-84782805D01*
X160195907Y-85115344D01*
X160629854Y-85295534D01*
X161099725Y-85295944D01*
X161533985Y-85116512D01*
X161866524Y-84784553D01*
X162046714Y-84350606D01*
X162047124Y-83880735D01*
X161867692Y-83446475D01*
X161535733Y-83113936D01*
X161193588Y-82971865D01*
X162308336Y-82971865D01*
X162487768Y-83406125D01*
X162819727Y-83738664D01*
X163253674Y-83918854D01*
X163723545Y-83919264D01*
X164157805Y-83739832D01*
X164490344Y-83407873D01*
X164670534Y-82973926D01*
X164670944Y-82504055D01*
X164491512Y-82069795D01*
X164159553Y-81737256D01*
X163725606Y-81557066D01*
X163255735Y-81556656D01*
X162821475Y-81736088D01*
X162488936Y-82068047D01*
X162308746Y-82501994D01*
X162308336Y-82971865D01*
X161193588Y-82971865D01*
X161101786Y-82933746D01*
X160631915Y-82933336D01*
X160197655Y-83112768D01*
X159865116Y-83444727D01*
X159684926Y-83878674D01*
X159684516Y-84348545D01*
X159085075Y-84348545D01*
X159085484Y-83880735D01*
X158906052Y-83446475D01*
X158574093Y-83113936D01*
X158140146Y-82933746D01*
X157670275Y-82933336D01*
X157236015Y-83112768D01*
X156903476Y-83444727D01*
X156723286Y-83878674D01*
X156722876Y-84348545D01*
X143631715Y-84348545D01*
X143632124Y-83880735D01*
X143452692Y-83446475D01*
X143120733Y-83113936D01*
X142778588Y-82971865D01*
X143893336Y-82971865D01*
X144072768Y-83406125D01*
X144404727Y-83738664D01*
X144838674Y-83918854D01*
X145308545Y-83919264D01*
X145742805Y-83739832D01*
X146075344Y-83407873D01*
X146255534Y-82973926D01*
X146255535Y-82971865D01*
X154099056Y-82971865D01*
X154278488Y-83406125D01*
X154610447Y-83738664D01*
X155044394Y-83918854D01*
X155514265Y-83919264D01*
X155948525Y-83739832D01*
X156281064Y-83407873D01*
X156461254Y-82973926D01*
X156461664Y-82504055D01*
X156282232Y-82069795D01*
X155950273Y-81737256D01*
X155516326Y-81557066D01*
X155046455Y-81556656D01*
X154612195Y-81736088D01*
X154279656Y-82068047D01*
X154099466Y-82501994D01*
X154099056Y-82971865D01*
X146255535Y-82971865D01*
X146255944Y-82504055D01*
X146076512Y-82069795D01*
X145744553Y-81737256D01*
X145310606Y-81557066D01*
X144840735Y-81556656D01*
X144406475Y-81736088D01*
X144073936Y-82068047D01*
X143893746Y-82501994D01*
X143893336Y-82971865D01*
X142778588Y-82971865D01*
X142686786Y-82933746D01*
X142216915Y-82933336D01*
X141782655Y-83112768D01*
X141450116Y-83444727D01*
X141269926Y-83878674D01*
X141269516Y-84348545D01*
X140670075Y-84348545D01*
X140670484Y-83880735D01*
X140491052Y-83446475D01*
X140159093Y-83113936D01*
X139725146Y-82933746D01*
X139255275Y-82933336D01*
X138821015Y-83112768D01*
X138488476Y-83444727D01*
X138308286Y-83878674D01*
X138307876Y-84348545D01*
X126746000Y-84348545D01*
X126746000Y-82971865D01*
X135684056Y-82971865D01*
X135863488Y-83406125D01*
X136195447Y-83738664D01*
X136629394Y-83918854D01*
X137099265Y-83919264D01*
X137533525Y-83739832D01*
X137866064Y-83407873D01*
X138046254Y-82973926D01*
X138046664Y-82504055D01*
X137867232Y-82069795D01*
X137535273Y-81737256D01*
X137101326Y-81557066D01*
X136631455Y-81556656D01*
X136197195Y-81736088D01*
X135864656Y-82068047D01*
X135684466Y-82501994D01*
X135684056Y-82971865D01*
X126746000Y-82971865D01*
X126746000Y-80812908D01*
X126947057Y-80612201D01*
X127109035Y-80222116D01*
X127109036Y-80220263D01*
X128160596Y-80220263D01*
X128321893Y-80610630D01*
X128620299Y-80909557D01*
X129010384Y-81071535D01*
X129432763Y-81071904D01*
X129823130Y-80910607D01*
X130122057Y-80612201D01*
X130154751Y-80533465D01*
X134002576Y-80533465D01*
X134182008Y-80967725D01*
X134513967Y-81300264D01*
X134947914Y-81480454D01*
X135417785Y-81480864D01*
X135852045Y-81301432D01*
X136184584Y-80969473D01*
X136364774Y-80535526D01*
X136364775Y-80533465D01*
X145574816Y-80533465D01*
X145754248Y-80967725D01*
X146086207Y-81300264D01*
X146520154Y-81480454D01*
X146990025Y-81480864D01*
X147424285Y-81301432D01*
X147756824Y-80969473D01*
X147937014Y-80535526D01*
X147937015Y-80533465D01*
X152417576Y-80533465D01*
X152597008Y-80967725D01*
X152928967Y-81300264D01*
X153362914Y-81480454D01*
X153832785Y-81480864D01*
X154267045Y-81301432D01*
X154599584Y-80969473D01*
X154779774Y-80535526D01*
X154779775Y-80533465D01*
X163989816Y-80533465D01*
X164169248Y-80967725D01*
X164501207Y-81300264D01*
X164935154Y-81480454D01*
X165405025Y-81480864D01*
X165839285Y-81301432D01*
X166171824Y-80969473D01*
X166352014Y-80535526D01*
X166352424Y-80065655D01*
X166172992Y-79631395D01*
X165841033Y-79298856D01*
X165407086Y-79118666D01*
X164937215Y-79118256D01*
X164502955Y-79297688D01*
X164170416Y-79629647D01*
X163990226Y-80063594D01*
X163989816Y-80533465D01*
X154779775Y-80533465D01*
X154780184Y-80065655D01*
X154600752Y-79631395D01*
X154268793Y-79298856D01*
X153834846Y-79118666D01*
X153364975Y-79118256D01*
X152930715Y-79297688D01*
X152598176Y-79629647D01*
X152417986Y-80063594D01*
X152417576Y-80533465D01*
X147937015Y-80533465D01*
X147937424Y-80065655D01*
X147757992Y-79631395D01*
X147426033Y-79298856D01*
X146992086Y-79118666D01*
X146522215Y-79118256D01*
X146087955Y-79297688D01*
X145755416Y-79629647D01*
X145575226Y-80063594D01*
X145574816Y-80533465D01*
X136364775Y-80533465D01*
X136365184Y-80065655D01*
X136185752Y-79631395D01*
X135853793Y-79298856D01*
X135419846Y-79118666D01*
X134949975Y-79118256D01*
X134515715Y-79297688D01*
X134183176Y-79629647D01*
X134002986Y-80063594D01*
X134002576Y-80533465D01*
X130154751Y-80533465D01*
X130284035Y-80222116D01*
X130284404Y-79799737D01*
X130123107Y-79409370D01*
X129824701Y-79110443D01*
X129434616Y-78948465D01*
X129012237Y-78948096D01*
X128621870Y-79109393D01*
X128322943Y-79407799D01*
X128160965Y-79797884D01*
X128160596Y-80220263D01*
X127109036Y-80220263D01*
X127109404Y-79799737D01*
X126948107Y-79409370D01*
X126649701Y-79110443D01*
X126259616Y-78948465D01*
X125837237Y-78948096D01*
X125446870Y-79109393D01*
X125147943Y-79407799D01*
X124985965Y-79797884D01*
X124985596Y-80220263D01*
X125146893Y-80610630D01*
X125349000Y-80813090D01*
X125349000Y-91052802D01*
X119827599Y-85531401D01*
X119622239Y-85394184D01*
X119380000Y-85345999D01*
X119379995Y-85346000D01*
X109855005Y-85346000D01*
X109855000Y-85345999D01*
X109612761Y-85394184D01*
X109407401Y-85531401D01*
X108751879Y-86186923D01*
X108678984Y-86186860D01*
X108675821Y-86188167D01*
X108661816Y-86117761D01*
X108524599Y-85912401D01*
X108524596Y-85912399D01*
X108143599Y-85531401D01*
X107938239Y-85394184D01*
X107696000Y-85345999D01*
X107695995Y-85346000D01*
X90686197Y-85346000D01*
X89688743Y-84348545D01*
X93222876Y-84348545D01*
X93402308Y-84782805D01*
X93734267Y-85115344D01*
X94168214Y-85295534D01*
X94638085Y-85295944D01*
X95072345Y-85116512D01*
X95404884Y-84784553D01*
X95585074Y-84350606D01*
X95585075Y-84348545D01*
X96184516Y-84348545D01*
X96363948Y-84782805D01*
X96695907Y-85115344D01*
X97129854Y-85295534D01*
X97599725Y-85295944D01*
X98033985Y-85116512D01*
X98366524Y-84784553D01*
X98546714Y-84350606D01*
X98546715Y-84348545D01*
X111637876Y-84348545D01*
X111817308Y-84782805D01*
X112149267Y-85115344D01*
X112583214Y-85295534D01*
X113053085Y-85295944D01*
X113487345Y-85116512D01*
X113819884Y-84784553D01*
X114000074Y-84350606D01*
X114000075Y-84348545D01*
X114599516Y-84348545D01*
X114778948Y-84782805D01*
X115110907Y-85115344D01*
X115544854Y-85295534D01*
X116014725Y-85295944D01*
X116448985Y-85116512D01*
X116781524Y-84784553D01*
X116961714Y-84350606D01*
X116962124Y-83880735D01*
X116782692Y-83446475D01*
X116450733Y-83113936D01*
X116108588Y-82971865D01*
X117223336Y-82971865D01*
X117402768Y-83406125D01*
X117734727Y-83738664D01*
X118168674Y-83918854D01*
X118638545Y-83919264D01*
X119072805Y-83739832D01*
X119405344Y-83407873D01*
X119585534Y-82973926D01*
X119585944Y-82504055D01*
X119406512Y-82069795D01*
X119074553Y-81737256D01*
X118640606Y-81557066D01*
X118170735Y-81556656D01*
X117736475Y-81736088D01*
X117403936Y-82068047D01*
X117223746Y-82501994D01*
X117223336Y-82971865D01*
X116108588Y-82971865D01*
X116016786Y-82933746D01*
X115546915Y-82933336D01*
X115112655Y-83112768D01*
X114780116Y-83444727D01*
X114599926Y-83878674D01*
X114599516Y-84348545D01*
X114000075Y-84348545D01*
X114000484Y-83880735D01*
X113821052Y-83446475D01*
X113489093Y-83113936D01*
X113055146Y-82933746D01*
X112585275Y-82933336D01*
X112151015Y-83112768D01*
X111818476Y-83444727D01*
X111638286Y-83878674D01*
X111637876Y-84348545D01*
X98546715Y-84348545D01*
X98547124Y-83880735D01*
X98367692Y-83446475D01*
X98035733Y-83113936D01*
X97693588Y-82971865D01*
X98808336Y-82971865D01*
X98987768Y-83406125D01*
X99319727Y-83738664D01*
X99753674Y-83918854D01*
X100223545Y-83919264D01*
X100657805Y-83739832D01*
X100990344Y-83407873D01*
X101170534Y-82973926D01*
X101170535Y-82971865D01*
X109014056Y-82971865D01*
X109193488Y-83406125D01*
X109525447Y-83738664D01*
X109959394Y-83918854D01*
X110429265Y-83919264D01*
X110863525Y-83739832D01*
X111196064Y-83407873D01*
X111376254Y-82973926D01*
X111376664Y-82504055D01*
X111197232Y-82069795D01*
X110865273Y-81737256D01*
X110431326Y-81557066D01*
X109961455Y-81556656D01*
X109527195Y-81736088D01*
X109194656Y-82068047D01*
X109014466Y-82501994D01*
X109014056Y-82971865D01*
X101170535Y-82971865D01*
X101170944Y-82504055D01*
X100991512Y-82069795D01*
X100659553Y-81737256D01*
X100225606Y-81557066D01*
X99755735Y-81556656D01*
X99321475Y-81736088D01*
X98988936Y-82068047D01*
X98808746Y-82501994D01*
X98808336Y-82971865D01*
X97693588Y-82971865D01*
X97601786Y-82933746D01*
X97131915Y-82933336D01*
X96697655Y-83112768D01*
X96365116Y-83444727D01*
X96184926Y-83878674D01*
X96184516Y-84348545D01*
X95585075Y-84348545D01*
X95585484Y-83880735D01*
X95406052Y-83446475D01*
X95074093Y-83113936D01*
X94640146Y-82933746D01*
X94170275Y-82933336D01*
X93736015Y-83112768D01*
X93403476Y-83444727D01*
X93223286Y-83878674D01*
X93222876Y-84348545D01*
X89688743Y-84348545D01*
X88312063Y-82971865D01*
X90599056Y-82971865D01*
X90778488Y-83406125D01*
X91110447Y-83738664D01*
X91544394Y-83918854D01*
X92014265Y-83919264D01*
X92448525Y-83739832D01*
X92781064Y-83407873D01*
X92961254Y-82973926D01*
X92961664Y-82504055D01*
X92782232Y-82069795D01*
X92450273Y-81737256D01*
X92016326Y-81557066D01*
X91546455Y-81556656D01*
X91112195Y-81736088D01*
X90779656Y-82068047D01*
X90599466Y-82501994D01*
X90599056Y-82971865D01*
X88312063Y-82971865D01*
X87755000Y-82414802D01*
X87755000Y-80533465D01*
X88917576Y-80533465D01*
X89097008Y-80967725D01*
X89428967Y-81300264D01*
X89862914Y-81480454D01*
X90332785Y-81480864D01*
X90767045Y-81301432D01*
X91099584Y-80969473D01*
X91279774Y-80535526D01*
X91279775Y-80533465D01*
X100489816Y-80533465D01*
X100669248Y-80967725D01*
X101001207Y-81300264D01*
X101435154Y-81480454D01*
X101905025Y-81480864D01*
X102339285Y-81301432D01*
X102671824Y-80969473D01*
X102852014Y-80535526D01*
X102852015Y-80533465D01*
X107332576Y-80533465D01*
X107512008Y-80967725D01*
X107843967Y-81300264D01*
X108277914Y-81480454D01*
X108747785Y-81480864D01*
X109182045Y-81301432D01*
X109514584Y-80969473D01*
X109694774Y-80535526D01*
X109694775Y-80533465D01*
X118904816Y-80533465D01*
X119084248Y-80967725D01*
X119416207Y-81300264D01*
X119850154Y-81480454D01*
X120320025Y-81480864D01*
X120754285Y-81301432D01*
X121086824Y-80969473D01*
X121267014Y-80535526D01*
X121267424Y-80065655D01*
X121087992Y-79631395D01*
X120756033Y-79298856D01*
X120322086Y-79118666D01*
X119852215Y-79118256D01*
X119417955Y-79297688D01*
X119085416Y-79629647D01*
X118905226Y-80063594D01*
X118904816Y-80533465D01*
X109694775Y-80533465D01*
X109695184Y-80065655D01*
X109515752Y-79631395D01*
X109183793Y-79298856D01*
X108749846Y-79118666D01*
X108279975Y-79118256D01*
X107845715Y-79297688D01*
X107513176Y-79629647D01*
X107332986Y-80063594D01*
X107332576Y-80533465D01*
X102852015Y-80533465D01*
X102852424Y-80065655D01*
X102672992Y-79631395D01*
X102341033Y-79298856D01*
X101907086Y-79118666D01*
X101437215Y-79118256D01*
X101002955Y-79297688D01*
X100670416Y-79629647D01*
X100490226Y-80063594D01*
X100489816Y-80533465D01*
X91279775Y-80533465D01*
X91280184Y-80065655D01*
X91100752Y-79631395D01*
X90768793Y-79298856D01*
X90334846Y-79118666D01*
X89864975Y-79118256D01*
X89430715Y-79297688D01*
X89098176Y-79629647D01*
X88917986Y-80063594D01*
X88917576Y-80533465D01*
X87755000Y-80533465D01*
X87755000Y-79629005D01*
X87755001Y-79629000D01*
X87706816Y-79386761D01*
X87569599Y-79181401D01*
X85982883Y-77594685D01*
X88559436Y-77594685D01*
X88738868Y-78028945D01*
X89070827Y-78361484D01*
X89504774Y-78541674D01*
X89974645Y-78542084D01*
X90408905Y-78362652D01*
X90741444Y-78030693D01*
X90921634Y-77596746D01*
X90921635Y-77594685D01*
X100847956Y-77594685D01*
X101027388Y-78028945D01*
X101359347Y-78361484D01*
X101793294Y-78541674D01*
X102263165Y-78542084D01*
X102697425Y-78362652D01*
X103029964Y-78030693D01*
X103210154Y-77596746D01*
X103210155Y-77594685D01*
X106974436Y-77594685D01*
X107153868Y-78028945D01*
X107485827Y-78361484D01*
X107919774Y-78541674D01*
X108389645Y-78542084D01*
X108823905Y-78362652D01*
X109156444Y-78030693D01*
X109336634Y-77596746D01*
X109336635Y-77594685D01*
X119262956Y-77594685D01*
X119442388Y-78028945D01*
X119774347Y-78361484D01*
X120208294Y-78541674D01*
X120678165Y-78542084D01*
X121112425Y-78362652D01*
X121444964Y-78030693D01*
X121625154Y-77596746D01*
X121625155Y-77594685D01*
X133644436Y-77594685D01*
X133823868Y-78028945D01*
X134155827Y-78361484D01*
X134589774Y-78541674D01*
X135059645Y-78542084D01*
X135493905Y-78362652D01*
X135826444Y-78030693D01*
X136006634Y-77596746D01*
X136006635Y-77594685D01*
X145932956Y-77594685D01*
X146112388Y-78028945D01*
X146444347Y-78361484D01*
X146878294Y-78541674D01*
X147348165Y-78542084D01*
X147782425Y-78362652D01*
X148114964Y-78030693D01*
X148295154Y-77596746D01*
X148295155Y-77594685D01*
X152059436Y-77594685D01*
X152238868Y-78028945D01*
X152570827Y-78361484D01*
X153004774Y-78541674D01*
X153474645Y-78542084D01*
X153908905Y-78362652D01*
X154241444Y-78030693D01*
X154421634Y-77596746D01*
X154421635Y-77594685D01*
X164347956Y-77594685D01*
X164527388Y-78028945D01*
X164859347Y-78361484D01*
X165293294Y-78541674D01*
X165763165Y-78542084D01*
X166197425Y-78362652D01*
X166529964Y-78030693D01*
X166710154Y-77596746D01*
X166710564Y-77126875D01*
X166531132Y-76692615D01*
X166199173Y-76360076D01*
X165765226Y-76179886D01*
X165295355Y-76179476D01*
X164861095Y-76358908D01*
X164528556Y-76690867D01*
X164348366Y-77124814D01*
X164347956Y-77594685D01*
X154421635Y-77594685D01*
X154422044Y-77126875D01*
X154242612Y-76692615D01*
X153910653Y-76360076D01*
X153476706Y-76179886D01*
X153006835Y-76179476D01*
X152572575Y-76358908D01*
X152240036Y-76690867D01*
X152059846Y-77124814D01*
X152059436Y-77594685D01*
X148295155Y-77594685D01*
X148295564Y-77126875D01*
X148116132Y-76692615D01*
X147784173Y-76360076D01*
X147350226Y-76179886D01*
X146880355Y-76179476D01*
X146446095Y-76358908D01*
X146113556Y-76690867D01*
X145933366Y-77124814D01*
X145932956Y-77594685D01*
X136006635Y-77594685D01*
X136007044Y-77126875D01*
X135827612Y-76692615D01*
X135495653Y-76360076D01*
X135061706Y-76179886D01*
X134591835Y-76179476D01*
X134157575Y-76358908D01*
X133825036Y-76690867D01*
X133644846Y-77124814D01*
X133644436Y-77594685D01*
X121625155Y-77594685D01*
X121625564Y-77126875D01*
X121446132Y-76692615D01*
X121114173Y-76360076D01*
X120680226Y-76179886D01*
X120210355Y-76179476D01*
X119776095Y-76358908D01*
X119443556Y-76690867D01*
X119263366Y-77124814D01*
X119262956Y-77594685D01*
X109336635Y-77594685D01*
X109337044Y-77126875D01*
X109157612Y-76692615D01*
X108825653Y-76360076D01*
X108391706Y-76179886D01*
X107921835Y-76179476D01*
X107487575Y-76358908D01*
X107155036Y-76690867D01*
X106974846Y-77124814D01*
X106974436Y-77594685D01*
X103210155Y-77594685D01*
X103210564Y-77126875D01*
X103031132Y-76692615D01*
X102699173Y-76360076D01*
X102265226Y-76179886D01*
X101795355Y-76179476D01*
X101361095Y-76358908D01*
X101028556Y-76690867D01*
X100848366Y-77124814D01*
X100847956Y-77594685D01*
X90921635Y-77594685D01*
X90922044Y-77126875D01*
X90742612Y-76692615D01*
X90410653Y-76360076D01*
X89976706Y-76179886D01*
X89506835Y-76179476D01*
X89072575Y-76358908D01*
X88740036Y-76690867D01*
X88559846Y-77124814D01*
X88559436Y-77594685D01*
X85982883Y-77594685D01*
X85410599Y-77022401D01*
X85205239Y-76885184D01*
X84963000Y-76836999D01*
X84962995Y-76837000D01*
X80526197Y-76837000D01*
X80126532Y-76437335D01*
X80603183Y-76437751D01*
X81157449Y-76208733D01*
X81581882Y-75785039D01*
X81811867Y-75231174D01*
X81811869Y-75228543D01*
X83798149Y-75228543D01*
X84027167Y-75782809D01*
X84450861Y-76207242D01*
X85004726Y-76437227D01*
X85604443Y-76437751D01*
X86158709Y-76208733D01*
X86583142Y-75785039D01*
X86813127Y-75231174D01*
X86813483Y-74823545D01*
X89610996Y-74823545D01*
X89790428Y-75257805D01*
X90122387Y-75590344D01*
X90556334Y-75770534D01*
X91026205Y-75770944D01*
X91460465Y-75591512D01*
X91793004Y-75259553D01*
X91973194Y-74825606D01*
X91973195Y-74823545D01*
X99796396Y-74823545D01*
X99975828Y-75257805D01*
X100307787Y-75590344D01*
X100741734Y-75770534D01*
X101211605Y-75770944D01*
X101645865Y-75591512D01*
X101978404Y-75259553D01*
X102134201Y-74884352D01*
X102226267Y-75107169D01*
X102649961Y-75531602D01*
X103203826Y-75761587D01*
X103803543Y-75762111D01*
X104357809Y-75533093D01*
X104782242Y-75109399D01*
X105012227Y-74555534D01*
X105012229Y-74552903D01*
X105172249Y-74552903D01*
X105401267Y-75107169D01*
X105824961Y-75531602D01*
X106378826Y-75761587D01*
X106978543Y-75762111D01*
X107532809Y-75533093D01*
X107957242Y-75109399D01*
X108050906Y-74883832D01*
X108205428Y-75257805D01*
X108537387Y-75590344D01*
X108971334Y-75770534D01*
X109441205Y-75770944D01*
X109875465Y-75591512D01*
X110208004Y-75259553D01*
X110388194Y-74825606D01*
X110388195Y-74823545D01*
X118211396Y-74823545D01*
X118390828Y-75257805D01*
X118722787Y-75590344D01*
X119156734Y-75770534D01*
X119626605Y-75770944D01*
X120060865Y-75591512D01*
X120393404Y-75259553D01*
X120406280Y-75228543D01*
X123754889Y-75228543D01*
X123983907Y-75782809D01*
X124407601Y-76207242D01*
X124961466Y-76437227D01*
X125561183Y-76437751D01*
X126115449Y-76208733D01*
X126539882Y-75785039D01*
X126769867Y-75231174D01*
X126769869Y-75228543D01*
X128756149Y-75228543D01*
X128985167Y-75782809D01*
X129408861Y-76207242D01*
X129962726Y-76437227D01*
X130562443Y-76437751D01*
X131116709Y-76208733D01*
X131541142Y-75785039D01*
X131771127Y-75231174D01*
X131771483Y-74823545D01*
X134695996Y-74823545D01*
X134875428Y-75257805D01*
X135207387Y-75590344D01*
X135641334Y-75770534D01*
X136111205Y-75770944D01*
X136545465Y-75591512D01*
X136878004Y-75259553D01*
X137058194Y-74825606D01*
X137058195Y-74823545D01*
X144881396Y-74823545D01*
X145060828Y-75257805D01*
X145392787Y-75590344D01*
X145826734Y-75770534D01*
X146296605Y-75770944D01*
X146730865Y-75591512D01*
X147063404Y-75259553D01*
X147219201Y-74884352D01*
X147311267Y-75107169D01*
X147734961Y-75531602D01*
X148288826Y-75761587D01*
X148888543Y-75762111D01*
X149442809Y-75533093D01*
X149867242Y-75109399D01*
X150097227Y-74555534D01*
X150097229Y-74552903D01*
X150257249Y-74552903D01*
X150486267Y-75107169D01*
X150909961Y-75531602D01*
X151463826Y-75761587D01*
X152063543Y-75762111D01*
X152617809Y-75533093D01*
X153042242Y-75109399D01*
X153135906Y-74883832D01*
X153290428Y-75257805D01*
X153622387Y-75590344D01*
X154056334Y-75770534D01*
X154526205Y-75770944D01*
X154960465Y-75591512D01*
X155293004Y-75259553D01*
X155473194Y-74825606D01*
X155473195Y-74823545D01*
X163296396Y-74823545D01*
X163475828Y-75257805D01*
X163807787Y-75590344D01*
X164241734Y-75770534D01*
X164711605Y-75770944D01*
X165145865Y-75591512D01*
X165478404Y-75259553D01*
X165658594Y-74825606D01*
X165659004Y-74355735D01*
X165479572Y-73921475D01*
X165147613Y-73588936D01*
X164713666Y-73408746D01*
X164243795Y-73408336D01*
X163809535Y-73587768D01*
X163476996Y-73919727D01*
X163296806Y-74353674D01*
X163296396Y-74823545D01*
X155473195Y-74823545D01*
X155473604Y-74355735D01*
X155294172Y-73921475D01*
X154962213Y-73588936D01*
X154528266Y-73408746D01*
X154058395Y-73408336D01*
X153624135Y-73587768D01*
X153291596Y-73919727D01*
X153272743Y-73965131D01*
X153272751Y-73955817D01*
X153043733Y-73401551D01*
X152620039Y-72977118D01*
X152338289Y-72860125D01*
X155328416Y-72860125D01*
X155507848Y-73294385D01*
X155839807Y-73626924D01*
X156273754Y-73807114D01*
X156743625Y-73807524D01*
X157177885Y-73628092D01*
X157510424Y-73296133D01*
X157690614Y-72862186D01*
X157691024Y-72392315D01*
X157591508Y-72151465D01*
X158203696Y-72151465D01*
X158383128Y-72585725D01*
X158715087Y-72918264D01*
X159149034Y-73098454D01*
X159618905Y-73098864D01*
X160053165Y-72919432D01*
X160112575Y-72860125D01*
X161078976Y-72860125D01*
X161258408Y-73294385D01*
X161590367Y-73626924D01*
X162024314Y-73807114D01*
X162494185Y-73807524D01*
X162928445Y-73628092D01*
X163260984Y-73296133D01*
X163441174Y-72862186D01*
X163441584Y-72392315D01*
X163262152Y-71958055D01*
X162930193Y-71625516D01*
X162496246Y-71445326D01*
X162026375Y-71444916D01*
X161592115Y-71624348D01*
X161259576Y-71956307D01*
X161079386Y-72390254D01*
X161078976Y-72860125D01*
X160112575Y-72860125D01*
X160385704Y-72587473D01*
X160565894Y-72153526D01*
X160566304Y-71683655D01*
X160386872Y-71249395D01*
X160054913Y-70916856D01*
X159620966Y-70736666D01*
X159151095Y-70736256D01*
X158716835Y-70915688D01*
X158384296Y-71247647D01*
X158204106Y-71681594D01*
X158203696Y-72151465D01*
X157591508Y-72151465D01*
X157511592Y-71958055D01*
X157179633Y-71625516D01*
X156745686Y-71445326D01*
X156275815Y-71444916D01*
X155841555Y-71624348D01*
X155509016Y-71956307D01*
X155328826Y-72390254D01*
X155328416Y-72860125D01*
X152338289Y-72860125D01*
X152066174Y-72747133D01*
X151466457Y-72746609D01*
X150912191Y-72975627D01*
X150487758Y-73399321D01*
X150257773Y-73953186D01*
X150257249Y-74552903D01*
X150097229Y-74552903D01*
X150097751Y-73955817D01*
X149868733Y-73401551D01*
X149445039Y-72977118D01*
X148891174Y-72747133D01*
X148291457Y-72746609D01*
X147737191Y-72975627D01*
X147312758Y-73399321D01*
X147082773Y-73953186D01*
X147082762Y-73965499D01*
X147064572Y-73921475D01*
X146732613Y-73588936D01*
X146298666Y-73408746D01*
X145828795Y-73408336D01*
X145394535Y-73587768D01*
X145061996Y-73919727D01*
X144881806Y-74353674D01*
X144881396Y-74823545D01*
X137058195Y-74823545D01*
X137058604Y-74355735D01*
X136879172Y-73921475D01*
X136547213Y-73588936D01*
X136113266Y-73408746D01*
X135643395Y-73408336D01*
X135209135Y-73587768D01*
X134876596Y-73919727D01*
X134696406Y-74353674D01*
X134695996Y-74823545D01*
X131771483Y-74823545D01*
X131771651Y-74631457D01*
X131542633Y-74077191D01*
X131118939Y-73652758D01*
X130565074Y-73422773D01*
X129965357Y-73422249D01*
X129411091Y-73651267D01*
X128986658Y-74074961D01*
X128756673Y-74628826D01*
X128756149Y-75228543D01*
X126769869Y-75228543D01*
X126770391Y-74631457D01*
X126541373Y-74077191D01*
X126117679Y-73652758D01*
X125563814Y-73422773D01*
X124964097Y-73422249D01*
X124409831Y-73651267D01*
X123985398Y-74074961D01*
X123755413Y-74628826D01*
X123754889Y-75228543D01*
X120406280Y-75228543D01*
X120573594Y-74825606D01*
X120574004Y-74355735D01*
X120394572Y-73921475D01*
X120062613Y-73588936D01*
X119628666Y-73408746D01*
X119158795Y-73408336D01*
X118724535Y-73587768D01*
X118391996Y-73919727D01*
X118211806Y-74353674D01*
X118211396Y-74823545D01*
X110388195Y-74823545D01*
X110388604Y-74355735D01*
X110209172Y-73921475D01*
X109877213Y-73588936D01*
X109443266Y-73408746D01*
X108973395Y-73408336D01*
X108539135Y-73587768D01*
X108206596Y-73919727D01*
X108187743Y-73965131D01*
X108187751Y-73955817D01*
X107958733Y-73401551D01*
X107535039Y-72977118D01*
X107253289Y-72860125D01*
X110243416Y-72860125D01*
X110422848Y-73294385D01*
X110754807Y-73626924D01*
X111188754Y-73807114D01*
X111658625Y-73807524D01*
X112092885Y-73628092D01*
X112425424Y-73296133D01*
X112605614Y-72862186D01*
X112606024Y-72392315D01*
X112506508Y-72151465D01*
X113118696Y-72151465D01*
X113298128Y-72585725D01*
X113630087Y-72918264D01*
X114064034Y-73098454D01*
X114533905Y-73098864D01*
X114968165Y-72919432D01*
X115027575Y-72860125D01*
X115993976Y-72860125D01*
X116173408Y-73294385D01*
X116505367Y-73626924D01*
X116939314Y-73807114D01*
X117409185Y-73807524D01*
X117843445Y-73628092D01*
X118175984Y-73296133D01*
X118356174Y-72862186D01*
X118356584Y-72392315D01*
X118177152Y-71958055D01*
X117845193Y-71625516D01*
X117411246Y-71445326D01*
X116941375Y-71444916D01*
X116507115Y-71624348D01*
X116174576Y-71956307D01*
X115994386Y-72390254D01*
X115993976Y-72860125D01*
X115027575Y-72860125D01*
X115300704Y-72587473D01*
X115480894Y-72153526D01*
X115481304Y-71683655D01*
X115301872Y-71249395D01*
X115167733Y-71115021D01*
X130047560Y-71115021D01*
X130433437Y-72048915D01*
X131147327Y-72764052D01*
X132080546Y-73151559D01*
X133091021Y-73152440D01*
X133798477Y-72860125D01*
X136913416Y-72860125D01*
X137092848Y-73294385D01*
X137424807Y-73626924D01*
X137858754Y-73807114D01*
X138328625Y-73807524D01*
X138762885Y-73628092D01*
X139095424Y-73296133D01*
X139275614Y-72862186D01*
X139276024Y-72392315D01*
X139176508Y-72151465D01*
X139788696Y-72151465D01*
X139968128Y-72585725D01*
X140300087Y-72918264D01*
X140734034Y-73098454D01*
X141203905Y-73098864D01*
X141638165Y-72919432D01*
X141697575Y-72860125D01*
X142663976Y-72860125D01*
X142843408Y-73294385D01*
X143175367Y-73626924D01*
X143609314Y-73807114D01*
X144079185Y-73807524D01*
X144513445Y-73628092D01*
X144845984Y-73296133D01*
X145026174Y-72862186D01*
X145026584Y-72392315D01*
X144847152Y-71958055D01*
X144515193Y-71625516D01*
X144081246Y-71445326D01*
X143611375Y-71444916D01*
X143177115Y-71624348D01*
X142844576Y-71956307D01*
X142664386Y-72390254D01*
X142663976Y-72860125D01*
X141697575Y-72860125D01*
X141970704Y-72587473D01*
X142150894Y-72153526D01*
X142151304Y-71683655D01*
X141971872Y-71249395D01*
X141639913Y-70916856D01*
X141205966Y-70736666D01*
X140736095Y-70736256D01*
X140301835Y-70915688D01*
X139969296Y-71247647D01*
X139789106Y-71681594D01*
X139788696Y-72151465D01*
X139176508Y-72151465D01*
X139096592Y-71958055D01*
X138764633Y-71625516D01*
X138330686Y-71445326D01*
X137860815Y-71444916D01*
X137426555Y-71624348D01*
X137094016Y-71956307D01*
X136913826Y-72390254D01*
X136913416Y-72860125D01*
X133798477Y-72860125D01*
X134024915Y-72766563D01*
X134740052Y-72052673D01*
X135127559Y-71119454D01*
X135128440Y-70108979D01*
X134898154Y-69551643D01*
X147082249Y-69551643D01*
X147311267Y-70105909D01*
X147734961Y-70530342D01*
X148288826Y-70760327D01*
X148888543Y-70760851D01*
X149442809Y-70531833D01*
X149867242Y-70108139D01*
X150097227Y-69554274D01*
X150097229Y-69551643D01*
X150257249Y-69551643D01*
X150486267Y-70105909D01*
X150909961Y-70530342D01*
X151463826Y-70760327D01*
X152063543Y-70760851D01*
X152617809Y-70531833D01*
X153042242Y-70108139D01*
X153272227Y-69554274D01*
X153272460Y-69286743D01*
X161188400Y-69286743D01*
X161188400Y-69651257D01*
X161292807Y-70176146D01*
X161590132Y-70621125D01*
X162035111Y-70918450D01*
X162560000Y-71022857D01*
X163084889Y-70918450D01*
X163529868Y-70621125D01*
X163767058Y-70266144D01*
X163808046Y-70383320D01*
X164197964Y-70819732D01*
X164725209Y-71073709D01*
X164740974Y-71076358D01*
X164973000Y-70955217D01*
X164973000Y-69596000D01*
X164953000Y-69596000D01*
X164953000Y-69342000D01*
X164973000Y-69342000D01*
X164973000Y-67982783D01*
X165227000Y-67982783D01*
X165227000Y-69342000D01*
X165247000Y-69342000D01*
X165247000Y-69596000D01*
X165227000Y-69596000D01*
X165227000Y-70955217D01*
X165459026Y-71076358D01*
X165474791Y-71073709D01*
X166002036Y-70819732D01*
X166265869Y-70524439D01*
X166293870Y-70673253D01*
X166405128Y-70846153D01*
X166574888Y-70962145D01*
X166776400Y-71002952D01*
X168503600Y-71002952D01*
X168691853Y-70967530D01*
X168864753Y-70856272D01*
X168980745Y-70686512D01*
X169021552Y-70485000D01*
X169021552Y-68453000D01*
X168986130Y-68264747D01*
X168874872Y-68091847D01*
X168705112Y-67975855D01*
X168503600Y-67935048D01*
X166776400Y-67935048D01*
X166588147Y-67970470D01*
X166415247Y-68081728D01*
X166299255Y-68251488D01*
X166266330Y-68414077D01*
X166002036Y-68118268D01*
X165474791Y-67864291D01*
X165459026Y-67861642D01*
X165227000Y-67982783D01*
X164973000Y-67982783D01*
X164740974Y-67861642D01*
X164725209Y-67864291D01*
X164197964Y-68118268D01*
X163808046Y-68554680D01*
X163767058Y-68671856D01*
X163529868Y-68316875D01*
X163084889Y-68019550D01*
X162560000Y-67915143D01*
X162035111Y-68019550D01*
X161590132Y-68316875D01*
X161292807Y-68761854D01*
X161188400Y-69286743D01*
X153272460Y-69286743D01*
X153272751Y-68954557D01*
X153043733Y-68400291D01*
X152620039Y-67975858D01*
X152066174Y-67745873D01*
X151466457Y-67745349D01*
X150912191Y-67974367D01*
X150487758Y-68398061D01*
X150257773Y-68951926D01*
X150257249Y-69551643D01*
X150097229Y-69551643D01*
X150097751Y-68954557D01*
X149868733Y-68400291D01*
X149445039Y-67975858D01*
X148891174Y-67745873D01*
X148291457Y-67745349D01*
X147737191Y-67974367D01*
X147312758Y-68398061D01*
X147082773Y-68951926D01*
X147082249Y-69551643D01*
X134898154Y-69551643D01*
X134742563Y-69175085D01*
X134028673Y-68459948D01*
X133095454Y-68072441D01*
X132084979Y-68071560D01*
X131151085Y-68457437D01*
X130435948Y-69171327D01*
X130048441Y-70104546D01*
X130047560Y-71115021D01*
X115167733Y-71115021D01*
X114969913Y-70916856D01*
X114535966Y-70736666D01*
X114066095Y-70736256D01*
X113631835Y-70915688D01*
X113299296Y-71247647D01*
X113119106Y-71681594D01*
X113118696Y-72151465D01*
X112506508Y-72151465D01*
X112426592Y-71958055D01*
X112094633Y-71625516D01*
X111660686Y-71445326D01*
X111190815Y-71444916D01*
X110756555Y-71624348D01*
X110424016Y-71956307D01*
X110243826Y-72390254D01*
X110243416Y-72860125D01*
X107253289Y-72860125D01*
X106981174Y-72747133D01*
X106381457Y-72746609D01*
X105827191Y-72975627D01*
X105402758Y-73399321D01*
X105172773Y-73953186D01*
X105172249Y-74552903D01*
X105012229Y-74552903D01*
X105012751Y-73955817D01*
X104783733Y-73401551D01*
X104360039Y-72977118D01*
X103806174Y-72747133D01*
X103206457Y-72746609D01*
X102652191Y-72975627D01*
X102227758Y-73399321D01*
X101997773Y-73953186D01*
X101997762Y-73965499D01*
X101979572Y-73921475D01*
X101647613Y-73588936D01*
X101213666Y-73408746D01*
X100743795Y-73408336D01*
X100309535Y-73587768D01*
X99976996Y-73919727D01*
X99796806Y-74353674D01*
X99796396Y-74823545D01*
X91973195Y-74823545D01*
X91973604Y-74355735D01*
X91794172Y-73921475D01*
X91462213Y-73588936D01*
X91028266Y-73408746D01*
X90558395Y-73408336D01*
X90124135Y-73587768D01*
X89791596Y-73919727D01*
X89611406Y-74353674D01*
X89610996Y-74823545D01*
X86813483Y-74823545D01*
X86813651Y-74631457D01*
X86584633Y-74077191D01*
X86160939Y-73652758D01*
X85607074Y-73422773D01*
X85007357Y-73422249D01*
X84453091Y-73651267D01*
X84028658Y-74074961D01*
X83798673Y-74628826D01*
X83798149Y-75228543D01*
X81811869Y-75228543D01*
X81812391Y-74631457D01*
X81583373Y-74077191D01*
X81159679Y-73652758D01*
X80605814Y-73422773D01*
X80006097Y-73422249D01*
X79451831Y-73651267D01*
X79027398Y-74074961D01*
X78797413Y-74628826D01*
X78796995Y-75107797D01*
X76881275Y-73192077D01*
X77089546Y-73278559D01*
X78100021Y-73279440D01*
X79033915Y-72893563D01*
X79067411Y-72860125D01*
X91828416Y-72860125D01*
X92007848Y-73294385D01*
X92339807Y-73626924D01*
X92773754Y-73807114D01*
X93243625Y-73807524D01*
X93677885Y-73628092D01*
X94010424Y-73296133D01*
X94190614Y-72862186D01*
X94191024Y-72392315D01*
X94091508Y-72151465D01*
X94703696Y-72151465D01*
X94883128Y-72585725D01*
X95215087Y-72918264D01*
X95649034Y-73098454D01*
X96118905Y-73098864D01*
X96553165Y-72919432D01*
X96612575Y-72860125D01*
X97578976Y-72860125D01*
X97758408Y-73294385D01*
X98090367Y-73626924D01*
X98524314Y-73807114D01*
X98994185Y-73807524D01*
X99428445Y-73628092D01*
X99760984Y-73296133D01*
X99941174Y-72862186D01*
X99941584Y-72392315D01*
X99762152Y-71958055D01*
X99430193Y-71625516D01*
X98996246Y-71445326D01*
X98526375Y-71444916D01*
X98092115Y-71624348D01*
X97759576Y-71956307D01*
X97579386Y-72390254D01*
X97578976Y-72860125D01*
X96612575Y-72860125D01*
X96885704Y-72587473D01*
X97065894Y-72153526D01*
X97066304Y-71683655D01*
X96886872Y-71249395D01*
X96554913Y-70916856D01*
X96120966Y-70736666D01*
X95651095Y-70736256D01*
X95216835Y-70915688D01*
X94884296Y-71247647D01*
X94704106Y-71681594D01*
X94703696Y-72151465D01*
X94091508Y-72151465D01*
X94011592Y-71958055D01*
X93679633Y-71625516D01*
X93245686Y-71445326D01*
X92775815Y-71444916D01*
X92341555Y-71624348D01*
X92009016Y-71956307D01*
X91828826Y-72390254D01*
X91828416Y-72860125D01*
X79067411Y-72860125D01*
X79749052Y-72179673D01*
X80136559Y-71246454D01*
X80137440Y-70235979D01*
X79854679Y-69551643D01*
X101997249Y-69551643D01*
X102226267Y-70105909D01*
X102649961Y-70530342D01*
X103203826Y-70760327D01*
X103803543Y-70760851D01*
X104357809Y-70531833D01*
X104782242Y-70108139D01*
X105012227Y-69554274D01*
X105012229Y-69551643D01*
X105172249Y-69551643D01*
X105401267Y-70105909D01*
X105824961Y-70530342D01*
X106378826Y-70760327D01*
X106978543Y-70760851D01*
X107532809Y-70531833D01*
X107957242Y-70108139D01*
X108187227Y-69554274D01*
X108187751Y-68954557D01*
X107958733Y-68400291D01*
X107535039Y-67975858D01*
X106981174Y-67745873D01*
X106381457Y-67745349D01*
X105827191Y-67974367D01*
X105402758Y-68398061D01*
X105172773Y-68951926D01*
X105172249Y-69551643D01*
X105012229Y-69551643D01*
X105012751Y-68954557D01*
X104783733Y-68400291D01*
X104360039Y-67975858D01*
X103806174Y-67745873D01*
X103206457Y-67745349D01*
X102652191Y-67974367D01*
X102227758Y-68398061D01*
X101997773Y-68951926D01*
X101997249Y-69551643D01*
X79854679Y-69551643D01*
X79751563Y-69302085D01*
X79037673Y-68586948D01*
X78104454Y-68199441D01*
X77093979Y-68198560D01*
X76160085Y-68584437D01*
X75444948Y-69298327D01*
X75057441Y-70231546D01*
X75056560Y-71242021D01*
X75144817Y-71455619D01*
X73980599Y-70291401D01*
X73775239Y-70154184D01*
X73533000Y-70105999D01*
X73532995Y-70106000D01*
X62873130Y-70106000D01*
X63102227Y-69554274D01*
X63102751Y-68954557D01*
X62873733Y-68400291D01*
X62450039Y-67975858D01*
X61896174Y-67745873D01*
X61296457Y-67745349D01*
X60742191Y-67974367D01*
X60317758Y-68398061D01*
X60087773Y-68951926D01*
X60087249Y-69551643D01*
X60316267Y-70105909D01*
X60316358Y-70106000D01*
X59698130Y-70106000D01*
X59927227Y-69554274D01*
X59927751Y-68954557D01*
X59698733Y-68400291D01*
X59275039Y-67975858D01*
X58721174Y-67745873D01*
X58121457Y-67745349D01*
X57567191Y-67974367D01*
X57142758Y-68398061D01*
X56912773Y-68951926D01*
X56912249Y-69551643D01*
X57141267Y-70105909D01*
X57141358Y-70106000D01*
X44577005Y-70106000D01*
X44577000Y-70105999D01*
X44374952Y-70146190D01*
X44334761Y-70154184D01*
X44129401Y-70291401D01*
X44129399Y-70291404D01*
X42496810Y-71923993D01*
X42497270Y-71396454D01*
X42260578Y-70823617D01*
X41822688Y-70384962D01*
X41250265Y-70147271D01*
X40790478Y-70146870D01*
X40741062Y-70097454D01*
X40994953Y-70014116D01*
X41200590Y-69449694D01*
X41174579Y-68849542D01*
X40994953Y-68415884D01*
X40741060Y-68332545D01*
X39858605Y-69215000D01*
X39872748Y-69229143D01*
X39693143Y-69408748D01*
X39679000Y-69394605D01*
X38796545Y-70277060D01*
X38879884Y-70530953D01*
X39444306Y-70736590D01*
X39715611Y-70724831D01*
X39618962Y-70821312D01*
X39381271Y-71393735D01*
X39380730Y-72013546D01*
X39617422Y-72586383D01*
X40055312Y-73025038D01*
X40060037Y-73027000D01*
X39378197Y-73027000D01*
X36350697Y-69999500D01*
X36350767Y-69999430D01*
X36561760Y-69491303D01*
X36562205Y-68980306D01*
X38157410Y-68980306D01*
X38183421Y-69580458D01*
X38363047Y-70014116D01*
X38616940Y-70097455D01*
X39499395Y-69215000D01*
X38616940Y-68332545D01*
X38363047Y-68415884D01*
X38157410Y-68980306D01*
X36562205Y-68980306D01*
X36562240Y-68941111D01*
X36352134Y-68432617D01*
X36072946Y-68152940D01*
X38796545Y-68152940D01*
X39679000Y-69035395D01*
X40561455Y-68152940D01*
X40478116Y-67899047D01*
X39913694Y-67693410D01*
X39313542Y-67719421D01*
X38879884Y-67899047D01*
X38796545Y-68152940D01*
X36072946Y-68152940D01*
X35963430Y-68043233D01*
X35455303Y-67832240D01*
X34905111Y-67831760D01*
X34396617Y-68041866D01*
X34007233Y-68430570D01*
X33796240Y-68938697D01*
X33795760Y-69488889D01*
X34005866Y-69997383D01*
X34155418Y-70147197D01*
X33620454Y-70146730D01*
X33047617Y-70383422D01*
X32608962Y-70821312D01*
X32371271Y-71393735D01*
X32370730Y-72013546D01*
X32607422Y-72586383D01*
X33045312Y-73025038D01*
X33050037Y-73027000D01*
X31532362Y-73027000D01*
X31533383Y-73026578D01*
X31972038Y-72588688D01*
X32209729Y-72016265D01*
X32210270Y-71396454D01*
X31973578Y-70823617D01*
X31535688Y-70384962D01*
X30963265Y-70147271D01*
X30503478Y-70146870D01*
X30454062Y-70097454D01*
X30707953Y-70014116D01*
X30913590Y-69449694D01*
X30887579Y-68849542D01*
X30707953Y-68415884D01*
X30454060Y-68332545D01*
X29571605Y-69215000D01*
X29585748Y-69229143D01*
X29406143Y-69408748D01*
X29392000Y-69394605D01*
X28509545Y-70277060D01*
X28592884Y-70530953D01*
X29157306Y-70736590D01*
X29428611Y-70724831D01*
X29331962Y-70821312D01*
X29094271Y-71393735D01*
X29093730Y-72013546D01*
X29272571Y-72446374D01*
X26274797Y-69448599D01*
X26275205Y-68980306D01*
X27870410Y-68980306D01*
X27896421Y-69580458D01*
X28076047Y-70014116D01*
X28329940Y-70097455D01*
X29212395Y-69215000D01*
X28329940Y-68332545D01*
X28076047Y-68415884D01*
X27870410Y-68980306D01*
X26275205Y-68980306D01*
X26275240Y-68941111D01*
X26065134Y-68432617D01*
X25785946Y-68152940D01*
X28509545Y-68152940D01*
X29392000Y-69035395D01*
X30274455Y-68152940D01*
X30191116Y-67899047D01*
X29626694Y-67693410D01*
X29026542Y-67719421D01*
X28592884Y-67899047D01*
X28509545Y-68152940D01*
X25785946Y-68152940D01*
X25676430Y-68043233D01*
X25168303Y-67832240D01*
X24618111Y-67831760D01*
X24109617Y-68041866D01*
X23720233Y-68430570D01*
X23509240Y-68938697D01*
X23508760Y-69488889D01*
X23718866Y-69997383D01*
X23868418Y-70147197D01*
X23333454Y-70146730D01*
X22760617Y-70383422D01*
X22427000Y-70716457D01*
X22427000Y-67512000D01*
X169343000Y-67512000D01*
X169343000Y-103430000D01*
G36*
X113396000Y-98266250D02*
X113554750Y-98425000D01*
X114554000Y-98425000D01*
X114554000Y-98405000D01*
X114808000Y-98405000D01*
X114808000Y-98425000D01*
X116459000Y-98425000D01*
X116459000Y-98405000D01*
X116713000Y-98405000D01*
X116713000Y-98425000D01*
X117712250Y-98425000D01*
X117871000Y-98266250D01*
X117871000Y-98169000D01*
X117991171Y-98169000D01*
X117928201Y-98320649D01*
X117927799Y-98781330D01*
X118103723Y-99207098D01*
X118429189Y-99533133D01*
X118854649Y-99709799D01*
X119315330Y-99710201D01*
X119741098Y-99534277D01*
X120067133Y-99208811D01*
X120243799Y-98783351D01*
X120244201Y-98322670D01*
X120180706Y-98169000D01*
X125848802Y-98169000D01*
X129346399Y-101666596D01*
X129346401Y-101666599D01*
X129483619Y-101758285D01*
X129551762Y-101803817D01*
X129794000Y-101852001D01*
X129794005Y-101852000D01*
X130173207Y-101852000D01*
X130224707Y-101903590D01*
X130521574Y-102026860D01*
X130630847Y-102026955D01*
X130174304Y-102483498D01*
X127138700Y-102483498D01*
X127595121Y-102027077D01*
X127668016Y-102027140D01*
X127965097Y-101904389D01*
X128192590Y-101677293D01*
X128315860Y-101380426D01*
X128316140Y-101058984D01*
X128193389Y-100761903D01*
X127966293Y-100534410D01*
X127669426Y-100411140D01*
X127347984Y-100410860D01*
X127050903Y-100533611D01*
X126823410Y-100760707D01*
X126700140Y-101057574D01*
X126700075Y-101131727D01*
X125848802Y-101983000D01*
X119183578Y-101983000D01*
X119219602Y-101947039D01*
X119449587Y-101393174D01*
X119450111Y-100793457D01*
X119221093Y-100239191D01*
X118797399Y-99814758D01*
X118243534Y-99584773D01*
X117751683Y-99584343D01*
X117774327Y-99561699D01*
X117871000Y-99328310D01*
X117871000Y-98837750D01*
X117712250Y-98679000D01*
X116713000Y-98679000D01*
X116713000Y-99678250D01*
X116871750Y-99837000D01*
X117065777Y-99837000D01*
X116665118Y-100236961D01*
X116435133Y-100790826D01*
X116434609Y-101390543D01*
X116663627Y-101944809D01*
X116701752Y-101983000D01*
X114182318Y-101983000D01*
X114218342Y-101947039D01*
X114448327Y-101393174D01*
X114448851Y-100793457D01*
X114219833Y-100239191D01*
X113796139Y-99814758D01*
X113242274Y-99584773D01*
X112715003Y-99584312D01*
X112836098Y-99534277D01*
X113162133Y-99208811D01*
X113316210Y-98837750D01*
X113396000Y-98837750D01*
X113396000Y-99328310D01*
X113492673Y-99561699D01*
X113671302Y-99740327D01*
X113904691Y-99837000D01*
X114395250Y-99837000D01*
X114554000Y-99678250D01*
X114554000Y-98679000D01*
X114808000Y-98679000D01*
X114808000Y-99678250D01*
X114966750Y-99837000D01*
X115457309Y-99837000D01*
X115633500Y-99764019D01*
X115809691Y-99837000D01*
X116300250Y-99837000D01*
X116459000Y-99678250D01*
X116459000Y-98679000D01*
X114808000Y-98679000D01*
X114554000Y-98679000D01*
X113554750Y-98679000D01*
X113396000Y-98837750D01*
X113316210Y-98837750D01*
X113338799Y-98783351D01*
X113339201Y-98322670D01*
X113275706Y-98169000D01*
X113396000Y-98169000D01*
X113396000Y-98266250D01*
X113396000Y-98266250D01*
G37*
X113396000Y-98266250D02*
X113554750Y-98425000D01*
X114554000Y-98425000D01*
X114554000Y-98405000D01*
X114808000Y-98405000D01*
X114808000Y-98425000D01*
X116459000Y-98425000D01*
X116459000Y-98405000D01*
X116713000Y-98405000D01*
X116713000Y-98425000D01*
X117712250Y-98425000D01*
X117871000Y-98266250D01*
X117871000Y-98169000D01*
X117991171Y-98169000D01*
X117928201Y-98320649D01*
X117927799Y-98781330D01*
X118103723Y-99207098D01*
X118429189Y-99533133D01*
X118854649Y-99709799D01*
X119315330Y-99710201D01*
X119741098Y-99534277D01*
X120067133Y-99208811D01*
X120243799Y-98783351D01*
X120244201Y-98322670D01*
X120180706Y-98169000D01*
X125848802Y-98169000D01*
X129346399Y-101666596D01*
X129346401Y-101666599D01*
X129483619Y-101758285D01*
X129551762Y-101803817D01*
X129794000Y-101852001D01*
X129794005Y-101852000D01*
X130173207Y-101852000D01*
X130224707Y-101903590D01*
X130521574Y-102026860D01*
X130630847Y-102026955D01*
X130174304Y-102483498D01*
X127138700Y-102483498D01*
X127595121Y-102027077D01*
X127668016Y-102027140D01*
X127965097Y-101904389D01*
X128192590Y-101677293D01*
X128315860Y-101380426D01*
X128316140Y-101058984D01*
X128193389Y-100761903D01*
X127966293Y-100534410D01*
X127669426Y-100411140D01*
X127347984Y-100410860D01*
X127050903Y-100533611D01*
X126823410Y-100760707D01*
X126700140Y-101057574D01*
X126700075Y-101131727D01*
X125848802Y-101983000D01*
X119183578Y-101983000D01*
X119219602Y-101947039D01*
X119449587Y-101393174D01*
X119450111Y-100793457D01*
X119221093Y-100239191D01*
X118797399Y-99814758D01*
X118243534Y-99584773D01*
X117751683Y-99584343D01*
X117774327Y-99561699D01*
X117871000Y-99328310D01*
X117871000Y-98837750D01*
X117712250Y-98679000D01*
X116713000Y-98679000D01*
X116713000Y-99678250D01*
X116871750Y-99837000D01*
X117065777Y-99837000D01*
X116665118Y-100236961D01*
X116435133Y-100790826D01*
X116434609Y-101390543D01*
X116663627Y-101944809D01*
X116701752Y-101983000D01*
X114182318Y-101983000D01*
X114218342Y-101947039D01*
X114448327Y-101393174D01*
X114448851Y-100793457D01*
X114219833Y-100239191D01*
X113796139Y-99814758D01*
X113242274Y-99584773D01*
X112715003Y-99584312D01*
X112836098Y-99534277D01*
X113162133Y-99208811D01*
X113316210Y-98837750D01*
X113396000Y-98837750D01*
X113396000Y-99328310D01*
X113492673Y-99561699D01*
X113671302Y-99740327D01*
X113904691Y-99837000D01*
X114395250Y-99837000D01*
X114554000Y-99678250D01*
X114554000Y-98679000D01*
X114808000Y-98679000D01*
X114808000Y-99678250D01*
X114966750Y-99837000D01*
X115457309Y-99837000D01*
X115633500Y-99764019D01*
X115809691Y-99837000D01*
X116300250Y-99837000D01*
X116459000Y-99678250D01*
X116459000Y-98679000D01*
X114808000Y-98679000D01*
X114554000Y-98679000D01*
X113554750Y-98679000D01*
X113396000Y-98837750D01*
X113316210Y-98837750D01*
X113338799Y-98783351D01*
X113339201Y-98322670D01*
X113275706Y-98169000D01*
X113396000Y-98169000D01*
X113396000Y-98266250D01*
M02*
