G04 #@! TF.FileFunction,Copper,L1,Top,Signal*
%FSLAX46Y46*%
G04 Gerber Fmt 4.6, Leading zero omitted, Abs format (unit mm)*
G04 Created by KiCad (PCBNEW 4.0.0-rc1-stable) date 11/15/2015 9:58:47 PM*
%MOMM*%
G01*
G04 APERTURE LIST*
%ADD10C,0.100000*%
%ADD11R,1.727200X1.727200*%
%ADD12O,1.727200X1.727200*%
%ADD13R,1.300000X1.300000*%
%ADD14C,1.300000*%
%ADD15R,0.635000X1.905000*%
%ADD16R,0.560000X1.600000*%
%ADD17R,1.600000X0.560000*%
%ADD18R,1.200000X0.600000*%
%ADD19R,0.600000X1.200000*%
%ADD20C,1.346200*%
%ADD21C,1.107440*%
%ADD22R,5.080000X2.540000*%
%ADD23C,17.780000*%
%ADD24C,1.501140*%
%ADD25C,1.524000*%
%ADD26C,1.998980*%
%ADD27R,3.500120X3.500120*%
%ADD28R,1.727200X2.032000*%
%ADD29O,1.727200X2.032000*%
%ADD30C,2.100000*%
%ADD31C,1.750000*%
%ADD32C,4.064000*%
%ADD33C,0.600000*%
%ADD34C,0.250000*%
%ADD35C,0.381000*%
%ADD36C,1.270000*%
%ADD37C,0.254000*%
G04 APERTURE END LIST*
D10*
D11*
X98806000Y-94996000D03*
D12*
X98806000Y-97536000D03*
X96266000Y-94996000D03*
X96266000Y-97536000D03*
X93726000Y-94996000D03*
X93726000Y-97536000D03*
D13*
X44831000Y-99060000D03*
D14*
X44831000Y-101560000D03*
D13*
X114681000Y-98552000D03*
D14*
X112181000Y-98552000D03*
D13*
X116586000Y-98552000D03*
D14*
X119086000Y-98552000D03*
D13*
X96901000Y-90805000D03*
D14*
X94401000Y-90805000D03*
D15*
X56261000Y-91694000D03*
X54991000Y-91694000D03*
X53721000Y-91694000D03*
X52451000Y-91694000D03*
X51181000Y-91694000D03*
X49911000Y-91694000D03*
X48641000Y-91694000D03*
X47371000Y-91694000D03*
X47371000Y-101854000D03*
X48641000Y-101854000D03*
X49911000Y-101854000D03*
X51181000Y-101854000D03*
X52451000Y-101854000D03*
X53721000Y-101854000D03*
X54991000Y-101854000D03*
X56261000Y-101854000D03*
D16*
X85788000Y-88130000D03*
X84988000Y-88130000D03*
X84188000Y-88130000D03*
X83388000Y-88130000D03*
X82588000Y-88130000D03*
X81788000Y-88130000D03*
X80988000Y-88130000D03*
X80188000Y-88130000D03*
X79388000Y-88130000D03*
X78588000Y-88130000D03*
X77788000Y-88130000D03*
D17*
X75938000Y-89980000D03*
X75938000Y-90780000D03*
X75938000Y-91580000D03*
X75938000Y-92380000D03*
X75938000Y-93180000D03*
X75938000Y-93980000D03*
X75938000Y-94780000D03*
X75938000Y-95580000D03*
X75938000Y-96380000D03*
X75938000Y-97180000D03*
X75938000Y-97980000D03*
D16*
X77788000Y-99830000D03*
X78588000Y-99830000D03*
X79388000Y-99830000D03*
X80188000Y-99830000D03*
X80988000Y-99830000D03*
X81788000Y-99830000D03*
X82588000Y-99830000D03*
X83388000Y-99830000D03*
X84188000Y-99830000D03*
X84988000Y-99830000D03*
X85788000Y-99830000D03*
D17*
X87638000Y-97980000D03*
X87638000Y-97180000D03*
X87638000Y-96380000D03*
X87638000Y-95580000D03*
X87638000Y-94780000D03*
X87638000Y-93980000D03*
X87638000Y-93180000D03*
X87638000Y-92380000D03*
X87638000Y-91580000D03*
X87638000Y-90780000D03*
X87638000Y-89980000D03*
D16*
X132270000Y-88130000D03*
X131470000Y-88130000D03*
X130670000Y-88130000D03*
X129870000Y-88130000D03*
X129070000Y-88130000D03*
X128270000Y-88130000D03*
X127470000Y-88130000D03*
X126670000Y-88130000D03*
X125870000Y-88130000D03*
X125070000Y-88130000D03*
X124270000Y-88130000D03*
D17*
X122420000Y-89980000D03*
X122420000Y-90780000D03*
X122420000Y-91580000D03*
X122420000Y-92380000D03*
X122420000Y-93180000D03*
X122420000Y-93980000D03*
X122420000Y-94780000D03*
X122420000Y-95580000D03*
X122420000Y-96380000D03*
X122420000Y-97180000D03*
X122420000Y-97980000D03*
D16*
X124270000Y-99830000D03*
X125070000Y-99830000D03*
X125870000Y-99830000D03*
X126670000Y-99830000D03*
X127470000Y-99830000D03*
X128270000Y-99830000D03*
X129070000Y-99830000D03*
X129870000Y-99830000D03*
X130670000Y-99830000D03*
X131470000Y-99830000D03*
X132270000Y-99830000D03*
D17*
X134120000Y-97980000D03*
X134120000Y-97180000D03*
X134120000Y-96380000D03*
X134120000Y-95580000D03*
X134120000Y-94780000D03*
X134120000Y-93980000D03*
X134120000Y-93180000D03*
X134120000Y-92380000D03*
X134120000Y-91580000D03*
X134120000Y-90780000D03*
X134120000Y-89980000D03*
D18*
X110295000Y-96780000D03*
X110295000Y-95980000D03*
X110295000Y-95180000D03*
X110295000Y-94380000D03*
X110295000Y-93580000D03*
X110295000Y-92780000D03*
X110295000Y-91980000D03*
X110295000Y-91180000D03*
D19*
X108845000Y-89730000D03*
X108045000Y-89730000D03*
X107245000Y-89730000D03*
X106445000Y-89730000D03*
X105645000Y-89730000D03*
X104845000Y-89730000D03*
X104045000Y-89730000D03*
X103245000Y-89730000D03*
D18*
X101795000Y-91180000D03*
X101795000Y-91980000D03*
X101795000Y-92780000D03*
X101795000Y-93580000D03*
X101795000Y-94380000D03*
X101795000Y-95180000D03*
X101795000Y-95980000D03*
X101795000Y-96780000D03*
D19*
X103245000Y-98230000D03*
X104045000Y-98230000D03*
X104845000Y-98230000D03*
X105645000Y-98230000D03*
X106445000Y-98230000D03*
X107245000Y-98230000D03*
X108045000Y-98230000D03*
X108845000Y-98230000D03*
D20*
X55892700Y-74589640D03*
X45707300Y-74589640D03*
X44655740Y-77360780D03*
X45013880Y-80299560D03*
X46695360Y-82737960D03*
X49319180Y-84114640D03*
X52280820Y-84114640D03*
X54904640Y-82737960D03*
X56586120Y-80299560D03*
X56944260Y-77360780D03*
X50800000Y-71917560D03*
X53675280Y-72626220D03*
X47924720Y-72626220D03*
X74307700Y-74589640D03*
X64122300Y-74589640D03*
X63070740Y-77360780D03*
X63428880Y-80299560D03*
X65110360Y-82737960D03*
X67734180Y-84114640D03*
X70695820Y-84114640D03*
X73319640Y-82737960D03*
X75001120Y-80299560D03*
X75359260Y-77360780D03*
X69215000Y-71917560D03*
X72090280Y-72626220D03*
X66339720Y-72626220D03*
X100977700Y-74589640D03*
X90792300Y-74589640D03*
X89740740Y-77360780D03*
X90098880Y-80299560D03*
X91780360Y-82737960D03*
X94404180Y-84114640D03*
X97365820Y-84114640D03*
X99989640Y-82737960D03*
X101671120Y-80299560D03*
X102029260Y-77360780D03*
X95885000Y-71917560D03*
X98760280Y-72626220D03*
X93009720Y-72626220D03*
D21*
X84137500Y-80010000D03*
X80962500Y-80010000D03*
D20*
X119392700Y-74589640D03*
X109207300Y-74589640D03*
X108155740Y-77360780D03*
X108513880Y-80299560D03*
X110195360Y-82737960D03*
X112819180Y-84114640D03*
X115780820Y-84114640D03*
X118404640Y-82737960D03*
X120086120Y-80299560D03*
X120444260Y-77360780D03*
X114300000Y-71917560D03*
X117175280Y-72626220D03*
X111424720Y-72626220D03*
X146062700Y-74589640D03*
X135877300Y-74589640D03*
X134825740Y-77360780D03*
X135183880Y-80299560D03*
X136865360Y-82737960D03*
X139489180Y-84114640D03*
X142450820Y-84114640D03*
X145074640Y-82737960D03*
X146756120Y-80299560D03*
X147114260Y-77360780D03*
X140970000Y-71917560D03*
X143845280Y-72626220D03*
X138094720Y-72626220D03*
X164477700Y-74589640D03*
X154292300Y-74589640D03*
X153240740Y-77360780D03*
X153598880Y-80299560D03*
X155280360Y-82737960D03*
X157904180Y-84114640D03*
X160865820Y-84114640D03*
X163489640Y-82737960D03*
X165171120Y-80299560D03*
X165529260Y-77360780D03*
X159385000Y-71917560D03*
X162260280Y-72626220D03*
X156509720Y-72626220D03*
D21*
X129222500Y-80010000D03*
X126047500Y-80010000D03*
D22*
X33655000Y-77851000D03*
D23*
X33655000Y-89281000D03*
D22*
X33655000Y-100711000D03*
D24*
X114300000Y-94007940D03*
X114300000Y-89126060D03*
D25*
X140843000Y-98298000D03*
X140843000Y-95758000D03*
X140843000Y-100838000D03*
D26*
X103505000Y-74254360D03*
X103505000Y-69253100D03*
X80304640Y-74930000D03*
X85305900Y-74930000D03*
X65405000Y-96941640D03*
X65405000Y-101942900D03*
X58420000Y-74254360D03*
X58420000Y-69253100D03*
X61595000Y-74254360D03*
X61595000Y-69253100D03*
X151765000Y-74254360D03*
X151765000Y-69253100D03*
X125262640Y-74930000D03*
X130263900Y-74930000D03*
X60452000Y-96941640D03*
X60452000Y-101942900D03*
X106680000Y-74254360D03*
X106680000Y-69253100D03*
X148590000Y-74254360D03*
X148590000Y-69253100D03*
D27*
X154581860Y-98806000D03*
X160581340Y-98806000D03*
X157581600Y-94107000D03*
D28*
X167640000Y-69469000D03*
D29*
X165100000Y-69469000D03*
X162560000Y-69469000D03*
D30*
X144227000Y-96062000D03*
D31*
X145487000Y-98552000D03*
X149987000Y-98552000D03*
D30*
X151237000Y-96062000D03*
X40939000Y-71705000D03*
D31*
X39679000Y-69215000D03*
X35179000Y-69215000D03*
D30*
X33929000Y-71705000D03*
X30652000Y-71705000D03*
D31*
X29392000Y-69215000D03*
X24892000Y-69215000D03*
D30*
X23642000Y-71705000D03*
D32*
X77597000Y-70739000D03*
X132588000Y-70612000D03*
X166497000Y-91313000D03*
X25400000Y-100584000D03*
D26*
X117942360Y-101092000D03*
X112941100Y-101092000D03*
D13*
X136906000Y-100965000D03*
D14*
X136906000Y-98465000D03*
D33*
X85725000Y-96393000D03*
X132080000Y-96393000D03*
X82550000Y-101346000D03*
X125857000Y-101092000D03*
X79375000Y-101346000D03*
X108693000Y-94380000D03*
X85852000Y-98044000D03*
X132334000Y-101219000D03*
X111633000Y-96139000D03*
X127508000Y-101219000D03*
X81026000Y-101346000D03*
X110236000Y-101981000D03*
X108839000Y-86995000D03*
X108077000Y-87630000D03*
X107188000Y-86995000D03*
X106426000Y-87630000D03*
X53721000Y-89916000D03*
X104013000Y-90932000D03*
X106426000Y-99441000D03*
X84963000Y-101346000D03*
X107188000Y-100965000D03*
X128270000Y-98425000D03*
X81788000Y-98298000D03*
X108077000Y-97028000D03*
X84201000Y-98552000D03*
X130683000Y-101219000D03*
X108839000Y-99441000D03*
X131445000Y-101981000D03*
X77851000Y-101346000D03*
D34*
X68682000Y-90780000D02*
X75938000Y-90780000D01*
X66097998Y-88195998D02*
X68682000Y-90780000D01*
X61722000Y-88195998D02*
X66097998Y-88195998D01*
X59378002Y-85852000D02*
X61722000Y-88195998D01*
X59378002Y-78174002D02*
X59378002Y-85852000D01*
X55892700Y-74688700D02*
X59378002Y-78174002D01*
X55892700Y-74589640D02*
X55892700Y-74688700D01*
X45707300Y-74589640D02*
X45707300Y-74688700D01*
X45707300Y-74688700D02*
X43180000Y-77216000D01*
X43180000Y-77216000D02*
X43180000Y-83058000D01*
X43180000Y-83058000D02*
X47498000Y-87376000D01*
X47498000Y-87376000D02*
X54102000Y-87376000D01*
X54102000Y-87376000D02*
X59436000Y-92710000D01*
X59436000Y-92710000D02*
X63754000Y-92710000D01*
X63754000Y-92710000D02*
X69024000Y-97980000D01*
X69024000Y-97980000D02*
X75938000Y-97980000D01*
X75938000Y-97180000D02*
X68986000Y-97180000D01*
X43688000Y-78328520D02*
X44655740Y-77360780D01*
X43688000Y-82804000D02*
X43688000Y-78328520D01*
X47752000Y-86868000D02*
X43688000Y-82804000D01*
X54356000Y-86868000D02*
X47752000Y-86868000D01*
X59690000Y-92202000D02*
X54356000Y-86868000D01*
X64008000Y-92202000D02*
X59690000Y-92202000D01*
X68986000Y-97180000D02*
X64008000Y-92202000D01*
X45013880Y-80299560D02*
X45013880Y-83367880D01*
X68948000Y-96380000D02*
X75938000Y-96380000D01*
X64262000Y-91694000D02*
X68948000Y-96380000D01*
X59944000Y-91694000D02*
X64262000Y-91694000D01*
X54552002Y-86302002D02*
X59944000Y-91694000D01*
X47948002Y-86302002D02*
X54552002Y-86302002D01*
X45013880Y-83367880D02*
X47948002Y-86302002D01*
X75938000Y-95580000D02*
X68910000Y-95580000D01*
X46695360Y-84287360D02*
X46695360Y-82737960D01*
X48260000Y-85852000D02*
X46695360Y-84287360D01*
X54864000Y-85852000D02*
X48260000Y-85852000D01*
X60198000Y-91186000D02*
X54864000Y-85852000D01*
X64516000Y-91186000D02*
X60198000Y-91186000D01*
X68910000Y-95580000D02*
X64516000Y-91186000D01*
X75938000Y-94780000D02*
X68872000Y-94780000D01*
X50548540Y-85344000D02*
X49319180Y-84114640D01*
X55118000Y-85344000D02*
X50548540Y-85344000D01*
X60452000Y-90678000D02*
X55118000Y-85344000D01*
X64770000Y-90678000D02*
X60452000Y-90678000D01*
X68872000Y-94780000D02*
X64770000Y-90678000D01*
X75938000Y-93980000D02*
X68834000Y-93980000D01*
X54650640Y-84114640D02*
X52280820Y-84114640D01*
X60706000Y-90170000D02*
X54650640Y-84114640D01*
X65024000Y-90170000D02*
X60706000Y-90170000D01*
X68834000Y-93980000D02*
X65024000Y-90170000D01*
X75938000Y-93180000D02*
X68796000Y-93180000D01*
X56829960Y-82737960D02*
X54904640Y-82737960D01*
X57912000Y-83820000D02*
X56829960Y-82737960D01*
X57912000Y-86614000D02*
X57912000Y-83820000D01*
X60960000Y-89662000D02*
X57912000Y-86614000D01*
X65278000Y-89662000D02*
X60960000Y-89662000D01*
X68796000Y-93180000D02*
X65278000Y-89662000D01*
X75938000Y-92380000D02*
X68758000Y-92380000D01*
X58420000Y-82133440D02*
X56586120Y-80299560D01*
X58420000Y-86360000D02*
X58420000Y-82133440D01*
X61214000Y-89154000D02*
X58420000Y-86360000D01*
X65532000Y-89154000D02*
X61214000Y-89154000D01*
X68758000Y-92380000D02*
X65532000Y-89154000D01*
X75938000Y-91580000D02*
X68720000Y-91580000D01*
X58928000Y-79344520D02*
X56944260Y-77360780D01*
X58928000Y-86106000D02*
X58928000Y-79344520D01*
X61468000Y-88646000D02*
X58928000Y-86106000D01*
X65786000Y-88646000D02*
X61468000Y-88646000D01*
X68720000Y-91580000D02*
X65786000Y-88646000D01*
D35*
X58420000Y-69253100D02*
X51523900Y-69253100D01*
X50800000Y-69977000D02*
X50800000Y-71917560D01*
X51523900Y-69253100D02*
X50800000Y-69977000D01*
D34*
X74307700Y-74589640D02*
X75351640Y-74589640D01*
X84188000Y-86728000D02*
X84188000Y-88130000D01*
X80518000Y-83058000D02*
X84188000Y-86728000D01*
X78486000Y-83058000D02*
X80518000Y-83058000D01*
X77026199Y-81598199D02*
X78486000Y-83058000D01*
X77026199Y-76264199D02*
X77026199Y-81598199D01*
X75351640Y-74589640D02*
X77026199Y-76264199D01*
X64122300Y-74589640D02*
X64094360Y-74589640D01*
X64094360Y-74589640D02*
X60198000Y-78486000D01*
X60198000Y-78486000D02*
X60198000Y-85852000D01*
X60198000Y-85852000D02*
X61918002Y-87572002D01*
X61918002Y-87572002D02*
X66236002Y-87572002D01*
X66236002Y-87572002D02*
X68644000Y-89980000D01*
X68644000Y-89980000D02*
X75938000Y-89980000D01*
X77788000Y-88130000D02*
X77788000Y-87440000D01*
X77788000Y-87440000D02*
X77470000Y-87122000D01*
X77470000Y-87122000D02*
X62172002Y-87122000D01*
X62172002Y-87122000D02*
X60706000Y-85655998D01*
X60706000Y-85655998D02*
X60706000Y-79725520D01*
X60706000Y-79725520D02*
X63070740Y-77360780D01*
X78588000Y-88130000D02*
X78588000Y-86970000D01*
X61214000Y-82514440D02*
X63428880Y-80299560D01*
X61214000Y-85469602D02*
X61214000Y-82514440D01*
X62358398Y-86614000D02*
X61214000Y-85469602D01*
X78232000Y-86614000D02*
X62358398Y-86614000D01*
X78588000Y-86970000D02*
X78232000Y-86614000D01*
X65110360Y-82737960D02*
X65110360Y-85176360D01*
X79388000Y-87008000D02*
X79388000Y-88130000D01*
X78486000Y-86106000D02*
X79388000Y-87008000D01*
X66040000Y-86106000D02*
X78486000Y-86106000D01*
X65110360Y-85176360D02*
X66040000Y-86106000D01*
X67734180Y-84114640D02*
X67734180Y-85006180D01*
X80188000Y-86792000D02*
X80188000Y-88130000D01*
X79051998Y-85655998D02*
X80188000Y-86792000D01*
X68383998Y-85655998D02*
X79051998Y-85655998D01*
X67734180Y-85006180D02*
X68383998Y-85655998D01*
X70695820Y-84114640D02*
X70695820Y-84527816D01*
X70695820Y-84527816D02*
X71258004Y-85090000D01*
X71258004Y-85090000D02*
X79248000Y-85090000D01*
X79248000Y-85090000D02*
X80988000Y-86830000D01*
X80988000Y-86830000D02*
X80988000Y-88130000D01*
X81788000Y-88130000D02*
X81788000Y-86868000D01*
X73319640Y-83987640D02*
X73319640Y-82737960D01*
X73914000Y-84582000D02*
X73319640Y-83987640D01*
X79502000Y-84582000D02*
X73914000Y-84582000D01*
X81788000Y-86868000D02*
X79502000Y-84582000D01*
X82550000Y-88092000D02*
X82550000Y-86868000D01*
X75001120Y-81097120D02*
X77978000Y-84074000D01*
X77978000Y-84074000D02*
X79756000Y-84074000D01*
X79756000Y-84074000D02*
X82550000Y-86868000D01*
X75001120Y-81097120D02*
X75001120Y-80299560D01*
X82550000Y-88092000D02*
X82588000Y-88130000D01*
X75359260Y-77360780D02*
X75359260Y-78407260D01*
X83388000Y-86690000D02*
X83388000Y-88130000D01*
X80264000Y-83566000D02*
X83388000Y-86690000D01*
X78232000Y-83566000D02*
X80264000Y-83566000D01*
X76454000Y-81788000D02*
X78232000Y-83566000D01*
X76454000Y-79502000D02*
X76454000Y-81788000D01*
X75359260Y-78407260D02*
X76454000Y-79502000D01*
D35*
X61595000Y-69253100D02*
X68414900Y-69253100D01*
X69215000Y-70053200D02*
X69215000Y-71917560D01*
X68414900Y-69253100D02*
X69215000Y-70053200D01*
X95885000Y-71917560D02*
X95885000Y-70104000D01*
X96735900Y-69253100D02*
X103505000Y-69253100D01*
X95885000Y-70104000D02*
X96735900Y-69253100D01*
X84137500Y-80010000D02*
X84137500Y-76098400D01*
X84137500Y-76098400D02*
X85305900Y-74930000D01*
X85738000Y-96380000D02*
X87638000Y-96380000D01*
X85725000Y-96393000D02*
X85738000Y-96380000D01*
D34*
X119392700Y-74589640D02*
X121325640Y-74589640D01*
X121260000Y-90780000D02*
X122420000Y-90780000D01*
X120650000Y-90170000D02*
X121260000Y-90780000D01*
X120650000Y-86614000D02*
X120650000Y-90170000D01*
X123698000Y-83566000D02*
X120650000Y-86614000D01*
X123698000Y-76962000D02*
X123698000Y-83566000D01*
X121325640Y-74589640D02*
X123698000Y-76962000D01*
X109207300Y-74589640D02*
X109207300Y-74815700D01*
X109207300Y-74815700D02*
X106680000Y-77343000D01*
X106680000Y-77343000D02*
X106680000Y-82423000D01*
X106680000Y-82423000D02*
X111760000Y-87503000D01*
X111760000Y-87503000D02*
X115951000Y-87503000D01*
X115951000Y-87503000D02*
X116078000Y-87630000D01*
X116078000Y-87630000D02*
X116078000Y-92837000D01*
X116078000Y-92837000D02*
X121221000Y-97980000D01*
X121221000Y-97980000D02*
X122420000Y-97980000D01*
X122420000Y-97180000D02*
X121310000Y-97180000D01*
X107188000Y-78328520D02*
X108155740Y-77360780D01*
X107188000Y-82169000D02*
X107188000Y-78328520D01*
X112014000Y-86995000D02*
X107188000Y-82169000D01*
X116516998Y-86995000D02*
X112014000Y-86995000D01*
X116643998Y-87122000D02*
X116516998Y-86995000D01*
X116643998Y-92513998D02*
X116643998Y-87122000D01*
X121310000Y-97180000D02*
X116643998Y-92513998D01*
X108513880Y-80299560D02*
X108513880Y-82732880D01*
X121272000Y-96380000D02*
X122420000Y-96380000D01*
X117094000Y-92202000D02*
X121272000Y-96380000D01*
X117094000Y-86683002D02*
X117094000Y-92202000D01*
X116840000Y-86429002D02*
X117094000Y-86683002D01*
X112210002Y-86429002D02*
X116840000Y-86429002D01*
X108513880Y-82732880D02*
X112210002Y-86429002D01*
X110195360Y-82737960D02*
X110195360Y-83144360D01*
X110195360Y-83144360D02*
X113030000Y-85979000D01*
X113030000Y-85979000D02*
X117221000Y-85979000D01*
X117221000Y-85979000D02*
X117602000Y-86360000D01*
X117602000Y-86360000D02*
X117602000Y-91948000D01*
X117602000Y-91948000D02*
X121234000Y-95580000D01*
X121234000Y-95580000D02*
X122420000Y-95580000D01*
X112819180Y-84114640D02*
X113578640Y-84114640D01*
X121196000Y-94780000D02*
X122420000Y-94780000D01*
X118110000Y-91694000D02*
X121196000Y-94780000D01*
X118110000Y-85852000D02*
X118110000Y-91694000D01*
X117729000Y-85471000D02*
X118110000Y-85852000D01*
X114935000Y-85471000D02*
X117729000Y-85471000D01*
X113578640Y-84114640D02*
X114935000Y-85471000D01*
X122420000Y-93980000D02*
X121285000Y-93980000D01*
X117642640Y-84114640D02*
X115780820Y-84114640D01*
X118618000Y-85090000D02*
X117642640Y-84114640D01*
X118618000Y-91313000D02*
X118618000Y-85090000D01*
X121285000Y-93980000D02*
X118618000Y-91313000D01*
X118404640Y-82737960D02*
X118404640Y-83987640D01*
X121247000Y-93180000D02*
X122420000Y-93180000D01*
X119126000Y-91059000D02*
X121247000Y-93180000D01*
X119126000Y-84709000D02*
X119126000Y-91059000D01*
X118404640Y-83987640D02*
X119126000Y-84709000D01*
X120086120Y-80299560D02*
X121828560Y-80299560D01*
X121336000Y-92380000D02*
X122420000Y-92380000D01*
X119691998Y-90735998D02*
X121336000Y-92380000D01*
X119691998Y-86106000D02*
X119691998Y-90735998D01*
X122739998Y-83058000D02*
X119691998Y-86106000D01*
X122739998Y-81210998D02*
X122739998Y-83058000D01*
X121828560Y-80299560D02*
X122739998Y-81210998D01*
X122420000Y-91580000D02*
X121298000Y-91580000D01*
X122064780Y-77360780D02*
X120444260Y-77360780D01*
X123190000Y-78486000D02*
X122064780Y-77360780D01*
X123190000Y-83312000D02*
X123190000Y-78486000D01*
X120142000Y-86360000D02*
X123190000Y-83312000D01*
X120142000Y-90424000D02*
X120142000Y-86360000D01*
X121298000Y-91580000D02*
X120142000Y-90424000D01*
D35*
X106680000Y-69253100D02*
X113576100Y-69253100D01*
X114300000Y-69977000D02*
X114300000Y-71917560D01*
X113576100Y-69253100D02*
X114300000Y-69977000D01*
D34*
X143510000Y-87376000D02*
X143637000Y-87376000D01*
X130670000Y-85992000D02*
X130937000Y-85725000D01*
X130937000Y-85725000D02*
X133985000Y-85725000D01*
X133985000Y-85725000D02*
X134874000Y-86614000D01*
X134874000Y-86614000D02*
X136144000Y-86614000D01*
X136144000Y-86614000D02*
X136906000Y-87376000D01*
X136906000Y-87376000D02*
X143510000Y-87376000D01*
X130670000Y-88130000D02*
X130670000Y-85992000D01*
X148717000Y-77243940D02*
X146062700Y-74589640D01*
X148717000Y-82296000D02*
X148717000Y-77243940D01*
X143637000Y-87376000D02*
X148717000Y-82296000D01*
X135877300Y-74589640D02*
X135214360Y-74589640D01*
X135214360Y-74589640D02*
X133223000Y-76581000D01*
X133223000Y-76581000D02*
X133223000Y-80643602D01*
X133223000Y-80643602D02*
X132713602Y-81153000D01*
X132713602Y-81153000D02*
X126873000Y-81153000D01*
X126873000Y-81153000D02*
X121158000Y-86868000D01*
X121158000Y-86868000D02*
X121158000Y-89789000D01*
X121158000Y-89789000D02*
X121349000Y-89980000D01*
X121349000Y-89980000D02*
X122420000Y-89980000D01*
X124270000Y-88130000D02*
X124270000Y-84518000D01*
X133731000Y-78455520D02*
X134825740Y-77360780D01*
X133731000Y-80772000D02*
X133731000Y-78455520D01*
X132842000Y-81661000D02*
X133731000Y-80772000D01*
X127127000Y-81661000D02*
X132842000Y-81661000D01*
X124270000Y-84518000D02*
X127127000Y-81661000D01*
X125070000Y-88130000D02*
X125070000Y-84480000D01*
X133314440Y-82169000D02*
X135183880Y-80299560D01*
X127381000Y-82169000D02*
X133314440Y-82169000D01*
X125070000Y-84480000D02*
X127381000Y-82169000D01*
X135148320Y-80264000D02*
X135183880Y-80299560D01*
X136865360Y-82737960D02*
X127574040Y-82737960D01*
X125870000Y-84442000D02*
X125870000Y-88130000D01*
X127574040Y-82737960D02*
X125870000Y-84442000D01*
X139489180Y-84114640D02*
X136184640Y-84114640D01*
X126670000Y-84278398D02*
X126670000Y-88130000D01*
X127760436Y-83187962D02*
X126670000Y-84278398D01*
X135257962Y-83187962D02*
X127760436Y-83187962D01*
X136184640Y-84114640D02*
X135257962Y-83187962D01*
X127470000Y-88130000D02*
X127470000Y-84366000D01*
X141348460Y-85217000D02*
X142450820Y-84114640D01*
X138811000Y-85217000D02*
X141348460Y-85217000D01*
X138176000Y-84582000D02*
X138811000Y-85217000D01*
X135890000Y-84582000D02*
X138176000Y-84582000D01*
X135001000Y-83693000D02*
X135890000Y-84582000D01*
X128143000Y-83693000D02*
X135001000Y-83693000D01*
X127470000Y-84366000D02*
X128143000Y-83693000D01*
X127508000Y-88092000D02*
X127470000Y-88130000D01*
X139954000Y-85852000D02*
X142875000Y-85852000D01*
X128270000Y-84836000D02*
X128778000Y-84328000D01*
X128778000Y-84328000D02*
X134874000Y-84328000D01*
X134874000Y-84328000D02*
X135578002Y-85032002D01*
X135578002Y-85032002D02*
X136848002Y-85032002D01*
X136848002Y-85032002D02*
X137668000Y-85852000D01*
X137668000Y-85852000D02*
X139954000Y-85852000D01*
X128270000Y-88130000D02*
X128270000Y-84836000D01*
X145074640Y-83652360D02*
X145074640Y-82737960D01*
X142875000Y-85852000D02*
X145074640Y-83652360D01*
X136271000Y-85598000D02*
X136652000Y-85598000D01*
X134562002Y-84778002D02*
X135382000Y-85598000D01*
X135382000Y-85598000D02*
X136271000Y-85598000D01*
X129070000Y-88130000D02*
X129070000Y-85128000D01*
X129419998Y-84778002D02*
X132080000Y-84778002D01*
X129070000Y-85128000D02*
X129419998Y-84778002D01*
X132080000Y-84778002D02*
X134562002Y-84778002D01*
X146756120Y-82732880D02*
X146756120Y-80299560D01*
X143129000Y-86360000D02*
X146756120Y-82732880D01*
X137414000Y-86360000D02*
X143129000Y-86360000D01*
X136652000Y-85598000D02*
X137414000Y-86360000D01*
X136271000Y-86048002D02*
X136340002Y-86048002D01*
X134250004Y-85228004D02*
X135070002Y-86048002D01*
X135070002Y-86048002D02*
X136271000Y-86048002D01*
X130937000Y-85228004D02*
X134250004Y-85228004D01*
X148082000Y-78328520D02*
X147114260Y-77360780D01*
X148082000Y-82169000D02*
X148082000Y-78328520D01*
X143383000Y-86868000D02*
X148082000Y-82169000D01*
X137160000Y-86868000D02*
X143383000Y-86868000D01*
X136340002Y-86048002D02*
X137160000Y-86868000D01*
X129870000Y-88130000D02*
X129870000Y-85420000D01*
X130061996Y-85228004D02*
X130937000Y-85228004D01*
X130937000Y-85228004D02*
X131064000Y-85228004D01*
X129870000Y-85420000D02*
X130061996Y-85228004D01*
D35*
X148590000Y-69253100D02*
X141947900Y-69253100D01*
X140970000Y-70231000D02*
X140970000Y-71917560D01*
X141947900Y-69253100D02*
X140970000Y-70231000D01*
D34*
X134120000Y-95580000D02*
X135052000Y-95580000D01*
X165902640Y-74589640D02*
X164477700Y-74589640D01*
X167005000Y-75692000D02*
X165902640Y-74589640D01*
X167005000Y-83566000D02*
X167005000Y-75692000D01*
X163195000Y-87376000D02*
X167005000Y-83566000D01*
X151384000Y-87376000D02*
X163195000Y-87376000D01*
X146304000Y-92456000D02*
X151384000Y-87376000D01*
X138176000Y-92456000D02*
X146304000Y-92456000D01*
X135052000Y-95580000D02*
X138176000Y-92456000D01*
X142113000Y-87884000D02*
X143891000Y-87884000D01*
X131470000Y-86512000D02*
X131806998Y-86175002D01*
X131806998Y-86175002D02*
X133673002Y-86175002D01*
X133673002Y-86175002D02*
X134620000Y-87122000D01*
X134620000Y-87122000D02*
X135890000Y-87122000D01*
X135890000Y-87122000D02*
X136652000Y-87884000D01*
X136652000Y-87884000D02*
X142113000Y-87884000D01*
X131470000Y-88130000D02*
X131470000Y-86512000D01*
X153062940Y-75819000D02*
X154292300Y-74589640D01*
X150749000Y-75819000D02*
X153062940Y-75819000D01*
X149352000Y-77216000D02*
X150749000Y-75819000D01*
X149352000Y-82423000D02*
X149352000Y-77216000D01*
X143891000Y-87884000D02*
X149352000Y-82423000D01*
X154292300Y-74589640D02*
X154010360Y-74589640D01*
X139827000Y-88392000D02*
X144145000Y-88392000D01*
X132270000Y-86932000D02*
X132461000Y-86741000D01*
X132461000Y-86741000D02*
X133477000Y-86741000D01*
X133477000Y-86741000D02*
X134366000Y-87630000D01*
X134366000Y-87630000D02*
X135636000Y-87630000D01*
X135636000Y-87630000D02*
X136398000Y-88392000D01*
X136398000Y-88392000D02*
X139827000Y-88392000D01*
X132270000Y-88130000D02*
X132270000Y-86932000D01*
X151366220Y-77360780D02*
X153240740Y-77360780D01*
X149987000Y-78740000D02*
X151366220Y-77360780D01*
X149987000Y-82550000D02*
X149987000Y-78740000D01*
X144145000Y-88392000D02*
X149987000Y-82550000D01*
X134120000Y-89980000D02*
X135318000Y-89980000D01*
X144399000Y-88900000D02*
X152999440Y-80299560D01*
X136398000Y-88900000D02*
X144399000Y-88900000D01*
X135318000Y-89980000D02*
X136398000Y-88900000D01*
X152999440Y-80299560D02*
X153598880Y-80299560D01*
X153598880Y-80299560D02*
X153598880Y-80335120D01*
X153598880Y-80335120D02*
X153527760Y-80264000D01*
X153527760Y-80264000D02*
X153416000Y-80264000D01*
X134120000Y-90780000D02*
X135280000Y-90780000D01*
X151323040Y-82737960D02*
X155280360Y-82737960D01*
X144653000Y-89408000D02*
X151323040Y-82737960D01*
X136652000Y-89408000D02*
X144653000Y-89408000D01*
X135280000Y-90780000D02*
X136652000Y-89408000D01*
X134120000Y-91580000D02*
X135242000Y-91580000D01*
X150708360Y-84114640D02*
X157904180Y-84114640D01*
X144907000Y-89916000D02*
X150708360Y-84114640D01*
X136906000Y-89916000D02*
X144907000Y-89916000D01*
X135242000Y-91580000D02*
X136906000Y-89916000D01*
X134120000Y-92380000D02*
X135204000Y-92380000D01*
X159636460Y-85344000D02*
X160865820Y-84114640D01*
X150241000Y-85344000D02*
X159636460Y-85344000D01*
X145161000Y-90424000D02*
X150241000Y-85344000D01*
X137160000Y-90424000D02*
X145161000Y-90424000D01*
X135204000Y-92380000D02*
X137160000Y-90424000D01*
X134120000Y-93180000D02*
X135166000Y-93180000D01*
X163489640Y-84668360D02*
X163489640Y-82737960D01*
X162306000Y-85852000D02*
X163489640Y-84668360D01*
X150495000Y-85852000D02*
X162306000Y-85852000D01*
X145415000Y-90932000D02*
X150495000Y-85852000D01*
X137414000Y-90932000D02*
X145415000Y-90932000D01*
X135166000Y-93180000D02*
X137414000Y-90932000D01*
X134120000Y-93980000D02*
X135128000Y-93980000D01*
X165171120Y-83875880D02*
X165171120Y-80299560D01*
X162687000Y-86360000D02*
X165171120Y-83875880D01*
X150749000Y-86360000D02*
X162687000Y-86360000D01*
X145669000Y-91440000D02*
X150749000Y-86360000D01*
X137668000Y-91440000D02*
X145669000Y-91440000D01*
X135128000Y-93980000D02*
X137668000Y-91440000D01*
X134120000Y-94780000D02*
X135090000Y-94780000D01*
X166497000Y-78328520D02*
X165529260Y-77360780D01*
X166497000Y-83312000D02*
X166497000Y-78328520D01*
X162941000Y-86868000D02*
X166497000Y-83312000D01*
X151003000Y-86868000D02*
X162941000Y-86868000D01*
X145923000Y-91948000D02*
X151003000Y-86868000D01*
X137922000Y-91948000D02*
X145923000Y-91948000D01*
X135090000Y-94780000D02*
X137922000Y-91948000D01*
D35*
X151765000Y-69253100D02*
X158280100Y-69253100D01*
X159385000Y-70358000D02*
X159385000Y-71917560D01*
X158280100Y-69253100D02*
X159385000Y-70358000D01*
X129222500Y-80010000D02*
X129222500Y-75971400D01*
X129222500Y-75971400D02*
X130263900Y-74930000D01*
X132093000Y-96380000D02*
X134120000Y-96380000D01*
X132080000Y-96393000D02*
X132093000Y-96380000D01*
D34*
X129286000Y-97790000D02*
X132080000Y-97790000D01*
X135255000Y-100965000D02*
X136906000Y-100965000D01*
X132080000Y-97790000D02*
X135255000Y-100965000D01*
X117942360Y-101092000D02*
X121158000Y-101092000D01*
X121158000Y-101092000D02*
X122555000Y-99695000D01*
X111379000Y-92964000D02*
X112649000Y-94234000D01*
X124460000Y-97790000D02*
X129286000Y-97790000D01*
X122555000Y-99695000D02*
X124460000Y-97790000D01*
X111506000Y-99695000D02*
X122555000Y-99695000D01*
X111125000Y-99314000D02*
X111506000Y-99695000D01*
X111125000Y-97790000D02*
X111125000Y-99314000D01*
X112649000Y-96266000D02*
X111125000Y-97790000D01*
X112649000Y-94234000D02*
X112649000Y-96266000D01*
D35*
X60452000Y-96941640D02*
X57190640Y-96941640D01*
X57190640Y-96941640D02*
X54991000Y-94742000D01*
X44831000Y-99060000D02*
X52705000Y-99060000D01*
X52705000Y-99060000D02*
X54991000Y-96774000D01*
X54991000Y-96774000D02*
X54991000Y-94742000D01*
X54991000Y-94742000D02*
X54991000Y-91694000D01*
D34*
X65405000Y-96941640D02*
X67096640Y-96941640D01*
X83388000Y-98374000D02*
X83388000Y-99830000D01*
X82677000Y-97663000D02*
X83388000Y-98374000D01*
X78105000Y-97663000D02*
X82677000Y-97663000D01*
X76581000Y-99187000D02*
X78105000Y-97663000D01*
X69342000Y-99187000D02*
X76581000Y-99187000D01*
X67096640Y-96941640D02*
X69342000Y-99187000D01*
D35*
X60452000Y-96941640D02*
X65405000Y-96941640D01*
D34*
X96901000Y-90805000D02*
X99568000Y-90805000D01*
X102362000Y-90297000D02*
X104045000Y-91980000D01*
X100076000Y-90297000D02*
X102362000Y-90297000D01*
X99568000Y-90805000D02*
X100076000Y-90297000D01*
X98806000Y-97536000D02*
X100076000Y-96266000D01*
X100552000Y-91980000D02*
X101795000Y-91980000D01*
X100076000Y-92456000D02*
X100552000Y-91980000D01*
X100076000Y-96266000D02*
X100076000Y-92456000D01*
X129870000Y-98374000D02*
X129870000Y-98425000D01*
X129286000Y-97790000D02*
X129870000Y-98374000D01*
X129870000Y-98425000D02*
X129870000Y-99830000D01*
X101795000Y-91980000D02*
X104045000Y-91980000D01*
X104045000Y-91980000D02*
X108363000Y-91980000D01*
X108363000Y-91980000D02*
X109163000Y-92780000D01*
X109163000Y-92780000D02*
X110295000Y-92780000D01*
X110295000Y-92780000D02*
X111195000Y-92780000D01*
X111195000Y-92780000D02*
X111379000Y-92964000D01*
X111379000Y-92964000D02*
X111379000Y-94234000D01*
X111379000Y-94234000D02*
X111233000Y-94380000D01*
X111233000Y-94380000D02*
X110295000Y-94380000D01*
X101700000Y-92075000D02*
X101795000Y-91980000D01*
X125870000Y-99830000D02*
X125870000Y-101079000D01*
X125870000Y-101079000D02*
X125857000Y-101092000D01*
D35*
X79388000Y-99830000D02*
X79388000Y-101333000D01*
X79388000Y-101333000D02*
X79375000Y-101346000D01*
D34*
X82588000Y-99830000D02*
X82588000Y-101308000D01*
X82588000Y-101308000D02*
X82550000Y-101346000D01*
X110295000Y-95180000D02*
X109493000Y-95180000D01*
X109493000Y-95180000D02*
X108693000Y-94380000D01*
X101795000Y-94380000D02*
X108331000Y-94380000D01*
X108331000Y-94380000D02*
X108693000Y-94380000D01*
X108693000Y-94380000D02*
X109093000Y-93980000D01*
X110295000Y-93580000D02*
X109493000Y-93580000D01*
X109493000Y-93580000D02*
X109093000Y-93980000D01*
X125070000Y-99830000D02*
X125870000Y-99830000D01*
X125870000Y-99830000D02*
X126670000Y-99830000D01*
X126670000Y-99830000D02*
X126670000Y-100914000D01*
X126670000Y-100914000D02*
X126492000Y-101092000D01*
X125070000Y-99830000D02*
X125070000Y-100990000D01*
X125070000Y-100990000D02*
X124968000Y-101092000D01*
X125070000Y-99830000D02*
X125070000Y-98654000D01*
X125070000Y-98654000D02*
X124968000Y-98552000D01*
X126670000Y-99830000D02*
X126670000Y-98730000D01*
X126670000Y-98730000D02*
X126492000Y-98552000D01*
X125870000Y-99830000D02*
X125870000Y-98692000D01*
X125870000Y-98692000D02*
X125730000Y-98552000D01*
X80188000Y-99830000D02*
X80188000Y-100914000D01*
X80188000Y-100914000D02*
X80010000Y-101092000D01*
X78588000Y-99830000D02*
X78588000Y-100990000D01*
X78588000Y-100990000D02*
X78486000Y-101092000D01*
X80188000Y-99830000D02*
X80188000Y-98730000D01*
X80188000Y-98730000D02*
X80010000Y-98552000D01*
X78588000Y-99830000D02*
X78588000Y-98654000D01*
X78588000Y-98654000D02*
X78486000Y-98552000D01*
X79388000Y-99830000D02*
X79388000Y-98692000D01*
X79388000Y-98692000D02*
X79248000Y-98552000D01*
X79388000Y-99830000D02*
X80188000Y-99830000D01*
X78588000Y-99830000D02*
X79388000Y-99830000D01*
X112181000Y-98552000D02*
X112181000Y-98004000D01*
X112181000Y-98004000D02*
X114300000Y-95885000D01*
X114300000Y-95885000D02*
X114300000Y-94007940D01*
X114300000Y-94007940D02*
X114300000Y-93853000D01*
X114300000Y-93853000D02*
X112427000Y-91980000D01*
X112427000Y-91980000D02*
X110295000Y-91980000D01*
X114300000Y-94007940D02*
X114300000Y-93980000D01*
X114300000Y-89126060D02*
X114300000Y-92456000D01*
X119086000Y-97242000D02*
X119086000Y-98552000D01*
X114300000Y-92456000D02*
X119086000Y-97242000D01*
X114300000Y-89126060D02*
X114300000Y-89281000D01*
X114300000Y-89281000D02*
X112401000Y-91180000D01*
X112401000Y-91180000D02*
X110295000Y-91180000D01*
X85788000Y-98108000D02*
X85788000Y-99830000D01*
X85852000Y-98044000D02*
X85788000Y-98108000D01*
X132270000Y-101155000D02*
X132270000Y-99830000D01*
X132334000Y-101219000D02*
X132270000Y-101155000D01*
X110295000Y-96780000D02*
X110992000Y-96780000D01*
X110992000Y-96780000D02*
X111633000Y-96139000D01*
X127470000Y-101181000D02*
X127470000Y-99830000D01*
X127508000Y-101219000D02*
X127470000Y-101181000D01*
X110295000Y-95980000D02*
X109506000Y-95980000D01*
X80988000Y-101308000D02*
X80988000Y-99830000D01*
X81026000Y-101346000D02*
X80988000Y-101308000D01*
X110236000Y-98171000D02*
X110236000Y-101981000D01*
X109220000Y-97155000D02*
X110236000Y-98171000D01*
X109220000Y-96266000D02*
X109220000Y-97155000D01*
X109506000Y-95980000D02*
X109220000Y-96266000D01*
X108845000Y-89730000D02*
X108845000Y-87001000D01*
X108845000Y-87001000D02*
X108839000Y-86995000D01*
X108077000Y-87630000D02*
X108045000Y-87662000D01*
X108045000Y-87662000D02*
X108045000Y-89730000D01*
X107188000Y-86995000D02*
X107245000Y-87052000D01*
X107245000Y-87052000D02*
X107245000Y-89730000D01*
X53721000Y-91694000D02*
X53721000Y-89916000D01*
X106445000Y-87649000D02*
X106445000Y-89730000D01*
X106426000Y-87630000D02*
X106445000Y-87649000D01*
X104045000Y-89730000D02*
X104045000Y-90900000D01*
X104045000Y-90900000D02*
X104013000Y-90932000D01*
X98806000Y-94996000D02*
X98171000Y-94996000D01*
X98171000Y-94996000D02*
X96901000Y-96266000D01*
X96901000Y-96266000D02*
X95504000Y-96266000D01*
X95504000Y-96266000D02*
X94996000Y-95758000D01*
X94996000Y-95758000D02*
X94996000Y-92456000D01*
X94996000Y-92456000D02*
X95504000Y-91948000D01*
X95504000Y-91948000D02*
X95504000Y-89281000D01*
X95504000Y-89281000D02*
X96139000Y-88646000D01*
X96139000Y-88646000D02*
X102870000Y-88646000D01*
X102870000Y-88646000D02*
X103245000Y-89021000D01*
X103245000Y-89021000D02*
X103245000Y-89730000D01*
X96266000Y-94996000D02*
X96393000Y-94996000D01*
X96393000Y-94996000D02*
X100209000Y-91180000D01*
X100209000Y-91180000D02*
X101795000Y-91180000D01*
X54991000Y-101854000D02*
X54991000Y-101092000D01*
X54991000Y-101092000D02*
X55880000Y-100203000D01*
X55880000Y-100203000D02*
X62191900Y-100203000D01*
X104845000Y-98230000D02*
X104845000Y-100825998D01*
X62191900Y-100203000D02*
X60452000Y-101942900D01*
X67183000Y-100203000D02*
X62191900Y-100203000D01*
X68961000Y-101981000D02*
X67183000Y-100203000D01*
X103689998Y-101981000D02*
X68961000Y-101981000D01*
X104845000Y-100825998D02*
X103689998Y-101981000D01*
X56261000Y-101854000D02*
X57912000Y-101854000D01*
X63969900Y-103378000D02*
X65405000Y-101942900D01*
X59436000Y-103378000D02*
X63969900Y-103378000D01*
X57912000Y-101854000D02*
X59436000Y-103378000D01*
X76962000Y-102489000D02*
X68707000Y-102489000D01*
X68160900Y-101942900D02*
X65405000Y-101942900D01*
X68707000Y-102489000D02*
X68160900Y-101942900D01*
X76962000Y-102489000D02*
X104013000Y-102489000D01*
X104013000Y-102489000D02*
X105645000Y-100857000D01*
X105645000Y-100857000D02*
X105645000Y-98230000D01*
X76962000Y-102489000D02*
X77089000Y-102489000D01*
X106445000Y-99422000D02*
X106445000Y-98230000D01*
X106426000Y-99441000D02*
X106445000Y-99422000D01*
X93726000Y-94996000D02*
X93726000Y-95377000D01*
X93726000Y-95377000D02*
X94996000Y-96647000D01*
X106445000Y-97555000D02*
X106445000Y-98230000D01*
X106045000Y-97155000D02*
X106445000Y-97555000D01*
X102870000Y-97155000D02*
X106045000Y-97155000D01*
X101219000Y-98806000D02*
X102870000Y-97155000D01*
X95377000Y-98806000D02*
X101219000Y-98806000D01*
X94996000Y-98425000D02*
X95377000Y-98806000D01*
X94996000Y-96647000D02*
X94996000Y-98425000D01*
X93726000Y-94996000D02*
X93726000Y-95250000D01*
X107245000Y-98230000D02*
X107245000Y-100908000D01*
X84988000Y-101321000D02*
X84988000Y-99830000D01*
X84963000Y-101346000D02*
X84988000Y-101321000D01*
X107245000Y-100908000D02*
X107188000Y-100965000D01*
X128270000Y-98425000D02*
X128270000Y-99830000D01*
X81788000Y-98298000D02*
X81788000Y-99830000D01*
X108045000Y-98230000D02*
X108045000Y-97060000D01*
X108045000Y-97060000D02*
X108077000Y-97028000D01*
X84188000Y-98565000D02*
X84188000Y-99830000D01*
X84201000Y-98552000D02*
X84188000Y-98565000D01*
X108845000Y-98230000D02*
X108845000Y-99435000D01*
X130670000Y-101206000D02*
X130670000Y-99830000D01*
X130683000Y-101219000D02*
X130670000Y-101206000D01*
X108845000Y-99435000D02*
X108839000Y-99441000D01*
D35*
X125262640Y-74930000D02*
X126492000Y-74930000D01*
X127381000Y-68961000D02*
X128651000Y-67691000D01*
X127381000Y-74041000D02*
X127381000Y-68961000D01*
X126492000Y-74930000D02*
X127381000Y-74041000D01*
X80304640Y-74930000D02*
X81788000Y-74930000D01*
X82296000Y-68961000D02*
X83566000Y-67691000D01*
X82296000Y-74422000D02*
X82296000Y-68961000D01*
X81788000Y-74930000D02*
X82296000Y-74422000D01*
X149352000Y-67691000D02*
X160782000Y-67691000D01*
X160782000Y-67691000D02*
X162560000Y-69469000D01*
X60833000Y-67691000D02*
X81407000Y-67691000D01*
X81407000Y-67691000D02*
X82423000Y-67691000D01*
X59944000Y-68580000D02*
X60833000Y-67691000D01*
X59944000Y-71501000D02*
X59944000Y-68580000D01*
X105156000Y-68326000D02*
X105791000Y-67691000D01*
X150114000Y-72603360D02*
X151765000Y-74254360D01*
X150114000Y-68453000D02*
X150114000Y-72603360D01*
X149352000Y-67691000D02*
X150114000Y-68453000D01*
X105791000Y-67691000D02*
X126238000Y-67691000D01*
X126238000Y-67691000D02*
X127254000Y-67691000D01*
X127254000Y-67691000D02*
X127635000Y-67691000D01*
X127635000Y-67691000D02*
X128143000Y-67691000D01*
X128143000Y-67691000D02*
X128651000Y-67691000D01*
X128651000Y-67691000D02*
X149352000Y-67691000D01*
X61595000Y-74254360D02*
X61595000Y-73152000D01*
X105156000Y-72730360D02*
X106680000Y-74254360D01*
X105156000Y-68326000D02*
X105156000Y-72730360D01*
X104521000Y-67691000D02*
X105156000Y-68326000D01*
X82423000Y-67691000D02*
X83566000Y-67691000D01*
X83566000Y-67691000D02*
X104521000Y-67691000D01*
X61595000Y-73152000D02*
X59944000Y-71501000D01*
X58420000Y-74254360D02*
X61595000Y-74254360D01*
X148590000Y-74254360D02*
X151765000Y-74254360D01*
X103505000Y-74254360D02*
X106680000Y-74254360D01*
D34*
X33655000Y-100711000D02*
X43434000Y-100711000D01*
X53721000Y-100711000D02*
X53721000Y-101854000D01*
X53340000Y-100330000D02*
X53721000Y-100711000D01*
X43815000Y-100330000D02*
X53340000Y-100330000D01*
X43434000Y-100711000D02*
X43815000Y-100330000D01*
X85788000Y-88130000D02*
X85788000Y-82868000D01*
X88138000Y-78963520D02*
X89740740Y-77360780D01*
X88138000Y-80518000D02*
X88138000Y-78963520D01*
X85788000Y-82868000D02*
X88138000Y-80518000D01*
X84988000Y-88130000D02*
X84988000Y-82906000D01*
X87630000Y-77751940D02*
X90792300Y-74589640D01*
X87630000Y-80264000D02*
X87630000Y-77751940D01*
X84988000Y-82906000D02*
X87630000Y-80264000D01*
X77788000Y-99830000D02*
X77788000Y-101283000D01*
X131470000Y-101956000D02*
X131470000Y-99830000D01*
X131445000Y-101981000D02*
X131470000Y-101956000D01*
X77788000Y-101283000D02*
X77851000Y-101346000D01*
X100977700Y-74589640D02*
X100977700Y-74815700D01*
X100977700Y-74815700D02*
X103378000Y-77216000D01*
X103378000Y-77216000D02*
X103378000Y-82804000D01*
X103378000Y-82804000D02*
X98552000Y-87630000D01*
X98552000Y-87630000D02*
X92652002Y-87630000D01*
X92652002Y-87630000D02*
X92456000Y-87826002D01*
X92456000Y-87826002D02*
X92456000Y-91694000D01*
X92456000Y-91694000D02*
X88570000Y-95580000D01*
X88570000Y-95580000D02*
X87638000Y-95580000D01*
X87638000Y-94780000D02*
X88608000Y-94780000D01*
X102870000Y-78201520D02*
X102029260Y-77360780D01*
X102870000Y-82550000D02*
X102870000Y-78201520D01*
X98298000Y-87122000D02*
X102870000Y-82550000D01*
X92144002Y-87122000D02*
X98298000Y-87122000D01*
X91948000Y-87318002D02*
X92144002Y-87122000D01*
X91948000Y-91440000D02*
X91948000Y-87318002D01*
X88608000Y-94780000D02*
X91948000Y-91440000D01*
X87638000Y-93980000D02*
X88646000Y-93980000D01*
X101671120Y-82986880D02*
X101671120Y-80299560D01*
X98044000Y-86614000D02*
X101671120Y-82986880D01*
X91694000Y-86614000D02*
X98044000Y-86614000D01*
X91440000Y-86868000D02*
X91694000Y-86614000D01*
X91440000Y-91186000D02*
X91440000Y-86868000D01*
X88646000Y-93980000D02*
X91440000Y-91186000D01*
X96520000Y-86106000D02*
X97282000Y-86106000D01*
X88684000Y-93180000D02*
X90932000Y-90932000D01*
X90932000Y-90932000D02*
X90932000Y-86614000D01*
X90932000Y-86614000D02*
X91440000Y-86106000D01*
X91440000Y-86106000D02*
X96520000Y-86106000D01*
X87638000Y-93180000D02*
X88684000Y-93180000D01*
X97282000Y-86106000D02*
X99989640Y-83398360D01*
X99989640Y-83398360D02*
X99989640Y-82737960D01*
X87638000Y-92380000D02*
X88722000Y-92380000D01*
X95882460Y-85598000D02*
X97365820Y-84114640D01*
X90932000Y-85598000D02*
X95882460Y-85598000D01*
X90424000Y-86106000D02*
X90932000Y-85598000D01*
X90424000Y-90678000D02*
X90424000Y-86106000D01*
X88722000Y-92380000D02*
X90424000Y-90678000D01*
X87638000Y-91580000D02*
X88760000Y-91580000D01*
X91399360Y-84114640D02*
X94404180Y-84114640D01*
X89916000Y-85598000D02*
X91399360Y-84114640D01*
X89916000Y-90424000D02*
X89916000Y-85598000D01*
X88760000Y-91580000D02*
X89916000Y-90424000D01*
X87638000Y-90780000D02*
X88798000Y-90780000D01*
X89408000Y-85110320D02*
X91780360Y-82737960D01*
X89408000Y-90170000D02*
X89408000Y-85110320D01*
X88798000Y-90780000D02*
X89408000Y-90170000D01*
X88900000Y-81498440D02*
X90098880Y-80299560D01*
X88900000Y-89662000D02*
X88900000Y-81498440D01*
X88582000Y-89980000D02*
X88900000Y-89662000D01*
X87638000Y-89980000D02*
X88582000Y-89980000D01*
X90098880Y-80299560D02*
X89824560Y-80299560D01*
D36*
X140843000Y-95758000D02*
X143002000Y-93599000D01*
X151638000Y-88646000D02*
X155575000Y-88646000D01*
X146685000Y-93599000D02*
X151638000Y-88646000D01*
X143002000Y-93599000D02*
X146685000Y-93599000D01*
X154581860Y-98806000D02*
X154581860Y-89639140D01*
X154581860Y-89639140D02*
X155575000Y-88646000D01*
X154686000Y-98701860D02*
X154581860Y-98806000D01*
X168402000Y-84074000D02*
X168402000Y-70231000D01*
X155575000Y-88646000D02*
X163830000Y-88646000D01*
X163830000Y-88646000D02*
X168402000Y-84074000D01*
X168402000Y-70231000D02*
X167640000Y-69469000D01*
X168402000Y-70231000D02*
X167640000Y-69469000D01*
D37*
G36*
X59450086Y-68086086D02*
X59424019Y-68125098D01*
X59275039Y-67975858D01*
X58721174Y-67745873D01*
X58121457Y-67745349D01*
X57567191Y-67974367D01*
X57142758Y-68398061D01*
X57077757Y-68554600D01*
X51523900Y-68554600D01*
X51256595Y-68607770D01*
X51029986Y-68759186D01*
X50306086Y-69483086D01*
X50154670Y-69709695D01*
X50115542Y-69906407D01*
X50101500Y-69977000D01*
X50101500Y-70945970D01*
X49799296Y-71247647D01*
X49619106Y-71681594D01*
X49618696Y-72151465D01*
X49798128Y-72585725D01*
X50130087Y-72918264D01*
X50564034Y-73098454D01*
X51033905Y-73098864D01*
X51468165Y-72919432D01*
X51527575Y-72860125D01*
X52493976Y-72860125D01*
X52673408Y-73294385D01*
X53005367Y-73626924D01*
X53439314Y-73807114D01*
X53909185Y-73807524D01*
X54343445Y-73628092D01*
X54675984Y-73296133D01*
X54856174Y-72862186D01*
X54856584Y-72392315D01*
X54677152Y-71958055D01*
X54345193Y-71625516D01*
X53911246Y-71445326D01*
X53441375Y-71444916D01*
X53007115Y-71624348D01*
X52674576Y-71956307D01*
X52494386Y-72390254D01*
X52493976Y-72860125D01*
X51527575Y-72860125D01*
X51800704Y-72587473D01*
X51980894Y-72153526D01*
X51981304Y-71683655D01*
X51801872Y-71249395D01*
X51498500Y-70945493D01*
X51498500Y-70266328D01*
X51813228Y-69951600D01*
X57077508Y-69951600D01*
X57141267Y-70105909D01*
X57564961Y-70530342D01*
X58118826Y-70760327D01*
X58718543Y-70760851D01*
X59245500Y-70543117D01*
X59245500Y-71501000D01*
X59298670Y-71768305D01*
X59450086Y-71994914D01*
X60586359Y-73131187D01*
X60317758Y-73399321D01*
X60252757Y-73555860D01*
X59762492Y-73555860D01*
X59698733Y-73401551D01*
X59275039Y-72977118D01*
X58721174Y-72747133D01*
X58121457Y-72746609D01*
X57567191Y-72975627D01*
X57142758Y-73399321D01*
X56912773Y-73953186D01*
X56912762Y-73965499D01*
X56894572Y-73921475D01*
X56562613Y-73588936D01*
X56128666Y-73408746D01*
X55658795Y-73408336D01*
X55224535Y-73587768D01*
X54891996Y-73919727D01*
X54711806Y-74353674D01*
X54711396Y-74823545D01*
X54890828Y-75257805D01*
X55222787Y-75590344D01*
X55656734Y-75770534D01*
X56079705Y-75770903D01*
X56553209Y-76244407D01*
X56276095Y-76358908D01*
X55943556Y-76690867D01*
X55763366Y-77124814D01*
X55762956Y-77594685D01*
X55942388Y-78028945D01*
X56274347Y-78361484D01*
X56708294Y-78541674D01*
X57178165Y-78542084D01*
X57215103Y-78526821D01*
X58295000Y-79606718D01*
X58295000Y-81113242D01*
X57752423Y-80570665D01*
X57767014Y-80535526D01*
X57767424Y-80065655D01*
X57587992Y-79631395D01*
X57256033Y-79298856D01*
X56822086Y-79118666D01*
X56352215Y-79118256D01*
X55917955Y-79297688D01*
X55585416Y-79629647D01*
X55405226Y-80063594D01*
X55404816Y-80533465D01*
X55584248Y-80967725D01*
X55916207Y-81300264D01*
X56350154Y-81480454D01*
X56820025Y-81480864D01*
X56856963Y-81465601D01*
X57787000Y-82395638D01*
X57787000Y-82799802D01*
X57277559Y-82290361D01*
X57072199Y-82153144D01*
X56829960Y-82104959D01*
X56829955Y-82104960D01*
X55921042Y-82104960D01*
X55906512Y-82069795D01*
X55574553Y-81737256D01*
X55140606Y-81557066D01*
X54670735Y-81556656D01*
X54236475Y-81736088D01*
X53903936Y-82068047D01*
X53723746Y-82501994D01*
X53723336Y-82971865D01*
X53902768Y-83406125D01*
X53978151Y-83481640D01*
X53297222Y-83481640D01*
X53282692Y-83446475D01*
X52950733Y-83113936D01*
X52516786Y-82933746D01*
X52046915Y-82933336D01*
X51612655Y-83112768D01*
X51280116Y-83444727D01*
X51099926Y-83878674D01*
X51099516Y-84348545D01*
X51249279Y-84711000D01*
X50810737Y-84711000D01*
X50485483Y-84385745D01*
X50500074Y-84350606D01*
X50500484Y-83880735D01*
X50321052Y-83446475D01*
X49989093Y-83113936D01*
X49555146Y-82933746D01*
X49085275Y-82933336D01*
X48651015Y-83112768D01*
X48318476Y-83444727D01*
X48138286Y-83878674D01*
X48137876Y-84348545D01*
X48317308Y-84782805D01*
X48649267Y-85115344D01*
X48898899Y-85219000D01*
X48522198Y-85219000D01*
X47328360Y-84025162D01*
X47328360Y-83754362D01*
X47363525Y-83739832D01*
X47696064Y-83407873D01*
X47876254Y-82973926D01*
X47876664Y-82504055D01*
X47697232Y-82069795D01*
X47365273Y-81737256D01*
X46931326Y-81557066D01*
X46461455Y-81556656D01*
X46027195Y-81736088D01*
X45694656Y-82068047D01*
X45646880Y-82183105D01*
X45646880Y-81315962D01*
X45682045Y-81301432D01*
X46014584Y-80969473D01*
X46194774Y-80535526D01*
X46195184Y-80065655D01*
X46015752Y-79631395D01*
X45683793Y-79298856D01*
X45249846Y-79118666D01*
X44779975Y-79118256D01*
X44345715Y-79297688D01*
X44321000Y-79322360D01*
X44321000Y-78590718D01*
X44384635Y-78527083D01*
X44419774Y-78541674D01*
X44889645Y-78542084D01*
X45323905Y-78362652D01*
X45656444Y-78030693D01*
X45836634Y-77596746D01*
X45837044Y-77126875D01*
X45657612Y-76692615D01*
X45325653Y-76360076D01*
X45046879Y-76244319D01*
X45520621Y-75770577D01*
X45941205Y-75770944D01*
X46375465Y-75591512D01*
X46708004Y-75259553D01*
X46888194Y-74825606D01*
X46888604Y-74355735D01*
X46709172Y-73921475D01*
X46377213Y-73588936D01*
X45943266Y-73408746D01*
X45473395Y-73408336D01*
X45039135Y-73587768D01*
X44706596Y-73919727D01*
X44526406Y-74353674D01*
X44525996Y-74823545D01*
X44570222Y-74930580D01*
X42732401Y-76768401D01*
X42595184Y-76973761D01*
X42546999Y-77216000D01*
X42547000Y-77216005D01*
X42547000Y-83057995D01*
X42546999Y-83058000D01*
X42595184Y-83300239D01*
X42732401Y-83505599D01*
X47050399Y-87823596D01*
X47050401Y-87823599D01*
X47255761Y-87960816D01*
X47498000Y-88009000D01*
X53839802Y-88009000D01*
X56054350Y-90223548D01*
X55943500Y-90223548D01*
X55755247Y-90258970D01*
X55624893Y-90342850D01*
X55510012Y-90264355D01*
X55308500Y-90223548D01*
X54673500Y-90223548D01*
X54485247Y-90258970D01*
X54441892Y-90286868D01*
X54528860Y-90077426D01*
X54529140Y-89755984D01*
X54406389Y-89458903D01*
X54179293Y-89231410D01*
X53882426Y-89108140D01*
X53560984Y-89107860D01*
X53263903Y-89230611D01*
X53036410Y-89457707D01*
X52913140Y-89754574D01*
X52912860Y-90076016D01*
X52998810Y-90284032D01*
X52970012Y-90264355D01*
X52768500Y-90223548D01*
X52133500Y-90223548D01*
X51945247Y-90258970D01*
X51926232Y-90271206D01*
X51858198Y-90203173D01*
X51624809Y-90106500D01*
X51466750Y-90106500D01*
X51308000Y-90265250D01*
X51308000Y-91567000D01*
X51328000Y-91567000D01*
X51328000Y-91821000D01*
X51308000Y-91821000D01*
X51308000Y-93122750D01*
X51466750Y-93281500D01*
X51624809Y-93281500D01*
X51858198Y-93184827D01*
X51924498Y-93118527D01*
X51931988Y-93123645D01*
X52133500Y-93164452D01*
X52768500Y-93164452D01*
X52956753Y-93129030D01*
X53087107Y-93045150D01*
X53201988Y-93123645D01*
X53403500Y-93164452D01*
X54038500Y-93164452D01*
X54226753Y-93129030D01*
X54292500Y-93086723D01*
X54292500Y-96484672D01*
X52415672Y-98361500D01*
X45989826Y-98361500D01*
X45963530Y-98221747D01*
X45852272Y-98048847D01*
X45682512Y-97932855D01*
X45481000Y-97892048D01*
X44181000Y-97892048D01*
X43992747Y-97927470D01*
X43819847Y-98038728D01*
X43703855Y-98208488D01*
X43663048Y-98410000D01*
X43663048Y-99710000D01*
X43666172Y-99726603D01*
X43572761Y-99745184D01*
X43367401Y-99882401D01*
X43367399Y-99882404D01*
X43171802Y-100078000D01*
X36712952Y-100078000D01*
X36712952Y-99441000D01*
X36677530Y-99252747D01*
X36566272Y-99079847D01*
X36396512Y-98963855D01*
X36195000Y-98923048D01*
X31115000Y-98923048D01*
X30926747Y-98958470D01*
X30753847Y-99069728D01*
X30637855Y-99239488D01*
X30597048Y-99441000D01*
X30597048Y-101981000D01*
X30632470Y-102169253D01*
X30743728Y-102342153D01*
X30913488Y-102458145D01*
X31115000Y-102498952D01*
X36195000Y-102498952D01*
X36383253Y-102463530D01*
X36390267Y-102459016D01*
X44111590Y-102459016D01*
X44167271Y-102689611D01*
X44650078Y-102857622D01*
X45160428Y-102828083D01*
X45494729Y-102689611D01*
X45550410Y-102459016D01*
X44831000Y-101739605D01*
X44111590Y-102459016D01*
X36390267Y-102459016D01*
X36556153Y-102352272D01*
X36672145Y-102182512D01*
X36712952Y-101981000D01*
X36712952Y-101344000D01*
X43433995Y-101344000D01*
X43434000Y-101344001D01*
X43553883Y-101320155D01*
X43533378Y-101379078D01*
X43562917Y-101889428D01*
X43701389Y-102223729D01*
X43931984Y-102279410D01*
X44651395Y-101560000D01*
X44637252Y-101545858D01*
X44816858Y-101366252D01*
X44831000Y-101380395D01*
X44845142Y-101366252D01*
X45024748Y-101545858D01*
X45010605Y-101560000D01*
X45730016Y-102279410D01*
X45960611Y-102223729D01*
X46128622Y-101740922D01*
X46099083Y-101230572D01*
X45988251Y-100963000D01*
X46418500Y-100963000D01*
X46418500Y-101568250D01*
X46577250Y-101727000D01*
X47244000Y-101727000D01*
X47244000Y-101707000D01*
X47498000Y-101707000D01*
X47498000Y-101727000D01*
X48514000Y-101727000D01*
X48514000Y-101707000D01*
X48768000Y-101707000D01*
X48768000Y-101727000D01*
X49784000Y-101727000D01*
X49784000Y-101707000D01*
X50038000Y-101707000D01*
X50038000Y-101727000D01*
X51054000Y-101727000D01*
X51054000Y-101707000D01*
X51308000Y-101707000D01*
X51308000Y-101727000D01*
X52324000Y-101727000D01*
X52324000Y-101707000D01*
X52578000Y-101707000D01*
X52578000Y-101727000D01*
X52598000Y-101727000D01*
X52598000Y-101981000D01*
X52578000Y-101981000D01*
X52578000Y-102001000D01*
X52324000Y-102001000D01*
X52324000Y-101981000D01*
X51308000Y-101981000D01*
X51308000Y-102001000D01*
X51054000Y-102001000D01*
X51054000Y-101981000D01*
X50038000Y-101981000D01*
X50038000Y-102001000D01*
X49784000Y-102001000D01*
X49784000Y-101981000D01*
X48768000Y-101981000D01*
X48768000Y-102001000D01*
X48514000Y-102001000D01*
X48514000Y-101981000D01*
X47498000Y-101981000D01*
X47498000Y-102001000D01*
X47244000Y-102001000D01*
X47244000Y-101981000D01*
X46577250Y-101981000D01*
X46418500Y-102139750D01*
X46418500Y-102932810D01*
X46515173Y-103166199D01*
X46693802Y-103344827D01*
X46899428Y-103430000D01*
X22427000Y-103430000D01*
X22427000Y-101087021D01*
X22859560Y-101087021D01*
X23245437Y-102020915D01*
X23959327Y-102736052D01*
X24892546Y-103123559D01*
X25903021Y-103124440D01*
X26836915Y-102738563D01*
X27552052Y-102024673D01*
X27939559Y-101091454D01*
X27940440Y-100080979D01*
X27554563Y-99147085D01*
X26840673Y-98431948D01*
X25907454Y-98044441D01*
X24896979Y-98043560D01*
X23963085Y-98429437D01*
X23247948Y-99143327D01*
X22860441Y-100076546D01*
X22859560Y-101087021D01*
X22427000Y-101087021D01*
X22427000Y-96125095D01*
X26990510Y-96125095D01*
X28049894Y-97211831D01*
X31511555Y-98753113D01*
X35299536Y-98852353D01*
X38837152Y-97494441D01*
X39260106Y-97211831D01*
X40319490Y-96125095D01*
X33655000Y-89460605D01*
X26990510Y-96125095D01*
X22427000Y-96125095D01*
X22427000Y-90925536D01*
X24083647Y-90925536D01*
X25441559Y-94463152D01*
X25724169Y-94886106D01*
X26810905Y-95945490D01*
X33475395Y-89281000D01*
X33834605Y-89281000D01*
X40499095Y-95945490D01*
X41585831Y-94886106D01*
X42879867Y-91979750D01*
X46418500Y-91979750D01*
X46418500Y-92772810D01*
X46515173Y-93006199D01*
X46693802Y-93184827D01*
X46927191Y-93281500D01*
X47085250Y-93281500D01*
X47244000Y-93122750D01*
X47244000Y-91821000D01*
X47498000Y-91821000D01*
X47498000Y-93122750D01*
X47656750Y-93281500D01*
X47814809Y-93281500D01*
X48006000Y-93202306D01*
X48197191Y-93281500D01*
X48355250Y-93281500D01*
X48514000Y-93122750D01*
X48514000Y-91821000D01*
X48768000Y-91821000D01*
X48768000Y-93122750D01*
X48926750Y-93281500D01*
X49084809Y-93281500D01*
X49276000Y-93202306D01*
X49467191Y-93281500D01*
X49625250Y-93281500D01*
X49784000Y-93122750D01*
X49784000Y-91821000D01*
X50038000Y-91821000D01*
X50038000Y-93122750D01*
X50196750Y-93281500D01*
X50354809Y-93281500D01*
X50546000Y-93202306D01*
X50737191Y-93281500D01*
X50895250Y-93281500D01*
X51054000Y-93122750D01*
X51054000Y-91821000D01*
X50038000Y-91821000D01*
X49784000Y-91821000D01*
X48768000Y-91821000D01*
X48514000Y-91821000D01*
X47498000Y-91821000D01*
X47244000Y-91821000D01*
X46577250Y-91821000D01*
X46418500Y-91979750D01*
X42879867Y-91979750D01*
X43127113Y-91424445D01*
X43148314Y-90615190D01*
X46418500Y-90615190D01*
X46418500Y-91408250D01*
X46577250Y-91567000D01*
X47244000Y-91567000D01*
X47244000Y-90265250D01*
X47498000Y-90265250D01*
X47498000Y-91567000D01*
X48514000Y-91567000D01*
X48514000Y-90265250D01*
X48768000Y-90265250D01*
X48768000Y-91567000D01*
X49784000Y-91567000D01*
X49784000Y-90265250D01*
X50038000Y-90265250D01*
X50038000Y-91567000D01*
X51054000Y-91567000D01*
X51054000Y-90265250D01*
X50895250Y-90106500D01*
X50737191Y-90106500D01*
X50546000Y-90185694D01*
X50354809Y-90106500D01*
X50196750Y-90106500D01*
X50038000Y-90265250D01*
X49784000Y-90265250D01*
X49625250Y-90106500D01*
X49467191Y-90106500D01*
X49276000Y-90185694D01*
X49084809Y-90106500D01*
X48926750Y-90106500D01*
X48768000Y-90265250D01*
X48514000Y-90265250D01*
X48355250Y-90106500D01*
X48197191Y-90106500D01*
X48006000Y-90185694D01*
X47814809Y-90106500D01*
X47656750Y-90106500D01*
X47498000Y-90265250D01*
X47244000Y-90265250D01*
X47085250Y-90106500D01*
X46927191Y-90106500D01*
X46693802Y-90203173D01*
X46515173Y-90381801D01*
X46418500Y-90615190D01*
X43148314Y-90615190D01*
X43226353Y-87636464D01*
X41868441Y-84098848D01*
X41585831Y-83675894D01*
X40499095Y-82616510D01*
X33834605Y-89281000D01*
X33475395Y-89281000D01*
X26810905Y-82616510D01*
X25724169Y-83675894D01*
X24182887Y-87137555D01*
X24083647Y-90925536D01*
X22427000Y-90925536D01*
X22427000Y-82436905D01*
X26990510Y-82436905D01*
X33655000Y-89101395D01*
X40319490Y-82436905D01*
X39260106Y-81350169D01*
X35798445Y-79808887D01*
X32010464Y-79709647D01*
X28472848Y-81067559D01*
X28049894Y-81350169D01*
X26990510Y-82436905D01*
X22427000Y-82436905D01*
X22427000Y-76581000D01*
X30597048Y-76581000D01*
X30597048Y-79121000D01*
X30632470Y-79309253D01*
X30743728Y-79482153D01*
X30913488Y-79598145D01*
X31115000Y-79638952D01*
X36195000Y-79638952D01*
X36383253Y-79603530D01*
X36556153Y-79492272D01*
X36672145Y-79322512D01*
X36712952Y-79121000D01*
X36712952Y-76581000D01*
X36677530Y-76392747D01*
X36566272Y-76219847D01*
X36396512Y-76103855D01*
X36195000Y-76063048D01*
X31115000Y-76063048D01*
X30926747Y-76098470D01*
X30753847Y-76209728D01*
X30637855Y-76379488D01*
X30597048Y-76581000D01*
X22427000Y-76581000D01*
X22427000Y-72693147D01*
X22758312Y-73025038D01*
X23330735Y-73262729D01*
X23950546Y-73263270D01*
X24523383Y-73026578D01*
X24962038Y-72588688D01*
X25199729Y-72016265D01*
X25200270Y-71396454D01*
X24963578Y-70823617D01*
X24738222Y-70597867D01*
X25165889Y-70598240D01*
X25674383Y-70388134D01*
X25785651Y-70277060D01*
X28509545Y-70277060D01*
X28592884Y-70530953D01*
X29157306Y-70736590D01*
X29428611Y-70724831D01*
X29331962Y-70821312D01*
X29094271Y-71393735D01*
X29093730Y-72013546D01*
X29330422Y-72586383D01*
X29768312Y-73025038D01*
X30340735Y-73262729D01*
X30960546Y-73263270D01*
X31533383Y-73026578D01*
X31972038Y-72588688D01*
X32209729Y-72016265D01*
X32209731Y-72013546D01*
X32370730Y-72013546D01*
X32607422Y-72586383D01*
X33045312Y-73025038D01*
X33617735Y-73262729D01*
X34237546Y-73263270D01*
X34810383Y-73026578D01*
X35249038Y-72588688D01*
X35486729Y-72016265D01*
X35487270Y-71396454D01*
X35250578Y-70823617D01*
X35025222Y-70597867D01*
X35452889Y-70598240D01*
X35961383Y-70388134D01*
X36072651Y-70277060D01*
X38796545Y-70277060D01*
X38879884Y-70530953D01*
X39444306Y-70736590D01*
X39715611Y-70724831D01*
X39618962Y-70821312D01*
X39381271Y-71393735D01*
X39380730Y-72013546D01*
X39617422Y-72586383D01*
X40055312Y-73025038D01*
X40627735Y-73262729D01*
X41247546Y-73263270D01*
X41820383Y-73026578D01*
X41987126Y-72860125D01*
X46743416Y-72860125D01*
X46922848Y-73294385D01*
X47254807Y-73626924D01*
X47688754Y-73807114D01*
X48158625Y-73807524D01*
X48592885Y-73628092D01*
X48925424Y-73296133D01*
X49105614Y-72862186D01*
X49106024Y-72392315D01*
X48926592Y-71958055D01*
X48594633Y-71625516D01*
X48160686Y-71445326D01*
X47690815Y-71444916D01*
X47256555Y-71624348D01*
X46924016Y-71956307D01*
X46743826Y-72390254D01*
X46743416Y-72860125D01*
X41987126Y-72860125D01*
X42259038Y-72588688D01*
X42496729Y-72016265D01*
X42497270Y-71396454D01*
X42260578Y-70823617D01*
X41822688Y-70384962D01*
X41250265Y-70147271D01*
X40790478Y-70146870D01*
X40741062Y-70097454D01*
X40994953Y-70014116D01*
X41200590Y-69449694D01*
X41174579Y-68849542D01*
X40994953Y-68415884D01*
X40741060Y-68332545D01*
X39858605Y-69215000D01*
X39872748Y-69229143D01*
X39693143Y-69408748D01*
X39679000Y-69394605D01*
X38796545Y-70277060D01*
X36072651Y-70277060D01*
X36350767Y-69999430D01*
X36561760Y-69491303D01*
X36562205Y-68980306D01*
X38157410Y-68980306D01*
X38183421Y-69580458D01*
X38363047Y-70014116D01*
X38616940Y-70097455D01*
X39499395Y-69215000D01*
X38616940Y-68332545D01*
X38363047Y-68415884D01*
X38157410Y-68980306D01*
X36562205Y-68980306D01*
X36562240Y-68941111D01*
X36352134Y-68432617D01*
X36072946Y-68152940D01*
X38796545Y-68152940D01*
X39679000Y-69035395D01*
X40561455Y-68152940D01*
X40478116Y-67899047D01*
X39913694Y-67693410D01*
X39313542Y-67719421D01*
X38879884Y-67899047D01*
X38796545Y-68152940D01*
X36072946Y-68152940D01*
X35963430Y-68043233D01*
X35455303Y-67832240D01*
X34905111Y-67831760D01*
X34396617Y-68041866D01*
X34007233Y-68430570D01*
X33796240Y-68938697D01*
X33795760Y-69488889D01*
X34005866Y-69997383D01*
X34155418Y-70147197D01*
X33620454Y-70146730D01*
X33047617Y-70383422D01*
X32608962Y-70821312D01*
X32371271Y-71393735D01*
X32370730Y-72013546D01*
X32209731Y-72013546D01*
X32210270Y-71396454D01*
X31973578Y-70823617D01*
X31535688Y-70384962D01*
X30963265Y-70147271D01*
X30503478Y-70146870D01*
X30454062Y-70097454D01*
X30707953Y-70014116D01*
X30913590Y-69449694D01*
X30887579Y-68849542D01*
X30707953Y-68415884D01*
X30454060Y-68332545D01*
X29571605Y-69215000D01*
X29585748Y-69229143D01*
X29406143Y-69408748D01*
X29392000Y-69394605D01*
X28509545Y-70277060D01*
X25785651Y-70277060D01*
X26063767Y-69999430D01*
X26274760Y-69491303D01*
X26275205Y-68980306D01*
X27870410Y-68980306D01*
X27896421Y-69580458D01*
X28076047Y-70014116D01*
X28329940Y-70097455D01*
X29212395Y-69215000D01*
X28329940Y-68332545D01*
X28076047Y-68415884D01*
X27870410Y-68980306D01*
X26275205Y-68980306D01*
X26275240Y-68941111D01*
X26065134Y-68432617D01*
X25785946Y-68152940D01*
X28509545Y-68152940D01*
X29392000Y-69035395D01*
X30274455Y-68152940D01*
X30191116Y-67899047D01*
X29626694Y-67693410D01*
X29026542Y-67719421D01*
X28592884Y-67899047D01*
X28509545Y-68152940D01*
X25785946Y-68152940D01*
X25676430Y-68043233D01*
X25168303Y-67832240D01*
X24618111Y-67831760D01*
X24109617Y-68041866D01*
X23720233Y-68430570D01*
X23509240Y-68938697D01*
X23508760Y-69488889D01*
X23718866Y-69997383D01*
X23868418Y-70147197D01*
X23333454Y-70146730D01*
X22760617Y-70383422D01*
X22427000Y-70716457D01*
X22427000Y-67512000D01*
X60024172Y-67512000D01*
X59450086Y-68086086D01*
X59450086Y-68086086D01*
G37*
X59450086Y-68086086D02*
X59424019Y-68125098D01*
X59275039Y-67975858D01*
X58721174Y-67745873D01*
X58121457Y-67745349D01*
X57567191Y-67974367D01*
X57142758Y-68398061D01*
X57077757Y-68554600D01*
X51523900Y-68554600D01*
X51256595Y-68607770D01*
X51029986Y-68759186D01*
X50306086Y-69483086D01*
X50154670Y-69709695D01*
X50115542Y-69906407D01*
X50101500Y-69977000D01*
X50101500Y-70945970D01*
X49799296Y-71247647D01*
X49619106Y-71681594D01*
X49618696Y-72151465D01*
X49798128Y-72585725D01*
X50130087Y-72918264D01*
X50564034Y-73098454D01*
X51033905Y-73098864D01*
X51468165Y-72919432D01*
X51527575Y-72860125D01*
X52493976Y-72860125D01*
X52673408Y-73294385D01*
X53005367Y-73626924D01*
X53439314Y-73807114D01*
X53909185Y-73807524D01*
X54343445Y-73628092D01*
X54675984Y-73296133D01*
X54856174Y-72862186D01*
X54856584Y-72392315D01*
X54677152Y-71958055D01*
X54345193Y-71625516D01*
X53911246Y-71445326D01*
X53441375Y-71444916D01*
X53007115Y-71624348D01*
X52674576Y-71956307D01*
X52494386Y-72390254D01*
X52493976Y-72860125D01*
X51527575Y-72860125D01*
X51800704Y-72587473D01*
X51980894Y-72153526D01*
X51981304Y-71683655D01*
X51801872Y-71249395D01*
X51498500Y-70945493D01*
X51498500Y-70266328D01*
X51813228Y-69951600D01*
X57077508Y-69951600D01*
X57141267Y-70105909D01*
X57564961Y-70530342D01*
X58118826Y-70760327D01*
X58718543Y-70760851D01*
X59245500Y-70543117D01*
X59245500Y-71501000D01*
X59298670Y-71768305D01*
X59450086Y-71994914D01*
X60586359Y-73131187D01*
X60317758Y-73399321D01*
X60252757Y-73555860D01*
X59762492Y-73555860D01*
X59698733Y-73401551D01*
X59275039Y-72977118D01*
X58721174Y-72747133D01*
X58121457Y-72746609D01*
X57567191Y-72975627D01*
X57142758Y-73399321D01*
X56912773Y-73953186D01*
X56912762Y-73965499D01*
X56894572Y-73921475D01*
X56562613Y-73588936D01*
X56128666Y-73408746D01*
X55658795Y-73408336D01*
X55224535Y-73587768D01*
X54891996Y-73919727D01*
X54711806Y-74353674D01*
X54711396Y-74823545D01*
X54890828Y-75257805D01*
X55222787Y-75590344D01*
X55656734Y-75770534D01*
X56079705Y-75770903D01*
X56553209Y-76244407D01*
X56276095Y-76358908D01*
X55943556Y-76690867D01*
X55763366Y-77124814D01*
X55762956Y-77594685D01*
X55942388Y-78028945D01*
X56274347Y-78361484D01*
X56708294Y-78541674D01*
X57178165Y-78542084D01*
X57215103Y-78526821D01*
X58295000Y-79606718D01*
X58295000Y-81113242D01*
X57752423Y-80570665D01*
X57767014Y-80535526D01*
X57767424Y-80065655D01*
X57587992Y-79631395D01*
X57256033Y-79298856D01*
X56822086Y-79118666D01*
X56352215Y-79118256D01*
X55917955Y-79297688D01*
X55585416Y-79629647D01*
X55405226Y-80063594D01*
X55404816Y-80533465D01*
X55584248Y-80967725D01*
X55916207Y-81300264D01*
X56350154Y-81480454D01*
X56820025Y-81480864D01*
X56856963Y-81465601D01*
X57787000Y-82395638D01*
X57787000Y-82799802D01*
X57277559Y-82290361D01*
X57072199Y-82153144D01*
X56829960Y-82104959D01*
X56829955Y-82104960D01*
X55921042Y-82104960D01*
X55906512Y-82069795D01*
X55574553Y-81737256D01*
X55140606Y-81557066D01*
X54670735Y-81556656D01*
X54236475Y-81736088D01*
X53903936Y-82068047D01*
X53723746Y-82501994D01*
X53723336Y-82971865D01*
X53902768Y-83406125D01*
X53978151Y-83481640D01*
X53297222Y-83481640D01*
X53282692Y-83446475D01*
X52950733Y-83113936D01*
X52516786Y-82933746D01*
X52046915Y-82933336D01*
X51612655Y-83112768D01*
X51280116Y-83444727D01*
X51099926Y-83878674D01*
X51099516Y-84348545D01*
X51249279Y-84711000D01*
X50810737Y-84711000D01*
X50485483Y-84385745D01*
X50500074Y-84350606D01*
X50500484Y-83880735D01*
X50321052Y-83446475D01*
X49989093Y-83113936D01*
X49555146Y-82933746D01*
X49085275Y-82933336D01*
X48651015Y-83112768D01*
X48318476Y-83444727D01*
X48138286Y-83878674D01*
X48137876Y-84348545D01*
X48317308Y-84782805D01*
X48649267Y-85115344D01*
X48898899Y-85219000D01*
X48522198Y-85219000D01*
X47328360Y-84025162D01*
X47328360Y-83754362D01*
X47363525Y-83739832D01*
X47696064Y-83407873D01*
X47876254Y-82973926D01*
X47876664Y-82504055D01*
X47697232Y-82069795D01*
X47365273Y-81737256D01*
X46931326Y-81557066D01*
X46461455Y-81556656D01*
X46027195Y-81736088D01*
X45694656Y-82068047D01*
X45646880Y-82183105D01*
X45646880Y-81315962D01*
X45682045Y-81301432D01*
X46014584Y-80969473D01*
X46194774Y-80535526D01*
X46195184Y-80065655D01*
X46015752Y-79631395D01*
X45683793Y-79298856D01*
X45249846Y-79118666D01*
X44779975Y-79118256D01*
X44345715Y-79297688D01*
X44321000Y-79322360D01*
X44321000Y-78590718D01*
X44384635Y-78527083D01*
X44419774Y-78541674D01*
X44889645Y-78542084D01*
X45323905Y-78362652D01*
X45656444Y-78030693D01*
X45836634Y-77596746D01*
X45837044Y-77126875D01*
X45657612Y-76692615D01*
X45325653Y-76360076D01*
X45046879Y-76244319D01*
X45520621Y-75770577D01*
X45941205Y-75770944D01*
X46375465Y-75591512D01*
X46708004Y-75259553D01*
X46888194Y-74825606D01*
X46888604Y-74355735D01*
X46709172Y-73921475D01*
X46377213Y-73588936D01*
X45943266Y-73408746D01*
X45473395Y-73408336D01*
X45039135Y-73587768D01*
X44706596Y-73919727D01*
X44526406Y-74353674D01*
X44525996Y-74823545D01*
X44570222Y-74930580D01*
X42732401Y-76768401D01*
X42595184Y-76973761D01*
X42546999Y-77216000D01*
X42547000Y-77216005D01*
X42547000Y-83057995D01*
X42546999Y-83058000D01*
X42595184Y-83300239D01*
X42732401Y-83505599D01*
X47050399Y-87823596D01*
X47050401Y-87823599D01*
X47255761Y-87960816D01*
X47498000Y-88009000D01*
X53839802Y-88009000D01*
X56054350Y-90223548D01*
X55943500Y-90223548D01*
X55755247Y-90258970D01*
X55624893Y-90342850D01*
X55510012Y-90264355D01*
X55308500Y-90223548D01*
X54673500Y-90223548D01*
X54485247Y-90258970D01*
X54441892Y-90286868D01*
X54528860Y-90077426D01*
X54529140Y-89755984D01*
X54406389Y-89458903D01*
X54179293Y-89231410D01*
X53882426Y-89108140D01*
X53560984Y-89107860D01*
X53263903Y-89230611D01*
X53036410Y-89457707D01*
X52913140Y-89754574D01*
X52912860Y-90076016D01*
X52998810Y-90284032D01*
X52970012Y-90264355D01*
X52768500Y-90223548D01*
X52133500Y-90223548D01*
X51945247Y-90258970D01*
X51926232Y-90271206D01*
X51858198Y-90203173D01*
X51624809Y-90106500D01*
X51466750Y-90106500D01*
X51308000Y-90265250D01*
X51308000Y-91567000D01*
X51328000Y-91567000D01*
X51328000Y-91821000D01*
X51308000Y-91821000D01*
X51308000Y-93122750D01*
X51466750Y-93281500D01*
X51624809Y-93281500D01*
X51858198Y-93184827D01*
X51924498Y-93118527D01*
X51931988Y-93123645D01*
X52133500Y-93164452D01*
X52768500Y-93164452D01*
X52956753Y-93129030D01*
X53087107Y-93045150D01*
X53201988Y-93123645D01*
X53403500Y-93164452D01*
X54038500Y-93164452D01*
X54226753Y-93129030D01*
X54292500Y-93086723D01*
X54292500Y-96484672D01*
X52415672Y-98361500D01*
X45989826Y-98361500D01*
X45963530Y-98221747D01*
X45852272Y-98048847D01*
X45682512Y-97932855D01*
X45481000Y-97892048D01*
X44181000Y-97892048D01*
X43992747Y-97927470D01*
X43819847Y-98038728D01*
X43703855Y-98208488D01*
X43663048Y-98410000D01*
X43663048Y-99710000D01*
X43666172Y-99726603D01*
X43572761Y-99745184D01*
X43367401Y-99882401D01*
X43367399Y-99882404D01*
X43171802Y-100078000D01*
X36712952Y-100078000D01*
X36712952Y-99441000D01*
X36677530Y-99252747D01*
X36566272Y-99079847D01*
X36396512Y-98963855D01*
X36195000Y-98923048D01*
X31115000Y-98923048D01*
X30926747Y-98958470D01*
X30753847Y-99069728D01*
X30637855Y-99239488D01*
X30597048Y-99441000D01*
X30597048Y-101981000D01*
X30632470Y-102169253D01*
X30743728Y-102342153D01*
X30913488Y-102458145D01*
X31115000Y-102498952D01*
X36195000Y-102498952D01*
X36383253Y-102463530D01*
X36390267Y-102459016D01*
X44111590Y-102459016D01*
X44167271Y-102689611D01*
X44650078Y-102857622D01*
X45160428Y-102828083D01*
X45494729Y-102689611D01*
X45550410Y-102459016D01*
X44831000Y-101739605D01*
X44111590Y-102459016D01*
X36390267Y-102459016D01*
X36556153Y-102352272D01*
X36672145Y-102182512D01*
X36712952Y-101981000D01*
X36712952Y-101344000D01*
X43433995Y-101344000D01*
X43434000Y-101344001D01*
X43553883Y-101320155D01*
X43533378Y-101379078D01*
X43562917Y-101889428D01*
X43701389Y-102223729D01*
X43931984Y-102279410D01*
X44651395Y-101560000D01*
X44637252Y-101545858D01*
X44816858Y-101366252D01*
X44831000Y-101380395D01*
X44845142Y-101366252D01*
X45024748Y-101545858D01*
X45010605Y-101560000D01*
X45730016Y-102279410D01*
X45960611Y-102223729D01*
X46128622Y-101740922D01*
X46099083Y-101230572D01*
X45988251Y-100963000D01*
X46418500Y-100963000D01*
X46418500Y-101568250D01*
X46577250Y-101727000D01*
X47244000Y-101727000D01*
X47244000Y-101707000D01*
X47498000Y-101707000D01*
X47498000Y-101727000D01*
X48514000Y-101727000D01*
X48514000Y-101707000D01*
X48768000Y-101707000D01*
X48768000Y-101727000D01*
X49784000Y-101727000D01*
X49784000Y-101707000D01*
X50038000Y-101707000D01*
X50038000Y-101727000D01*
X51054000Y-101727000D01*
X51054000Y-101707000D01*
X51308000Y-101707000D01*
X51308000Y-101727000D01*
X52324000Y-101727000D01*
X52324000Y-101707000D01*
X52578000Y-101707000D01*
X52578000Y-101727000D01*
X52598000Y-101727000D01*
X52598000Y-101981000D01*
X52578000Y-101981000D01*
X52578000Y-102001000D01*
X52324000Y-102001000D01*
X52324000Y-101981000D01*
X51308000Y-101981000D01*
X51308000Y-102001000D01*
X51054000Y-102001000D01*
X51054000Y-101981000D01*
X50038000Y-101981000D01*
X50038000Y-102001000D01*
X49784000Y-102001000D01*
X49784000Y-101981000D01*
X48768000Y-101981000D01*
X48768000Y-102001000D01*
X48514000Y-102001000D01*
X48514000Y-101981000D01*
X47498000Y-101981000D01*
X47498000Y-102001000D01*
X47244000Y-102001000D01*
X47244000Y-101981000D01*
X46577250Y-101981000D01*
X46418500Y-102139750D01*
X46418500Y-102932810D01*
X46515173Y-103166199D01*
X46693802Y-103344827D01*
X46899428Y-103430000D01*
X22427000Y-103430000D01*
X22427000Y-101087021D01*
X22859560Y-101087021D01*
X23245437Y-102020915D01*
X23959327Y-102736052D01*
X24892546Y-103123559D01*
X25903021Y-103124440D01*
X26836915Y-102738563D01*
X27552052Y-102024673D01*
X27939559Y-101091454D01*
X27940440Y-100080979D01*
X27554563Y-99147085D01*
X26840673Y-98431948D01*
X25907454Y-98044441D01*
X24896979Y-98043560D01*
X23963085Y-98429437D01*
X23247948Y-99143327D01*
X22860441Y-100076546D01*
X22859560Y-101087021D01*
X22427000Y-101087021D01*
X22427000Y-96125095D01*
X26990510Y-96125095D01*
X28049894Y-97211831D01*
X31511555Y-98753113D01*
X35299536Y-98852353D01*
X38837152Y-97494441D01*
X39260106Y-97211831D01*
X40319490Y-96125095D01*
X33655000Y-89460605D01*
X26990510Y-96125095D01*
X22427000Y-96125095D01*
X22427000Y-90925536D01*
X24083647Y-90925536D01*
X25441559Y-94463152D01*
X25724169Y-94886106D01*
X26810905Y-95945490D01*
X33475395Y-89281000D01*
X33834605Y-89281000D01*
X40499095Y-95945490D01*
X41585831Y-94886106D01*
X42879867Y-91979750D01*
X46418500Y-91979750D01*
X46418500Y-92772810D01*
X46515173Y-93006199D01*
X46693802Y-93184827D01*
X46927191Y-93281500D01*
X47085250Y-93281500D01*
X47244000Y-93122750D01*
X47244000Y-91821000D01*
X47498000Y-91821000D01*
X47498000Y-93122750D01*
X47656750Y-93281500D01*
X47814809Y-93281500D01*
X48006000Y-93202306D01*
X48197191Y-93281500D01*
X48355250Y-93281500D01*
X48514000Y-93122750D01*
X48514000Y-91821000D01*
X48768000Y-91821000D01*
X48768000Y-93122750D01*
X48926750Y-93281500D01*
X49084809Y-93281500D01*
X49276000Y-93202306D01*
X49467191Y-93281500D01*
X49625250Y-93281500D01*
X49784000Y-93122750D01*
X49784000Y-91821000D01*
X50038000Y-91821000D01*
X50038000Y-93122750D01*
X50196750Y-93281500D01*
X50354809Y-93281500D01*
X50546000Y-93202306D01*
X50737191Y-93281500D01*
X50895250Y-93281500D01*
X51054000Y-93122750D01*
X51054000Y-91821000D01*
X50038000Y-91821000D01*
X49784000Y-91821000D01*
X48768000Y-91821000D01*
X48514000Y-91821000D01*
X47498000Y-91821000D01*
X47244000Y-91821000D01*
X46577250Y-91821000D01*
X46418500Y-91979750D01*
X42879867Y-91979750D01*
X43127113Y-91424445D01*
X43148314Y-90615190D01*
X46418500Y-90615190D01*
X46418500Y-91408250D01*
X46577250Y-91567000D01*
X47244000Y-91567000D01*
X47244000Y-90265250D01*
X47498000Y-90265250D01*
X47498000Y-91567000D01*
X48514000Y-91567000D01*
X48514000Y-90265250D01*
X48768000Y-90265250D01*
X48768000Y-91567000D01*
X49784000Y-91567000D01*
X49784000Y-90265250D01*
X50038000Y-90265250D01*
X50038000Y-91567000D01*
X51054000Y-91567000D01*
X51054000Y-90265250D01*
X50895250Y-90106500D01*
X50737191Y-90106500D01*
X50546000Y-90185694D01*
X50354809Y-90106500D01*
X50196750Y-90106500D01*
X50038000Y-90265250D01*
X49784000Y-90265250D01*
X49625250Y-90106500D01*
X49467191Y-90106500D01*
X49276000Y-90185694D01*
X49084809Y-90106500D01*
X48926750Y-90106500D01*
X48768000Y-90265250D01*
X48514000Y-90265250D01*
X48355250Y-90106500D01*
X48197191Y-90106500D01*
X48006000Y-90185694D01*
X47814809Y-90106500D01*
X47656750Y-90106500D01*
X47498000Y-90265250D01*
X47244000Y-90265250D01*
X47085250Y-90106500D01*
X46927191Y-90106500D01*
X46693802Y-90203173D01*
X46515173Y-90381801D01*
X46418500Y-90615190D01*
X43148314Y-90615190D01*
X43226353Y-87636464D01*
X41868441Y-84098848D01*
X41585831Y-83675894D01*
X40499095Y-82616510D01*
X33834605Y-89281000D01*
X33475395Y-89281000D01*
X26810905Y-82616510D01*
X25724169Y-83675894D01*
X24182887Y-87137555D01*
X24083647Y-90925536D01*
X22427000Y-90925536D01*
X22427000Y-82436905D01*
X26990510Y-82436905D01*
X33655000Y-89101395D01*
X40319490Y-82436905D01*
X39260106Y-81350169D01*
X35798445Y-79808887D01*
X32010464Y-79709647D01*
X28472848Y-81067559D01*
X28049894Y-81350169D01*
X26990510Y-82436905D01*
X22427000Y-82436905D01*
X22427000Y-76581000D01*
X30597048Y-76581000D01*
X30597048Y-79121000D01*
X30632470Y-79309253D01*
X30743728Y-79482153D01*
X30913488Y-79598145D01*
X31115000Y-79638952D01*
X36195000Y-79638952D01*
X36383253Y-79603530D01*
X36556153Y-79492272D01*
X36672145Y-79322512D01*
X36712952Y-79121000D01*
X36712952Y-76581000D01*
X36677530Y-76392747D01*
X36566272Y-76219847D01*
X36396512Y-76103855D01*
X36195000Y-76063048D01*
X31115000Y-76063048D01*
X30926747Y-76098470D01*
X30753847Y-76209728D01*
X30637855Y-76379488D01*
X30597048Y-76581000D01*
X22427000Y-76581000D01*
X22427000Y-72693147D01*
X22758312Y-73025038D01*
X23330735Y-73262729D01*
X23950546Y-73263270D01*
X24523383Y-73026578D01*
X24962038Y-72588688D01*
X25199729Y-72016265D01*
X25200270Y-71396454D01*
X24963578Y-70823617D01*
X24738222Y-70597867D01*
X25165889Y-70598240D01*
X25674383Y-70388134D01*
X25785651Y-70277060D01*
X28509545Y-70277060D01*
X28592884Y-70530953D01*
X29157306Y-70736590D01*
X29428611Y-70724831D01*
X29331962Y-70821312D01*
X29094271Y-71393735D01*
X29093730Y-72013546D01*
X29330422Y-72586383D01*
X29768312Y-73025038D01*
X30340735Y-73262729D01*
X30960546Y-73263270D01*
X31533383Y-73026578D01*
X31972038Y-72588688D01*
X32209729Y-72016265D01*
X32209731Y-72013546D01*
X32370730Y-72013546D01*
X32607422Y-72586383D01*
X33045312Y-73025038D01*
X33617735Y-73262729D01*
X34237546Y-73263270D01*
X34810383Y-73026578D01*
X35249038Y-72588688D01*
X35486729Y-72016265D01*
X35487270Y-71396454D01*
X35250578Y-70823617D01*
X35025222Y-70597867D01*
X35452889Y-70598240D01*
X35961383Y-70388134D01*
X36072651Y-70277060D01*
X38796545Y-70277060D01*
X38879884Y-70530953D01*
X39444306Y-70736590D01*
X39715611Y-70724831D01*
X39618962Y-70821312D01*
X39381271Y-71393735D01*
X39380730Y-72013546D01*
X39617422Y-72586383D01*
X40055312Y-73025038D01*
X40627735Y-73262729D01*
X41247546Y-73263270D01*
X41820383Y-73026578D01*
X41987126Y-72860125D01*
X46743416Y-72860125D01*
X46922848Y-73294385D01*
X47254807Y-73626924D01*
X47688754Y-73807114D01*
X48158625Y-73807524D01*
X48592885Y-73628092D01*
X48925424Y-73296133D01*
X49105614Y-72862186D01*
X49106024Y-72392315D01*
X48926592Y-71958055D01*
X48594633Y-71625516D01*
X48160686Y-71445326D01*
X47690815Y-71444916D01*
X47256555Y-71624348D01*
X46924016Y-71956307D01*
X46743826Y-72390254D01*
X46743416Y-72860125D01*
X41987126Y-72860125D01*
X42259038Y-72588688D01*
X42496729Y-72016265D01*
X42497270Y-71396454D01*
X42260578Y-70823617D01*
X41822688Y-70384962D01*
X41250265Y-70147271D01*
X40790478Y-70146870D01*
X40741062Y-70097454D01*
X40994953Y-70014116D01*
X41200590Y-69449694D01*
X41174579Y-68849542D01*
X40994953Y-68415884D01*
X40741060Y-68332545D01*
X39858605Y-69215000D01*
X39872748Y-69229143D01*
X39693143Y-69408748D01*
X39679000Y-69394605D01*
X38796545Y-70277060D01*
X36072651Y-70277060D01*
X36350767Y-69999430D01*
X36561760Y-69491303D01*
X36562205Y-68980306D01*
X38157410Y-68980306D01*
X38183421Y-69580458D01*
X38363047Y-70014116D01*
X38616940Y-70097455D01*
X39499395Y-69215000D01*
X38616940Y-68332545D01*
X38363047Y-68415884D01*
X38157410Y-68980306D01*
X36562205Y-68980306D01*
X36562240Y-68941111D01*
X36352134Y-68432617D01*
X36072946Y-68152940D01*
X38796545Y-68152940D01*
X39679000Y-69035395D01*
X40561455Y-68152940D01*
X40478116Y-67899047D01*
X39913694Y-67693410D01*
X39313542Y-67719421D01*
X38879884Y-67899047D01*
X38796545Y-68152940D01*
X36072946Y-68152940D01*
X35963430Y-68043233D01*
X35455303Y-67832240D01*
X34905111Y-67831760D01*
X34396617Y-68041866D01*
X34007233Y-68430570D01*
X33796240Y-68938697D01*
X33795760Y-69488889D01*
X34005866Y-69997383D01*
X34155418Y-70147197D01*
X33620454Y-70146730D01*
X33047617Y-70383422D01*
X32608962Y-70821312D01*
X32371271Y-71393735D01*
X32370730Y-72013546D01*
X32209731Y-72013546D01*
X32210270Y-71396454D01*
X31973578Y-70823617D01*
X31535688Y-70384962D01*
X30963265Y-70147271D01*
X30503478Y-70146870D01*
X30454062Y-70097454D01*
X30707953Y-70014116D01*
X30913590Y-69449694D01*
X30887579Y-68849542D01*
X30707953Y-68415884D01*
X30454060Y-68332545D01*
X29571605Y-69215000D01*
X29585748Y-69229143D01*
X29406143Y-69408748D01*
X29392000Y-69394605D01*
X28509545Y-70277060D01*
X25785651Y-70277060D01*
X26063767Y-69999430D01*
X26274760Y-69491303D01*
X26275205Y-68980306D01*
X27870410Y-68980306D01*
X27896421Y-69580458D01*
X28076047Y-70014116D01*
X28329940Y-70097455D01*
X29212395Y-69215000D01*
X28329940Y-68332545D01*
X28076047Y-68415884D01*
X27870410Y-68980306D01*
X26275205Y-68980306D01*
X26275240Y-68941111D01*
X26065134Y-68432617D01*
X25785946Y-68152940D01*
X28509545Y-68152940D01*
X29392000Y-69035395D01*
X30274455Y-68152940D01*
X30191116Y-67899047D01*
X29626694Y-67693410D01*
X29026542Y-67719421D01*
X28592884Y-67899047D01*
X28509545Y-68152940D01*
X25785946Y-68152940D01*
X25676430Y-68043233D01*
X25168303Y-67832240D01*
X24618111Y-67831760D01*
X24109617Y-68041866D01*
X23720233Y-68430570D01*
X23509240Y-68938697D01*
X23508760Y-69488889D01*
X23718866Y-69997383D01*
X23868418Y-70147197D01*
X23333454Y-70146730D01*
X22760617Y-70383422D01*
X22427000Y-70716457D01*
X22427000Y-67512000D01*
X60024172Y-67512000D01*
X59450086Y-68086086D01*
G36*
X169343000Y-103430000D02*
X65753522Y-103430000D01*
X66257809Y-103221633D01*
X66682242Y-102797939D01*
X66774441Y-102575900D01*
X67898702Y-102575900D01*
X68259401Y-102936599D01*
X68464761Y-103073816D01*
X68707000Y-103122001D01*
X68707005Y-103122000D01*
X104012995Y-103122000D01*
X104013000Y-103122001D01*
X104255239Y-103073816D01*
X104460599Y-102936599D01*
X106092596Y-101304601D01*
X106092599Y-101304599D01*
X106211650Y-101126426D01*
X106229817Y-101099238D01*
X106278001Y-100857000D01*
X106278000Y-100856995D01*
X106278000Y-100248872D01*
X106586016Y-100249140D01*
X106612000Y-100238404D01*
X106612000Y-100398307D01*
X106503410Y-100506707D01*
X106380140Y-100803574D01*
X106379860Y-101125016D01*
X106502611Y-101422097D01*
X106729707Y-101649590D01*
X107026574Y-101772860D01*
X107348016Y-101773140D01*
X107645097Y-101650389D01*
X107872590Y-101423293D01*
X107995860Y-101126426D01*
X107996140Y-100804984D01*
X107878000Y-100519063D01*
X107878000Y-99347952D01*
X108031080Y-99347952D01*
X108030860Y-99601016D01*
X108153611Y-99898097D01*
X108380707Y-100125590D01*
X108677574Y-100248860D01*
X108999016Y-100249140D01*
X109296097Y-100126389D01*
X109523590Y-99899293D01*
X109603000Y-99708053D01*
X109603000Y-101471207D01*
X109551410Y-101522707D01*
X109428140Y-101819574D01*
X109427860Y-102141016D01*
X109550611Y-102438097D01*
X109777707Y-102665590D01*
X110074574Y-102788860D01*
X110396016Y-102789140D01*
X110693097Y-102666389D01*
X110920590Y-102439293D01*
X111043860Y-102142426D01*
X111044140Y-101820984D01*
X110921389Y-101523903D01*
X110869000Y-101471422D01*
X110869000Y-99953197D01*
X111058399Y-100142596D01*
X111058401Y-100142599D01*
X111263761Y-100279816D01*
X111506000Y-100328000D01*
X111626055Y-100328000D01*
X111433873Y-100790826D01*
X111433349Y-101390543D01*
X111662367Y-101944809D01*
X112086061Y-102369242D01*
X112639926Y-102599227D01*
X113239643Y-102599751D01*
X113793909Y-102370733D01*
X114218342Y-101947039D01*
X114448327Y-101393174D01*
X114448851Y-100793457D01*
X114256528Y-100328000D01*
X116627315Y-100328000D01*
X116435133Y-100790826D01*
X116434609Y-101390543D01*
X116663627Y-101944809D01*
X117087321Y-102369242D01*
X117641186Y-102599227D01*
X118240903Y-102599751D01*
X118795169Y-102370733D01*
X119219602Y-101947039D01*
X119311801Y-101725000D01*
X121157995Y-101725000D01*
X121158000Y-101725001D01*
X121400239Y-101676816D01*
X121605599Y-101539599D01*
X123002596Y-100142601D01*
X123002599Y-100142599D01*
X123472048Y-99673150D01*
X123472048Y-100630000D01*
X123507470Y-100818253D01*
X123618728Y-100991153D01*
X123788488Y-101107145D01*
X123990000Y-101147952D01*
X124409926Y-101147952D01*
X124430301Y-101168327D01*
X124663690Y-101265000D01*
X124784250Y-101265000D01*
X124943000Y-101106250D01*
X124943000Y-100954662D01*
X125001622Y-100868865D01*
X125051673Y-100989698D01*
X125230301Y-101168327D01*
X125279425Y-101188675D01*
X125355750Y-101265000D01*
X125584250Y-101265000D01*
X125660575Y-101188675D01*
X125709699Y-101168327D01*
X125870000Y-101008025D01*
X126030301Y-101168327D01*
X126079425Y-101188675D01*
X126155750Y-101265000D01*
X126384250Y-101265000D01*
X126460575Y-101188675D01*
X126509699Y-101168327D01*
X126688327Y-100989698D01*
X126739028Y-100867295D01*
X126763414Y-100905193D01*
X126700140Y-101057574D01*
X126699860Y-101379016D01*
X126822611Y-101676097D01*
X127049707Y-101903590D01*
X127346574Y-102026860D01*
X127668016Y-102027140D01*
X127965097Y-101904389D01*
X128192590Y-101677293D01*
X128315860Y-101380426D01*
X128316063Y-101147952D01*
X128409926Y-101147952D01*
X128430301Y-101168327D01*
X128663690Y-101265000D01*
X128784250Y-101265000D01*
X128943000Y-101106250D01*
X128943000Y-100954662D01*
X129027145Y-100831512D01*
X129067952Y-100630000D01*
X129067952Y-99683000D01*
X129072048Y-99683000D01*
X129072048Y-100630000D01*
X129107470Y-100818253D01*
X129197000Y-100957387D01*
X129197000Y-101106250D01*
X129355750Y-101265000D01*
X129476310Y-101265000D01*
X129709699Y-101168327D01*
X129730074Y-101147952D01*
X129875061Y-101147952D01*
X129874860Y-101379016D01*
X129997611Y-101676097D01*
X130224707Y-101903590D01*
X130521574Y-102026860D01*
X130636959Y-102026961D01*
X130636860Y-102141016D01*
X130759611Y-102438097D01*
X130986707Y-102665590D01*
X131283574Y-102788860D01*
X131605016Y-102789140D01*
X131902097Y-102666389D01*
X132129590Y-102439293D01*
X132252860Y-102142426D01*
X132252961Y-102026930D01*
X132494016Y-102027140D01*
X132791097Y-101904389D01*
X133018590Y-101677293D01*
X133141860Y-101380426D01*
X133142140Y-101058984D01*
X133034054Y-100797395D01*
X133067952Y-100630000D01*
X133067952Y-99673150D01*
X134807401Y-101412599D01*
X135012761Y-101549816D01*
X135255000Y-101598001D01*
X135255005Y-101598000D01*
X135738048Y-101598000D01*
X135738048Y-101615000D01*
X135773470Y-101803253D01*
X135884728Y-101976153D01*
X136054488Y-102092145D01*
X136256000Y-102132952D01*
X137556000Y-102132952D01*
X137744253Y-102097530D01*
X137917153Y-101986272D01*
X138033145Y-101816512D01*
X138073952Y-101615000D01*
X138073952Y-101089510D01*
X139572780Y-101089510D01*
X139765718Y-101556458D01*
X140122663Y-101914026D01*
X140589273Y-102107779D01*
X141094510Y-102108220D01*
X141561458Y-101915282D01*
X141919026Y-101558337D01*
X142112779Y-101091727D01*
X142113220Y-100586490D01*
X141920282Y-100119542D01*
X141563337Y-99761974D01*
X141277484Y-99643278D01*
X141348022Y-99614060D01*
X144604545Y-99614060D01*
X144687884Y-99867953D01*
X145252306Y-100073590D01*
X145852458Y-100047579D01*
X146286116Y-99867953D01*
X146369455Y-99614060D01*
X145487000Y-98731605D01*
X144604545Y-99614060D01*
X141348022Y-99614060D01*
X141574143Y-99520397D01*
X141643608Y-99278213D01*
X140843000Y-98477605D01*
X140042392Y-99278213D01*
X140111857Y-99520397D01*
X140430788Y-99634180D01*
X140124542Y-99760718D01*
X139766974Y-100117663D01*
X139573221Y-100584273D01*
X139572780Y-101089510D01*
X138073952Y-101089510D01*
X138073952Y-100315000D01*
X138038530Y-100126747D01*
X137927272Y-99953847D01*
X137757512Y-99837855D01*
X137556000Y-99797048D01*
X136256000Y-99797048D01*
X136067747Y-99832470D01*
X135894847Y-99943728D01*
X135778855Y-100113488D01*
X135738048Y-100315000D01*
X135738048Y-100332000D01*
X135517198Y-100332000D01*
X134549214Y-99364016D01*
X136186590Y-99364016D01*
X136242271Y-99594611D01*
X136725078Y-99762622D01*
X137235428Y-99733083D01*
X137569729Y-99594611D01*
X137625410Y-99364016D01*
X136906000Y-98644605D01*
X136186590Y-99364016D01*
X134549214Y-99364016D01*
X133957224Y-98772026D01*
X133993000Y-98736250D01*
X133993000Y-98107000D01*
X134247000Y-98107000D01*
X134247000Y-98736250D01*
X134405750Y-98895000D01*
X135046309Y-98895000D01*
X135279698Y-98798327D01*
X135458327Y-98619699D01*
X135555000Y-98386310D01*
X135555000Y-98284078D01*
X135608378Y-98284078D01*
X135637917Y-98794428D01*
X135776389Y-99128729D01*
X136006984Y-99184410D01*
X136726395Y-98465000D01*
X137085605Y-98465000D01*
X137805016Y-99184410D01*
X138035611Y-99128729D01*
X138203622Y-98645922D01*
X138174083Y-98135572D01*
X138155332Y-98090302D01*
X139433856Y-98090302D01*
X139461638Y-98645368D01*
X139620603Y-99029143D01*
X139862787Y-99098608D01*
X140663395Y-98298000D01*
X141022605Y-98298000D01*
X141823213Y-99098608D01*
X142065397Y-99029143D01*
X142252144Y-98505698D01*
X142224362Y-97950632D01*
X142065397Y-97566857D01*
X141823213Y-97497392D01*
X141022605Y-98298000D01*
X140663395Y-98298000D01*
X139862787Y-97497392D01*
X139620603Y-97566857D01*
X139433856Y-98090302D01*
X138155332Y-98090302D01*
X138035611Y-97801271D01*
X137805016Y-97745590D01*
X137085605Y-98465000D01*
X136726395Y-98465000D01*
X136006984Y-97745590D01*
X135776389Y-97801271D01*
X135608378Y-98284078D01*
X135555000Y-98284078D01*
X135555000Y-98265750D01*
X135396250Y-98107000D01*
X134247000Y-98107000D01*
X133993000Y-98107000D01*
X133973000Y-98107000D01*
X133973000Y-97977952D01*
X134920000Y-97977952D01*
X135108253Y-97942530D01*
X135247387Y-97853000D01*
X135396250Y-97853000D01*
X135555000Y-97694250D01*
X135555000Y-97573690D01*
X135551809Y-97565984D01*
X136186590Y-97565984D01*
X136906000Y-98285395D01*
X137625410Y-97565984D01*
X137569729Y-97335389D01*
X137086922Y-97167378D01*
X136576572Y-97196917D01*
X136242271Y-97335389D01*
X136186590Y-97565984D01*
X135551809Y-97565984D01*
X135458327Y-97340301D01*
X135437952Y-97319926D01*
X135437952Y-96900000D01*
X135414544Y-96775594D01*
X135437952Y-96660000D01*
X135437952Y-96100000D01*
X135432735Y-96072276D01*
X135499599Y-96027599D01*
X138438197Y-93089000D01*
X141895554Y-93089000D01*
X140430082Y-94554472D01*
X140124542Y-94680718D01*
X139766974Y-95037663D01*
X139573221Y-95504273D01*
X139572780Y-96009510D01*
X139765718Y-96476458D01*
X140122663Y-96834026D01*
X140408516Y-96952722D01*
X140111857Y-97075603D01*
X140042392Y-97317787D01*
X140843000Y-98118395D01*
X141643608Y-97317787D01*
X141574143Y-97075603D01*
X141255212Y-96961820D01*
X141561458Y-96835282D01*
X141919026Y-96478337D01*
X142046783Y-96170663D01*
X142813108Y-95404338D01*
X142669271Y-95750735D01*
X142668730Y-96370546D01*
X142905422Y-96943383D01*
X143343312Y-97382038D01*
X143915735Y-97619729D01*
X144375522Y-97620130D01*
X144424938Y-97669546D01*
X144171047Y-97752884D01*
X143965410Y-98317306D01*
X143991421Y-98917458D01*
X144171047Y-99351116D01*
X144424940Y-99434455D01*
X145307395Y-98552000D01*
X145666605Y-98552000D01*
X146549060Y-99434455D01*
X146802953Y-99351116D01*
X147008590Y-98786694D01*
X146982579Y-98186542D01*
X146802953Y-97752884D01*
X146549060Y-97669545D01*
X145666605Y-98552000D01*
X145307395Y-98552000D01*
X145293253Y-98537858D01*
X145472858Y-98358253D01*
X145487000Y-98372395D01*
X146369455Y-97489940D01*
X146286116Y-97236047D01*
X145721694Y-97030410D01*
X145450389Y-97042169D01*
X145547038Y-96945688D01*
X145784729Y-96373265D01*
X145785270Y-95753454D01*
X145548578Y-95180617D01*
X145110726Y-94742000D01*
X146685000Y-94742000D01*
X147122407Y-94654994D01*
X147493223Y-94407223D01*
X152111446Y-89789000D01*
X153438860Y-89789000D01*
X153438860Y-96537988D01*
X152831800Y-96537988D01*
X152717391Y-96559515D01*
X152794729Y-96373265D01*
X152795270Y-95753454D01*
X152558578Y-95180617D01*
X152120688Y-94741962D01*
X151548265Y-94504271D01*
X150928454Y-94503730D01*
X150355617Y-94740422D01*
X149916962Y-95178312D01*
X149679271Y-95750735D01*
X149678730Y-96370546D01*
X149915422Y-96943383D01*
X150140778Y-97169133D01*
X149713111Y-97168760D01*
X149204617Y-97378866D01*
X148815233Y-97767570D01*
X148604240Y-98275697D01*
X148603760Y-98825889D01*
X148813866Y-99334383D01*
X149202570Y-99723767D01*
X149710697Y-99934760D01*
X150260889Y-99935240D01*
X150769383Y-99725134D01*
X151158767Y-99336430D01*
X151369760Y-98828303D01*
X151370240Y-98278111D01*
X151160134Y-97769617D01*
X151010582Y-97619803D01*
X151545546Y-97620270D01*
X152118383Y-97383578D01*
X152313848Y-97188454D01*
X152313848Y-100556060D01*
X152349270Y-100744313D01*
X152460528Y-100917213D01*
X152630288Y-101033205D01*
X152831800Y-101074012D01*
X156331920Y-101074012D01*
X156520173Y-101038590D01*
X156693073Y-100927332D01*
X156809065Y-100757572D01*
X156849872Y-100556060D01*
X156849872Y-99091750D01*
X158196280Y-99091750D01*
X158196280Y-100682370D01*
X158292953Y-100915759D01*
X158471582Y-101094387D01*
X158704971Y-101191060D01*
X160295590Y-101191060D01*
X160454340Y-101032310D01*
X160454340Y-98933000D01*
X160708340Y-98933000D01*
X160708340Y-101032310D01*
X160867090Y-101191060D01*
X162457709Y-101191060D01*
X162691098Y-101094387D01*
X162869727Y-100915759D01*
X162966400Y-100682370D01*
X162966400Y-99091750D01*
X162807650Y-98933000D01*
X160708340Y-98933000D01*
X160454340Y-98933000D01*
X158355030Y-98933000D01*
X158196280Y-99091750D01*
X156849872Y-99091750D01*
X156849872Y-97055940D01*
X156814450Y-96867687D01*
X156703192Y-96694787D01*
X156533432Y-96578795D01*
X156331920Y-96537988D01*
X155724860Y-96537988D01*
X155724860Y-96492060D01*
X157295850Y-96492060D01*
X157454600Y-96333310D01*
X157454600Y-94234000D01*
X157708600Y-94234000D01*
X157708600Y-96333310D01*
X157867350Y-96492060D01*
X158533272Y-96492060D01*
X158471582Y-96517613D01*
X158292953Y-96696241D01*
X158196280Y-96929630D01*
X158196280Y-98520250D01*
X158355030Y-98679000D01*
X160454340Y-98679000D01*
X160454340Y-96579690D01*
X160708340Y-96579690D01*
X160708340Y-98679000D01*
X162807650Y-98679000D01*
X162966400Y-98520250D01*
X162966400Y-96929630D01*
X162869727Y-96696241D01*
X162691098Y-96517613D01*
X162457709Y-96420940D01*
X160867090Y-96420940D01*
X160708340Y-96579690D01*
X160454340Y-96579690D01*
X160295590Y-96420940D01*
X159629668Y-96420940D01*
X159691358Y-96395387D01*
X159869987Y-96216759D01*
X159966660Y-95983370D01*
X159966660Y-94392750D01*
X159807910Y-94234000D01*
X157708600Y-94234000D01*
X157454600Y-94234000D01*
X157434600Y-94234000D01*
X157434600Y-93980000D01*
X157454600Y-93980000D01*
X157454600Y-91880690D01*
X157708600Y-91880690D01*
X157708600Y-93980000D01*
X159807910Y-93980000D01*
X159966660Y-93821250D01*
X159966660Y-92230630D01*
X159869987Y-91997241D01*
X159691358Y-91818613D01*
X159685101Y-91816021D01*
X163956560Y-91816021D01*
X164342437Y-92749915D01*
X165056327Y-93465052D01*
X165989546Y-93852559D01*
X167000021Y-93853440D01*
X167933915Y-93467563D01*
X168649052Y-92753673D01*
X169036559Y-91820454D01*
X169037440Y-90809979D01*
X168651563Y-89876085D01*
X167937673Y-89160948D01*
X167004454Y-88773441D01*
X165993979Y-88772560D01*
X165060085Y-89158437D01*
X164344948Y-89872327D01*
X163957441Y-90805546D01*
X163956560Y-91816021D01*
X159685101Y-91816021D01*
X159457969Y-91721940D01*
X157867350Y-91721940D01*
X157708600Y-91880690D01*
X157454600Y-91880690D01*
X157295850Y-91721940D01*
X155724860Y-91721940D01*
X155724860Y-90112586D01*
X156048446Y-89789000D01*
X163830000Y-89789000D01*
X164267407Y-89701994D01*
X164638223Y-89454223D01*
X169210223Y-84882223D01*
X169343000Y-84683508D01*
X169343000Y-103430000D01*
X169343000Y-103430000D01*
G37*
X169343000Y-103430000D02*
X65753522Y-103430000D01*
X66257809Y-103221633D01*
X66682242Y-102797939D01*
X66774441Y-102575900D01*
X67898702Y-102575900D01*
X68259401Y-102936599D01*
X68464761Y-103073816D01*
X68707000Y-103122001D01*
X68707005Y-103122000D01*
X104012995Y-103122000D01*
X104013000Y-103122001D01*
X104255239Y-103073816D01*
X104460599Y-102936599D01*
X106092596Y-101304601D01*
X106092599Y-101304599D01*
X106211650Y-101126426D01*
X106229817Y-101099238D01*
X106278001Y-100857000D01*
X106278000Y-100856995D01*
X106278000Y-100248872D01*
X106586016Y-100249140D01*
X106612000Y-100238404D01*
X106612000Y-100398307D01*
X106503410Y-100506707D01*
X106380140Y-100803574D01*
X106379860Y-101125016D01*
X106502611Y-101422097D01*
X106729707Y-101649590D01*
X107026574Y-101772860D01*
X107348016Y-101773140D01*
X107645097Y-101650389D01*
X107872590Y-101423293D01*
X107995860Y-101126426D01*
X107996140Y-100804984D01*
X107878000Y-100519063D01*
X107878000Y-99347952D01*
X108031080Y-99347952D01*
X108030860Y-99601016D01*
X108153611Y-99898097D01*
X108380707Y-100125590D01*
X108677574Y-100248860D01*
X108999016Y-100249140D01*
X109296097Y-100126389D01*
X109523590Y-99899293D01*
X109603000Y-99708053D01*
X109603000Y-101471207D01*
X109551410Y-101522707D01*
X109428140Y-101819574D01*
X109427860Y-102141016D01*
X109550611Y-102438097D01*
X109777707Y-102665590D01*
X110074574Y-102788860D01*
X110396016Y-102789140D01*
X110693097Y-102666389D01*
X110920590Y-102439293D01*
X111043860Y-102142426D01*
X111044140Y-101820984D01*
X110921389Y-101523903D01*
X110869000Y-101471422D01*
X110869000Y-99953197D01*
X111058399Y-100142596D01*
X111058401Y-100142599D01*
X111263761Y-100279816D01*
X111506000Y-100328000D01*
X111626055Y-100328000D01*
X111433873Y-100790826D01*
X111433349Y-101390543D01*
X111662367Y-101944809D01*
X112086061Y-102369242D01*
X112639926Y-102599227D01*
X113239643Y-102599751D01*
X113793909Y-102370733D01*
X114218342Y-101947039D01*
X114448327Y-101393174D01*
X114448851Y-100793457D01*
X114256528Y-100328000D01*
X116627315Y-100328000D01*
X116435133Y-100790826D01*
X116434609Y-101390543D01*
X116663627Y-101944809D01*
X117087321Y-102369242D01*
X117641186Y-102599227D01*
X118240903Y-102599751D01*
X118795169Y-102370733D01*
X119219602Y-101947039D01*
X119311801Y-101725000D01*
X121157995Y-101725000D01*
X121158000Y-101725001D01*
X121400239Y-101676816D01*
X121605599Y-101539599D01*
X123002596Y-100142601D01*
X123002599Y-100142599D01*
X123472048Y-99673150D01*
X123472048Y-100630000D01*
X123507470Y-100818253D01*
X123618728Y-100991153D01*
X123788488Y-101107145D01*
X123990000Y-101147952D01*
X124409926Y-101147952D01*
X124430301Y-101168327D01*
X124663690Y-101265000D01*
X124784250Y-101265000D01*
X124943000Y-101106250D01*
X124943000Y-100954662D01*
X125001622Y-100868865D01*
X125051673Y-100989698D01*
X125230301Y-101168327D01*
X125279425Y-101188675D01*
X125355750Y-101265000D01*
X125584250Y-101265000D01*
X125660575Y-101188675D01*
X125709699Y-101168327D01*
X125870000Y-101008025D01*
X126030301Y-101168327D01*
X126079425Y-101188675D01*
X126155750Y-101265000D01*
X126384250Y-101265000D01*
X126460575Y-101188675D01*
X126509699Y-101168327D01*
X126688327Y-100989698D01*
X126739028Y-100867295D01*
X126763414Y-100905193D01*
X126700140Y-101057574D01*
X126699860Y-101379016D01*
X126822611Y-101676097D01*
X127049707Y-101903590D01*
X127346574Y-102026860D01*
X127668016Y-102027140D01*
X127965097Y-101904389D01*
X128192590Y-101677293D01*
X128315860Y-101380426D01*
X128316063Y-101147952D01*
X128409926Y-101147952D01*
X128430301Y-101168327D01*
X128663690Y-101265000D01*
X128784250Y-101265000D01*
X128943000Y-101106250D01*
X128943000Y-100954662D01*
X129027145Y-100831512D01*
X129067952Y-100630000D01*
X129067952Y-99683000D01*
X129072048Y-99683000D01*
X129072048Y-100630000D01*
X129107470Y-100818253D01*
X129197000Y-100957387D01*
X129197000Y-101106250D01*
X129355750Y-101265000D01*
X129476310Y-101265000D01*
X129709699Y-101168327D01*
X129730074Y-101147952D01*
X129875061Y-101147952D01*
X129874860Y-101379016D01*
X129997611Y-101676097D01*
X130224707Y-101903590D01*
X130521574Y-102026860D01*
X130636959Y-102026961D01*
X130636860Y-102141016D01*
X130759611Y-102438097D01*
X130986707Y-102665590D01*
X131283574Y-102788860D01*
X131605016Y-102789140D01*
X131902097Y-102666389D01*
X132129590Y-102439293D01*
X132252860Y-102142426D01*
X132252961Y-102026930D01*
X132494016Y-102027140D01*
X132791097Y-101904389D01*
X133018590Y-101677293D01*
X133141860Y-101380426D01*
X133142140Y-101058984D01*
X133034054Y-100797395D01*
X133067952Y-100630000D01*
X133067952Y-99673150D01*
X134807401Y-101412599D01*
X135012761Y-101549816D01*
X135255000Y-101598001D01*
X135255005Y-101598000D01*
X135738048Y-101598000D01*
X135738048Y-101615000D01*
X135773470Y-101803253D01*
X135884728Y-101976153D01*
X136054488Y-102092145D01*
X136256000Y-102132952D01*
X137556000Y-102132952D01*
X137744253Y-102097530D01*
X137917153Y-101986272D01*
X138033145Y-101816512D01*
X138073952Y-101615000D01*
X138073952Y-101089510D01*
X139572780Y-101089510D01*
X139765718Y-101556458D01*
X140122663Y-101914026D01*
X140589273Y-102107779D01*
X141094510Y-102108220D01*
X141561458Y-101915282D01*
X141919026Y-101558337D01*
X142112779Y-101091727D01*
X142113220Y-100586490D01*
X141920282Y-100119542D01*
X141563337Y-99761974D01*
X141277484Y-99643278D01*
X141348022Y-99614060D01*
X144604545Y-99614060D01*
X144687884Y-99867953D01*
X145252306Y-100073590D01*
X145852458Y-100047579D01*
X146286116Y-99867953D01*
X146369455Y-99614060D01*
X145487000Y-98731605D01*
X144604545Y-99614060D01*
X141348022Y-99614060D01*
X141574143Y-99520397D01*
X141643608Y-99278213D01*
X140843000Y-98477605D01*
X140042392Y-99278213D01*
X140111857Y-99520397D01*
X140430788Y-99634180D01*
X140124542Y-99760718D01*
X139766974Y-100117663D01*
X139573221Y-100584273D01*
X139572780Y-101089510D01*
X138073952Y-101089510D01*
X138073952Y-100315000D01*
X138038530Y-100126747D01*
X137927272Y-99953847D01*
X137757512Y-99837855D01*
X137556000Y-99797048D01*
X136256000Y-99797048D01*
X136067747Y-99832470D01*
X135894847Y-99943728D01*
X135778855Y-100113488D01*
X135738048Y-100315000D01*
X135738048Y-100332000D01*
X135517198Y-100332000D01*
X134549214Y-99364016D01*
X136186590Y-99364016D01*
X136242271Y-99594611D01*
X136725078Y-99762622D01*
X137235428Y-99733083D01*
X137569729Y-99594611D01*
X137625410Y-99364016D01*
X136906000Y-98644605D01*
X136186590Y-99364016D01*
X134549214Y-99364016D01*
X133957224Y-98772026D01*
X133993000Y-98736250D01*
X133993000Y-98107000D01*
X134247000Y-98107000D01*
X134247000Y-98736250D01*
X134405750Y-98895000D01*
X135046309Y-98895000D01*
X135279698Y-98798327D01*
X135458327Y-98619699D01*
X135555000Y-98386310D01*
X135555000Y-98284078D01*
X135608378Y-98284078D01*
X135637917Y-98794428D01*
X135776389Y-99128729D01*
X136006984Y-99184410D01*
X136726395Y-98465000D01*
X137085605Y-98465000D01*
X137805016Y-99184410D01*
X138035611Y-99128729D01*
X138203622Y-98645922D01*
X138174083Y-98135572D01*
X138155332Y-98090302D01*
X139433856Y-98090302D01*
X139461638Y-98645368D01*
X139620603Y-99029143D01*
X139862787Y-99098608D01*
X140663395Y-98298000D01*
X141022605Y-98298000D01*
X141823213Y-99098608D01*
X142065397Y-99029143D01*
X142252144Y-98505698D01*
X142224362Y-97950632D01*
X142065397Y-97566857D01*
X141823213Y-97497392D01*
X141022605Y-98298000D01*
X140663395Y-98298000D01*
X139862787Y-97497392D01*
X139620603Y-97566857D01*
X139433856Y-98090302D01*
X138155332Y-98090302D01*
X138035611Y-97801271D01*
X137805016Y-97745590D01*
X137085605Y-98465000D01*
X136726395Y-98465000D01*
X136006984Y-97745590D01*
X135776389Y-97801271D01*
X135608378Y-98284078D01*
X135555000Y-98284078D01*
X135555000Y-98265750D01*
X135396250Y-98107000D01*
X134247000Y-98107000D01*
X133993000Y-98107000D01*
X133973000Y-98107000D01*
X133973000Y-97977952D01*
X134920000Y-97977952D01*
X135108253Y-97942530D01*
X135247387Y-97853000D01*
X135396250Y-97853000D01*
X135555000Y-97694250D01*
X135555000Y-97573690D01*
X135551809Y-97565984D01*
X136186590Y-97565984D01*
X136906000Y-98285395D01*
X137625410Y-97565984D01*
X137569729Y-97335389D01*
X137086922Y-97167378D01*
X136576572Y-97196917D01*
X136242271Y-97335389D01*
X136186590Y-97565984D01*
X135551809Y-97565984D01*
X135458327Y-97340301D01*
X135437952Y-97319926D01*
X135437952Y-96900000D01*
X135414544Y-96775594D01*
X135437952Y-96660000D01*
X135437952Y-96100000D01*
X135432735Y-96072276D01*
X135499599Y-96027599D01*
X138438197Y-93089000D01*
X141895554Y-93089000D01*
X140430082Y-94554472D01*
X140124542Y-94680718D01*
X139766974Y-95037663D01*
X139573221Y-95504273D01*
X139572780Y-96009510D01*
X139765718Y-96476458D01*
X140122663Y-96834026D01*
X140408516Y-96952722D01*
X140111857Y-97075603D01*
X140042392Y-97317787D01*
X140843000Y-98118395D01*
X141643608Y-97317787D01*
X141574143Y-97075603D01*
X141255212Y-96961820D01*
X141561458Y-96835282D01*
X141919026Y-96478337D01*
X142046783Y-96170663D01*
X142813108Y-95404338D01*
X142669271Y-95750735D01*
X142668730Y-96370546D01*
X142905422Y-96943383D01*
X143343312Y-97382038D01*
X143915735Y-97619729D01*
X144375522Y-97620130D01*
X144424938Y-97669546D01*
X144171047Y-97752884D01*
X143965410Y-98317306D01*
X143991421Y-98917458D01*
X144171047Y-99351116D01*
X144424940Y-99434455D01*
X145307395Y-98552000D01*
X145666605Y-98552000D01*
X146549060Y-99434455D01*
X146802953Y-99351116D01*
X147008590Y-98786694D01*
X146982579Y-98186542D01*
X146802953Y-97752884D01*
X146549060Y-97669545D01*
X145666605Y-98552000D01*
X145307395Y-98552000D01*
X145293253Y-98537858D01*
X145472858Y-98358253D01*
X145487000Y-98372395D01*
X146369455Y-97489940D01*
X146286116Y-97236047D01*
X145721694Y-97030410D01*
X145450389Y-97042169D01*
X145547038Y-96945688D01*
X145784729Y-96373265D01*
X145785270Y-95753454D01*
X145548578Y-95180617D01*
X145110726Y-94742000D01*
X146685000Y-94742000D01*
X147122407Y-94654994D01*
X147493223Y-94407223D01*
X152111446Y-89789000D01*
X153438860Y-89789000D01*
X153438860Y-96537988D01*
X152831800Y-96537988D01*
X152717391Y-96559515D01*
X152794729Y-96373265D01*
X152795270Y-95753454D01*
X152558578Y-95180617D01*
X152120688Y-94741962D01*
X151548265Y-94504271D01*
X150928454Y-94503730D01*
X150355617Y-94740422D01*
X149916962Y-95178312D01*
X149679271Y-95750735D01*
X149678730Y-96370546D01*
X149915422Y-96943383D01*
X150140778Y-97169133D01*
X149713111Y-97168760D01*
X149204617Y-97378866D01*
X148815233Y-97767570D01*
X148604240Y-98275697D01*
X148603760Y-98825889D01*
X148813866Y-99334383D01*
X149202570Y-99723767D01*
X149710697Y-99934760D01*
X150260889Y-99935240D01*
X150769383Y-99725134D01*
X151158767Y-99336430D01*
X151369760Y-98828303D01*
X151370240Y-98278111D01*
X151160134Y-97769617D01*
X151010582Y-97619803D01*
X151545546Y-97620270D01*
X152118383Y-97383578D01*
X152313848Y-97188454D01*
X152313848Y-100556060D01*
X152349270Y-100744313D01*
X152460528Y-100917213D01*
X152630288Y-101033205D01*
X152831800Y-101074012D01*
X156331920Y-101074012D01*
X156520173Y-101038590D01*
X156693073Y-100927332D01*
X156809065Y-100757572D01*
X156849872Y-100556060D01*
X156849872Y-99091750D01*
X158196280Y-99091750D01*
X158196280Y-100682370D01*
X158292953Y-100915759D01*
X158471582Y-101094387D01*
X158704971Y-101191060D01*
X160295590Y-101191060D01*
X160454340Y-101032310D01*
X160454340Y-98933000D01*
X160708340Y-98933000D01*
X160708340Y-101032310D01*
X160867090Y-101191060D01*
X162457709Y-101191060D01*
X162691098Y-101094387D01*
X162869727Y-100915759D01*
X162966400Y-100682370D01*
X162966400Y-99091750D01*
X162807650Y-98933000D01*
X160708340Y-98933000D01*
X160454340Y-98933000D01*
X158355030Y-98933000D01*
X158196280Y-99091750D01*
X156849872Y-99091750D01*
X156849872Y-97055940D01*
X156814450Y-96867687D01*
X156703192Y-96694787D01*
X156533432Y-96578795D01*
X156331920Y-96537988D01*
X155724860Y-96537988D01*
X155724860Y-96492060D01*
X157295850Y-96492060D01*
X157454600Y-96333310D01*
X157454600Y-94234000D01*
X157708600Y-94234000D01*
X157708600Y-96333310D01*
X157867350Y-96492060D01*
X158533272Y-96492060D01*
X158471582Y-96517613D01*
X158292953Y-96696241D01*
X158196280Y-96929630D01*
X158196280Y-98520250D01*
X158355030Y-98679000D01*
X160454340Y-98679000D01*
X160454340Y-96579690D01*
X160708340Y-96579690D01*
X160708340Y-98679000D01*
X162807650Y-98679000D01*
X162966400Y-98520250D01*
X162966400Y-96929630D01*
X162869727Y-96696241D01*
X162691098Y-96517613D01*
X162457709Y-96420940D01*
X160867090Y-96420940D01*
X160708340Y-96579690D01*
X160454340Y-96579690D01*
X160295590Y-96420940D01*
X159629668Y-96420940D01*
X159691358Y-96395387D01*
X159869987Y-96216759D01*
X159966660Y-95983370D01*
X159966660Y-94392750D01*
X159807910Y-94234000D01*
X157708600Y-94234000D01*
X157454600Y-94234000D01*
X157434600Y-94234000D01*
X157434600Y-93980000D01*
X157454600Y-93980000D01*
X157454600Y-91880690D01*
X157708600Y-91880690D01*
X157708600Y-93980000D01*
X159807910Y-93980000D01*
X159966660Y-93821250D01*
X159966660Y-92230630D01*
X159869987Y-91997241D01*
X159691358Y-91818613D01*
X159685101Y-91816021D01*
X163956560Y-91816021D01*
X164342437Y-92749915D01*
X165056327Y-93465052D01*
X165989546Y-93852559D01*
X167000021Y-93853440D01*
X167933915Y-93467563D01*
X168649052Y-92753673D01*
X169036559Y-91820454D01*
X169037440Y-90809979D01*
X168651563Y-89876085D01*
X167937673Y-89160948D01*
X167004454Y-88773441D01*
X165993979Y-88772560D01*
X165060085Y-89158437D01*
X164344948Y-89872327D01*
X163957441Y-90805546D01*
X163956560Y-91816021D01*
X159685101Y-91816021D01*
X159457969Y-91721940D01*
X157867350Y-91721940D01*
X157708600Y-91880690D01*
X157454600Y-91880690D01*
X157295850Y-91721940D01*
X155724860Y-91721940D01*
X155724860Y-90112586D01*
X156048446Y-89789000D01*
X163830000Y-89789000D01*
X164267407Y-89701994D01*
X164638223Y-89454223D01*
X169210223Y-84882223D01*
X169343000Y-84683508D01*
X169343000Y-103430000D01*
G36*
X82590048Y-100630000D02*
X82625470Y-100818253D01*
X82715000Y-100957387D01*
X82715000Y-101106250D01*
X82873750Y-101265000D01*
X82994310Y-101265000D01*
X83227699Y-101168327D01*
X83248074Y-101147952D01*
X83668000Y-101147952D01*
X83792406Y-101124544D01*
X83908000Y-101147952D01*
X84170347Y-101147952D01*
X84155140Y-101184574D01*
X84154998Y-101348000D01*
X81833999Y-101348000D01*
X81834140Y-101185984D01*
X81818426Y-101147952D01*
X81927926Y-101147952D01*
X81948301Y-101168327D01*
X82181690Y-101265000D01*
X82302250Y-101265000D01*
X82461000Y-101106250D01*
X82461000Y-100954662D01*
X82545145Y-100831512D01*
X82585952Y-100630000D01*
X82585952Y-99683000D01*
X82590048Y-99683000D01*
X82590048Y-100630000D01*
X82590048Y-100630000D01*
G37*
X82590048Y-100630000D02*
X82625470Y-100818253D01*
X82715000Y-100957387D01*
X82715000Y-101106250D01*
X82873750Y-101265000D01*
X82994310Y-101265000D01*
X83227699Y-101168327D01*
X83248074Y-101147952D01*
X83668000Y-101147952D01*
X83792406Y-101124544D01*
X83908000Y-101147952D01*
X84170347Y-101147952D01*
X84155140Y-101184574D01*
X84154998Y-101348000D01*
X81833999Y-101348000D01*
X81834140Y-101185984D01*
X81818426Y-101147952D01*
X81927926Y-101147952D01*
X81948301Y-101168327D01*
X82181690Y-101265000D01*
X82302250Y-101265000D01*
X82461000Y-101106250D01*
X82461000Y-100954662D01*
X82545145Y-100831512D01*
X82585952Y-100630000D01*
X82585952Y-99683000D01*
X82590048Y-99683000D01*
X82590048Y-100630000D01*
G36*
X80313466Y-100955003D02*
X80218140Y-101184574D01*
X80217998Y-101348000D01*
X78658999Y-101348000D01*
X78659071Y-101265000D01*
X78715002Y-101265000D01*
X78715002Y-101135028D01*
X78748301Y-101168327D01*
X78797425Y-101188675D01*
X78873750Y-101265000D01*
X79102250Y-101265000D01*
X79178575Y-101188675D01*
X79227699Y-101168327D01*
X79388000Y-101008025D01*
X79548301Y-101168327D01*
X79597425Y-101188675D01*
X79673750Y-101265000D01*
X79902250Y-101265000D01*
X79978575Y-101188675D01*
X80027699Y-101168327D01*
X80206327Y-100989698D01*
X80257028Y-100867295D01*
X80313466Y-100955003D01*
X80313466Y-100955003D01*
G37*
X80313466Y-100955003D02*
X80218140Y-101184574D01*
X80217998Y-101348000D01*
X78658999Y-101348000D01*
X78659071Y-101265000D01*
X78715002Y-101265000D01*
X78715002Y-101135028D01*
X78748301Y-101168327D01*
X78797425Y-101188675D01*
X78873750Y-101265000D01*
X79102250Y-101265000D01*
X79178575Y-101188675D01*
X79227699Y-101168327D01*
X79388000Y-101008025D01*
X79548301Y-101168327D01*
X79597425Y-101188675D01*
X79673750Y-101265000D01*
X79902250Y-101265000D01*
X79978575Y-101188675D01*
X80027699Y-101168327D01*
X80206327Y-100989698D01*
X80257028Y-100867295D01*
X80313466Y-100955003D01*
G36*
X95056401Y-88833401D02*
X94919184Y-89038761D01*
X94870999Y-89281000D01*
X94871000Y-89281005D01*
X94871000Y-89607974D01*
X94581922Y-89507378D01*
X94071572Y-89536917D01*
X93737271Y-89675389D01*
X93681590Y-89905984D01*
X94401000Y-90625395D01*
X94415142Y-90611252D01*
X94594748Y-90790858D01*
X94580605Y-90805000D01*
X94594748Y-90819143D01*
X94415142Y-90998748D01*
X94401000Y-90984605D01*
X93681590Y-91704016D01*
X93737271Y-91934611D01*
X94220078Y-92102622D01*
X94496120Y-92086645D01*
X94411184Y-92213761D01*
X94362999Y-92456000D01*
X94363000Y-92456005D01*
X94363000Y-93776846D01*
X94250889Y-93701936D01*
X93726000Y-93597529D01*
X93201111Y-93701936D01*
X92756132Y-93999261D01*
X92458807Y-94444240D01*
X92354400Y-94969129D01*
X92354400Y-95022871D01*
X92458807Y-95547760D01*
X92756132Y-95992739D01*
X93071466Y-96203438D01*
X92951053Y-96253312D01*
X92519179Y-96647510D01*
X92271032Y-97176973D01*
X92391531Y-97409000D01*
X93599000Y-97409000D01*
X93599000Y-97389000D01*
X93853000Y-97389000D01*
X93853000Y-97409000D01*
X93873000Y-97409000D01*
X93873000Y-97663000D01*
X93853000Y-97663000D01*
X93853000Y-98869817D01*
X94085026Y-98990958D01*
X94500947Y-98818688D01*
X94508048Y-98812206D01*
X94548401Y-98872599D01*
X94929399Y-99253596D01*
X94929401Y-99253599D01*
X95075346Y-99351116D01*
X95134761Y-99390816D01*
X95377000Y-99439000D01*
X101218995Y-99439000D01*
X101219000Y-99439001D01*
X101461239Y-99390816D01*
X101666599Y-99253599D01*
X102427048Y-98493150D01*
X102427048Y-98830000D01*
X102462470Y-99018253D01*
X102573728Y-99191153D01*
X102743488Y-99307145D01*
X102945000Y-99347952D01*
X103545000Y-99347952D01*
X103648671Y-99328445D01*
X103745000Y-99347952D01*
X104212000Y-99347952D01*
X104212000Y-100563801D01*
X103427800Y-101348000D01*
X85770999Y-101348000D01*
X85771140Y-101185984D01*
X85755426Y-101147952D01*
X86068000Y-101147952D01*
X86256253Y-101112530D01*
X86429153Y-101001272D01*
X86545145Y-100831512D01*
X86585952Y-100630000D01*
X86585952Y-99030000D01*
X86550530Y-98841747D01*
X86538684Y-98823338D01*
X86711691Y-98895000D01*
X87352250Y-98895000D01*
X87511000Y-98736250D01*
X87511000Y-98107000D01*
X87765000Y-98107000D01*
X87765000Y-98736250D01*
X87923750Y-98895000D01*
X88564309Y-98895000D01*
X88797698Y-98798327D01*
X88976327Y-98619699D01*
X89073000Y-98386310D01*
X89073000Y-98265750D01*
X88914250Y-98107000D01*
X87765000Y-98107000D01*
X87511000Y-98107000D01*
X87491000Y-98107000D01*
X87491000Y-97977952D01*
X88438000Y-97977952D01*
X88626253Y-97942530D01*
X88700074Y-97895027D01*
X92271032Y-97895027D01*
X92519179Y-98424490D01*
X92951053Y-98818688D01*
X93366974Y-98990958D01*
X93599000Y-98869817D01*
X93599000Y-97663000D01*
X92391531Y-97663000D01*
X92271032Y-97895027D01*
X88700074Y-97895027D01*
X88765387Y-97853000D01*
X88914250Y-97853000D01*
X89073000Y-97694250D01*
X89073000Y-97573690D01*
X88976327Y-97340301D01*
X88955952Y-97319926D01*
X88955952Y-96900000D01*
X88932544Y-96775594D01*
X88955952Y-96660000D01*
X88955952Y-96100000D01*
X88950735Y-96072276D01*
X89017599Y-96027599D01*
X92903599Y-92141599D01*
X92925563Y-92108728D01*
X93040816Y-91936239D01*
X93062690Y-91826272D01*
X93089001Y-91694000D01*
X93089000Y-91693995D01*
X93089000Y-90624078D01*
X93103378Y-90624078D01*
X93132917Y-91134428D01*
X93271389Y-91468729D01*
X93501984Y-91524410D01*
X94221395Y-90805000D01*
X93501984Y-90085590D01*
X93271389Y-90141271D01*
X93103378Y-90624078D01*
X93089000Y-90624078D01*
X93089000Y-88263000D01*
X95626803Y-88263000D01*
X95056401Y-88833401D01*
X95056401Y-88833401D01*
G37*
X95056401Y-88833401D02*
X94919184Y-89038761D01*
X94870999Y-89281000D01*
X94871000Y-89281005D01*
X94871000Y-89607974D01*
X94581922Y-89507378D01*
X94071572Y-89536917D01*
X93737271Y-89675389D01*
X93681590Y-89905984D01*
X94401000Y-90625395D01*
X94415142Y-90611252D01*
X94594748Y-90790858D01*
X94580605Y-90805000D01*
X94594748Y-90819143D01*
X94415142Y-90998748D01*
X94401000Y-90984605D01*
X93681590Y-91704016D01*
X93737271Y-91934611D01*
X94220078Y-92102622D01*
X94496120Y-92086645D01*
X94411184Y-92213761D01*
X94362999Y-92456000D01*
X94363000Y-92456005D01*
X94363000Y-93776846D01*
X94250889Y-93701936D01*
X93726000Y-93597529D01*
X93201111Y-93701936D01*
X92756132Y-93999261D01*
X92458807Y-94444240D01*
X92354400Y-94969129D01*
X92354400Y-95022871D01*
X92458807Y-95547760D01*
X92756132Y-95992739D01*
X93071466Y-96203438D01*
X92951053Y-96253312D01*
X92519179Y-96647510D01*
X92271032Y-97176973D01*
X92391531Y-97409000D01*
X93599000Y-97409000D01*
X93599000Y-97389000D01*
X93853000Y-97389000D01*
X93853000Y-97409000D01*
X93873000Y-97409000D01*
X93873000Y-97663000D01*
X93853000Y-97663000D01*
X93853000Y-98869817D01*
X94085026Y-98990958D01*
X94500947Y-98818688D01*
X94508048Y-98812206D01*
X94548401Y-98872599D01*
X94929399Y-99253596D01*
X94929401Y-99253599D01*
X95075346Y-99351116D01*
X95134761Y-99390816D01*
X95377000Y-99439000D01*
X101218995Y-99439000D01*
X101219000Y-99439001D01*
X101461239Y-99390816D01*
X101666599Y-99253599D01*
X102427048Y-98493150D01*
X102427048Y-98830000D01*
X102462470Y-99018253D01*
X102573728Y-99191153D01*
X102743488Y-99307145D01*
X102945000Y-99347952D01*
X103545000Y-99347952D01*
X103648671Y-99328445D01*
X103745000Y-99347952D01*
X104212000Y-99347952D01*
X104212000Y-100563801D01*
X103427800Y-101348000D01*
X85770999Y-101348000D01*
X85771140Y-101185984D01*
X85755426Y-101147952D01*
X86068000Y-101147952D01*
X86256253Y-101112530D01*
X86429153Y-101001272D01*
X86545145Y-100831512D01*
X86585952Y-100630000D01*
X86585952Y-99030000D01*
X86550530Y-98841747D01*
X86538684Y-98823338D01*
X86711691Y-98895000D01*
X87352250Y-98895000D01*
X87511000Y-98736250D01*
X87511000Y-98107000D01*
X87765000Y-98107000D01*
X87765000Y-98736250D01*
X87923750Y-98895000D01*
X88564309Y-98895000D01*
X88797698Y-98798327D01*
X88976327Y-98619699D01*
X89073000Y-98386310D01*
X89073000Y-98265750D01*
X88914250Y-98107000D01*
X87765000Y-98107000D01*
X87511000Y-98107000D01*
X87491000Y-98107000D01*
X87491000Y-97977952D01*
X88438000Y-97977952D01*
X88626253Y-97942530D01*
X88700074Y-97895027D01*
X92271032Y-97895027D01*
X92519179Y-98424490D01*
X92951053Y-98818688D01*
X93366974Y-98990958D01*
X93599000Y-98869817D01*
X93599000Y-97663000D01*
X92391531Y-97663000D01*
X92271032Y-97895027D01*
X88700074Y-97895027D01*
X88765387Y-97853000D01*
X88914250Y-97853000D01*
X89073000Y-97694250D01*
X89073000Y-97573690D01*
X88976327Y-97340301D01*
X88955952Y-97319926D01*
X88955952Y-96900000D01*
X88932544Y-96775594D01*
X88955952Y-96660000D01*
X88955952Y-96100000D01*
X88950735Y-96072276D01*
X89017599Y-96027599D01*
X92903599Y-92141599D01*
X92925563Y-92108728D01*
X93040816Y-91936239D01*
X93062690Y-91826272D01*
X93089001Y-91694000D01*
X93089000Y-91693995D01*
X93089000Y-90624078D01*
X93103378Y-90624078D01*
X93132917Y-91134428D01*
X93271389Y-91468729D01*
X93501984Y-91524410D01*
X94221395Y-90805000D01*
X93501984Y-90085590D01*
X93271389Y-90141271D01*
X93103378Y-90624078D01*
X93089000Y-90624078D01*
X93089000Y-88263000D01*
X95626803Y-88263000D01*
X95056401Y-88833401D01*
G36*
X79431750Y-99703000D02*
X79535000Y-99703000D01*
X79535000Y-99957000D01*
X79431750Y-99957000D01*
X79388000Y-100000750D01*
X79344250Y-99957000D01*
X79241000Y-99957000D01*
X79241000Y-99703000D01*
X79344250Y-99703000D01*
X79388000Y-99659250D01*
X79431750Y-99703000D01*
X79431750Y-99703000D01*
G37*
X79431750Y-99703000D02*
X79535000Y-99703000D01*
X79535000Y-99957000D01*
X79431750Y-99957000D01*
X79388000Y-100000750D01*
X79344250Y-99957000D01*
X79241000Y-99957000D01*
X79241000Y-99703000D01*
X79344250Y-99703000D01*
X79388000Y-99659250D01*
X79431750Y-99703000D01*
G36*
X125913750Y-99703000D02*
X126017000Y-99703000D01*
X126017000Y-99957000D01*
X125913750Y-99957000D01*
X125870000Y-100000750D01*
X125826250Y-99957000D01*
X125723000Y-99957000D01*
X125723000Y-99703000D01*
X125826250Y-99703000D01*
X125846250Y-99683000D01*
X125893750Y-99683000D01*
X125913750Y-99703000D01*
X125913750Y-99703000D01*
G37*
X125913750Y-99703000D02*
X126017000Y-99703000D01*
X126017000Y-99957000D01*
X125913750Y-99957000D01*
X125870000Y-100000750D01*
X125826250Y-99957000D01*
X125723000Y-99957000D01*
X125723000Y-99703000D01*
X125826250Y-99703000D01*
X125846250Y-99683000D01*
X125893750Y-99683000D01*
X125913750Y-99703000D01*
G36*
X118453000Y-97504198D02*
X118453000Y-97560592D01*
X118430902Y-97569723D01*
X118104867Y-97895189D01*
X117928201Y-98320649D01*
X117927799Y-98781330D01*
X118043770Y-99062000D01*
X117871000Y-99062000D01*
X117871000Y-98837750D01*
X117712250Y-98679000D01*
X116713000Y-98679000D01*
X116713000Y-98699000D01*
X116459000Y-98699000D01*
X116459000Y-98679000D01*
X114808000Y-98679000D01*
X114808000Y-98699000D01*
X114554000Y-98699000D01*
X114554000Y-98679000D01*
X113554750Y-98679000D01*
X113396000Y-98837750D01*
X113396000Y-99062000D01*
X113223094Y-99062000D01*
X113338799Y-98783351D01*
X113339201Y-98322670D01*
X113169130Y-97911068D01*
X113460695Y-97619503D01*
X113396000Y-97775690D01*
X113396000Y-98266250D01*
X113554750Y-98425000D01*
X114554000Y-98425000D01*
X114554000Y-97425750D01*
X114808000Y-97425750D01*
X114808000Y-98425000D01*
X116459000Y-98425000D01*
X116459000Y-97425750D01*
X116713000Y-97425750D01*
X116713000Y-98425000D01*
X117712250Y-98425000D01*
X117871000Y-98266250D01*
X117871000Y-97775690D01*
X117774327Y-97542301D01*
X117595698Y-97363673D01*
X117362309Y-97267000D01*
X116871750Y-97267000D01*
X116713000Y-97425750D01*
X116459000Y-97425750D01*
X116300250Y-97267000D01*
X115809691Y-97267000D01*
X115633500Y-97339981D01*
X115457309Y-97267000D01*
X114966750Y-97267000D01*
X114808000Y-97425750D01*
X114554000Y-97425750D01*
X114395250Y-97267000D01*
X113904691Y-97267000D01*
X113748502Y-97331696D01*
X114747596Y-96332601D01*
X114747599Y-96332599D01*
X114877785Y-96137762D01*
X114884817Y-96127238D01*
X114933001Y-95885000D01*
X114933000Y-95884995D01*
X114933000Y-95108164D01*
X115011991Y-95075526D01*
X115366342Y-94721794D01*
X115455611Y-94506809D01*
X118453000Y-97504198D01*
X118453000Y-97504198D01*
G37*
X118453000Y-97504198D02*
X118453000Y-97560592D01*
X118430902Y-97569723D01*
X118104867Y-97895189D01*
X117928201Y-98320649D01*
X117927799Y-98781330D01*
X118043770Y-99062000D01*
X117871000Y-99062000D01*
X117871000Y-98837750D01*
X117712250Y-98679000D01*
X116713000Y-98679000D01*
X116713000Y-98699000D01*
X116459000Y-98699000D01*
X116459000Y-98679000D01*
X114808000Y-98679000D01*
X114808000Y-98699000D01*
X114554000Y-98699000D01*
X114554000Y-98679000D01*
X113554750Y-98679000D01*
X113396000Y-98837750D01*
X113396000Y-99062000D01*
X113223094Y-99062000D01*
X113338799Y-98783351D01*
X113339201Y-98322670D01*
X113169130Y-97911068D01*
X113460695Y-97619503D01*
X113396000Y-97775690D01*
X113396000Y-98266250D01*
X113554750Y-98425000D01*
X114554000Y-98425000D01*
X114554000Y-97425750D01*
X114808000Y-97425750D01*
X114808000Y-98425000D01*
X116459000Y-98425000D01*
X116459000Y-97425750D01*
X116713000Y-97425750D01*
X116713000Y-98425000D01*
X117712250Y-98425000D01*
X117871000Y-98266250D01*
X117871000Y-97775690D01*
X117774327Y-97542301D01*
X117595698Y-97363673D01*
X117362309Y-97267000D01*
X116871750Y-97267000D01*
X116713000Y-97425750D01*
X116459000Y-97425750D01*
X116300250Y-97267000D01*
X115809691Y-97267000D01*
X115633500Y-97339981D01*
X115457309Y-97267000D01*
X114966750Y-97267000D01*
X114808000Y-97425750D01*
X114554000Y-97425750D01*
X114395250Y-97267000D01*
X113904691Y-97267000D01*
X113748502Y-97331696D01*
X114747596Y-96332601D01*
X114747599Y-96332599D01*
X114877785Y-96137762D01*
X114884817Y-96127238D01*
X114933001Y-95885000D01*
X114933000Y-95884995D01*
X114933000Y-95108164D01*
X115011991Y-95075526D01*
X115366342Y-94721794D01*
X115455611Y-94506809D01*
X118453000Y-97504198D01*
G36*
X80979860Y-98458016D02*
X81002186Y-98512048D01*
X80848074Y-98512048D01*
X80827699Y-98491673D01*
X80594310Y-98395000D01*
X80473750Y-98395000D01*
X80315000Y-98553750D01*
X80315000Y-98705338D01*
X80256378Y-98791135D01*
X80206327Y-98670302D01*
X80027699Y-98491673D01*
X79978575Y-98471325D01*
X79902250Y-98395000D01*
X79673750Y-98395000D01*
X79597425Y-98471325D01*
X79548301Y-98491673D01*
X79388000Y-98651975D01*
X79227699Y-98491673D01*
X79178575Y-98471325D01*
X79102250Y-98395000D01*
X78873750Y-98395000D01*
X78797425Y-98471325D01*
X78748301Y-98491673D01*
X78569673Y-98670302D01*
X78518972Y-98792705D01*
X78461000Y-98702613D01*
X78461000Y-98553750D01*
X78302250Y-98395000D01*
X78268197Y-98395000D01*
X78367197Y-98296000D01*
X80980001Y-98296000D01*
X80979860Y-98458016D01*
X80979860Y-98458016D01*
G37*
X80979860Y-98458016D02*
X81002186Y-98512048D01*
X80848074Y-98512048D01*
X80827699Y-98491673D01*
X80594310Y-98395000D01*
X80473750Y-98395000D01*
X80315000Y-98553750D01*
X80315000Y-98705338D01*
X80256378Y-98791135D01*
X80206327Y-98670302D01*
X80027699Y-98491673D01*
X79978575Y-98471325D01*
X79902250Y-98395000D01*
X79673750Y-98395000D01*
X79597425Y-98471325D01*
X79548301Y-98491673D01*
X79388000Y-98651975D01*
X79227699Y-98491673D01*
X79178575Y-98471325D01*
X79102250Y-98395000D01*
X78873750Y-98395000D01*
X78797425Y-98471325D01*
X78748301Y-98491673D01*
X78569673Y-98670302D01*
X78518972Y-98792705D01*
X78461000Y-98702613D01*
X78461000Y-98553750D01*
X78302250Y-98395000D01*
X78268197Y-98395000D01*
X78367197Y-98296000D01*
X80980001Y-98296000D01*
X80979860Y-98458016D01*
G36*
X108715399Y-93227596D02*
X108715401Y-93227599D01*
X108920761Y-93364816D01*
X108960952Y-93372810D01*
X109163000Y-93413001D01*
X109163005Y-93413000D01*
X109178750Y-93413000D01*
X109218750Y-93453000D01*
X109341067Y-93453000D01*
X109493488Y-93557145D01*
X109603095Y-93579341D01*
X109506747Y-93597470D01*
X109336532Y-93707000D01*
X109218750Y-93707000D01*
X109060000Y-93865750D01*
X109060000Y-94006310D01*
X109156673Y-94239699D01*
X109177048Y-94260074D01*
X109177048Y-94499926D01*
X109156673Y-94520301D01*
X109060000Y-94753690D01*
X109060000Y-94894250D01*
X109218750Y-95053000D01*
X109341067Y-95053000D01*
X109493488Y-95157145D01*
X109603095Y-95179341D01*
X109506747Y-95197470D01*
X109336532Y-95307000D01*
X109218750Y-95307000D01*
X109060000Y-95465750D01*
X109060000Y-95531333D01*
X109058401Y-95532401D01*
X108772401Y-95818401D01*
X108635184Y-96023761D01*
X108586999Y-96266000D01*
X108587000Y-96266005D01*
X108587000Y-96395207D01*
X108535293Y-96343410D01*
X108238426Y-96220140D01*
X107916984Y-96219860D01*
X107619903Y-96342611D01*
X107392410Y-96569707D01*
X107269140Y-96866574D01*
X107268926Y-97112048D01*
X106945000Y-97112048D01*
X106901210Y-97120288D01*
X106892599Y-97107401D01*
X106892596Y-97107399D01*
X106492599Y-96707401D01*
X106287239Y-96570184D01*
X106045000Y-96521999D01*
X106044995Y-96522000D01*
X102912952Y-96522000D01*
X102912952Y-96480000D01*
X102893445Y-96376329D01*
X102912952Y-96280000D01*
X102912952Y-95680000D01*
X102893445Y-95576329D01*
X102912952Y-95480000D01*
X102912952Y-95060074D01*
X102933327Y-95039699D01*
X103030000Y-94806310D01*
X103030000Y-94665750D01*
X102871250Y-94507000D01*
X102748933Y-94507000D01*
X102596512Y-94402855D01*
X102486905Y-94380659D01*
X102583253Y-94362530D01*
X102753468Y-94253000D01*
X102871250Y-94253000D01*
X103030000Y-94094250D01*
X103030000Y-93953690D01*
X102933327Y-93720301D01*
X102912952Y-93699926D01*
X102912952Y-93280000D01*
X102893445Y-93176329D01*
X102912952Y-93080000D01*
X102912952Y-92613000D01*
X108100802Y-92613000D01*
X108715399Y-93227596D01*
X108715399Y-93227596D01*
G37*
X108715399Y-93227596D02*
X108715401Y-93227599D01*
X108920761Y-93364816D01*
X108960952Y-93372810D01*
X109163000Y-93413001D01*
X109163005Y-93413000D01*
X109178750Y-93413000D01*
X109218750Y-93453000D01*
X109341067Y-93453000D01*
X109493488Y-93557145D01*
X109603095Y-93579341D01*
X109506747Y-93597470D01*
X109336532Y-93707000D01*
X109218750Y-93707000D01*
X109060000Y-93865750D01*
X109060000Y-94006310D01*
X109156673Y-94239699D01*
X109177048Y-94260074D01*
X109177048Y-94499926D01*
X109156673Y-94520301D01*
X109060000Y-94753690D01*
X109060000Y-94894250D01*
X109218750Y-95053000D01*
X109341067Y-95053000D01*
X109493488Y-95157145D01*
X109603095Y-95179341D01*
X109506747Y-95197470D01*
X109336532Y-95307000D01*
X109218750Y-95307000D01*
X109060000Y-95465750D01*
X109060000Y-95531333D01*
X109058401Y-95532401D01*
X108772401Y-95818401D01*
X108635184Y-96023761D01*
X108586999Y-96266000D01*
X108587000Y-96266005D01*
X108587000Y-96395207D01*
X108535293Y-96343410D01*
X108238426Y-96220140D01*
X107916984Y-96219860D01*
X107619903Y-96342611D01*
X107392410Y-96569707D01*
X107269140Y-96866574D01*
X107268926Y-97112048D01*
X106945000Y-97112048D01*
X106901210Y-97120288D01*
X106892599Y-97107401D01*
X106892596Y-97107399D01*
X106492599Y-96707401D01*
X106287239Y-96570184D01*
X106045000Y-96521999D01*
X106044995Y-96522000D01*
X102912952Y-96522000D01*
X102912952Y-96480000D01*
X102893445Y-96376329D01*
X102912952Y-96280000D01*
X102912952Y-95680000D01*
X102893445Y-95576329D01*
X102912952Y-95480000D01*
X102912952Y-95060074D01*
X102933327Y-95039699D01*
X103030000Y-94806310D01*
X103030000Y-94665750D01*
X102871250Y-94507000D01*
X102748933Y-94507000D01*
X102596512Y-94402855D01*
X102486905Y-94380659D01*
X102583253Y-94362530D01*
X102753468Y-94253000D01*
X102871250Y-94253000D01*
X103030000Y-94094250D01*
X103030000Y-93953690D01*
X102933327Y-93720301D01*
X102912952Y-93699926D01*
X102912952Y-93280000D01*
X102893445Y-93176329D01*
X102912952Y-93080000D01*
X102912952Y-92613000D01*
X108100802Y-92613000D01*
X108715399Y-93227596D01*
G36*
X169343000Y-69621492D02*
X169210223Y-69422777D01*
X169021552Y-69234106D01*
X169021552Y-68453000D01*
X168986130Y-68264747D01*
X168874872Y-68091847D01*
X168705112Y-67975855D01*
X168503600Y-67935048D01*
X166776400Y-67935048D01*
X166588147Y-67970470D01*
X166415247Y-68081728D01*
X166299255Y-68251488D01*
X166266330Y-68414077D01*
X166002036Y-68118268D01*
X165474791Y-67864291D01*
X165459026Y-67861642D01*
X165227000Y-67982783D01*
X165227000Y-69342000D01*
X165247000Y-69342000D01*
X165247000Y-69596000D01*
X165227000Y-69596000D01*
X165227000Y-70955217D01*
X165459026Y-71076358D01*
X165474791Y-71073709D01*
X166002036Y-70819732D01*
X166265869Y-70524439D01*
X166293870Y-70673253D01*
X166405128Y-70846153D01*
X166574888Y-70962145D01*
X166776400Y-71002952D01*
X167259000Y-71002952D01*
X167259000Y-75050803D01*
X166350239Y-74142041D01*
X166144879Y-74004824D01*
X165902640Y-73956639D01*
X165902635Y-73956640D01*
X165494102Y-73956640D01*
X165479572Y-73921475D01*
X165147613Y-73588936D01*
X164713666Y-73408746D01*
X164243795Y-73408336D01*
X163809535Y-73587768D01*
X163476996Y-73919727D01*
X163296806Y-74353674D01*
X163296396Y-74823545D01*
X163475828Y-75257805D01*
X163807787Y-75590344D01*
X164241734Y-75770534D01*
X164711605Y-75770944D01*
X165145865Y-75591512D01*
X165478404Y-75259553D01*
X165493732Y-75222640D01*
X165640442Y-75222640D01*
X166372000Y-75954197D01*
X166372000Y-76533205D01*
X166199173Y-76360076D01*
X165765226Y-76179886D01*
X165295355Y-76179476D01*
X164861095Y-76358908D01*
X164528556Y-76690867D01*
X164348366Y-77124814D01*
X164347956Y-77594685D01*
X164527388Y-78028945D01*
X164859347Y-78361484D01*
X165293294Y-78541674D01*
X165763165Y-78542084D01*
X165800103Y-78526821D01*
X165864000Y-78590718D01*
X165864000Y-79321863D01*
X165841033Y-79298856D01*
X165407086Y-79118666D01*
X164937215Y-79118256D01*
X164502955Y-79297688D01*
X164170416Y-79629647D01*
X163990226Y-80063594D01*
X163989816Y-80533465D01*
X164169248Y-80967725D01*
X164501207Y-81300264D01*
X164538120Y-81315592D01*
X164538120Y-82182595D01*
X164491512Y-82069795D01*
X164159553Y-81737256D01*
X163725606Y-81557066D01*
X163255735Y-81556656D01*
X162821475Y-81736088D01*
X162488936Y-82068047D01*
X162308746Y-82501994D01*
X162308336Y-82971865D01*
X162487768Y-83406125D01*
X162819727Y-83738664D01*
X162856640Y-83753992D01*
X162856640Y-84406163D01*
X162043802Y-85219000D01*
X161285944Y-85219000D01*
X161533985Y-85116512D01*
X161866524Y-84784553D01*
X162046714Y-84350606D01*
X162047124Y-83880735D01*
X161867692Y-83446475D01*
X161535733Y-83113936D01*
X161101786Y-82933746D01*
X160631915Y-82933336D01*
X160197655Y-83112768D01*
X159865116Y-83444727D01*
X159684926Y-83878674D01*
X159684516Y-84348545D01*
X159699779Y-84385484D01*
X159374262Y-84711000D01*
X158935426Y-84711000D01*
X159085074Y-84350606D01*
X159085484Y-83880735D01*
X158906052Y-83446475D01*
X158574093Y-83113936D01*
X158140146Y-82933746D01*
X157670275Y-82933336D01*
X157236015Y-83112768D01*
X156903476Y-83444727D01*
X156888148Y-83481640D01*
X156207168Y-83481640D01*
X156281064Y-83407873D01*
X156461254Y-82973926D01*
X156461664Y-82504055D01*
X156282232Y-82069795D01*
X155950273Y-81737256D01*
X155516326Y-81557066D01*
X155046455Y-81556656D01*
X154612195Y-81736088D01*
X154279656Y-82068047D01*
X154264328Y-82104960D01*
X152089238Y-82104960D01*
X152911466Y-81282732D01*
X152928967Y-81300264D01*
X153362914Y-81480454D01*
X153832785Y-81480864D01*
X154267045Y-81301432D01*
X154599584Y-80969473D01*
X154779774Y-80535526D01*
X154780184Y-80065655D01*
X154600752Y-79631395D01*
X154268793Y-79298856D01*
X153834846Y-79118666D01*
X153364975Y-79118256D01*
X152930715Y-79297688D01*
X152598176Y-79629647D01*
X152473215Y-79930587D01*
X150620000Y-81783802D01*
X150620000Y-79002198D01*
X151628417Y-77993780D01*
X152224338Y-77993780D01*
X152238868Y-78028945D01*
X152570827Y-78361484D01*
X153004774Y-78541674D01*
X153474645Y-78542084D01*
X153908905Y-78362652D01*
X154241444Y-78030693D01*
X154421634Y-77596746D01*
X154422044Y-77126875D01*
X154242612Y-76692615D01*
X153910653Y-76360076D01*
X153561883Y-76215255D01*
X154021195Y-75755943D01*
X154056334Y-75770534D01*
X154526205Y-75770944D01*
X154960465Y-75591512D01*
X155293004Y-75259553D01*
X155473194Y-74825606D01*
X155473604Y-74355735D01*
X155294172Y-73921475D01*
X154962213Y-73588936D01*
X154528266Y-73408746D01*
X154058395Y-73408336D01*
X153624135Y-73587768D01*
X153291596Y-73919727D01*
X153272743Y-73965131D01*
X153272751Y-73955817D01*
X153043733Y-73401551D01*
X152620039Y-72977118D01*
X152338289Y-72860125D01*
X155328416Y-72860125D01*
X155507848Y-73294385D01*
X155839807Y-73626924D01*
X156273754Y-73807114D01*
X156743625Y-73807524D01*
X157177885Y-73628092D01*
X157510424Y-73296133D01*
X157690614Y-72862186D01*
X157691024Y-72392315D01*
X157511592Y-71958055D01*
X157179633Y-71625516D01*
X156745686Y-71445326D01*
X156275815Y-71444916D01*
X155841555Y-71624348D01*
X155509016Y-71956307D01*
X155328826Y-72390254D01*
X155328416Y-72860125D01*
X152338289Y-72860125D01*
X152066174Y-72747133D01*
X151466457Y-72746609D01*
X151309804Y-72811336D01*
X150812500Y-72314032D01*
X150812500Y-70432711D01*
X150909961Y-70530342D01*
X151463826Y-70760327D01*
X152063543Y-70760851D01*
X152617809Y-70531833D01*
X153042242Y-70108139D01*
X153107243Y-69951600D01*
X157990772Y-69951600D01*
X158686500Y-70647328D01*
X158686500Y-70945970D01*
X158384296Y-71247647D01*
X158204106Y-71681594D01*
X158203696Y-72151465D01*
X158383128Y-72585725D01*
X158715087Y-72918264D01*
X159149034Y-73098454D01*
X159618905Y-73098864D01*
X160053165Y-72919432D01*
X160112575Y-72860125D01*
X161078976Y-72860125D01*
X161258408Y-73294385D01*
X161590367Y-73626924D01*
X162024314Y-73807114D01*
X162494185Y-73807524D01*
X162928445Y-73628092D01*
X163260984Y-73296133D01*
X163441174Y-72862186D01*
X163441584Y-72392315D01*
X163262152Y-71958055D01*
X162930193Y-71625516D01*
X162496246Y-71445326D01*
X162026375Y-71444916D01*
X161592115Y-71624348D01*
X161259576Y-71956307D01*
X161079386Y-72390254D01*
X161078976Y-72860125D01*
X160112575Y-72860125D01*
X160385704Y-72587473D01*
X160565894Y-72153526D01*
X160566304Y-71683655D01*
X160386872Y-71249395D01*
X160083500Y-70945493D01*
X160083500Y-70358000D01*
X160030330Y-70090696D01*
X159878914Y-69864086D01*
X158774014Y-68759186D01*
X158547405Y-68607770D01*
X158280100Y-68554600D01*
X153107492Y-68554600D01*
X153043733Y-68400291D01*
X153032961Y-68389500D01*
X160492672Y-68389500D01*
X161221834Y-69118662D01*
X161188400Y-69286743D01*
X161188400Y-69651257D01*
X161292807Y-70176146D01*
X161590132Y-70621125D01*
X162035111Y-70918450D01*
X162560000Y-71022857D01*
X163084889Y-70918450D01*
X163529868Y-70621125D01*
X163767058Y-70266144D01*
X163808046Y-70383320D01*
X164197964Y-70819732D01*
X164725209Y-71073709D01*
X164740974Y-71076358D01*
X164973000Y-70955217D01*
X164973000Y-69596000D01*
X164953000Y-69596000D01*
X164953000Y-69342000D01*
X164973000Y-69342000D01*
X164973000Y-67982783D01*
X164740974Y-67861642D01*
X164725209Y-67864291D01*
X164197964Y-68118268D01*
X163808046Y-68554680D01*
X163767058Y-68671856D01*
X163529868Y-68316875D01*
X163084889Y-68019550D01*
X162560000Y-67915143D01*
X162087881Y-68009053D01*
X161590828Y-67512000D01*
X169343000Y-67512000D01*
X169343000Y-69621492D01*
X169343000Y-69621492D01*
G37*
X169343000Y-69621492D02*
X169210223Y-69422777D01*
X169021552Y-69234106D01*
X169021552Y-68453000D01*
X168986130Y-68264747D01*
X168874872Y-68091847D01*
X168705112Y-67975855D01*
X168503600Y-67935048D01*
X166776400Y-67935048D01*
X166588147Y-67970470D01*
X166415247Y-68081728D01*
X166299255Y-68251488D01*
X166266330Y-68414077D01*
X166002036Y-68118268D01*
X165474791Y-67864291D01*
X165459026Y-67861642D01*
X165227000Y-67982783D01*
X165227000Y-69342000D01*
X165247000Y-69342000D01*
X165247000Y-69596000D01*
X165227000Y-69596000D01*
X165227000Y-70955217D01*
X165459026Y-71076358D01*
X165474791Y-71073709D01*
X166002036Y-70819732D01*
X166265869Y-70524439D01*
X166293870Y-70673253D01*
X166405128Y-70846153D01*
X166574888Y-70962145D01*
X166776400Y-71002952D01*
X167259000Y-71002952D01*
X167259000Y-75050803D01*
X166350239Y-74142041D01*
X166144879Y-74004824D01*
X165902640Y-73956639D01*
X165902635Y-73956640D01*
X165494102Y-73956640D01*
X165479572Y-73921475D01*
X165147613Y-73588936D01*
X164713666Y-73408746D01*
X164243795Y-73408336D01*
X163809535Y-73587768D01*
X163476996Y-73919727D01*
X163296806Y-74353674D01*
X163296396Y-74823545D01*
X163475828Y-75257805D01*
X163807787Y-75590344D01*
X164241734Y-75770534D01*
X164711605Y-75770944D01*
X165145865Y-75591512D01*
X165478404Y-75259553D01*
X165493732Y-75222640D01*
X165640442Y-75222640D01*
X166372000Y-75954197D01*
X166372000Y-76533205D01*
X166199173Y-76360076D01*
X165765226Y-76179886D01*
X165295355Y-76179476D01*
X164861095Y-76358908D01*
X164528556Y-76690867D01*
X164348366Y-77124814D01*
X164347956Y-77594685D01*
X164527388Y-78028945D01*
X164859347Y-78361484D01*
X165293294Y-78541674D01*
X165763165Y-78542084D01*
X165800103Y-78526821D01*
X165864000Y-78590718D01*
X165864000Y-79321863D01*
X165841033Y-79298856D01*
X165407086Y-79118666D01*
X164937215Y-79118256D01*
X164502955Y-79297688D01*
X164170416Y-79629647D01*
X163990226Y-80063594D01*
X163989816Y-80533465D01*
X164169248Y-80967725D01*
X164501207Y-81300264D01*
X164538120Y-81315592D01*
X164538120Y-82182595D01*
X164491512Y-82069795D01*
X164159553Y-81737256D01*
X163725606Y-81557066D01*
X163255735Y-81556656D01*
X162821475Y-81736088D01*
X162488936Y-82068047D01*
X162308746Y-82501994D01*
X162308336Y-82971865D01*
X162487768Y-83406125D01*
X162819727Y-83738664D01*
X162856640Y-83753992D01*
X162856640Y-84406163D01*
X162043802Y-85219000D01*
X161285944Y-85219000D01*
X161533985Y-85116512D01*
X161866524Y-84784553D01*
X162046714Y-84350606D01*
X162047124Y-83880735D01*
X161867692Y-83446475D01*
X161535733Y-83113936D01*
X161101786Y-82933746D01*
X160631915Y-82933336D01*
X160197655Y-83112768D01*
X159865116Y-83444727D01*
X159684926Y-83878674D01*
X159684516Y-84348545D01*
X159699779Y-84385484D01*
X159374262Y-84711000D01*
X158935426Y-84711000D01*
X159085074Y-84350606D01*
X159085484Y-83880735D01*
X158906052Y-83446475D01*
X158574093Y-83113936D01*
X158140146Y-82933746D01*
X157670275Y-82933336D01*
X157236015Y-83112768D01*
X156903476Y-83444727D01*
X156888148Y-83481640D01*
X156207168Y-83481640D01*
X156281064Y-83407873D01*
X156461254Y-82973926D01*
X156461664Y-82504055D01*
X156282232Y-82069795D01*
X155950273Y-81737256D01*
X155516326Y-81557066D01*
X155046455Y-81556656D01*
X154612195Y-81736088D01*
X154279656Y-82068047D01*
X154264328Y-82104960D01*
X152089238Y-82104960D01*
X152911466Y-81282732D01*
X152928967Y-81300264D01*
X153362914Y-81480454D01*
X153832785Y-81480864D01*
X154267045Y-81301432D01*
X154599584Y-80969473D01*
X154779774Y-80535526D01*
X154780184Y-80065655D01*
X154600752Y-79631395D01*
X154268793Y-79298856D01*
X153834846Y-79118666D01*
X153364975Y-79118256D01*
X152930715Y-79297688D01*
X152598176Y-79629647D01*
X152473215Y-79930587D01*
X150620000Y-81783802D01*
X150620000Y-79002198D01*
X151628417Y-77993780D01*
X152224338Y-77993780D01*
X152238868Y-78028945D01*
X152570827Y-78361484D01*
X153004774Y-78541674D01*
X153474645Y-78542084D01*
X153908905Y-78362652D01*
X154241444Y-78030693D01*
X154421634Y-77596746D01*
X154422044Y-77126875D01*
X154242612Y-76692615D01*
X153910653Y-76360076D01*
X153561883Y-76215255D01*
X154021195Y-75755943D01*
X154056334Y-75770534D01*
X154526205Y-75770944D01*
X154960465Y-75591512D01*
X155293004Y-75259553D01*
X155473194Y-74825606D01*
X155473604Y-74355735D01*
X155294172Y-73921475D01*
X154962213Y-73588936D01*
X154528266Y-73408746D01*
X154058395Y-73408336D01*
X153624135Y-73587768D01*
X153291596Y-73919727D01*
X153272743Y-73965131D01*
X153272751Y-73955817D01*
X153043733Y-73401551D01*
X152620039Y-72977118D01*
X152338289Y-72860125D01*
X155328416Y-72860125D01*
X155507848Y-73294385D01*
X155839807Y-73626924D01*
X156273754Y-73807114D01*
X156743625Y-73807524D01*
X157177885Y-73628092D01*
X157510424Y-73296133D01*
X157690614Y-72862186D01*
X157691024Y-72392315D01*
X157511592Y-71958055D01*
X157179633Y-71625516D01*
X156745686Y-71445326D01*
X156275815Y-71444916D01*
X155841555Y-71624348D01*
X155509016Y-71956307D01*
X155328826Y-72390254D01*
X155328416Y-72860125D01*
X152338289Y-72860125D01*
X152066174Y-72747133D01*
X151466457Y-72746609D01*
X151309804Y-72811336D01*
X150812500Y-72314032D01*
X150812500Y-70432711D01*
X150909961Y-70530342D01*
X151463826Y-70760327D01*
X152063543Y-70760851D01*
X152617809Y-70531833D01*
X153042242Y-70108139D01*
X153107243Y-69951600D01*
X157990772Y-69951600D01*
X158686500Y-70647328D01*
X158686500Y-70945970D01*
X158384296Y-71247647D01*
X158204106Y-71681594D01*
X158203696Y-72151465D01*
X158383128Y-72585725D01*
X158715087Y-72918264D01*
X159149034Y-73098454D01*
X159618905Y-73098864D01*
X160053165Y-72919432D01*
X160112575Y-72860125D01*
X161078976Y-72860125D01*
X161258408Y-73294385D01*
X161590367Y-73626924D01*
X162024314Y-73807114D01*
X162494185Y-73807524D01*
X162928445Y-73628092D01*
X163260984Y-73296133D01*
X163441174Y-72862186D01*
X163441584Y-72392315D01*
X163262152Y-71958055D01*
X162930193Y-71625516D01*
X162496246Y-71445326D01*
X162026375Y-71444916D01*
X161592115Y-71624348D01*
X161259576Y-71956307D01*
X161079386Y-72390254D01*
X161078976Y-72860125D01*
X160112575Y-72860125D01*
X160385704Y-72587473D01*
X160565894Y-72153526D01*
X160566304Y-71683655D01*
X160386872Y-71249395D01*
X160083500Y-70945493D01*
X160083500Y-70358000D01*
X160030330Y-70090696D01*
X159878914Y-69864086D01*
X158774014Y-68759186D01*
X158547405Y-68607770D01*
X158280100Y-68554600D01*
X153107492Y-68554600D01*
X153043733Y-68400291D01*
X153032961Y-68389500D01*
X160492672Y-68389500D01*
X161221834Y-69118662D01*
X161188400Y-69286743D01*
X161188400Y-69651257D01*
X161292807Y-70176146D01*
X161590132Y-70621125D01*
X162035111Y-70918450D01*
X162560000Y-71022857D01*
X163084889Y-70918450D01*
X163529868Y-70621125D01*
X163767058Y-70266144D01*
X163808046Y-70383320D01*
X164197964Y-70819732D01*
X164725209Y-71073709D01*
X164740974Y-71076358D01*
X164973000Y-70955217D01*
X164973000Y-69596000D01*
X164953000Y-69596000D01*
X164953000Y-69342000D01*
X164973000Y-69342000D01*
X164973000Y-67982783D01*
X164740974Y-67861642D01*
X164725209Y-67864291D01*
X164197964Y-68118268D01*
X163808046Y-68554680D01*
X163767058Y-68671856D01*
X163529868Y-68316875D01*
X163084889Y-68019550D01*
X162560000Y-67915143D01*
X162087881Y-68009053D01*
X161590828Y-67512000D01*
X169343000Y-67512000D01*
X169343000Y-69621492D01*
M02*
