G04 #@! TF.FileFunction,Legend,Bot*
%FSLAX46Y46*%
G04 Gerber Fmt 4.6, Leading zero omitted, Abs format (unit mm)*
G04 Created by KiCad (PCBNEW 4.0.0-rc1-stable) date 11/15/2015 9:58:47 PM*
%MOMM*%
G01*
G04 APERTURE LIST*
%ADD10C,0.100000*%
%ADD11C,0.158750*%
%ADD12C,0.300000*%
%ADD13C,0.127000*%
%ADD14C,0.254000*%
%ADD15C,0.150000*%
%ADD16C,0.088900*%
G04 APERTURE END LIST*
D10*
D11*
X168946286Y-72042262D02*
X169309144Y-72042262D01*
X169127715Y-72042262D02*
X169127715Y-71407262D01*
X169188191Y-71497976D01*
X169248667Y-71558452D01*
X169309144Y-71588690D01*
X168704382Y-71467738D02*
X168674144Y-71437500D01*
X168613667Y-71407262D01*
X168462477Y-71407262D01*
X168402001Y-71437500D01*
X168371763Y-71467738D01*
X168341524Y-71528214D01*
X168341524Y-71588690D01*
X168371763Y-71679405D01*
X168734620Y-72042262D01*
X168341524Y-72042262D01*
X168160096Y-71407262D02*
X167948429Y-72042262D01*
X167736762Y-71407262D01*
X166708666Y-71437500D02*
X166769143Y-71407262D01*
X166859857Y-71407262D01*
X166950571Y-71437500D01*
X167011047Y-71497976D01*
X167041286Y-71558452D01*
X167071524Y-71679405D01*
X167071524Y-71770119D01*
X167041286Y-71891071D01*
X167011047Y-71951548D01*
X166950571Y-72012024D01*
X166859857Y-72042262D01*
X166799381Y-72042262D01*
X166708666Y-72012024D01*
X166678428Y-71981786D01*
X166678428Y-71770119D01*
X166799381Y-71770119D01*
X166406286Y-72042262D02*
X166406286Y-71407262D01*
X166043428Y-72042262D01*
X166043428Y-71407262D01*
X165741048Y-72042262D02*
X165741048Y-71407262D01*
X165589857Y-71407262D01*
X165499143Y-71437500D01*
X165438667Y-71497976D01*
X165408428Y-71558452D01*
X165378190Y-71679405D01*
X165378190Y-71770119D01*
X165408428Y-71891071D01*
X165438667Y-71951548D01*
X165499143Y-72012024D01*
X165589857Y-72042262D01*
X165741048Y-72042262D01*
X164622238Y-72042262D02*
X164622238Y-71407262D01*
X164622238Y-71709643D02*
X164259380Y-71709643D01*
X164259380Y-72042262D02*
X164259380Y-71407262D01*
X164047714Y-71407262D02*
X163836047Y-72042262D01*
X163624380Y-71407262D01*
D12*
X36936571Y-86313571D02*
X36936571Y-87385000D01*
X37007999Y-87599286D01*
X37150856Y-87742143D01*
X37365142Y-87813571D01*
X37507999Y-87813571D01*
X35650857Y-87742143D02*
X35793714Y-87813571D01*
X36079428Y-87813571D01*
X36222285Y-87742143D01*
X36293714Y-87599286D01*
X36293714Y-87027857D01*
X36222285Y-86885000D01*
X36079428Y-86813571D01*
X35793714Y-86813571D01*
X35650857Y-86885000D01*
X35579428Y-87027857D01*
X35579428Y-87170714D01*
X36293714Y-87313571D01*
X35150857Y-86813571D02*
X34579428Y-86813571D01*
X34936571Y-87813571D02*
X34936571Y-86527857D01*
X34865143Y-86385000D01*
X34722285Y-86313571D01*
X34579428Y-86313571D01*
X34293714Y-86813571D02*
X33722285Y-86813571D01*
X34079428Y-87813571D02*
X34079428Y-86527857D01*
X34008000Y-86385000D01*
X33865142Y-86313571D01*
X33722285Y-86313571D01*
X33222285Y-87813571D02*
X33222285Y-86813571D01*
X33222285Y-87099286D02*
X33150857Y-86956429D01*
X33079428Y-86885000D01*
X32936571Y-86813571D01*
X32793714Y-86813571D01*
X31722286Y-87742143D02*
X31865143Y-87813571D01*
X32150857Y-87813571D01*
X32293714Y-87742143D01*
X32365143Y-87599286D01*
X32365143Y-87027857D01*
X32293714Y-86885000D01*
X32150857Y-86813571D01*
X31865143Y-86813571D01*
X31722286Y-86885000D01*
X31650857Y-87027857D01*
X31650857Y-87170714D01*
X32365143Y-87313571D01*
X31150857Y-86813571D02*
X30793714Y-87813571D01*
X30436572Y-86813571D02*
X30793714Y-87813571D01*
X30936572Y-88170714D01*
X31008000Y-88242143D01*
X31150857Y-88313571D01*
X28722286Y-87813571D02*
X28722286Y-86313571D01*
X27865143Y-87813571D01*
X27865143Y-86313571D01*
X27150857Y-87813571D02*
X27150857Y-86813571D01*
X27150857Y-86313571D02*
X27222286Y-86385000D01*
X27150857Y-86456429D01*
X27079429Y-86385000D01*
X27150857Y-86313571D01*
X27150857Y-86456429D01*
X38293714Y-90213571D02*
X38293714Y-88713571D01*
X37436571Y-90213571D01*
X37436571Y-88713571D01*
X36722285Y-90213571D02*
X36722285Y-89213571D01*
X36722285Y-88713571D02*
X36793714Y-88785000D01*
X36722285Y-88856429D01*
X36650857Y-88785000D01*
X36722285Y-88713571D01*
X36722285Y-88856429D01*
X36150856Y-90213571D02*
X35365142Y-89213571D01*
X36150856Y-89213571D02*
X35365142Y-90213571D01*
X34793713Y-90213571D02*
X34793713Y-89213571D01*
X34793713Y-88713571D02*
X34865142Y-88785000D01*
X34793713Y-88856429D01*
X34722285Y-88785000D01*
X34793713Y-88713571D01*
X34793713Y-88856429D01*
X33507999Y-90142143D02*
X33650856Y-90213571D01*
X33936570Y-90213571D01*
X34079427Y-90142143D01*
X34150856Y-89999286D01*
X34150856Y-89427857D01*
X34079427Y-89285000D01*
X33936570Y-89213571D01*
X33650856Y-89213571D01*
X33507999Y-89285000D01*
X33436570Y-89427857D01*
X33436570Y-89570714D01*
X34150856Y-89713571D01*
X30793713Y-90070714D02*
X30865142Y-90142143D01*
X31079428Y-90213571D01*
X31222285Y-90213571D01*
X31436570Y-90142143D01*
X31579428Y-89999286D01*
X31650856Y-89856429D01*
X31722285Y-89570714D01*
X31722285Y-89356429D01*
X31650856Y-89070714D01*
X31579428Y-88927857D01*
X31436570Y-88785000D01*
X31222285Y-88713571D01*
X31079428Y-88713571D01*
X30865142Y-88785000D01*
X30793713Y-88856429D01*
X29936570Y-90213571D02*
X30079428Y-90142143D01*
X30150856Y-89999286D01*
X30150856Y-88713571D01*
X29150856Y-90213571D02*
X29293714Y-90142143D01*
X29365142Y-90070714D01*
X29436571Y-89927857D01*
X29436571Y-89499286D01*
X29365142Y-89356429D01*
X29293714Y-89285000D01*
X29150856Y-89213571D01*
X28936571Y-89213571D01*
X28793714Y-89285000D01*
X28722285Y-89356429D01*
X28650856Y-89499286D01*
X28650856Y-89927857D01*
X28722285Y-90070714D01*
X28793714Y-90142143D01*
X28936571Y-90213571D01*
X29150856Y-90213571D01*
X27365142Y-90142143D02*
X27507999Y-90213571D01*
X27793713Y-90213571D01*
X27936571Y-90142143D01*
X28007999Y-90070714D01*
X28079428Y-89927857D01*
X28079428Y-89499286D01*
X28007999Y-89356429D01*
X27936571Y-89285000D01*
X27793713Y-89213571D01*
X27507999Y-89213571D01*
X27365142Y-89285000D01*
X26722285Y-90213571D02*
X26722285Y-88713571D01*
X26579428Y-89642143D02*
X26150857Y-90213571D01*
X26150857Y-89213571D02*
X26722285Y-89785000D01*
X34829428Y-91256429D02*
X34757999Y-91185000D01*
X34615142Y-91113571D01*
X34257999Y-91113571D01*
X34115142Y-91185000D01*
X34043713Y-91256429D01*
X33972285Y-91399286D01*
X33972285Y-91542143D01*
X34043713Y-91756429D01*
X34900856Y-92613571D01*
X33972285Y-92613571D01*
X33043714Y-91113571D02*
X32900857Y-91113571D01*
X32758000Y-91185000D01*
X32686571Y-91256429D01*
X32615142Y-91399286D01*
X32543714Y-91685000D01*
X32543714Y-92042143D01*
X32615142Y-92327857D01*
X32686571Y-92470714D01*
X32758000Y-92542143D01*
X32900857Y-92613571D01*
X33043714Y-92613571D01*
X33186571Y-92542143D01*
X33258000Y-92470714D01*
X33329428Y-92327857D01*
X33400857Y-92042143D01*
X33400857Y-91685000D01*
X33329428Y-91399286D01*
X33258000Y-91256429D01*
X33186571Y-91185000D01*
X33043714Y-91113571D01*
X31115143Y-92613571D02*
X31972286Y-92613571D01*
X31543714Y-92613571D02*
X31543714Y-91113571D01*
X31686571Y-91327857D01*
X31829429Y-91470714D01*
X31972286Y-91542143D01*
X29758000Y-91113571D02*
X30472286Y-91113571D01*
X30543715Y-91827857D01*
X30472286Y-91756429D01*
X30329429Y-91685000D01*
X29972286Y-91685000D01*
X29829429Y-91756429D01*
X29758000Y-91827857D01*
X29686572Y-91970714D01*
X29686572Y-92327857D01*
X29758000Y-92470714D01*
X29829429Y-92542143D01*
X29972286Y-92613571D01*
X30329429Y-92613571D01*
X30472286Y-92542143D01*
X30543715Y-92470714D01*
D13*
X57071811Y-78105000D02*
G75*
G03X57071811Y-78105000I-6271811J0D01*
G01*
D14*
X58419851Y-78118299D02*
G75*
G02X43180000Y-77947520I-7619851J92039D01*
G01*
D13*
X75486811Y-78105000D02*
G75*
G03X75486811Y-78105000I-6271811J0D01*
G01*
D14*
X76834851Y-78118299D02*
G75*
G02X61595000Y-77947520I-7619851J92039D01*
G01*
D13*
X102156811Y-78105000D02*
G75*
G03X102156811Y-78105000I-6271811J0D01*
G01*
D14*
X103504851Y-78118299D02*
G75*
G02X88265000Y-77947520I-7619851J92039D01*
G01*
D13*
X120571811Y-78105000D02*
G75*
G03X120571811Y-78105000I-6271811J0D01*
G01*
D14*
X121919851Y-78118299D02*
G75*
G02X106680000Y-77947520I-7619851J92039D01*
G01*
D13*
X147241811Y-78105000D02*
G75*
G03X147241811Y-78105000I-6271811J0D01*
G01*
D14*
X148589851Y-78118299D02*
G75*
G02X133350000Y-77947520I-7619851J92039D01*
G01*
D13*
X165656811Y-78105000D02*
G75*
G03X165656811Y-78105000I-6271811J0D01*
G01*
D14*
X167004851Y-78118299D02*
G75*
G02X151765000Y-77947520I-7619851J92039D01*
G01*
D15*
X53993143Y-78794429D02*
X53993143Y-77270429D01*
X53267429Y-78794429D02*
X53267429Y-77270429D01*
X52396572Y-78794429D01*
X52396572Y-77270429D01*
X51670858Y-78213857D02*
X50509715Y-78213857D01*
X48985715Y-78794429D02*
X49856572Y-78794429D01*
X49421144Y-78794429D02*
X49421144Y-77270429D01*
X49566287Y-77488143D01*
X49711429Y-77633286D01*
X49856572Y-77705857D01*
X47679429Y-77778429D02*
X47679429Y-78794429D01*
X48042286Y-77197857D02*
X48405143Y-78286429D01*
X47461715Y-78286429D01*
X72408143Y-78794429D02*
X72408143Y-77270429D01*
X71682429Y-78794429D02*
X71682429Y-77270429D01*
X70811572Y-78794429D01*
X70811572Y-77270429D01*
X70085858Y-78213857D02*
X68924715Y-78213857D01*
X67400715Y-78794429D02*
X68271572Y-78794429D01*
X67836144Y-78794429D02*
X67836144Y-77270429D01*
X67981287Y-77488143D01*
X68126429Y-77633286D01*
X68271572Y-77705857D01*
X66094429Y-77778429D02*
X66094429Y-78794429D01*
X66457286Y-77197857D02*
X66820143Y-78286429D01*
X65876715Y-78286429D01*
X99078143Y-78794429D02*
X99078143Y-77270429D01*
X98352429Y-78794429D02*
X98352429Y-77270429D01*
X97481572Y-78794429D01*
X97481572Y-77270429D01*
X96755858Y-78213857D02*
X95594715Y-78213857D01*
X94070715Y-78794429D02*
X94941572Y-78794429D01*
X94506144Y-78794429D02*
X94506144Y-77270429D01*
X94651287Y-77488143D01*
X94796429Y-77633286D01*
X94941572Y-77705857D01*
X92764429Y-77778429D02*
X92764429Y-78794429D01*
X93127286Y-77197857D02*
X93490143Y-78286429D01*
X92546715Y-78286429D01*
D16*
X81899881Y-76457024D02*
X81899881Y-75187024D01*
X82625595Y-76457024D01*
X82625595Y-75187024D01*
X83774643Y-75610357D02*
X83774643Y-76457024D01*
X83472262Y-75126548D02*
X83169881Y-76033690D01*
X83956071Y-76033690D01*
D15*
X117493143Y-78794429D02*
X117493143Y-77270429D01*
X116767429Y-78794429D02*
X116767429Y-77270429D01*
X115896572Y-78794429D01*
X115896572Y-77270429D01*
X115170858Y-78213857D02*
X114009715Y-78213857D01*
X112485715Y-78794429D02*
X113356572Y-78794429D01*
X112921144Y-78794429D02*
X112921144Y-77270429D01*
X113066287Y-77488143D01*
X113211429Y-77633286D01*
X113356572Y-77705857D01*
X111179429Y-77778429D02*
X111179429Y-78794429D01*
X111542286Y-77197857D02*
X111905143Y-78286429D01*
X110961715Y-78286429D01*
X144163143Y-78794429D02*
X144163143Y-77270429D01*
X143437429Y-78794429D02*
X143437429Y-77270429D01*
X142566572Y-78794429D01*
X142566572Y-77270429D01*
X141840858Y-78213857D02*
X140679715Y-78213857D01*
X139155715Y-78794429D02*
X140026572Y-78794429D01*
X139591144Y-78794429D02*
X139591144Y-77270429D01*
X139736287Y-77488143D01*
X139881429Y-77633286D01*
X140026572Y-77705857D01*
X137849429Y-77778429D02*
X137849429Y-78794429D01*
X138212286Y-77197857D02*
X138575143Y-78286429D01*
X137631715Y-78286429D01*
X162578143Y-78794429D02*
X162578143Y-77270429D01*
X161852429Y-78794429D02*
X161852429Y-77270429D01*
X160981572Y-78794429D01*
X160981572Y-77270429D01*
X160255858Y-78213857D02*
X159094715Y-78213857D01*
X157570715Y-78794429D02*
X158441572Y-78794429D01*
X158006144Y-78794429D02*
X158006144Y-77270429D01*
X158151287Y-77488143D01*
X158296429Y-77633286D01*
X158441572Y-77705857D01*
X156264429Y-77778429D02*
X156264429Y-78794429D01*
X156627286Y-77197857D02*
X156990143Y-78286429D01*
X156046715Y-78286429D01*
D16*
X126984881Y-76457024D02*
X126984881Y-75187024D01*
X127710595Y-76457024D01*
X127710595Y-75187024D01*
X128496786Y-75731310D02*
X128375833Y-75670833D01*
X128315357Y-75610357D01*
X128254881Y-75489405D01*
X128254881Y-75428929D01*
X128315357Y-75307976D01*
X128375833Y-75247500D01*
X128496786Y-75187024D01*
X128738690Y-75187024D01*
X128859643Y-75247500D01*
X128920119Y-75307976D01*
X128980595Y-75428929D01*
X128980595Y-75489405D01*
X128920119Y-75610357D01*
X128859643Y-75670833D01*
X128738690Y-75731310D01*
X128496786Y-75731310D01*
X128375833Y-75791786D01*
X128315357Y-75852262D01*
X128254881Y-75973214D01*
X128254881Y-76215119D01*
X128315357Y-76336071D01*
X128375833Y-76396548D01*
X128496786Y-76457024D01*
X128738690Y-76457024D01*
X128859643Y-76396548D01*
X128920119Y-76336071D01*
X128980595Y-76215119D01*
X128980595Y-75973214D01*
X128920119Y-75852262D01*
X128859643Y-75791786D01*
X128738690Y-75731310D01*
M02*
