G04 #@! TF.FileFunction,Legend,Top*
%FSLAX46Y46*%
G04 Gerber Fmt 4.6, Leading zero omitted, Abs format (unit mm)*
G04 Created by KiCad (PCBNEW 4.0.0-rc1-stable) date 11/15/2015 9:58:47 PM*
%MOMM*%
G01*
G04 APERTURE LIST*
%ADD10C,0.100000*%
%ADD11C,0.158750*%
%ADD12C,0.300000*%
%ADD13C,0.150000*%
%ADD14C,0.127000*%
%ADD15C,0.254000*%
%ADD16C,0.088900*%
G04 APERTURE END LIST*
D10*
D11*
X129527905Y-81452357D02*
X129044095Y-81452357D01*
X129286000Y-81694262D02*
X129286000Y-81210452D01*
X84442905Y-81579357D02*
X83959095Y-81579357D01*
X84201000Y-81821262D02*
X84201000Y-81337452D01*
D12*
X23880287Y-78656571D02*
X23880287Y-77656571D01*
X23880287Y-77942286D02*
X23951715Y-77799429D01*
X24023144Y-77728000D01*
X24166001Y-77656571D01*
X24308858Y-77656571D01*
X25380286Y-78585143D02*
X25237429Y-78656571D01*
X24951715Y-78656571D01*
X24808858Y-78585143D01*
X24737429Y-78442286D01*
X24737429Y-77870857D01*
X24808858Y-77728000D01*
X24951715Y-77656571D01*
X25237429Y-77656571D01*
X25380286Y-77728000D01*
X25451715Y-77870857D01*
X25451715Y-78013714D01*
X24737429Y-78156571D01*
X25951715Y-77656571D02*
X26308858Y-78656571D01*
X26666000Y-77656571D01*
X28308857Y-78228000D02*
X29023143Y-78228000D01*
X28166000Y-78656571D02*
X28666000Y-77156571D01*
X29166000Y-78656571D01*
D11*
X93447810Y-99234625D02*
X93387333Y-99204387D01*
X93296619Y-99204387D01*
X93205905Y-99234625D01*
X93145429Y-99295101D01*
X93115190Y-99355577D01*
X93084952Y-99476530D01*
X93084952Y-99567244D01*
X93115190Y-99688196D01*
X93145429Y-99748673D01*
X93205905Y-99809149D01*
X93296619Y-99839387D01*
X93357095Y-99839387D01*
X93447810Y-99809149D01*
X93478048Y-99778911D01*
X93478048Y-99567244D01*
X93357095Y-99567244D01*
X93750190Y-99839387D02*
X93750190Y-99204387D01*
X94113048Y-99839387D01*
X94113048Y-99204387D01*
X94415428Y-99839387D02*
X94415428Y-99204387D01*
X94566619Y-99204387D01*
X94657333Y-99234625D01*
X94717809Y-99295101D01*
X94748048Y-99355577D01*
X94778286Y-99476530D01*
X94778286Y-99567244D01*
X94748048Y-99688196D01*
X94717809Y-99748673D01*
X94657333Y-99809149D01*
X94566619Y-99839387D01*
X94415428Y-99839387D01*
X95534238Y-99839387D02*
X95534238Y-99204387D01*
X95745905Y-99657958D01*
X95957572Y-99204387D01*
X95957572Y-99839387D01*
X96380905Y-99204387D02*
X96501857Y-99204387D01*
X96562333Y-99234625D01*
X96622810Y-99295101D01*
X96653048Y-99416054D01*
X96653048Y-99627720D01*
X96622810Y-99748673D01*
X96562333Y-99809149D01*
X96501857Y-99839387D01*
X96380905Y-99839387D01*
X96320429Y-99809149D01*
X96259952Y-99748673D01*
X96229714Y-99627720D01*
X96229714Y-99416054D01*
X96259952Y-99295101D01*
X96320429Y-99234625D01*
X96380905Y-99204387D01*
X96894952Y-99809149D02*
X96985667Y-99839387D01*
X97136857Y-99839387D01*
X97197333Y-99809149D01*
X97227571Y-99778911D01*
X97257810Y-99718435D01*
X97257810Y-99657958D01*
X97227571Y-99597482D01*
X97197333Y-99567244D01*
X97136857Y-99537006D01*
X97015905Y-99506768D01*
X96955429Y-99476530D01*
X96925190Y-99446292D01*
X96894952Y-99385815D01*
X96894952Y-99325339D01*
X96925190Y-99264863D01*
X96955429Y-99234625D01*
X97015905Y-99204387D01*
X97167095Y-99204387D01*
X97257810Y-99234625D01*
X97529952Y-99839387D02*
X97529952Y-99204387D01*
X98618524Y-99204387D02*
X98316143Y-99204387D01*
X98285905Y-99506768D01*
X98316143Y-99476530D01*
X98376620Y-99446292D01*
X98527810Y-99446292D01*
X98588286Y-99476530D01*
X98618524Y-99506768D01*
X98648763Y-99567244D01*
X98648763Y-99718435D01*
X98618524Y-99778911D01*
X98588286Y-99809149D01*
X98527810Y-99839387D01*
X98376620Y-99839387D01*
X98316143Y-99809149D01*
X98285905Y-99778911D01*
X98830191Y-99204387D02*
X99041858Y-99839387D01*
X99253525Y-99204387D01*
X94385190Y-100705708D02*
X94687571Y-100705708D01*
X94324714Y-100887137D02*
X94536381Y-100252137D01*
X94748048Y-100887137D01*
X94869000Y-100252137D02*
X95080667Y-100887137D01*
X95292334Y-100252137D01*
X95866858Y-100887137D02*
X95655191Y-100584756D01*
X95504000Y-100887137D02*
X95504000Y-100252137D01*
X95745905Y-100252137D01*
X95806381Y-100282375D01*
X95836620Y-100312613D01*
X95866858Y-100373089D01*
X95866858Y-100463804D01*
X95836620Y-100524280D01*
X95806381Y-100554518D01*
X95745905Y-100584756D01*
X95504000Y-100584756D01*
X96622810Y-100887137D02*
X96622810Y-100252137D01*
X96894953Y-100856899D02*
X96985668Y-100887137D01*
X97136858Y-100887137D01*
X97197334Y-100856899D01*
X97227572Y-100826661D01*
X97257811Y-100766185D01*
X97257811Y-100705708D01*
X97227572Y-100645232D01*
X97197334Y-100614994D01*
X97136858Y-100584756D01*
X97015906Y-100554518D01*
X96955430Y-100524280D01*
X96925191Y-100494042D01*
X96894953Y-100433565D01*
X96894953Y-100373089D01*
X96925191Y-100312613D01*
X96955430Y-100282375D01*
X97015906Y-100252137D01*
X97167096Y-100252137D01*
X97257811Y-100282375D01*
X97529953Y-100887137D02*
X97529953Y-100252137D01*
X97771858Y-100252137D01*
X97832334Y-100282375D01*
X97862573Y-100312613D01*
X97892811Y-100373089D01*
X97892811Y-100463804D01*
X97862573Y-100524280D01*
X97832334Y-100554518D01*
X97771858Y-100584756D01*
X97529953Y-100584756D01*
D12*
X126563572Y-71798571D02*
X126563572Y-70298571D01*
X126563572Y-71012857D02*
X127420715Y-71012857D01*
X127420715Y-71798571D02*
X127420715Y-70298571D01*
X127920715Y-70298571D02*
X128420715Y-71798571D01*
X128920715Y-70298571D01*
X81732572Y-71798571D02*
X81732572Y-70298571D01*
X81732572Y-71012857D02*
X82589715Y-71012857D01*
X82589715Y-71798571D02*
X82589715Y-70298571D01*
X83089715Y-70298571D02*
X83589715Y-71798571D01*
X84089715Y-70298571D01*
X134159572Y-87800571D02*
X133302429Y-87800571D01*
X133731001Y-87800571D02*
X133731001Y-86300571D01*
X133588144Y-86514857D01*
X133445286Y-86657714D01*
X133302429Y-86729143D01*
X110664572Y-99103571D02*
X109807429Y-99103571D01*
X110236001Y-99103571D02*
X110236001Y-97603571D01*
X110093144Y-97817857D01*
X109950286Y-97960714D01*
X109807429Y-98032143D01*
X87550572Y-87800571D02*
X86693429Y-87800571D01*
X87122001Y-87800571D02*
X87122001Y-86300571D01*
X86979144Y-86514857D01*
X86836286Y-86657714D01*
X86693429Y-86729143D01*
X147344144Y-102342143D02*
X148487001Y-102342143D01*
X147915572Y-102913571D02*
X147915572Y-101770714D01*
X149987001Y-102913571D02*
X149129858Y-102913571D01*
X149558430Y-102913571D02*
X149558430Y-101413571D01*
X149415573Y-101627857D01*
X149272715Y-101770714D01*
X149129858Y-101842143D01*
X150558429Y-101556429D02*
X150629858Y-101485000D01*
X150772715Y-101413571D01*
X151129858Y-101413571D01*
X151272715Y-101485000D01*
X151344144Y-101556429D01*
X151415572Y-101699286D01*
X151415572Y-101842143D01*
X151344144Y-102056429D01*
X150487001Y-102913571D01*
X151415572Y-102913571D01*
X151844143Y-101413571D02*
X152344143Y-102913571D01*
X152844143Y-101413571D01*
X24320571Y-75251571D02*
X24320571Y-76323000D01*
X24249143Y-76537286D01*
X24106286Y-76680143D01*
X23892000Y-76751571D01*
X23749143Y-76751571D01*
X25034857Y-76751571D02*
X25034857Y-75251571D01*
X25892000Y-76751571D01*
X25892000Y-75251571D01*
D13*
X97536000Y-93726000D02*
X92456000Y-93726000D01*
X100356000Y-93446000D02*
X100356000Y-94996000D01*
X100076000Y-96266000D02*
X97536000Y-96266000D01*
X97536000Y-96266000D02*
X97536000Y-93726000D01*
X92456000Y-93726000D02*
X92456000Y-98806000D01*
X92456000Y-98806000D02*
X97536000Y-98806000D01*
X100356000Y-93446000D02*
X98806000Y-93446000D01*
X100076000Y-98806000D02*
X100076000Y-96266000D01*
X97536000Y-98806000D02*
X100076000Y-98806000D01*
X46081000Y-98810000D02*
X46081000Y-101810000D01*
X43581000Y-101810000D02*
X43581000Y-98810000D01*
X114931000Y-99802000D02*
X111931000Y-99802000D01*
X111931000Y-97302000D02*
X114931000Y-97302000D01*
X116336000Y-97302000D02*
X119336000Y-97302000D01*
X119336000Y-99802000D02*
X116336000Y-99802000D01*
X97151000Y-92055000D02*
X94151000Y-92055000D01*
X94151000Y-89555000D02*
X97151000Y-89555000D01*
X46736000Y-92583000D02*
X56896000Y-92583000D01*
X56896000Y-92583000D02*
X56896000Y-100965000D01*
X56896000Y-100965000D02*
X46736000Y-100965000D01*
X46736000Y-100965000D02*
X46736000Y-92583000D01*
X56896000Y-97409000D02*
X56134000Y-97409000D01*
X56134000Y-97409000D02*
X56134000Y-96139000D01*
X56134000Y-96139000D02*
X56896000Y-96139000D01*
X86963000Y-88805000D02*
X86293000Y-88805000D01*
X86963000Y-99155000D02*
X86293000Y-99155000D01*
X76613000Y-99155000D02*
X77283000Y-99155000D01*
X76613000Y-88805000D02*
X77283000Y-88805000D01*
X86963000Y-88805000D02*
X86963000Y-89475000D01*
X76613000Y-88805000D02*
X76613000Y-89475000D01*
X76613000Y-99155000D02*
X76613000Y-98485000D01*
X86963000Y-99155000D02*
X86963000Y-98485000D01*
X86293000Y-88805000D02*
X86293000Y-87330000D01*
X133445000Y-88805000D02*
X132775000Y-88805000D01*
X133445000Y-99155000D02*
X132775000Y-99155000D01*
X123095000Y-99155000D02*
X123765000Y-99155000D01*
X123095000Y-88805000D02*
X123765000Y-88805000D01*
X133445000Y-88805000D02*
X133445000Y-89475000D01*
X123095000Y-88805000D02*
X123095000Y-89475000D01*
X123095000Y-99155000D02*
X123095000Y-98485000D01*
X133445000Y-99155000D02*
X133445000Y-98485000D01*
X132775000Y-88805000D02*
X132775000Y-87330000D01*
X109670000Y-97605000D02*
X109670000Y-97305000D01*
X102420000Y-97605000D02*
X102420000Y-97305000D01*
X102420000Y-90355000D02*
X102420000Y-90655000D01*
X109670000Y-90355000D02*
X109670000Y-90655000D01*
X109670000Y-97605000D02*
X109370000Y-97605000D01*
X109670000Y-90355000D02*
X109370000Y-90355000D01*
X102420000Y-90355000D02*
X102720000Y-90355000D01*
X102420000Y-97605000D02*
X102720000Y-97605000D01*
X109670000Y-97305000D02*
X110895000Y-97305000D01*
D14*
X84597498Y-80010000D02*
G75*
G03X84597498Y-80010000I-2047498J0D01*
G01*
D15*
X78740044Y-80012135D02*
G75*
G03X86360000Y-80010000I3809956J80875D01*
G01*
D14*
X129682498Y-80010000D02*
G75*
G03X129682498Y-80010000I-2047498J0D01*
G01*
D15*
X123825044Y-80012135D02*
G75*
G03X131445000Y-80010000I3809956J80875D01*
G01*
D13*
X113299240Y-86868000D02*
X113700560Y-86667340D01*
X113700560Y-86667340D02*
X114300000Y-86565740D01*
X114300000Y-86565740D02*
X114800380Y-86667340D01*
X114800380Y-86667340D02*
X115498880Y-87066120D01*
X115498880Y-87066120D02*
X115900200Y-87668100D01*
X115900200Y-87668100D02*
X116100860Y-88267540D01*
X116100860Y-88267540D02*
X116100860Y-94866460D01*
X116100860Y-94866460D02*
X115900200Y-95567500D01*
X115900200Y-95567500D02*
X115600480Y-95966280D01*
X115600480Y-95966280D02*
X115100100Y-96367600D01*
X115100100Y-96367600D02*
X114500660Y-96568260D01*
X114500660Y-96568260D02*
X114000280Y-96568260D01*
X114000280Y-96568260D02*
X113499900Y-96367600D01*
X113499900Y-96367600D02*
X112900460Y-95867220D01*
X112900460Y-95867220D02*
X112600740Y-95366840D01*
X112600740Y-95366840D02*
X112499140Y-94866460D01*
X112499140Y-94767400D02*
X112499140Y-88165940D01*
X112499140Y-88165940D02*
X112600740Y-87767160D01*
X112600740Y-87767160D02*
X112900460Y-87266780D01*
X112900460Y-87266780D02*
X113400840Y-86766400D01*
X111970820Y-94757240D02*
X112019080Y-95216980D01*
X112019080Y-95216980D02*
X112130840Y-95615760D01*
X112130840Y-95615760D02*
X112349280Y-96047560D01*
X112349280Y-96047560D02*
X112580420Y-96337120D01*
X112580420Y-96337120D02*
X112930940Y-96667320D01*
X112930940Y-96667320D02*
X113469420Y-96956880D01*
X113469420Y-96956880D02*
X114068860Y-97086420D01*
X114068860Y-97086420D02*
X114579400Y-97086420D01*
X114579400Y-97086420D02*
X115280440Y-96916240D01*
X115280440Y-96916240D02*
X115869720Y-96517460D01*
X115869720Y-96517460D02*
X116240560Y-96057720D01*
X116240560Y-96057720D02*
X116448840Y-95636080D01*
X116448840Y-95636080D02*
X116608860Y-95186500D01*
X116608860Y-95186500D02*
X116639340Y-94747080D01*
X116420900Y-87406480D02*
X116199920Y-87028020D01*
X116199920Y-87028020D02*
X115920520Y-86707980D01*
X115920520Y-86707980D02*
X115590320Y-86456520D01*
X115590320Y-86456520D02*
X115039140Y-86156800D01*
X115039140Y-86156800D02*
X114569240Y-86047580D01*
X114569240Y-86047580D02*
X114109500Y-86027260D01*
X114109500Y-86027260D02*
X113649760Y-86116160D01*
X113649760Y-86116160D02*
X113200180Y-86306660D01*
X113200180Y-86306660D02*
X112730280Y-86667340D01*
X112730280Y-86667340D02*
X112410240Y-87017860D01*
X112410240Y-87017860D02*
X112179100Y-87406480D01*
X112179100Y-87406480D02*
X112039400Y-87835740D01*
X112039400Y-87835740D02*
X111970820Y-88277700D01*
X116629180Y-94767400D02*
X116629180Y-88315800D01*
X116629180Y-88315800D02*
X116591080Y-87896700D01*
X116591080Y-87896700D02*
X116420900Y-87406480D01*
X111970820Y-94767400D02*
X111970820Y-88315800D01*
X141839990Y-100485695D02*
G75*
G03X142543000Y-99998000I-996990J2187695D01*
G01*
X141839990Y-96110305D02*
G75*
G02X142543000Y-96598000I-996990J-2187695D01*
G01*
X142543000Y-99998000D02*
X142543000Y-96598000D01*
X139849873Y-100482879D02*
G75*
G02X138443000Y-98298000I993127J2184879D01*
G01*
X139849873Y-96113121D02*
G75*
G03X138443000Y-98298000I993127J-2184879D01*
G01*
X103505000Y-71854060D02*
X103505000Y-70853300D01*
X106004360Y-74254360D02*
G75*
G03X106004360Y-74254360I-2499360J0D01*
G01*
X82704940Y-74930000D02*
X83705700Y-74930000D01*
X82804000Y-74930000D02*
G75*
G03X82804000Y-74930000I-2499360J0D01*
G01*
X65405000Y-99341940D02*
X65405000Y-100342700D01*
X67904360Y-96941640D02*
G75*
G03X67904360Y-96941640I-2499360J0D01*
G01*
X58420000Y-71854060D02*
X58420000Y-70853300D01*
X60919360Y-74254360D02*
G75*
G03X60919360Y-74254360I-2499360J0D01*
G01*
X61595000Y-71854060D02*
X61595000Y-70853300D01*
X64094360Y-74254360D02*
G75*
G03X64094360Y-74254360I-2499360J0D01*
G01*
X151765000Y-71854060D02*
X151765000Y-70853300D01*
X154264360Y-74254360D02*
G75*
G03X154264360Y-74254360I-2499360J0D01*
G01*
X127662940Y-74930000D02*
X128663700Y-74930000D01*
X127762000Y-74930000D02*
G75*
G03X127762000Y-74930000I-2499360J0D01*
G01*
X60452000Y-99341940D02*
X60452000Y-100342700D01*
X62951360Y-96941640D02*
G75*
G03X62951360Y-96941640I-2499360J0D01*
G01*
X106680000Y-71854060D02*
X106680000Y-70853300D01*
X109179360Y-74254360D02*
G75*
G03X109179360Y-74254360I-2499360J0D01*
G01*
X148590000Y-71854060D02*
X148590000Y-70853300D01*
X151089360Y-74254360D02*
G75*
G03X151089360Y-74254360I-2499360J0D01*
G01*
X164782500Y-103306880D02*
X164782500Y-94305120D01*
X168282620Y-103306880D02*
X168282620Y-94305120D01*
X168282620Y-94305120D02*
X153781760Y-94305120D01*
X153781760Y-94305120D02*
X153781760Y-103306880D01*
X153781760Y-103306880D02*
X168282620Y-103306880D01*
X166370000Y-68199000D02*
X161290000Y-68199000D01*
X161290000Y-68199000D02*
X161290000Y-70739000D01*
X161290000Y-70739000D02*
X166370000Y-70739000D01*
X169190000Y-71019000D02*
X167640000Y-71019000D01*
X166370000Y-70739000D02*
X166370000Y-68199000D01*
X167640000Y-67919000D02*
X169190000Y-67919000D01*
X169190000Y-67919000D02*
X169190000Y-71019000D01*
X151384000Y-99822000D02*
X144087000Y-99822000D01*
X144087000Y-99822000D02*
X144087000Y-97252000D01*
X149987000Y-95522000D02*
X145487000Y-95522000D01*
X151384000Y-99822000D02*
X151384000Y-97252000D01*
X33782000Y-67945000D02*
X41079000Y-67945000D01*
X41079000Y-67945000D02*
X41079000Y-70515000D01*
X35179000Y-72245000D02*
X39679000Y-72245000D01*
X33782000Y-67945000D02*
X33782000Y-70515000D01*
X23495000Y-67945000D02*
X30792000Y-67945000D01*
X30792000Y-67945000D02*
X30792000Y-70515000D01*
X24892000Y-72245000D02*
X29392000Y-72245000D01*
X23495000Y-67945000D02*
X23495000Y-70515000D01*
X79883000Y-70739000D02*
G75*
G03X79883000Y-70739000I-2286000J0D01*
G01*
X134874000Y-70612000D02*
G75*
G03X134874000Y-70612000I-2286000J0D01*
G01*
X168783000Y-91313000D02*
G75*
G03X168783000Y-91313000I-2286000J0D01*
G01*
X27686000Y-100584000D02*
G75*
G03X27686000Y-100584000I-2286000J0D01*
G01*
X115542060Y-101092000D02*
X114541300Y-101092000D01*
X120441720Y-101092000D02*
G75*
G03X120441720Y-101092000I-2499360J0D01*
G01*
X135656000Y-101215000D02*
X135656000Y-98215000D01*
X138156000Y-98215000D02*
X138156000Y-101215000D01*
X90193905Y-96845381D02*
X90193905Y-95845381D01*
X90574858Y-95845381D01*
X90670096Y-95893000D01*
X90717715Y-95940619D01*
X90765334Y-96035857D01*
X90765334Y-96178714D01*
X90717715Y-96273952D01*
X90670096Y-96321571D01*
X90574858Y-96369190D01*
X90193905Y-96369190D01*
X91717715Y-96845381D02*
X91146286Y-96845381D01*
X91432000Y-96845381D02*
X91432000Y-95845381D01*
X91336762Y-95988238D01*
X91241524Y-96083476D01*
X91146286Y-96131095D01*
X42775143Y-99480666D02*
X42822762Y-99528285D01*
X42870381Y-99671142D01*
X42870381Y-99766380D01*
X42822762Y-99909238D01*
X42727524Y-100004476D01*
X42632286Y-100052095D01*
X42441810Y-100099714D01*
X42298952Y-100099714D01*
X42108476Y-100052095D01*
X42013238Y-100004476D01*
X41918000Y-99909238D01*
X41870381Y-99766380D01*
X41870381Y-99671142D01*
X41918000Y-99528285D01*
X41965619Y-99480666D01*
X42870381Y-98528285D02*
X42870381Y-99099714D01*
X42870381Y-98814000D02*
X41870381Y-98814000D01*
X42013238Y-98909238D01*
X42108476Y-99004476D01*
X42156095Y-99099714D01*
X113264334Y-101409143D02*
X113216715Y-101456762D01*
X113073858Y-101504381D01*
X112978620Y-101504381D01*
X112835762Y-101456762D01*
X112740524Y-101361524D01*
X112692905Y-101266286D01*
X112645286Y-101075810D01*
X112645286Y-100932952D01*
X112692905Y-100742476D01*
X112740524Y-100647238D01*
X112835762Y-100552000D01*
X112978620Y-100504381D01*
X113073858Y-100504381D01*
X113216715Y-100552000D01*
X113264334Y-100599619D01*
X113645286Y-100599619D02*
X113692905Y-100552000D01*
X113788143Y-100504381D01*
X114026239Y-100504381D01*
X114121477Y-100552000D01*
X114169096Y-100599619D01*
X114216715Y-100694857D01*
X114216715Y-100790095D01*
X114169096Y-100932952D01*
X113597667Y-101504381D01*
X114216715Y-101504381D01*
X117689334Y-101449143D02*
X117641715Y-101496762D01*
X117498858Y-101544381D01*
X117403620Y-101544381D01*
X117260762Y-101496762D01*
X117165524Y-101401524D01*
X117117905Y-101306286D01*
X117070286Y-101115810D01*
X117070286Y-100972952D01*
X117117905Y-100782476D01*
X117165524Y-100687238D01*
X117260762Y-100592000D01*
X117403620Y-100544381D01*
X117498858Y-100544381D01*
X117641715Y-100592000D01*
X117689334Y-100639619D01*
X118022667Y-100544381D02*
X118641715Y-100544381D01*
X118308381Y-100925333D01*
X118451239Y-100925333D01*
X118546477Y-100972952D01*
X118594096Y-101020571D01*
X118641715Y-101115810D01*
X118641715Y-101353905D01*
X118594096Y-101449143D01*
X118546477Y-101496762D01*
X118451239Y-101544381D01*
X118165524Y-101544381D01*
X118070286Y-101496762D01*
X118022667Y-101449143D01*
X98893334Y-91162143D02*
X98845715Y-91209762D01*
X98702858Y-91257381D01*
X98607620Y-91257381D01*
X98464762Y-91209762D01*
X98369524Y-91114524D01*
X98321905Y-91019286D01*
X98274286Y-90828810D01*
X98274286Y-90685952D01*
X98321905Y-90495476D01*
X98369524Y-90400238D01*
X98464762Y-90305000D01*
X98607620Y-90257381D01*
X98702858Y-90257381D01*
X98845715Y-90305000D01*
X98893334Y-90352619D01*
X99750477Y-90590714D02*
X99750477Y-91257381D01*
X99512381Y-90209762D02*
X99274286Y-90924048D01*
X99893334Y-90924048D01*
X51054095Y-94702381D02*
X51054095Y-95511905D01*
X51101714Y-95607143D01*
X51149333Y-95654762D01*
X51244571Y-95702381D01*
X51435048Y-95702381D01*
X51530286Y-95654762D01*
X51577905Y-95607143D01*
X51625524Y-95511905D01*
X51625524Y-94702381D01*
X52625524Y-95702381D02*
X52054095Y-95702381D01*
X52339809Y-95702381D02*
X52339809Y-94702381D01*
X52244571Y-94845238D01*
X52149333Y-94940476D01*
X52054095Y-94988095D01*
X88890381Y-94741905D02*
X89699905Y-94741905D01*
X89795143Y-94694286D01*
X89842762Y-94646667D01*
X89890381Y-94551429D01*
X89890381Y-94360952D01*
X89842762Y-94265714D01*
X89795143Y-94218095D01*
X89699905Y-94170476D01*
X88890381Y-94170476D01*
X88985619Y-93741905D02*
X88938000Y-93694286D01*
X88890381Y-93599048D01*
X88890381Y-93360952D01*
X88938000Y-93265714D01*
X88985619Y-93218095D01*
X89080857Y-93170476D01*
X89176095Y-93170476D01*
X89318952Y-93218095D01*
X89890381Y-93789524D01*
X89890381Y-93170476D01*
X135372381Y-94741905D02*
X136181905Y-94741905D01*
X136277143Y-94694286D01*
X136324762Y-94646667D01*
X136372381Y-94551429D01*
X136372381Y-94360952D01*
X136324762Y-94265714D01*
X136277143Y-94218095D01*
X136181905Y-94170476D01*
X135372381Y-94170476D01*
X135372381Y-93789524D02*
X135372381Y-93170476D01*
X135753333Y-93503810D01*
X135753333Y-93360952D01*
X135800952Y-93265714D01*
X135848571Y-93218095D01*
X135943810Y-93170476D01*
X136181905Y-93170476D01*
X136277143Y-93218095D01*
X136324762Y-93265714D01*
X136372381Y-93360952D01*
X136372381Y-93646667D01*
X136324762Y-93741905D01*
X136277143Y-93789524D01*
X105068810Y-100282381D02*
X105068810Y-99282381D01*
X106116429Y-100187143D02*
X106068810Y-100234762D01*
X105925953Y-100282381D01*
X105830715Y-100282381D01*
X105687857Y-100234762D01*
X105592619Y-100139524D01*
X105545000Y-100044286D01*
X105497381Y-99853810D01*
X105497381Y-99710952D01*
X105545000Y-99520476D01*
X105592619Y-99425238D01*
X105687857Y-99330000D01*
X105830715Y-99282381D01*
X105925953Y-99282381D01*
X106068810Y-99330000D01*
X106116429Y-99377619D01*
X107068810Y-100282381D02*
X106497381Y-100282381D01*
X106783095Y-100282381D02*
X106783095Y-99282381D01*
X106687857Y-99425238D01*
X106592619Y-99520476D01*
X106497381Y-99568095D01*
D16*
X49832381Y-80584524D02*
X49832381Y-79314524D01*
X50558095Y-80584524D01*
X50558095Y-79314524D01*
X51828095Y-80584524D02*
X51102381Y-80584524D01*
X51465238Y-80584524D02*
X51465238Y-79314524D01*
X51344286Y-79495952D01*
X51223333Y-79616905D01*
X51102381Y-79677381D01*
X68247381Y-80584524D02*
X68247381Y-79314524D01*
X68973095Y-80584524D01*
X68973095Y-79314524D01*
X69517381Y-79435476D02*
X69577857Y-79375000D01*
X69698809Y-79314524D01*
X70001190Y-79314524D01*
X70122143Y-79375000D01*
X70182619Y-79435476D01*
X70243095Y-79556429D01*
X70243095Y-79677381D01*
X70182619Y-79858810D01*
X69456905Y-80584524D01*
X70243095Y-80584524D01*
X94917381Y-80584524D02*
X94917381Y-79314524D01*
X95643095Y-80584524D01*
X95643095Y-79314524D01*
X96126905Y-79314524D02*
X96913095Y-79314524D01*
X96489762Y-79798333D01*
X96671190Y-79798333D01*
X96792143Y-79858810D01*
X96852619Y-79919286D01*
X96913095Y-80040238D01*
X96913095Y-80342619D01*
X96852619Y-80463571D01*
X96792143Y-80524048D01*
X96671190Y-80584524D01*
X96308333Y-80584524D01*
X96187381Y-80524048D01*
X96126905Y-80463571D01*
X113332381Y-80584524D02*
X113332381Y-79314524D01*
X114058095Y-80584524D01*
X114058095Y-79314524D01*
X115267619Y-79314524D02*
X114662857Y-79314524D01*
X114602381Y-79919286D01*
X114662857Y-79858810D01*
X114783809Y-79798333D01*
X115086190Y-79798333D01*
X115207143Y-79858810D01*
X115267619Y-79919286D01*
X115328095Y-80040238D01*
X115328095Y-80342619D01*
X115267619Y-80463571D01*
X115207143Y-80524048D01*
X115086190Y-80584524D01*
X114783809Y-80584524D01*
X114662857Y-80524048D01*
X114602381Y-80463571D01*
X140002381Y-80584524D02*
X140002381Y-79314524D01*
X140728095Y-80584524D01*
X140728095Y-79314524D01*
X141877143Y-79314524D02*
X141635238Y-79314524D01*
X141514286Y-79375000D01*
X141453809Y-79435476D01*
X141332857Y-79616905D01*
X141272381Y-79858810D01*
X141272381Y-80342619D01*
X141332857Y-80463571D01*
X141393333Y-80524048D01*
X141514286Y-80584524D01*
X141756190Y-80584524D01*
X141877143Y-80524048D01*
X141937619Y-80463571D01*
X141998095Y-80342619D01*
X141998095Y-80040238D01*
X141937619Y-79919286D01*
X141877143Y-79858810D01*
X141756190Y-79798333D01*
X141514286Y-79798333D01*
X141393333Y-79858810D01*
X141332857Y-79919286D01*
X141272381Y-80040238D01*
X158417381Y-80584524D02*
X158417381Y-79314524D01*
X159143095Y-80584524D01*
X159143095Y-79314524D01*
X159626905Y-79314524D02*
X160473571Y-79314524D01*
X159929286Y-80584524D01*
D13*
X45013571Y-90066714D02*
X45061190Y-89923857D01*
X45108810Y-89876238D01*
X45204048Y-89828619D01*
X45346905Y-89828619D01*
X45442143Y-89876238D01*
X45489762Y-89923857D01*
X45537381Y-90019095D01*
X45537381Y-90400048D01*
X44537381Y-90400048D01*
X44537381Y-90066714D01*
X44585000Y-89971476D01*
X44632619Y-89923857D01*
X44727857Y-89876238D01*
X44823095Y-89876238D01*
X44918333Y-89923857D01*
X44965952Y-89971476D01*
X45013571Y-90066714D01*
X45013571Y-90400048D01*
X44537381Y-89542905D02*
X44537381Y-88971476D01*
X45537381Y-89257191D02*
X44537381Y-89257191D01*
X45537381Y-88114333D02*
X45537381Y-88685762D01*
X45537381Y-88400048D02*
X44537381Y-88400048D01*
X44680238Y-88495286D01*
X44775476Y-88590524D01*
X44823095Y-88685762D01*
X110466190Y-92043191D02*
X110942381Y-92043191D01*
X109942381Y-92376524D02*
X110466190Y-92043191D01*
X109942381Y-91709857D01*
X110942381Y-90852714D02*
X110942381Y-91424143D01*
X110942381Y-91138429D02*
X109942381Y-91138429D01*
X110085238Y-91233667D01*
X110180476Y-91328905D01*
X110228095Y-91424143D01*
X136295381Y-101599905D02*
X137104905Y-101599905D01*
X137200143Y-101552286D01*
X137247762Y-101504667D01*
X137295381Y-101409429D01*
X137295381Y-101218952D01*
X137247762Y-101123714D01*
X137200143Y-101076095D01*
X137104905Y-101028476D01*
X136295381Y-101028476D01*
X136628714Y-100123714D02*
X137295381Y-100123714D01*
X136247762Y-100361810D02*
X136962048Y-100599905D01*
X136962048Y-99980857D01*
X100657921Y-69221646D02*
X100181730Y-69554980D01*
X100657921Y-69793075D02*
X99657921Y-69793075D01*
X99657921Y-69412122D01*
X99705540Y-69316884D01*
X99753159Y-69269265D01*
X99848397Y-69221646D01*
X99991254Y-69221646D01*
X100086492Y-69269265D01*
X100134111Y-69316884D01*
X100181730Y-69412122D01*
X100181730Y-69793075D01*
X100657921Y-68269265D02*
X100657921Y-68840694D01*
X100657921Y-68554980D02*
X99657921Y-68554980D01*
X99800778Y-68650218D01*
X99896016Y-68745456D01*
X99943635Y-68840694D01*
X86066334Y-77414381D02*
X85733000Y-76938190D01*
X85494905Y-77414381D02*
X85494905Y-76414381D01*
X85875858Y-76414381D01*
X85971096Y-76462000D01*
X86018715Y-76509619D01*
X86066334Y-76604857D01*
X86066334Y-76747714D01*
X86018715Y-76842952D01*
X85971096Y-76890571D01*
X85875858Y-76938190D01*
X85494905Y-76938190D01*
X86447286Y-76509619D02*
X86494905Y-76462000D01*
X86590143Y-76414381D01*
X86828239Y-76414381D01*
X86923477Y-76462000D01*
X86971096Y-76509619D01*
X87018715Y-76604857D01*
X87018715Y-76700095D01*
X86971096Y-76842952D01*
X86399667Y-77414381D01*
X87018715Y-77414381D01*
X67762381Y-99353666D02*
X67286190Y-99687000D01*
X67762381Y-99925095D02*
X66762381Y-99925095D01*
X66762381Y-99544142D01*
X66810000Y-99448904D01*
X66857619Y-99401285D01*
X66952857Y-99353666D01*
X67095714Y-99353666D01*
X67190952Y-99401285D01*
X67238571Y-99448904D01*
X67286190Y-99544142D01*
X67286190Y-99925095D01*
X66762381Y-99020333D02*
X66762381Y-98401285D01*
X67143333Y-98734619D01*
X67143333Y-98591761D01*
X67190952Y-98496523D01*
X67238571Y-98448904D01*
X67333810Y-98401285D01*
X67571905Y-98401285D01*
X67667143Y-98448904D01*
X67714762Y-98496523D01*
X67762381Y-98591761D01*
X67762381Y-98877476D01*
X67714762Y-98972714D01*
X67667143Y-99020333D01*
X55572921Y-69221646D02*
X55096730Y-69554980D01*
X55572921Y-69793075D02*
X54572921Y-69793075D01*
X54572921Y-69412122D01*
X54620540Y-69316884D01*
X54668159Y-69269265D01*
X54763397Y-69221646D01*
X54906254Y-69221646D01*
X55001492Y-69269265D01*
X55049111Y-69316884D01*
X55096730Y-69412122D01*
X55096730Y-69793075D01*
X54906254Y-68364503D02*
X55572921Y-68364503D01*
X54525302Y-68602599D02*
X55239588Y-68840694D01*
X55239588Y-68221646D01*
X58747921Y-69221646D02*
X58271730Y-69554980D01*
X58747921Y-69793075D02*
X57747921Y-69793075D01*
X57747921Y-69412122D01*
X57795540Y-69316884D01*
X57843159Y-69269265D01*
X57938397Y-69221646D01*
X58081254Y-69221646D01*
X58176492Y-69269265D01*
X58224111Y-69316884D01*
X58271730Y-69412122D01*
X58271730Y-69793075D01*
X57747921Y-68316884D02*
X57747921Y-68793075D01*
X58224111Y-68840694D01*
X58176492Y-68793075D01*
X58128873Y-68697837D01*
X58128873Y-68459741D01*
X58176492Y-68364503D01*
X58224111Y-68316884D01*
X58319350Y-68269265D01*
X58557445Y-68269265D01*
X58652683Y-68316884D01*
X58700302Y-68364503D01*
X58747921Y-68459741D01*
X58747921Y-68697837D01*
X58700302Y-68793075D01*
X58652683Y-68840694D01*
X148917921Y-69221646D02*
X148441730Y-69554980D01*
X148917921Y-69793075D02*
X147917921Y-69793075D01*
X147917921Y-69412122D01*
X147965540Y-69316884D01*
X148013159Y-69269265D01*
X148108397Y-69221646D01*
X148251254Y-69221646D01*
X148346492Y-69269265D01*
X148394111Y-69316884D01*
X148441730Y-69412122D01*
X148441730Y-69793075D01*
X147917921Y-68364503D02*
X147917921Y-68554980D01*
X147965540Y-68650218D01*
X148013159Y-68697837D01*
X148156016Y-68793075D01*
X148346492Y-68840694D01*
X148727445Y-68840694D01*
X148822683Y-68793075D01*
X148870302Y-68745456D01*
X148917921Y-68650218D01*
X148917921Y-68459741D01*
X148870302Y-68364503D01*
X148822683Y-68316884D01*
X148727445Y-68269265D01*
X148489350Y-68269265D01*
X148394111Y-68316884D01*
X148346492Y-68364503D01*
X148298873Y-68459741D01*
X148298873Y-68650218D01*
X148346492Y-68745456D01*
X148394111Y-68793075D01*
X148489350Y-68840694D01*
X131151334Y-77922381D02*
X130818000Y-77446190D01*
X130579905Y-77922381D02*
X130579905Y-76922381D01*
X130960858Y-76922381D01*
X131056096Y-76970000D01*
X131103715Y-77017619D01*
X131151334Y-77112857D01*
X131151334Y-77255714D01*
X131103715Y-77350952D01*
X131056096Y-77398571D01*
X130960858Y-77446190D01*
X130579905Y-77446190D01*
X131484667Y-76922381D02*
X132151334Y-76922381D01*
X131722762Y-77922381D01*
X62428381Y-99734666D02*
X61952190Y-100068000D01*
X62428381Y-100306095D02*
X61428381Y-100306095D01*
X61428381Y-99925142D01*
X61476000Y-99829904D01*
X61523619Y-99782285D01*
X61618857Y-99734666D01*
X61761714Y-99734666D01*
X61856952Y-99782285D01*
X61904571Y-99829904D01*
X61952190Y-99925142D01*
X61952190Y-100306095D01*
X61856952Y-99163238D02*
X61809333Y-99258476D01*
X61761714Y-99306095D01*
X61666476Y-99353714D01*
X61618857Y-99353714D01*
X61523619Y-99306095D01*
X61476000Y-99258476D01*
X61428381Y-99163238D01*
X61428381Y-98972761D01*
X61476000Y-98877523D01*
X61523619Y-98829904D01*
X61618857Y-98782285D01*
X61666476Y-98782285D01*
X61761714Y-98829904D01*
X61809333Y-98877523D01*
X61856952Y-98972761D01*
X61856952Y-99163238D01*
X61904571Y-99258476D01*
X61952190Y-99306095D01*
X62047429Y-99353714D01*
X62237905Y-99353714D01*
X62333143Y-99306095D01*
X62380762Y-99258476D01*
X62428381Y-99163238D01*
X62428381Y-98972761D01*
X62380762Y-98877523D01*
X62333143Y-98829904D01*
X62237905Y-98782285D01*
X62047429Y-98782285D01*
X61952190Y-98829904D01*
X61904571Y-98877523D01*
X61856952Y-98972761D01*
X103832921Y-69221646D02*
X103356730Y-69554980D01*
X103832921Y-69793075D02*
X102832921Y-69793075D01*
X102832921Y-69412122D01*
X102880540Y-69316884D01*
X102928159Y-69269265D01*
X103023397Y-69221646D01*
X103166254Y-69221646D01*
X103261492Y-69269265D01*
X103309111Y-69316884D01*
X103356730Y-69412122D01*
X103356730Y-69793075D01*
X103832921Y-68745456D02*
X103832921Y-68554980D01*
X103785302Y-68459741D01*
X103737683Y-68412122D01*
X103594826Y-68316884D01*
X103404350Y-68269265D01*
X103023397Y-68269265D01*
X102928159Y-68316884D01*
X102880540Y-68364503D01*
X102832921Y-68459741D01*
X102832921Y-68650218D01*
X102880540Y-68745456D01*
X102928159Y-68793075D01*
X103023397Y-68840694D01*
X103261492Y-68840694D01*
X103356730Y-68793075D01*
X103404350Y-68745456D01*
X103451969Y-68650218D01*
X103451969Y-68459741D01*
X103404350Y-68364503D01*
X103356730Y-68316884D01*
X103261492Y-68269265D01*
X145742921Y-69697837D02*
X145266730Y-70031171D01*
X145742921Y-70269266D02*
X144742921Y-70269266D01*
X144742921Y-69888313D01*
X144790540Y-69793075D01*
X144838159Y-69745456D01*
X144933397Y-69697837D01*
X145076254Y-69697837D01*
X145171492Y-69745456D01*
X145219111Y-69793075D01*
X145266730Y-69888313D01*
X145266730Y-70269266D01*
X145742921Y-68745456D02*
X145742921Y-69316885D01*
X145742921Y-69031171D02*
X144742921Y-69031171D01*
X144885778Y-69126409D01*
X144981016Y-69221647D01*
X145028635Y-69316885D01*
X144742921Y-68126409D02*
X144742921Y-68031170D01*
X144790540Y-67935932D01*
X144838159Y-67888313D01*
X144933397Y-67840694D01*
X145123873Y-67793075D01*
X145361969Y-67793075D01*
X145552445Y-67840694D01*
X145647683Y-67888313D01*
X145695302Y-67935932D01*
X145742921Y-68031170D01*
X145742921Y-68126409D01*
X145695302Y-68221647D01*
X145647683Y-68269266D01*
X145552445Y-68316885D01*
X145361969Y-68364504D01*
X145123873Y-68364504D01*
X144933397Y-68316885D01*
X144838159Y-68269266D01*
X144790540Y-68221647D01*
X144742921Y-68126409D01*
X166774905Y-72588381D02*
X166774905Y-71588381D01*
X167155858Y-71588381D01*
X167251096Y-71636000D01*
X167298715Y-71683619D01*
X167346334Y-71778857D01*
X167346334Y-71921714D01*
X167298715Y-72016952D01*
X167251096Y-72064571D01*
X167155858Y-72112190D01*
X166774905Y-72112190D01*
X167727286Y-71683619D02*
X167774905Y-71636000D01*
X167870143Y-71588381D01*
X168108239Y-71588381D01*
X168203477Y-71636000D01*
X168251096Y-71683619D01*
X168298715Y-71778857D01*
X168298715Y-71874095D01*
X168251096Y-72016952D01*
X167679667Y-72588381D01*
X168298715Y-72588381D01*
X143192667Y-102512762D02*
X143335524Y-102560381D01*
X143573620Y-102560381D01*
X143668858Y-102512762D01*
X143716477Y-102465143D01*
X143764096Y-102369905D01*
X143764096Y-102274667D01*
X143716477Y-102179429D01*
X143668858Y-102131810D01*
X143573620Y-102084190D01*
X143383143Y-102036571D01*
X143287905Y-101988952D01*
X143240286Y-101941333D01*
X143192667Y-101846095D01*
X143192667Y-101750857D01*
X143240286Y-101655619D01*
X143287905Y-101608000D01*
X143383143Y-101560381D01*
X143621239Y-101560381D01*
X143764096Y-101608000D01*
X144097429Y-101560381D02*
X144335524Y-102560381D01*
X144526001Y-101846095D01*
X144716477Y-102560381D01*
X144954572Y-101560381D01*
X145859334Y-102560381D02*
X145287905Y-102560381D01*
X145573619Y-102560381D02*
X145573619Y-101560381D01*
X145478381Y-101703238D01*
X145383143Y-101798476D01*
X145287905Y-101846095D01*
X36345667Y-74269762D02*
X36488524Y-74317381D01*
X36726620Y-74317381D01*
X36821858Y-74269762D01*
X36869477Y-74222143D01*
X36917096Y-74126905D01*
X36917096Y-74031667D01*
X36869477Y-73936429D01*
X36821858Y-73888810D01*
X36726620Y-73841190D01*
X36536143Y-73793571D01*
X36440905Y-73745952D01*
X36393286Y-73698333D01*
X36345667Y-73603095D01*
X36345667Y-73507857D01*
X36393286Y-73412619D01*
X36440905Y-73365000D01*
X36536143Y-73317381D01*
X36774239Y-73317381D01*
X36917096Y-73365000D01*
X37250429Y-73317381D02*
X37488524Y-74317381D01*
X37679001Y-73603095D01*
X37869477Y-74317381D01*
X38107572Y-73317381D01*
X38440905Y-73412619D02*
X38488524Y-73365000D01*
X38583762Y-73317381D01*
X38821858Y-73317381D01*
X38917096Y-73365000D01*
X38964715Y-73412619D01*
X39012334Y-73507857D01*
X39012334Y-73603095D01*
X38964715Y-73745952D01*
X38393286Y-74317381D01*
X39012334Y-74317381D01*
X26058667Y-74269762D02*
X26201524Y-74317381D01*
X26439620Y-74317381D01*
X26534858Y-74269762D01*
X26582477Y-74222143D01*
X26630096Y-74126905D01*
X26630096Y-74031667D01*
X26582477Y-73936429D01*
X26534858Y-73888810D01*
X26439620Y-73841190D01*
X26249143Y-73793571D01*
X26153905Y-73745952D01*
X26106286Y-73698333D01*
X26058667Y-73603095D01*
X26058667Y-73507857D01*
X26106286Y-73412619D01*
X26153905Y-73365000D01*
X26249143Y-73317381D01*
X26487239Y-73317381D01*
X26630096Y-73365000D01*
X26963429Y-73317381D02*
X27201524Y-74317381D01*
X27392001Y-73603095D01*
X27582477Y-74317381D01*
X27820572Y-73317381D01*
X28106286Y-73317381D02*
X28725334Y-73317381D01*
X28392000Y-73698333D01*
X28534858Y-73698333D01*
X28630096Y-73745952D01*
X28677715Y-73793571D01*
X28725334Y-73888810D01*
X28725334Y-74126905D01*
X28677715Y-74222143D01*
X28630096Y-74269762D01*
X28534858Y-74317381D01*
X28249143Y-74317381D01*
X28153905Y-74269762D01*
X28106286Y-74222143D01*
X120261143Y-101417381D02*
X119927809Y-100941190D01*
X119689714Y-101417381D02*
X119689714Y-100417381D01*
X120070667Y-100417381D01*
X120165905Y-100465000D01*
X120213524Y-100512619D01*
X120261143Y-100607857D01*
X120261143Y-100750714D01*
X120213524Y-100845952D01*
X120165905Y-100893571D01*
X120070667Y-100941190D01*
X119689714Y-100941190D01*
X121213524Y-101417381D02*
X120642095Y-101417381D01*
X120927809Y-101417381D02*
X120927809Y-100417381D01*
X120832571Y-100560238D01*
X120737333Y-100655476D01*
X120642095Y-100703095D01*
X122165905Y-101417381D02*
X121594476Y-101417381D01*
X121880190Y-101417381D02*
X121880190Y-100417381D01*
X121784952Y-100560238D01*
X121689714Y-100655476D01*
X121594476Y-100703095D01*
X134763143Y-99881666D02*
X134810762Y-99929285D01*
X134858381Y-100072142D01*
X134858381Y-100167380D01*
X134810762Y-100310238D01*
X134715524Y-100405476D01*
X134620286Y-100453095D01*
X134429810Y-100500714D01*
X134286952Y-100500714D01*
X134096476Y-100453095D01*
X134001238Y-100405476D01*
X133906000Y-100310238D01*
X133858381Y-100167380D01*
X133858381Y-100072142D01*
X133906000Y-99929285D01*
X133953619Y-99881666D01*
X133858381Y-98976904D02*
X133858381Y-99453095D01*
X134334571Y-99500714D01*
X134286952Y-99453095D01*
X134239333Y-99357857D01*
X134239333Y-99119761D01*
X134286952Y-99024523D01*
X134334571Y-98976904D01*
X134429810Y-98929285D01*
X134667905Y-98929285D01*
X134763143Y-98976904D01*
X134810762Y-99024523D01*
X134858381Y-99119761D01*
X134858381Y-99357857D01*
X134810762Y-99453095D01*
X134763143Y-99500714D01*
M02*
