M48
INCH,TZ
T1C0.016
T2C0.024
T3C0.031
T4C0.032
T5C0.033
T6C0.039
T7C0.039
T8C0.040
T9C0.051
T10C0.118
T11C0.120
%
G90
G05
T1
X21150Y-35400
X30650Y-39900
X31250Y-39900
X31900Y-39900
X32200Y-38700
X32500Y-39900
X33150Y-38800
X33450Y-39900
X33750Y-37950
X33800Y-38600
X40950Y-35800
X41900Y-34500
X41900Y-39150
X42200Y-34250
X42200Y-39750
X42550Y-34500
X42550Y-38200
X42793Y-37157
X42850Y-34250
X42850Y-39150
X43400Y-40150
X43950Y-37850
X49550Y-39800
X50200Y-39850
X50500Y-38750
X51450Y-39850
X51750Y-40150
X52000Y-37950
X52100Y-39850
T2
X31875Y-31500
X33125Y-31500
X49625Y-31500
X50875Y-31500
T3
X17650Y-39000
X38150Y-35750
X45150Y-38800
X45900Y-38800
X53900Y-39750
X55450Y-37700
X55450Y-38700
X55450Y-39700
T4
X17650Y-39984
X37166Y-35750
X44166Y-38800
X45000Y-35089
X45000Y-37011
X46884Y-38800
X53900Y-38766
T5
X17581Y-30457
X17722Y-31614
X17995Y-29366
X18384Y-32574
X18868Y-28593
X19417Y-33116
X20000Y-28314
X20583Y-33116
X21132Y-28593
X21616Y-32574
X22005Y-29366
X22278Y-31614
X22419Y-30457
X24831Y-30457
X24972Y-31614
X25245Y-29366
X25634Y-32574
X26118Y-28593
X26667Y-33116
X27250Y-28314
X27833Y-33116
X28382Y-28593
X28866Y-32574
X29255Y-29366
X29528Y-31614
X29669Y-30457
X35331Y-30457
X35472Y-31614
X35745Y-29366
X36134Y-32574
X36618Y-28593
X37167Y-33116
X37750Y-28314
X38333Y-33116
X38882Y-28593
X39366Y-32574
X39755Y-29366
X40028Y-31614
X40169Y-30457
X42581Y-30457
X42722Y-31614
X42995Y-29366
X43384Y-32574
X43868Y-28593
X44417Y-33116
X45000Y-28314
X45583Y-33116
X46132Y-28593
X46616Y-32574
X47005Y-29366
X47278Y-31614
X47419Y-30457
X53081Y-30457
X53222Y-31614
X53495Y-29366
X53884Y-32574
X54368Y-28593
X54917Y-33116
X55500Y-28314
X56083Y-33116
X56632Y-28593
X57116Y-32574
X57505Y-29366
X57778Y-31614
X57919Y-30457
X60331Y-30457
X60472Y-31614
X60745Y-29366
X61134Y-32574
X61618Y-28593
X62167Y-33116
X62750Y-28314
X63333Y-33116
X63882Y-28593
X64366Y-32574
X64755Y-29366
X65028Y-31614
X65169Y-30457
T6
X9800Y-27250
X11572Y-27250
X13850Y-27250
X15622Y-27250
X57278Y-38800
X59050Y-38800
T7
X23000Y-27265
X23000Y-29234
X23800Y-38166
X23800Y-40135
X24250Y-27265
X24250Y-29234
X25750Y-38166
X25750Y-40135
X31616Y-29500
X33585Y-29500
X40750Y-27265
X40750Y-29234
X42000Y-27265
X42000Y-29234
X44465Y-39800
X46434Y-39800
X49316Y-29500
X51285Y-29500
X58500Y-27265
X58500Y-29234
X59750Y-27265
X59750Y-29234
T8
X36900Y-37400
X36900Y-38400
X37900Y-37400
X37900Y-38400
X38900Y-37400
X38900Y-38400
X64000Y-27350
X65000Y-27350
X66000Y-27350
T9
X9308Y-28230
X12068Y-28230
X13358Y-28230
X16118Y-28230
X56782Y-37820
X59542Y-37820
T10
X60859Y-38900
X62040Y-37050
X63221Y-38900
T11
X10000Y-39600
X30550Y-27850
X52200Y-27800
X65550Y-35950
T0
M30
