G04 #@! TF.FileFunction,Soldermask,Top*
%FSLAX46Y46*%
G04 Gerber Fmt 4.6, Leading zero omitted, Abs format (unit mm)*
G04 Created by KiCad (PCBNEW 4.0.0-rc1-stable) date 11/15/2015 9:58:47 PM*
%MOMM*%
G01*
G04 APERTURE LIST*
%ADD10C,0.100000*%
%ADD11R,2.127200X2.127200*%
%ADD12O,2.127200X2.127200*%
%ADD13R,1.700000X1.700000*%
%ADD14C,1.700000*%
%ADD15R,1.035000X2.305000*%
%ADD16R,0.960000X2.000000*%
%ADD17R,2.000000X0.960000*%
%ADD18R,1.600000X1.000000*%
%ADD19R,1.000000X1.600000*%
%ADD20C,1.507440*%
%ADD21R,5.480000X2.940000*%
%ADD22C,18.180000*%
%ADD23C,1.901140*%
%ADD24C,1.924000*%
%ADD25C,2.398980*%
%ADD26R,3.900120X3.900120*%
%ADD27R,2.127200X2.432000*%
%ADD28O,2.127200X2.432000*%
%ADD29C,2.500000*%
%ADD30C,2.150000*%
%ADD31C,4.464000*%
G04 APERTURE END LIST*
D10*
D11*
X98806000Y-94996000D03*
D12*
X98806000Y-97536000D03*
X96266000Y-94996000D03*
X96266000Y-97536000D03*
X93726000Y-94996000D03*
X93726000Y-97536000D03*
D13*
X44831000Y-99060000D03*
D14*
X44831000Y-101560000D03*
D13*
X114681000Y-98552000D03*
D14*
X112181000Y-98552000D03*
D13*
X116586000Y-98552000D03*
D14*
X119086000Y-98552000D03*
D13*
X96901000Y-90805000D03*
D14*
X94401000Y-90805000D03*
D15*
X56261000Y-91694000D03*
X54991000Y-91694000D03*
X53721000Y-91694000D03*
X52451000Y-91694000D03*
X51181000Y-91694000D03*
X49911000Y-91694000D03*
X48641000Y-91694000D03*
X47371000Y-91694000D03*
X47371000Y-101854000D03*
X48641000Y-101854000D03*
X49911000Y-101854000D03*
X51181000Y-101854000D03*
X52451000Y-101854000D03*
X53721000Y-101854000D03*
X54991000Y-101854000D03*
X56261000Y-101854000D03*
D16*
X85788000Y-88130000D03*
X84988000Y-88130000D03*
X84188000Y-88130000D03*
X83388000Y-88130000D03*
X82588000Y-88130000D03*
X81788000Y-88130000D03*
X80988000Y-88130000D03*
X80188000Y-88130000D03*
X79388000Y-88130000D03*
X78588000Y-88130000D03*
X77788000Y-88130000D03*
D17*
X75938000Y-89980000D03*
X75938000Y-90780000D03*
X75938000Y-91580000D03*
X75938000Y-92380000D03*
X75938000Y-93180000D03*
X75938000Y-93980000D03*
X75938000Y-94780000D03*
X75938000Y-95580000D03*
X75938000Y-96380000D03*
X75938000Y-97180000D03*
X75938000Y-97980000D03*
D16*
X77788000Y-99830000D03*
X78588000Y-99830000D03*
X79388000Y-99830000D03*
X80188000Y-99830000D03*
X80988000Y-99830000D03*
X81788000Y-99830000D03*
X82588000Y-99830000D03*
X83388000Y-99830000D03*
X84188000Y-99830000D03*
X84988000Y-99830000D03*
X85788000Y-99830000D03*
D17*
X87638000Y-97980000D03*
X87638000Y-97180000D03*
X87638000Y-96380000D03*
X87638000Y-95580000D03*
X87638000Y-94780000D03*
X87638000Y-93980000D03*
X87638000Y-93180000D03*
X87638000Y-92380000D03*
X87638000Y-91580000D03*
X87638000Y-90780000D03*
X87638000Y-89980000D03*
D16*
X132270000Y-88130000D03*
X131470000Y-88130000D03*
X130670000Y-88130000D03*
X129870000Y-88130000D03*
X129070000Y-88130000D03*
X128270000Y-88130000D03*
X127470000Y-88130000D03*
X126670000Y-88130000D03*
X125870000Y-88130000D03*
X125070000Y-88130000D03*
X124270000Y-88130000D03*
D17*
X122420000Y-89980000D03*
X122420000Y-90780000D03*
X122420000Y-91580000D03*
X122420000Y-92380000D03*
X122420000Y-93180000D03*
X122420000Y-93980000D03*
X122420000Y-94780000D03*
X122420000Y-95580000D03*
X122420000Y-96380000D03*
X122420000Y-97180000D03*
X122420000Y-97980000D03*
D16*
X124270000Y-99830000D03*
X125070000Y-99830000D03*
X125870000Y-99830000D03*
X126670000Y-99830000D03*
X127470000Y-99830000D03*
X128270000Y-99830000D03*
X129070000Y-99830000D03*
X129870000Y-99830000D03*
X130670000Y-99830000D03*
X131470000Y-99830000D03*
X132270000Y-99830000D03*
D17*
X134120000Y-97980000D03*
X134120000Y-97180000D03*
X134120000Y-96380000D03*
X134120000Y-95580000D03*
X134120000Y-94780000D03*
X134120000Y-93980000D03*
X134120000Y-93180000D03*
X134120000Y-92380000D03*
X134120000Y-91580000D03*
X134120000Y-90780000D03*
X134120000Y-89980000D03*
D18*
X110295000Y-96780000D03*
X110295000Y-95980000D03*
X110295000Y-95180000D03*
X110295000Y-94380000D03*
X110295000Y-93580000D03*
X110295000Y-92780000D03*
X110295000Y-91980000D03*
X110295000Y-91180000D03*
D19*
X108845000Y-89730000D03*
X108045000Y-89730000D03*
X107245000Y-89730000D03*
X106445000Y-89730000D03*
X105645000Y-89730000D03*
X104845000Y-89730000D03*
X104045000Y-89730000D03*
X103245000Y-89730000D03*
D18*
X101795000Y-91180000D03*
X101795000Y-91980000D03*
X101795000Y-92780000D03*
X101795000Y-93580000D03*
X101795000Y-94380000D03*
X101795000Y-95180000D03*
X101795000Y-95980000D03*
X101795000Y-96780000D03*
D19*
X103245000Y-98230000D03*
X104045000Y-98230000D03*
X104845000Y-98230000D03*
X105645000Y-98230000D03*
X106445000Y-98230000D03*
X107245000Y-98230000D03*
X108045000Y-98230000D03*
X108845000Y-98230000D03*
D20*
X84137500Y-80010000D03*
X80962500Y-80010000D03*
X129222500Y-80010000D03*
X126047500Y-80010000D03*
D21*
X33655000Y-77851000D03*
D22*
X33655000Y-89281000D03*
D21*
X33655000Y-100711000D03*
D23*
X114300000Y-94007940D03*
X114300000Y-89126060D03*
D24*
X140843000Y-98298000D03*
X140843000Y-95758000D03*
X140843000Y-100838000D03*
D25*
X103505000Y-74254360D03*
X103505000Y-69253100D03*
X80304640Y-74930000D03*
X85305900Y-74930000D03*
X65405000Y-96941640D03*
X65405000Y-101942900D03*
X58420000Y-74254360D03*
X58420000Y-69253100D03*
X61595000Y-74254360D03*
X61595000Y-69253100D03*
X151765000Y-74254360D03*
X151765000Y-69253100D03*
X125262640Y-74930000D03*
X130263900Y-74930000D03*
X60452000Y-96941640D03*
X60452000Y-101942900D03*
X106680000Y-74254360D03*
X106680000Y-69253100D03*
X148590000Y-74254360D03*
X148590000Y-69253100D03*
D26*
X154581860Y-98806000D03*
X160581340Y-98806000D03*
X157581600Y-94107000D03*
D27*
X167640000Y-69469000D03*
D28*
X165100000Y-69469000D03*
X162560000Y-69469000D03*
D29*
X144227000Y-96062000D03*
D30*
X145487000Y-98552000D03*
X149987000Y-98552000D03*
D29*
X151237000Y-96062000D03*
X40939000Y-71705000D03*
D30*
X39679000Y-69215000D03*
X35179000Y-69215000D03*
D29*
X33929000Y-71705000D03*
X30652000Y-71705000D03*
D30*
X29392000Y-69215000D03*
X24892000Y-69215000D03*
D29*
X23642000Y-71705000D03*
D31*
X77597000Y-70739000D03*
X132588000Y-70612000D03*
X166497000Y-91313000D03*
X25400000Y-100584000D03*
D25*
X117942360Y-101092000D03*
X112941100Y-101092000D03*
D13*
X136906000Y-100965000D03*
D14*
X136906000Y-98465000D03*
M02*
